<?xml version="1.0" encoding="utf-8"?>
<!-- Generator: Adobe Illustrator 25.2.0, SVG Export Plug-In . SVG Version: 6.00 Build 0)  -->
<svg version="1.1" id="Layer_1" xmlns="http://www.w3.org/2000/svg" xmlns:xlink="http://www.w3.org/1999/xlink" x="0px" y="0px"
	 viewBox="0 0 24 24" style="enable-background:new 0 0 24 24;" xml:space="preserve">
<style type="text/css">
	.st0{fill:#FFFFFF;}
</style>
<g>
	<path class="st0" d="M24,1.7v20.5c0,1-0.8,1.7-1.7,1.7H1.7C0.8,24,0,23.2,0,22.3V1.7C0,0.8,0.8,0,1.7,0h20.6C23.2,0,24,0.8,24,1.7z
		 M7.5,5.5c0-1.1-0.9-2.1-2.1-2.1c-1.1,0-2.1,0.9-2.1,2.1s0.9,2.1,2.1,2.1S7.5,6.6,7.5,5.5z M7.3,20.6V9.1H3.7v11.5H7.3L7.3,20.6z
		 M20.6,14.3c0-3.1-0.7-5.5-4.3-5.5c-1.7,0-2.9,0.9-3.4,1.8l0,0V9.1H9.5v11.5H13v-5.7c0-1.5,0.3-2.9,2.1-2.9s1.8,1.7,1.8,3v5.6h3.6
		L20.6,14.3L20.6,14.3z"/>
</g>
</svg>
