<?xml version="1.0" encoding="utf-8"?>
<!-- Generator: Adobe Illustrator 23.0.4, SVG Export Plug-In . SVG Version: 6.00 Build 0)  -->
<svg version="1.1" id="Layer_1" xmlns="http://www.w3.org/2000/svg" xmlns:xlink="http://www.w3.org/1999/xlink" x="0px" y="0px"
	 viewBox="0 0 299.5 85" style="enable-background:new 0 0 299.5 85;" xml:space="preserve">
<style type="text/css">
	.st0{fill:#40B8A2;}
	.st1{fill:#006087;}
	.st2{fill:#FF8F00;}
	.st3{fill:#FE2B09;}
	.st4{fill:#B4002D;}
	.st5{fill:#EF172F;}
	.st6{fill:#FFFFFF;}
</style>
<g transform="translate(247.974 263.219)">
	<g id="Group_64">
		<g id="Group_59" transform="translate(119.673)">
			<g id="Group_52" transform="translate(0.201 42.422)">
				<g id="Group_50" transform="translate(36.901)">
					<path id="Path_67" class="st0" d="M-253.9-263.9c0.5,0,1,0.1,1.5,0.4l33,19.2c0.9,0.5,1.2,1.7,0.7,2.6
						c-0.2,0.3-0.4,0.5-0.7,0.7l-32.8,18.9c-0.5,0.3-1.1,0.4-1.7,0.4"/>
				</g>
				<g id="Group_51" transform="translate(0 0.001)">
					<path id="Path_68" class="st1" d="M-217-263.9c-0.5,0-0.9,0.1-1.3,0.4l-33.3,19.3c-0.8,0.5-1.1,1.5-0.6,2.4
						c0.2,0.3,0.4,0.5,0.6,0.6l33,19.1c0.5,0.3,1,0.4,1.6,0.4"/>
				</g>
			</g>
			<g id="Group_53" transform="translate(55.293 21.033)">
				<path id="Path_69" class="st2" d="M-236.8-263c0.3,0.5,0.5,1.1,0.5,1.6v26.7c0,1-0.8,1.7-1.7,1.7c-0.5,0-1-0.2-1.4-0.7
					l-15.2-19.2"/>
			</g>
			<g id="Group_54" transform="translate(33.064)">
				<path id="Path_70" class="st3" d="M-214.6-242c-0.3-0.4-0.6-0.7-1-1l-32.5-18.8c-0.9-0.6-2.1-0.6-3,0l-1.7,1
					c-0.8,0.5-1.1,1.6-0.7,2.4c0,0.1,0.1,0.1,0.1,0.2l21,26.4"/>
			</g>
			<g id="Group_55" transform="translate(0.429 10.133)">
				<path id="Path_71" class="st4" d="M-242.8-246.6l9-13.5c0.5-0.7,0.3-1.7-0.4-2.2c-0.5-0.3-1.1-0.4-1.7-0.1l-15.4,8.9
					c-0.5,0.3-0.9,0.7-1.2,1.2"/>
			</g>
			<g id="Group_56" transform="translate(0 20.909)">
				<path id="Path_72" class="st5" d="M-252-263c-0.3,0.5-0.4,1-0.4,1.6v14.1c0,0.8,0.7,1.5,1.5,1.5c0.5,0,1-0.3,1.3-0.7l7.3-10.9"
					/>
			</g>
			<g id="Group_57" transform="translate(0.401 30.337)">
				<path id="Path_73" class="st5" d="M-236.9-263.4l-15.3,21.2c-0.5,0.7-0.3,1.6,0.4,2.1c0.5,0.3,1.1,0.3,1.6,0l25-16.5"/>
			</g>
			<g id="Group_58" transform="translate(16.598 13.362)">
				<path id="Path_74" class="st4" d="M-241.3-239.6l6.4-4.2c1.1-0.6,1.5-1.9,1.1-3.1l-5.2-14.8c-0.3-0.8-1.2-1.2-2-1
					c-0.3,0.1-0.6,0.3-0.8,0.6l-11.3,15.6"/>
			</g>
		</g>
		<g id="Group_63" transform="translate(0 17.493)">
			<g id="Group_61">
				<g id="Group_60" transform="translate(37.989 0.128)">
					<path id="Path_75" class="st6" d="M-220-218c-0.4,0.1-1,0.2-1.9,0.3c-0.9,0.1-1.9,0.2-3.1,0.3c-1.2,0.1-2.5,0.2-4,0.3
						c-1.5,0.1-3,0.1-4.6,0.1c-2.6,0.1-5.2-0.2-7.8-0.8c-1.7-0.4-3.3-1.2-4.8-2.2c-1.1-0.8-1.9-1.9-2.4-3.2
						c-0.4-1.2-0.6-2.4-0.6-3.7c0-1.5,0.2-3,0.8-4.4c0.5-1.3,1.4-2.4,2.5-3.2c1.4-0.9,2.9-1.6,4.6-1.9c2.3-0.5,4.5-0.7,6.8-0.6
						c1.5,0,3,0.1,4.4,0.2c1.4,0.1,2.4,0.2,3.1,0.3c0-1.2-0.2-2.4-0.7-3.5c-0.4-0.9-1.1-1.7-1.9-2.2c-0.9-0.6-1.9-0.9-2.9-1.1
						c-1.3-0.2-2.5-0.3-3.8-0.3c-1.9-0.1-3.8,0.2-5.6,0.8c-1,0.3-1.9,0.8-2.8,1.3c-0.4-0.4-0.7-0.7-1-1.2c-0.4-0.6-0.7-1.3-0.6-2.1
						c0-0.6,0.2-1.2,0.5-1.7c0.4-0.6,1-1.1,1.6-1.5c1-0.5,2-0.8,3.1-1c1.6-0.3,3.3-0.4,4.9-0.4c2.2,0,4.4,0.2,6.6,0.7
						c1.8,0.4,3.6,1.2,5.1,2.2c1.4,1,2.6,2.4,3.3,4c0.8,1.9,1.2,4,1.2,6L-220-218z M-226.9-231.6c-0.4-0.1-1.2-0.2-2.3-0.4
						c-1.7-0.2-3.4-0.3-5-0.2c-2.8,0-4.8,0.4-6,1.2c-1.3,0.9-2,2.4-1.9,3.9c0,0.7,0.1,1.4,0.4,2c0.3,0.6,0.8,1.2,1.4,1.6
						c0.8,0.5,1.7,0.8,2.7,1c1.4,0.2,2.8,0.4,4.2,0.3c1.5,0,3-0.1,4.5-0.2c1.1-0.1,1.8-0.3,2.2-0.3L-226.9-231.6z"/>
					<path id="Path_76" class="st6" d="M-214.9-259.6c-0.1-0.9,0.3-1.8,1-2.4c0.8-0.6,1.8-0.9,2.7-0.8c0.7,0,1.4,0.1,2,0.3
						c0.6,0.2,1,0.3,1.2,0.4v25c0.5-0.4,1.3-0.9,2.2-1.6c1-0.7,2-1.5,3.2-2.3c1.2-0.9,2.4-1.7,3.7-2.7c1.3-0.9,2.5-1.8,3.6-2.6
						c0.8-0.6,1.6-1.1,2.4-1.5c0.9-0.4,1.9-0.6,2.9-0.5c1,0,2,0.3,2.8,0.9c0.6,0.4,1.1,0.9,1.5,1.5c-0.9,0.8-15.2,11.1-15.8,11.6
						l17.1,16.7l-9.7,0c0,0-13.9-13.8-13.9-13.8v13.8h-7L-214.9-259.6z"/>
				</g>
				<path id="Path_77" class="st6" d="M-215.8-239.7c-0.8-1.9-1.9-3.7-3.3-5.1c-1.4-1.4-3.1-2.6-4.9-3.4c-2-0.8-4.1-1.2-6.2-1.2
					c-2.1,0-4.3,0.4-6.2,1.4c-1.6,0.8-3.1,1.9-4.2,3.3v-17.5c-0.2-0.1-0.6-0.2-1.2-0.4c-0.7-0.2-1.3-0.3-2-0.3c-1-0.1-2,0.2-2.7,0.8
					c-0.7,0.6-1.1,1.5-1,2.4v42c0.2,0.1,0.6,0.2,1.2,0.4c0.7,0.2,1.3,0.3,2,0.3c1,0.1,2-0.2,2.7-0.8c0.5-0.4,0.9-1.1,0.9-1.8
					c0.9,0.6,1.9,1.1,3,1.5c2.1,0.8,4.4,1.1,6.6,1.1c2.3,0,4.5-0.4,6.6-1.2c1.9-0.8,3.7-1.9,5.2-3.4c1.5-1.5,2.7-3.2,3.4-5.1
					c0.8-2.1,1.2-4.3,1.2-6.5C-214.6-235.4-215-237.6-215.8-239.7z M-231.3-223.3c-5.8,0-9.5-4.5-9.5-10s3.9-9.9,9.5-9.9
					c5.2,0,9.5,3.8,9.5,9.9C-221.9-227.1-226.1-223.3-231.3-223.3z"/>
			</g>
			<g id="Group_62" transform="translate(209.42 14.06)">
				<path id="Path_78" class="st6" d="M-229.5-262.6c-1-0.1-1.9,0.2-2.7,0.8c-0.7,0.6-1.1,1.5-1,2.5v13.5c0,2.8-0.7,4.9-2,6.3
					c-1.3,1.4-3.3,2.2-6,2.2c-2.7,0-4.7-0.7-6-2.2c-1.3-1.4-2-3.6-2-6.3v-16.1c-0.2-0.1-0.6-0.2-1.2-0.4c-0.7-0.2-1.3-0.3-2-0.3
					c-1-0.1-1.9,0.2-2.7,0.8c-0.7,0.6-1.1,1.5-1,2.5v15c0,1.9,0.3,3.8,1.1,5.6c0.7,1.6,1.7,3,3.1,4.2c1.4,1.2,3,2.1,4.7,2.6
					c3.9,1.2,8.2,1.2,12.1,0c1.7-0.5,3.3-1.4,4.7-2.6c1.3-1.1,2.4-2.6,3.1-4.2c0.7-1.8,1.1-3.7,1.1-5.6v-17.6
					c-0.2-0.1-0.6-0.2-1.2-0.4C-228-262.5-228.7-262.6-229.5-262.6z"/>
				<path id="Path_79" class="st6" d="M-194.3-247.3c-2.3-1.6-5.1-2.5-7.9-2.8l-6.2-0.8c-1.3-0.1-2.7-0.5-3.8-1.1
					c-0.9-0.5-1.4-1.4-1.3-2.4c0-2.5,2.4-3.7,7.1-3.7c1.5,0,3,0.1,4.5,0.4c1.1,0.2,2.3,0.5,3.4,0.9c0.8,0.3,1.5,0.6,2.2,1
					c0.4,0.2,0.7,0.5,1.1,0.8c0.2-0.1,0.4-0.2,0.6-0.3c0.3-0.2,0.5-0.4,0.7-0.7c0.2-0.3,0.4-0.6,0.6-1c0.2-0.4,0.3-0.8,0.3-1.3
					c0-1.5-1.2-2.7-3.5-3.7c-2.3-0.9-5.6-1.4-9.9-1.4c-2.2,0-4.3,0.2-6.4,0.8c-1.6,0.4-3,1.1-4.3,2.1c-1,0.8-1.9,1.9-2.4,3.1
					c-0.5,1.2-0.8,2.4-0.8,3.7c0,1.3,0.2,2.7,0.8,3.9c0.5,1.1,1.3,2,2.3,2.7c1.1,0.8,2.3,1.4,3.5,1.7c1.5,0.4,3,0.7,4.5,0.9l4.8,0.5
					c1.6,0.1,3.2,0.5,4.6,1.2c0.9,0.6,1.3,1.6,1.3,2.6c0,1.3-0.8,2.4-2,2.8c-1.7,0.6-3.4,0.9-5.2,0.8c-1.5,0-3-0.1-4.5-0.4
					c-1.3-0.2-2.5-0.5-3.7-0.9c-0.9-0.3-1.8-0.6-2.7-1c-0.5-0.2-1-0.5-1.5-0.8l0,0c-0.2,0.1-0.4,0.2-0.6,0.3
					c-0.3,0.2-0.5,0.4-0.7,0.7c-0.2,0.3-0.4,0.6-0.6,1c-0.2,0.4-0.3,0.8-0.3,1.3c0,1.5,1.2,2.7,3.5,3.7c2,0.8,6.1,1.5,11.5,1.5
					c4.1,0,8.1-0.9,10.5-2.7c2.4-1.7,3.7-4.4,3.6-7.3C-191.4-243.5-192.4-245.9-194.3-247.3z"/>
				<path id="Path_80" class="st6" d="M-159.4-256.5c-0.7-1.6-1.9-3-3.3-4c-1.5-1.1-3.3-1.8-5.1-2.2c-2.2-0.5-4.4-0.7-6.6-0.7
					c-1.7,0-3.3,0.1-4.9,0.4c-1.1,0.2-2.1,0.5-3.1,1c-0.7,0.3-1.2,0.8-1.6,1.5c-0.3,0.5-0.5,1.1-0.5,1.7c0,0.7,0.2,1.5,0.6,2.1
					c0.3,0.4,0.6,0.8,1,1.2c0.9-0.6,1.8-1,2.8-1.3c1.8-0.6,3.7-0.9,5.6-0.8c1.3,0,2.5,0.1,3.8,0.3c1,0.2,2,0.5,2.9,1.1
					c0.8,0.5,1.5,1.3,1.9,2.2c0.5,1.1,0.7,2.3,0.7,3.5c-0.7-0.1-1.7-0.2-3.1-0.3c-1.4-0.1-2.9-0.2-4.4-0.2c-2.3,0-4.6,0.2-6.8,0.6
					c-1.6,0.3-3.2,1-4.6,1.9c-1.1,0.8-2,1.9-2.5,3.2c-0.5,1.4-0.8,2.9-0.8,4.4c0,1.3,0.2,2.5,0.6,3.7c0.5,1.3,1.3,2.4,2.4,3.2
					c1.4,1,3,1.8,4.8,2.2c2.5,0.6,5.2,0.9,7.8,0.8c1.6,0,3.1,0,4.6-0.1c1.5-0.1,2.8-0.2,4-0.3c1.2-0.1,2.2-0.2,3.1-0.3
					c0.9-0.1,1.5-0.2,1.9-0.3l0,0v-18.4C-158.2-252.5-158.6-254.6-159.4-256.5z M-165.1-236.7c-0.4,0.1-1.1,0.2-2.2,0.3
					c-1.5,0.2-3,0.2-4.5,0.2c-1.4,0-2.8-0.1-4.2-0.3c-0.9-0.2-1.8-0.5-2.7-1c-0.6-0.4-1.1-0.9-1.4-1.6c-0.3-0.6-0.4-1.3-0.4-2
					c-0.1-1.6,0.6-3.1,1.9-3.9c1.3-0.8,3.3-1.2,6-1.2c1.7,0,3.4,0.1,5,0.2c1.1,0.2,1.9,0.3,2.3,0.4L-165.1-236.7z"/>
			</g>
		</g>
	</g>
</g>
</svg>
