<svg xmlns="http://www.w3.org/2000/svg" viewBox="0 0 680.61 100.05"><defs><style>.cls-1{isolation:isolate;}.cls-2{fill:#f92100;}.cls-3,.cls-4{fill:#1622ff;}.cls-3,.cls-6{mix-blend-mode:multiply;}.cls-5{fill:#fff;}</style></defs><g class="cls-1"><g id="Layer_2" data-name="Layer 2"><g id="Layer_1-2" data-name="Layer 1"><path d="M221.86,65.87c0,3.2-4.49,4.13-10.75,4.13s-10.39-1-10.39-4.06c0-1.7,1.14-2.34,2.49-2.84.93-.57.93-2.49.93-4.56V51.36c0-7-1.28-9.68-4.63-9.68-3,0-5.4,2.35-5.48,9.82v7c0,2.57,0,3.85,1,4.56,1.28.57,2.49,1.14,2.49,2.84,0,3.13-4.2,4.06-10.46,4.06s-10.39-1-10.39-4.06c0-1.7,1.14-2.34,2.49-2.84.93-.57.93-2.49.93-4.56V51.36c0-7-1.21-9.68-4.63-9.68-3,0-5.4,2.35-5.47,9.82v7c0,2.57,0,3.85.92,4.56,1.35.57,2.56,1.14,2.56,2.84,0,3.13-4.27,4.06-10.46,4.06-6.4,0-10.74-1-10.74-4.13,0-1.7,1.21-2.42,2.7-2.91.93-.36,1.07-2,1.07-4.42V46.38c0-2.21-.36-4.34-1.28-4.63-1.92-.57-2.85-1.49-2.85-2.84a3.05,3.05,0,0,1,1.78-2.71c3.28-2.13,9.61-3.48,12.38-3.48,3.77,0,3.92,2.34,3.92,6.83v1.14a13.88,13.88,0,0,1,12.8-8.33c5.41,0,9.32,2.85,10.68,8.47a14.58,14.58,0,0,1,13.37-8.47c6.9,0,11.24,4.55,11.24,13.31V58.54c0,2.92.15,4.06,1,4.42C220.72,63.52,221.86,64.17,221.86,65.87Z"/><path d="M264.73,63.31c0,3-3.13,6.62-8.82,6.62a8.86,8.86,0,0,1-8.68-5.48,13.34,13.34,0,0,1-11.53,6c-6.33,0-11.38-3.77-11.38-10.39,0-7.47,6.4-11.6,15.15-11.6a30.27,30.27,0,0,1,7.12.93V45c0-3.63-.22-6.91-3.28-6.91-1.92,0-3.34,1.85-4.84,3.77-1.35,2.07-3.34,4.27-7,4.27-3,0-4.62-1.78-4.62-3.77,0-4.76,10.81-10,20.35-10,8.82,0,13.51,4.41,13.51,12.45v12c0,3.13.5,4.83,3.49,5.62C264.66,62.6,264.73,62.81,264.73,63.31Zm-17.79-6.62v-2.2a6.34,6.34,0,0,0-4-1.35c-3.06,0-4.91,1.92-4.91,5s1.56,4.91,4,4.91S246.94,61.11,246.94,56.69Z"/><path d="M307.85,69.07c0,11.39-15.37,14.66-23.77,14.66-10.74,0-16.72-3.84-16.72-8.32a6.17,6.17,0,0,1,3.92-5.48,7.71,7.71,0,0,1-3.21-6c0-3.34,2.35-6.12,5.77-8-4-2.2-6.33-5.69-6.33-9.89,0-7.75,7.61-13.66,18.92-13.66a23,23,0,0,1,9.68,1.92,21.82,21.82,0,0,0,6-2.49,7.06,7.06,0,0,1,2.91-.92c1.43,0,2.14,1.21,2.14,2.63,0,2.28-1.78,5.62-4.34,7.9a9.42,9.42,0,0,1,.5,3.13c0,7.68-8.05,13.73-19,13.73a26.19,26.19,0,0,1-5.48-.57A3,3,0,0,0,277.68,60c0,1.56,1.78,2.2,4.13,2.2,6.54,0,12.52-1.7,17.22-1.7C303.51,60.54,307.85,63.24,307.85,69.07ZM297,73.34c0-1.21-.92-1.77-2.49-1.77-2.49,0-8.39,1-13.73,1a21.36,21.36,0,0,1-4.48-.43,1.92,1.92,0,0,0-.71,1.71c0,2.06,2.42,4.56,9.32,4.56C291.27,78.4,297,76.12,297,73.34ZM279.89,44c0,3.91,1.77,9.11,6,9.11,3.28,0,5.13-2.49,5.13-6.48,0-3.84-1.85-9-6.05-9C281.74,37.7,279.89,40,279.89,44Z"/><path d="M310.3,65.87c0-1.7,1.21-2.42,2.71-2.91.92-.36,1.06-2.14,1.06-4.42V46.38c0-2.21-.35-4.34-1.28-4.63-1.92-.57-2.84-1.49-2.84-2.84a3.05,3.05,0,0,1,1.78-2.71c3.27-2.13,9.6-3.48,12.38-3.48,3.77,0,4,2.34,4,6.83,0,2.56-.07,5.62-.07,9.18v9.81c0,2.92.14,4.06,1,4.42,1.56.56,2.77,1.21,2.77,2.91,0,3.2-4.55,4.13-10.74,4.13C314.64,70,310.3,69,310.3,65.87Zm2-41.83c0-4.56,5.26-6.19,9.67-6.19,4.63,0,6.83,2.2,6.83,5.33,0,4.34-5.4,6.05-9.67,6.05C314.57,29.23,312.3,27.17,312.3,24Z"/><path d="M334.5,52.14c0-11.45,8.32-19.92,19.49-19.92,9,0,15,5.41,15,11.1a5.49,5.49,0,0,1-5.7,5.83c-3.84,0-5.19-3.27-6.33-6.54-.71-2-1.78-4.63-4.55-4.63-3.35,0-5.13,3.77-5.13,8.47,0,7.26,3.92,12.45,10.18,12.45,3.41,0,5.69-1.57,7.68-3a4.68,4.68,0,0,1,2.64-1.14c1.35,0,2.27.93,2.27,2.92a10.77,10.77,0,0,1-2.84,6.62,19.1,19.1,0,0,1-14.52,6.26C342,70.57,334.5,63,334.5,52.14Z"/><path d="M431.26,50.65c0,11.88-7.32,19.78-17.28,19.78a19.11,19.11,0,0,1-9-2.28v3.7c0,2.77.21,3.91,1.35,4.34,2,.71,3.35,1.35,3.35,3.13,0,3.2-4.91,4.06-11.67,4.06-6.41,0-11-1-11-4.06,0-1.78,1.35-2.49,2.84-3.06,1-.43,1.14-2,1.14-4.41V46.38c0-2.14-.35-4.34-1.28-4.63-1.92-.57-2.84-1.42-2.84-2.84a3,3,0,0,1,1.78-2.71A30.32,30.32,0,0,1,401,32.72c3.7,0,3.91,2.34,3.91,6.83v.57a13.85,13.85,0,0,1,12.45-7.76C425.43,32.36,431.26,39.76,431.26,50.65Zm-14.51,2.49c0-8.11-2.49-11.89-6-11.89-3.34,0-6.19,3.63-6.19,12.53,0,8.18,2.49,11.1,5.91,11.1C414.26,64.88,416.75,61.18,416.75,53.14Z"/><path d="M434,65.87c0-1.7,1.21-2.42,2.7-2.91.93-.36,1.07-2.14,1.07-4.42V46.38c0-2.21-.36-4.34-1.28-4.63-1.92-.57-2.85-1.49-2.85-2.84a3.05,3.05,0,0,1,1.78-2.71c3.27-2.13,9.61-3.48,12.38-3.48,3.77,0,4,2.34,4,6.83,0,2.56-.08,5.62-.08,9.18v9.81c0,2.92.15,4.06,1,4.42,1.57.56,2.77,1.21,2.77,2.91,0,3.2-4.55,4.13-10.74,4.13C438.31,70,434,69,434,65.87ZM436,24c0-4.56,5.26-6.19,9.68-6.19,4.62,0,6.83,2.2,6.83,5.33,0,4.34-5.41,6.05-9.68,6.05C438.24,29.23,436,27.17,436,24Z"/><path d="M493.09,58.05a10.07,10.07,0,0,1-2.42,5.83c-2.77,3.56-8,6.69-15.22,6.69-10.82,0-18.29-7.61-18.29-18.36,0-11.6,8.68-19.85,19.64-19.85,10.31,0,16.08,6.9,16.08,12.81,0,3.56-2.14,5.83-6.05,5.83H469.68c1.07,5,4.63,8,10.11,8a13.49,13.49,0,0,0,8.39-2.84,5,5,0,0,1,2.56-1.07C492.17,55.13,493.09,56.05,493.09,58.05ZM469.33,46.52l7.25-.14c3.63-.15,5.2-1.43,5.2-3.63a4.86,4.86,0,0,0-5.2-4.91C472.46,37.84,469.68,41.4,469.33,46.52Z"/><path d="M510.74,52.14c0-11.45,8.32-19.92,19.5-19.92,9,0,15,5.41,15,11.1a5.49,5.49,0,0,1-5.69,5.83c-3.85,0-5.2-3.27-6.34-6.54-.71-2-1.78-4.63-4.55-4.63-3.34,0-5.12,3.77-5.12,8.47,0,7.26,3.91,12.45,10.17,12.45,3.42,0,5.69-1.57,7.69-3A4.63,4.63,0,0,1,544,54.77c1.35,0,2.28.93,2.28,2.92a10.78,10.78,0,0,1-2.85,6.62A19.06,19.06,0,0,1,529,70.57C518.21,70.57,510.74,63,510.74,52.14Z"/><path d="M549,51.71c0-11.52,9-19.49,22.2-19.49,11.88,0,19.85,7.9,19.85,18.92,0,11.6-9.18,19.43-22.06,19.43C557,70.57,549,62.74,549,51.71Zm28.46,5.91c0-7.33-4.34-19.5-9.82-19.5-2.84,0-5,2.42-5,7.05,0,7.4,4.2,19.49,9.82,19.49C575.42,64.66,577.48,62.1,577.48,57.62Z"/><path d="M636.6,50.65c0,11.88-7.32,19.78-17.29,19.78a19.1,19.1,0,0,1-9-2.28v3.7c0,2.77.21,3.91,1.35,4.34,2,.71,3.34,1.35,3.34,3.13,0,3.2-4.9,4.06-11.66,4.06-6.41,0-11-1-11-4.06,0-1.78,1.35-2.49,2.84-3.06,1-.43,1.14-2,1.14-4.41V46.38c0-2.14-.35-4.34-1.28-4.63-1.92-.57-2.84-1.42-2.84-2.84A3,3,0,0,1,594,36.2a30.4,30.4,0,0,1,12.39-3.48c3.7,0,3.91,2.34,3.91,6.83v.57a13.85,13.85,0,0,1,12.45-7.76C630.77,32.36,636.6,39.76,636.6,50.65Zm-14.51,2.49c0-8.11-2.49-11.89-6-11.89s-6.19,3.63-6.19,12.53c0,8.18,2.49,11.1,5.91,11.1C619.6,64.88,622.09,61.18,622.09,53.14Z"/><path d="M680.61,36.63c0,1.85-1.21,2.63-3.2,3.56s-3,3.13-4.41,6.9c-2.28,6.26-4.06,11-6.76,18.43-3.7,10.31-6.69,18.07-16.15,18.07-5.62,0-10-3.84-10-8a5.37,5.37,0,0,1,5.34-5.69c2.84,0,4.48,1.78,4.83,4.41a17,17,0,0,0,.29,2,1.55,1.55,0,0,0,1.63,1.21c1.64,0,2.64-1.42,3.06-4,.29-2.14-1.28-4.84-3.48-9.47-1.85-3.77-6-12.8-8.4-18.14-2-4.41-2.49-5.26-3.56-5.62-1.63-.57-2.84-1.64-2.84-3.2,0-2.71,3.41-4.41,11.88-4.41,8,0,11.53,1.56,11.53,4.26,0,1.71-1.36,2.57-2.85,3.06-1,.36-.71,2.28-.14,4.27A141,141,0,0,0,663,57.48,84.43,84.43,0,0,0,667.52,44c.5-2.14.43-3.84-.85-4.41C665,38.91,664,38.12,664,36.7c0-2.28,3-4,8.61-4C677.84,32.72,680.61,34.28,680.61,36.63Z"/></g><g id="Layer_4" data-name="Layer 4"><path class="cls-2" d="M107.31,6.78c12.15,9.7,15.9,31.7,10,48.89S95.58,85.26,78.47,92.75s-35.62,10.11-50.69,3.59S1,74.17.48,59.59s10.1-28.28,20.94-37.73S43.1,7.27,58.83,3.44,95.17-2.92,107.31,6.78Z"/><path class="cls-3" d="M4.07,73.15C-3.88,59.8.36,37.88,12,23.88s30.71-20,49.36-21,36.89,3.09,48.71,14.5,17.28,30.19,12.6,44S103.24,84.26,89.77,89.29s-25.42,6-41.49,4.06S12,86.5,4.07,73.15Z"/><path class="cls-2" d="M34.43,61.54a13,13,0,0,1-13.16-13A13.47,13.47,0,0,1,34.43,35c8.48,0,8.48-.19,17-.19s8.49.61,17,.61,8.49,0,17,0A13.37,13.37,0,0,1,98.78,48.51a13.58,13.58,0,0,1-13.43,13.4c-8.49,0-8.49-.23-17-.23s-8.49.31-17,.26S42.92,61.54,34.43,61.54Z"/><path class="cls-4" d="M84.1,36.91c7.28,0,14,5.15,14,12.43s-6.73,12.24-14,12.24c-12.73,0-12.73,1.86-25.46,1.86s-12.73-.21-25.46-.21C25.9,63.23,20,56.63,20,49.34S25.9,35.08,33.18,35.08c12.73,0,12.71,1.84,25.44,2.09S71.37,36.91,84.1,36.91Z"/><path class="cls-5" d="M98.11,49.34c0-7.28-6.73-12.43-14-12.43-12.73,0-12.75.51-25.48.26s-12.71-2.09-25.44-2.09l-.46,0a13.54,13.54,0,0,0-11.45,13.4,13,13,0,0,0,13.16,13c8.49,0,8.49.34,17,.4s8.49-.26,17-.26c4.54,0,6.66.06,8.94.13,1.83-.14,4-.23,6.78-.23C91.38,61.58,98.11,56.63,98.11,49.34Z"/><path class="cls-2" d="M45.31,52.45c-2.93,2.93-5.44,2.9-8.37,0s-3-5.48-.07-8.41,4.71-1.82,8.44,0C49.33,45.92,48.24,49.52,45.31,52.45Z"/><g class="cls-6"><path class="cls-4" d="M40.71,54.74c-4-.19-5.82-2.55-5.63-6.55s2.23-6.62,6.24-6.43,5.22,2.84,6.31,6.7C48.87,52.8,44.72,54.92,40.71,54.74Z"/></g><path class="cls-2" d="M57.34,53.61c-3.46-2.4-3.9-4.82-1.62-8.36s4.76-4,8.1-1.7,2.73,4.34,1.71,8.43C64.47,56.24,60.69,55.93,57.34,53.61Z"/><g class="cls-6"><path class="cls-4" d="M55.28,51.48c-1.9-3.31-1-5.9,2.31-7.8s6.31-1.56,8.21,1.74.42,5.48-2.1,8.33C60.88,57,57.18,54.78,55.28,51.48Z"/></g><path class="cls-2" d="M85.79,49.08c-.57,4.1-2.62,5.6-6.73,5s-5.75-2.58-5.18-6.68,2.71-4.34,6.77-5.16C85,41.38,86.37,45,85.79,49.08Z"/><g class="cls-6"><path class="cls-4" d="M80.94,54.34c-3.9.82-6.28-1.05-7-5s.59-7,4.59-7.85,5.75,1.49,7.71,5C88.48,50.46,84.94,53.5,80.94,54.34Z"/></g></g></g></g></svg>