<svg xmlns="http://www.w3.org/2000/svg" viewBox="0 0 12.24 16.39"><defs><style>.cls-1{fill:#fff;}.cls-2{opacity:0.6;}</style></defs><g id="Layer_2" data-name="Layer 2"><g id="Website"><polygon class="cls-1" points="2.63 14.88 1.1 14.88 1.1 1.07 10.49 1.07 10.49 2.52 9.99 2.52 9.99 1.57 1.6 1.57 1.6 14.38 2.63 14.38 2.63 14.88"/><polygon class="cls-1" points="1.53 13.81 0 13.81 0 0 9.39 0 9.39 1.45 8.89 1.45 8.89 0.5 0.5 0.5 0.5 13.31 1.53 13.31 1.53 13.81"/><path class="cls-1" d="M12.24,16.39H2.35V2.33h9.89Zm-9.39-.5h8.89V2.83H2.85Z"/></g><g id="Blog_Article" data-name="Blog / Article"><rect class="cls-1" x="3.71" y="3.8" width="5.98" height="0.5"/><rect class="cls-1" x="3.71" y="4.8" width="4.64" height="0.5"/><g class="cls-2"><rect class="cls-1" x="3.71" y="5.89" width="5" height="0.5"/></g><g class="cls-2"><rect class="cls-1" x="3.71" y="6.89" width="5.5" height="0.5"/></g><g class="cls-2"><rect class="cls-1" x="3.71" y="8.39" width="5" height="0.5"/></g><g class="cls-2"><rect class="cls-1" x="3.71" y="9.39" width="5.5" height="0.5"/></g><g class="cls-2"><rect class="cls-1" x="3.71" y="10.39" width="5.75" height="0.5"/></g><g class="cls-2"><rect class="cls-1" x="3.71" y="11.39" width="5.5" height="0.5"/></g><g class="cls-2"><rect class="cls-1" x="3.71" y="13.32" width="5" height="0.5"/></g><g class="cls-2"><rect class="cls-1" x="3.71" y="14.32" width="5.5" height="0.5"/></g></g></g></svg>