<svg xmlns="http://www.w3.org/2000/svg" viewBox="0 0 19 15.25"><defs><style>.cls-1{opacity:0.6;}.cls-2{fill:#fff;}</style></defs><g id="Layer_2" data-name="Layer 2"><g id="Blog_Article" data-name="Blog / Article"><g class="cls-1"><rect class="cls-2" x="1.25" y="10.63" width="7.25" height="0.5"/></g><polygon class="cls-2" points="9.51 12.45 0 12.45 0 2.56 9.51 2.56 9.51 3.06 0.5 3.06 0.5 11.95 9.51 11.95 9.51 12.45"/><g class="cls-1"><circle class="cls-2" cx="1.5" cy="3.56" r="0.25"/></g><g class="cls-1"><circle class="cls-2" cx="2.25" cy="3.56" r="0.25"/></g><g class="cls-1"><circle class="cls-2" cx="3" cy="3.56" r="0.25"/></g><rect class="cls-2" x="1.25" y="4.81" width="5" height="0.5"/><rect class="cls-2" x="1.25" y="5.81" width="5.5" height="0.5"/><g class="cls-1"><rect class="cls-2" x="1.25" y="6.81" width="7.34" height="0.5"/></g><g class="cls-1"><rect class="cls-2" x="1.25" y="7.81" width="6.87" height="0.5"/></g><g class="cls-1"><rect class="cls-2" x="1.25" y="9.63" width="7.07" height="0.5"/></g><path class="cls-2" d="M19,15.25H9.25V0H19Zm-9.25-.5H18.5V.5H9.75Z"/><rect class="cls-2" x="10.5" y="2.25" width="5.98" height="0.5"/><rect class="cls-2" x="10.5" y="3.25" width="4.64" height="0.5"/><g class="cls-1"><rect class="cls-2" x="10.5" y="4.34" width="5" height="0.5"/></g><g class="cls-1"><rect class="cls-2" x="10.5" y="5.34" width="5.5" height="0.5"/></g><g class="cls-1"><rect class="cls-2" x="10.5" y="6.34" width="5.75" height="0.5"/></g><g class="cls-1"><rect class="cls-2" x="10.5" y="7.34" width="5.5" height="0.5"/></g><g class="cls-1"><rect class="cls-2" x="10.5" y="11.5" width="5.93" height="0.5"/></g><g class="cls-1"><rect class="cls-2" x="10.5" y="12.5" width="5.5" height="0.5"/></g><g class="cls-1"><rect class="cls-2" x="10.5" y="13.5" width="5.75" height="0.5"/></g><g class="cls-1"><rect class="cls-2" x="13.25" y="8.75" width="3.96" height="0.5"/></g><g class="cls-1"><rect class="cls-2" x="13.25" y="9.75" width="3.06" height="0.5"/></g><path class="cls-2" d="M12.25,9.25v1H11v-1h1.25m.5-.5H10.5v2h2.25v-2Z"/><g class="cls-1"><circle class="cls-2" cx="10.75" cy="1" r="0.25"/></g><g class="cls-1"><circle class="cls-2" cx="11.5" cy="1" r="0.25"/></g><g class="cls-1"><circle class="cls-2" cx="12.25" cy="1" r="0.25"/></g></g></g></svg>