<?xml version="1.0" encoding="utf-8"?>
<!-- Generator: Adobe Illustrator 26.0.3, SVG Export Plug-In . SVG Version: 6.00 Build 0)  -->
<svg version="1.1" id="Layer_1" xmlns="http://www.w3.org/2000/svg" xmlns:xlink="http://www.w3.org/1999/xlink" x="0px" y="0px"
	 viewBox="0 0 700 700" style="enable-background:new 0 0 700 700;" xml:space="preserve">
<style type="text/css">
	.st0{fill:#FFFFFF;}
	.st1{fill:#B4B4B4;}
	.st2{fill:#505050;}
	.st3{fill:url(#SVGID_1_);}
	.st4{fill:url(#SVGID_00000042723848982298474080000016985976311921309374_);}
</style>
<path class="st0" d="M507.3,608.1L185.5,340.6c0.8-0.9,1.5-1.9,2.3-2.9c0.9-1.2,1.9-2.3,2.7-3.5c0.8-1.1,1.5-2.2,2.3-3.3
	c0.8-1.1,1.6-2.3,2.3-3.4c0.7-1.1,1.3-2.2,2-3.4c0.7-1.1,1.4-2.2,2-3.3c0.6-1.1,1.2-2.3,1.8-3.4c0.6-1.1,1.1-2.1,1.7-3.2
	c0.6-1.2,1.1-2.3,1.6-3.5c0.5-1,0.9-2,1.4-3c0.5-1.2,1-2.4,1.5-3.5c0.4-0.9,0.8-1.8,1.1-2.7c0.5-1.2,0.9-2.4,1.4-3.5
	c0.3-0.8,0.6-1.6,0.9-2.4c0.7-1.9,1.4-3.7,2-5.5c0.3-0.9,0.8-2.1,1.2-3.3c1.1-0.3,2.2-0.5,3.2-0.7c19.4-3.5,37.9-10.7,54.6-21.2
	c15.8-11.4,29.2-25.7,39.7-42.1c0.6-0.9,1.4-2,2.3-3.2c1.5,0,2.9,0.1,4,0.1c3.8,0.1,7.9,0.3,12.3,0.3c15.3,0.4,30.6-1.8,45.2-6.6
	c5.3-1.8,10.5-4.1,15.5-6.7c12.3-6.7,23.9-14.9,34.4-24.2c0.7-0.6,1.5-1.3,2.4-2c1.2,0.4,2.4,0.7,3.4,1c3,0.9,6.3,1.9,9.7,2.9
	c0.7,0.2,1.3,0.4,1.9,0.6c1.2,0.3,2.5,0.7,3.8,1c0.9,0.2,1.8,0.5,2.7,0.7c1.2,0.3,2.5,0.6,3.8,0.8c1,0.2,2.1,0.5,3.1,0.7
	c1.2,0.2,2.5,0.4,3.8,0.6c1.2,0.2,2.4,0.4,3.6,0.6c1.2,0.2,2.5,0.3,3.8,0.4c1.3,0.1,2.6,0.3,4,0.4c1.2,0.1,2.5,0.1,3.8,0.2
	c1.4,0.1,2.9,0.2,4.4,0.2c1.2,0,2.5-0.1,3.7-0.1c1.4,0,2.8,0,4.3-0.1L507.3,608.1z"/>
<path class="st1" d="M178.7,323.9c10.9,13.2,13.8,31.7,29.1,24.1c10.2-5.1,23.9-17.6,26.1-27.5c0.6-2.6,2.8-4.5,5.5-4.8
	c12.1-1.3,37.4-15.1,50.9-25.5c10.8-8.3,27.3-25.3,33-39.1c2-4.7,6.9-7.5,12-6.7c14.2,1.8,37.8-2.8,44.3-4.5
	c17-5.2,32.1-15.2,43.5-28.8c4.4-5.2,11.4-7.4,17.9-5.5c11.2,2.9,25.7-0.8,33-2.9c10.5-2.7,18.8-10.6,22.1-20.8
	c3.1-12.2-30.6-23.2-43.2-23.4c-12.6-0.2-24.1,6.7-36.4,9.6c-11.1,2.6-22.8,1.8-34,4c-13,2.6-25,9-37,14.4l-45.1,20.9
	c-22,10.6-44.7,20.2-65.8,32.6c-13.4,7.9-26.1,17-38.8,26c-9,5.4-16.6,12.8-22.2,21.7C168.7,299.7,170.5,313.6,178.7,323.9z"/>
<path class="st1" d="M325.9,429c32.3,26.6,93.4,82.8,126.4,108.5c12.8,10,59.4,44.2,66.3,57.2c6.9,13.1-2.7,15.8-17.1,19.2
	c-81.4-53.2-299.8-245.4-317.3-262c-7.5-7.1-3.9-36.4,1.6-31.9C229.4,356,282.2,393,325.9,429z"/>
<path d="M521.4,50.3c-6-8.7-17.3-11.9-27-7.7c-3.3,1.5-6.5,2.9-9.7,4.4c-1.5,0.7-4.2,1.9-6.5,3c-2.4-0.7-5-1.5-6.9-2.1
	c-17.1-5.2-43-13.1-72.8-7.1c-29.4,6-50,23.2-63.6,34.7c-1.2,1-3.7,3.1-5.8,4.8c-2.5,0-5.4-0.1-7.1-0.2c-17.9-0.6-45-1.5-72.2,12
	c-27,13.2-42.5,35.3-52.8,49.9l-0.6,0.8c-1,1.4-2.4,3.5-3.8,5.3c-2.7,0.7-5.7,1.4-7.3,1.8c-17.3,4-43.5,10-66,29.9
	c-22.7,20.1-32,45.5-38.2,62.4c-0.5,1.3-1.5,4.2-2.5,6.7c-2.3,1.3-4.9,2.7-6.5,3.5c-2.7,1.5-5.7,3.1-8.7,4.8
	c-3.9,2.1-7.2,5.4-9.2,9.3c-4.8,9.4-2.4,20.9,5.9,27.5l81.6,65.1l367.1,283.7c4.2,3.3,9.7,4.2,14.7,2.4c0.6-0.2,1.2-0.5,1.8-0.8
	c5.4-2.7,8.7-8.2,8.6-14.2l-5.8-463.7l-2.8-103.8C525.2,58.3,523.9,54,521.4,50.3z M217.3,288.5c19.6-3.6,38.4-10.9,55.4-21.5
	c16-11.6,29.7-26,40.3-42.7l1.6-2.2l2.9,0.1c3.7,0.1,7.8,0.3,12.1,0.3c15.6,0.4,31.2-1.9,46-6.7c5.4-1.9,10.7-4.2,15.8-6.8
	c12.6-6.9,24.4-15.2,35.1-24.8l1.1-0.9l2.2,0.7c3,0.9,6.3,1.9,9.8,2.9l2,0.6c0.9,0.2,1.9,0.5,2.8,0.7l3.8,1c0.9,0.2,1.9,0.4,2.8,0.6
	l2,0.4c0.7,0.2,1.5,0.3,2.2,0.5c0.9,0.2,1.8,0.3,2.7,0.5l2.1,0.4c0.9,0.2,1.8,0.3,2.7,0.4c0.9,0.1,1.8,0.2,2.7,0.3l2.2,0.2
	c1,0.1,2,0.2,3,0.3c0.9,0.1,1.7,0.1,2.6,0.1l2.3,0.1c1.1,0.1,2.2,0.1,3.4,0.1c0.8,0,1.6,0,2.5,0l2.7-0.1c0.2,0,0.4,0,0.6,0
	l23.5,416.5l-319.3-269l0,0l1.7-2.1c0.7-0.8,1.3-1.6,1.9-2.4c0.6-0.8,1.1-1.6,1.6-2.3l1.4-2.1c0.6-0.8,1.1-1.6,1.6-2.4
	c0.5-0.8,1-1.6,1.5-2.5l1.2-2c0.5-0.8,1-1.6,1.4-2.4c0.5-0.8,0.9-1.7,1.3-2.5l1-2c0.4-0.7,0.8-1.5,1.1-2.2c0.4-0.9,0.8-1.7,1.2-2.6
	l0.9-2c0.3-0.7,0.6-1.3,0.9-2c0.4-0.9,0.8-1.8,1.2-2.7l0.7-1.6c0.3-0.6,0.5-1.3,0.8-1.9c0.5-1.2,0.9-2.4,1.4-3.5l3.7-10.1
	L217.3,288.5z"/>
<path class="st2" d="M301,212.5c-9.1,15.1-22.4,27.2-38.4,34.7c-7,2.9-14.1,5.4-21.4,7.3c0.3,2.5,0.7,4.9,1.2,7.3
	c8.4-1.2,16.6-3.5,24.4-6.9c15.2-7.3,27.3-19.8,34.2-35.2C302.2,217.4,302.3,214.7,301,212.5z"/>
<path class="st2" d="M379.3,203c15.9-5.7,29.2-16.7,37.8-31.3c1.6-2,1.9-4.7,0.9-7.1c-10.6,14.1-25.2,24.6-41.9,30.3
	c-5.9,2.3-31.5,7.3-37.8,6.1C342.2,212.2,372.4,205.5,379.3,203z"/>
<linearGradient id="SVGID_1_" gradientUnits="userSpaceOnUse" x1="757.9898" y1="751.9489" x2="-249.5284" y2="82.8336" gradientTransform="matrix(0.9194 -0.3933 -0.3933 -0.9194 166.5971 811.3748)">
	<stop  offset="0" style="stop-color:#FF1D25"/>
	<stop  offset="0.1702" style="stop-color:#FC4F22"/>
	<stop  offset="0.4147" style="stop-color:#F7931E"/>
	<stop  offset="0.6617" style="stop-color:#F94AB7"/>
	<stop  offset="0.7763" style="stop-color:#FA27FF"/>
	<stop  offset="1" style="stop-color:#4A08FF"/>
</linearGradient>
<path class="st3" d="M411.6,61.1c-11.3,1.1-36.8,11-48.9,17.5c-4.5,2.4-23.2,14.1-39,24.7c-18.1-5.7-53,2.4-65.5,9.3
	c-15.9,8.8-42.3,34.2-37.9,45.5c1.8,4.5,28.7-13.5,45.9-22.5c15.7-8.2,24.4-8.4,40.7-5.6c11.5,2,21.8,26.2,24.9,24.5
	c4.6-1.8,5.4-25.8,3.4-38.1c24.8-16.1,53-26,82.4-29c11.7-1.3,23.1,4.9,28.3,15.5c3.3,8.3,2.6,17.7-2.1,25.3
	c-6.4,8.5-25.6,11-22.1,20c2.7,6.8,48.1,15.1,56.4,11.8c4.8-1.9,1.3-72.2-5.9-86C465.5,61.1,434.5,58.9,411.6,61.1z"/>
<linearGradient id="SVGID_00000122700118020600817780000014970369428528905893_" gradientUnits="userSpaceOnUse" x1="690.2317" y1="853.9755" x2="-317.2865" y2="184.8603" gradientTransform="matrix(0.9194 -0.3933 -0.3933 -0.9194 166.5971 811.3748)">
	<stop  offset="0" style="stop-color:#FF1D25"/>
	<stop  offset="0.1702" style="stop-color:#FC4F22"/>
	<stop  offset="0.4147" style="stop-color:#F7931E"/>
	<stop  offset="0.6617" style="stop-color:#F94AB7"/>
	<stop  offset="0.7763" style="stop-color:#FA27FF"/>
	<stop  offset="1" style="stop-color:#4A08FF"/>
</linearGradient>
<path style="fill:url(#SVGID_00000122700118020600817780000014970369428528905893_);" d="M201.3,179.8c-6.8-0.8-13.6-1.2-20.4-1.1
	c-13,0.3-25.5,5.2-35.2,13.9c-4.2,3.9-41,37.4-29.4,66.9c3.9,9.9,25.5-31.7,42.6-43c18.5-12.2,62.9-20.5,59.3-29.7
	C216.6,182.8,207.5,180.3,201.3,179.8z"/>
<path class="st1" d="M380.3,397.1c8.9,17.8,23,32.5,40.5,42.1c2,1,4.3,0.2,5.3-1.7c0.2-0.4,0.3-0.9,0.4-1.3
	c1.8-19.8-2.5-39.7-12.3-57.1c-8.6-17.1-22-31.4-38.6-41.1c-2.6-1.4-5.9-0.4-7.3,2.2c-0.3,0.6-0.5,1.3-0.6,2
	C366.6,361.3,371,380.4,380.3,397.1z"/>
</svg>
