<?xml version="1.0" encoding="utf-8"?>
<!-- Generator: Adobe Illustrator 25.2.0, SVG Export Plug-In . SVG Version: 6.00 Build 0)  -->
<svg version="1.1" id="Layer_1" xmlns="http://www.w3.org/2000/svg" xmlns:xlink="http://www.w3.org/1999/xlink" x="0px" y="0px"
	 viewBox="0 0 700 700" style="enable-background:new 0 0 700 700;" xml:space="preserve">
<style type="text/css">
	.st0{fill:#F92100;}
	.st1{fill:#1622FF;}
</style>
<g>
	<path class="st0" d="M689.5,504.1c0,11.7-8.1,15.2-12,15.2c-14.9,0-57.1,3.3-104.5,3.3c-47.4,0-85.7-6.6-100.6-6.6
		c-3.9,0-3.2-0.2-3.2-11.9s-2.2-18.4,1.7-19.7c8.7-2.4,11.8,8.8,20.5,6.4c6.5-1.9,8.9-8.2,8.9-14.6c0-63.9,6.6-63.9,6.6-127.8
		c0-60.3-23.5-84.7-67-84.7c-4.5,0-6.9,5.3-10.8,6.6c1.3,7.1,1.4,13.3,1.4,21.7c0,92.1-11.7,92.1-11.7,184.3c0,6.5,8.7,5,15.2,6.9
		c8.7,2.4,8.6,2.8,17.3,5.2c3.9,1.3,4.7,4.1,4.7,15.8s-1.3,7.6-5.1,7.6c-14.9,0-52.6-1.4-99.9-1.4s-85.7,2-100.6,2
		c-3.9,0-4.2,3.6-4.2-8.1s0.2-16.2,4.1-17.5c8.7-2.4,7.2-4.9,16-7.2c6.5-1.9,13.4,3.3,13.4-3.2c0-63.9,5.8-63.9,5.8-127.8
		c0-60.3-24.1-76.6-67.6-76.6c-4.5,0-2.1-4.3-5.4-3.1c-1.6,103.8-15.2,103.7-15.2,207.5c0,6.5,6,13.2,12.5,15.2
		c8.7,2.4,8.9,1.8,17.6,4.2c3.9,1.3,6.5,2,7.8,7.1c1.2,5.2-2.9,8.7-6.8,8.7c-14.9,0-52-3.9-99.4-3.9s-90.2,8.8-105.1,8.8
		c-3.9,0-13.6-0.5-13.6-12.2s8.6-18.9,12.5-19.6c11-2.2,12,2.8,23.1,0.6c6.5-1.3,1.4-2.4,1.4-8.9c0-85.3,13.4-85.3,13.4-170.7
		c0-6.5-7.7-10-14.2-11.3c-11-2-10.7-3.7-21.8-5.7c-3.9-0.6-12.5,2.7-12.5-7.7c0-9.7,8.6-9.1,12.5-10.3c53.2-20.8,102.7-55,154.6-92
		c1.9-1.3,3.6-1.1,5.5-1.1c4.5,0,19.6,4.9,19.6,9.4c0,10.4-5.5,37.1-5.5,76.1c17.5-38.3,59.2-75.3,116.3-75.3
		c54.5,0,94.1,15.6,107,62.4c18.2-37.6,59.7-68,114.9-68c68.1,0,117.2,39.9,117.2,110c0,92.1-11.7,92.1-11.7,184.3
		c0,6.5,5.4,11.2,11.8,12.5c11,2.3,11.4,0.6,22.4,2.8C681.1,492.1,689.5,492.4,689.5,504.1z"/>
	<path class="st1" d="M682.7,508.9c0,11.7-1.3,13.6-5.2,13.6c-14.9,0-57.1-4.5-104.5-4.5c-47.4,0-85.7,4.5-100.6,4.5
		c-3.9,0-5.2-2-5.2-13.6c0-11.7,1.3-13,5.2-14.3l17.5-4.5c6.5-1.9,7.8-2.6,7.8-9.1V353.2c0-60.3-14.3-81.8-57.8-81.8
		c-4.5,0-12.3,0.7-16.2,2c1.3,7.1,2,14.9,2,23.4V481c0,6.5,1.3,7.1,7.8,9.1l17.5,4.5c3.9,1.3,5.2,2.6,5.2,14.3
		c0,11.7-1.3,13.6-5.2,13.6c-14.9,0-52.6-4.5-99.9-4.5s-85.7,4.5-100.6,4.5c-3.9,0-5.2-2-5.2-13.6c0-11.7,1.3-13,5.2-14.3l17.5-4.5
		c6.5-1.9,7.8-2.6,7.8-9.1V353.2c0-60.3-14.3-81.8-57.7-81.8c-4.5,0-11,0.7-14.3,2V481c0,6.5,1.3,7.1,7.8,9.1l17.5,4.5
		c3.9,1.3,5.2,2.6,5.2,14.3c0,11.7-1.3,13.6-5.2,13.6c-14.9,0-52.6-4.5-99.9-4.5s-90.2,4.5-105.1,4.5c-3.9,0-5.2-2-5.2-13.6
		c0-11.7,1.3-13.6,5.2-14.3l22.1-4.5c6.5-1.3,7.8-2.6,7.8-9.1V310.4c0-6.5-1.3-7.1-7.8-8.4l-22.1-3.9c-3.9-0.6-5.2-1.9-5.2-12.3
		c0-9.7,1.3-11,5.2-12.3c53.2-20.8,103.8-52.6,155.7-89.5c1.9-1.3,3.2-2,5.2-2c4.5,0,16.9,5.2,16.9,9.7c0,10.4-2.6,31.8-2.6,70.7
		c17.5-38.3,59-76.6,116.2-76.6c54.5,0,92.8,26.6,105.8,73.3c18.2-37.6,61-73.3,116.2-73.3c68.1,0,110.3,40.9,110.3,111V481
		c0,6.5,1.3,7.8,7.8,9.1l22.1,4.5C681.4,495.3,682.7,497.3,682.7,508.9z"/>
	<path d="M677.5,494.7l-22.1-4.5c-4.4-0.9-6.4-1.7-7.2-4.2c-3.2-2.3-5.3-5.6-5.3-9.7c0-40.4,2.2-63,4.8-83.5v-95.9
		c0-70.1-42.2-111-110.3-111c-55.2,0-98,35.7-116.2,73.3c-9.7-34.9-33.6-58.6-67.8-68.3c-11.6-2.2-24.3-3.2-38-3.2
		c-57.1,0-98.8,37-116.3,75.3c0-6.1,0.1-11.9,0.4-17.4c0.6-28.4,2.4-45,2.4-53.8c0-4.5-12.3-9.7-16.9-9.7c-1.9,0-3.2,0.7-5.2,2
		c-51.9,37-102.5,68.8-155.7,89.5c-3.9,1.3-5.2,2.6-5.2,12.3c0,1,0,2,0,2.9c2.2,0.1,4.4-0.3,6,0c11,1.9,10.7,3.7,21.8,5.7
		c6.5,1.3,14.2,4.8,14.2,11.3c0,43.9-3.5,65.2-7,87.1V481c0,6.5-1.3,7.8-7.8,9.1l-22.1,4.5c-3.9,0.7-5.2,2.6-5.2,14.3
		c0,2.8,0.1,5.1,0.2,6.9c1.9,0.4,3.7,0.5,4.9,0.5c14.9,0,57.8-8.8,105.1-8.8c47.4,0,84.5,3.9,99.4,3.9c2.2,0,4.4-1.1,5.7-3
		c0-4.9-0.3-7.9-0.9-9.8c-1.4-1.6-3.4-2.2-5.9-3c-8.7-2.4-8.9-1.8-17.6-4.2c-6.5-1.9-12.5-8.7-12.5-15.2c0-48.6,3-74.4,6.3-98.8
		v-104c2.1-0.8,5.5-1.4,8.9-1.7c0-1,0-2,0.1-3c2.8-1.1,1.4,1.9,3.8,2.8c0.6,0,1.1,0,1.6,0c5.6,0,10.8,0.4,15.5,1.1
		c33.7,4,52.2,23,52.2,75.8c0,63.9-5.8,63.9-5.8,127.8c0,3.1-1.6,3.5-4,3.3v1.5c0,6.5-1.3,7.1-7.8,9.1l-17.5,4.5
		c-2,0.7-3.3,1.3-4.1,3.4c0,1.8-0.1,3.7-0.1,6c0,11.7,0.3,8.1,4.2,8.1c14.9,0,53.2-2,100.6-2s85,1.4,99.9,1.4c3.7,0,5,3.8,5.1-6.3
		c-0.3-8.4-1.7-9.5-5.1-10.7l-17.5-4.5c-6.3-1.9-7.7-2.6-7.8-8.4c-3.8-0.6-6.8-1.7-6.8-5.5c0-51.3,3.6-74.1,6.8-100.1v-79.4
		c0-8.4-0.7-16.2-2-23.4c1.5-0.5,3.5-0.9,5.7-1.2c-0.1-0.7-0.2-1.3-0.3-2c3.9-1.3,6.3-6.6,10.8-6.6c43.5,0,67,24.4,67,84.7
		c0,63.9-6.6,63.9-6.6,127.8c0,6.5-2.5,12.7-8.9,14.6c-1.7,0.5-3.2,0.4-4.5,0.1l-14.5,3.8c-1.5,0.5-2.6,1-3.5,2.1
		c0.1,2.2,0.2,4.6,0.2,7.3c0,11.7-0.7,11.9,3.2,11.9c8.4,0,24,2.1,44.5,3.9c16.1-1,35.2-1.9,56-1.9c26.2,0,50.8,1.4,70.1,2.6
		c15.6-0.7,27.7-1.4,34.4-1.4c1.3,0,2.9-0.4,4.6-1.2c0.4-2,0.5-4.9,0.5-9.1C682.7,497.3,681.4,495.3,677.5,494.7z"/>
</g>
</svg>
