<?xml version="1.0" encoding="utf-8"?>
<!-- Generator: Adobe Illustrator 25.1.0, SVG Export Plug-In . SVG Version: 6.00 Build 0)  -->
<svg version="1.1" id="Layer_1" xmlns="http://www.w3.org/2000/svg" xmlns:xlink="http://www.w3.org/1999/xlink" x="0px" y="0px"
	 viewBox="0 0 1632.5 192.5" style="enable-background:new 0 0 1632.5 192.5;" xml:space="preserve">
<style type="text/css">
	.st0{fill:#FF0000;}
	.st1{fill:#0000FF;}
	.st2{fill:#FFFFFF;}
</style>
<g id="Group_922" transform="translate(1427.902 118.971) rotate(180)">
	<path id="gentle-wave-2" class="st0" d="M1427.9,9.5c-228.3,0-297.2,35.9-426.9,35.9c-249.5,0-291.3-35.9-426.3-35.9
		S336.3,119,201.3,119S-145.9,9.5-204.6,9.5V-66h1632.5V9.5z"/>
	<path id="gentle-wave" class="st1" d="M1427.9,9.5c-213.4,0-187.5,55-378.2,55c-162.5,0-150-55-413.5-55S216.5,110.7,81.5,110.7
		S-69.6,9.5-204.6,9.5V-66h1632.5V9.5z"/>
</g>
<path class="st2" d="M1632.5,192.5v-83c-53,0-87.7-15.6-118.5-34.6c-61.4-22.3-135.4-49.7-203.2-64.4
	c-103.7,11.9-223.2,70.1-394.1,91.3c-20.5,4.8-41.6,7.7-63.5,7.7c-9.9,0-19.3-0.2-28.3-0.6c-10.9,0.4-21.9,0.6-33.2,0.6
	c-152,0-212.2-18.3-267-33.8c-28.7-1.3-61-2.1-97.8-2.1c-129.7,0-198.6,35.9-426.9,35.9v83H1632.5z"/>
</svg>
