<?xml version="1.0" encoding="utf-8"?>
<!-- Generator: Adobe Illustrator 25.1.0, SVG Export Plug-In . SVG Version: 6.00 Build 0)  -->
<svg version="1.1" id="Layer_1" xmlns="http://www.w3.org/2000/svg" xmlns:xlink="http://www.w3.org/1999/xlink" x="0px" y="0px"
	 viewBox="0 0 1632.5 192.5" style="enable-background:new 0 0 1632.5 192.5;" xml:space="preserve">
<style type="text/css">
	.st0{fill:#FF0000;}
	.st1{fill:#0000FF;}
</style>
<g id="Group_922" transform="translate(1427.902 118.971) rotate(180)">
	<path id="gentle-wave-2" class="st0" d="M-204.6,36C23.7,36,92.6,0.1,222.3,0.1C471.8,0.1,513.6,36,648.6,36S887-73.5,1022-73.5
		S1369.2,36,1427.9,36v73H-204.6V36z"/>
	<path id="gentle-wave" class="st1" d="M-204.6,36C8.8,36-17.1-19,173.6-19c162.5,0,150,55,413.5,55s419.7-101.2,554.7-101.2
		S1292.9,36,1427.9,36v73H-204.6V36z"/>
</g>
<path d="M0,0v83c53,0,87.7,15.6,118.5,34.6c61.4,22.3,135.4,49.7,203.2,64.4c103.7-11.9,223.2-70.1,394.1-91.3
	c20.5-4.8,41.6-7.7,63.5-7.7c9.9,0,19.3,0.2,28.3,0.6c10.9-0.4,21.9-0.6,33.2-0.6c152,0,212.2,18.3,267,33.8
	c28.7,1.3,61,2.1,97.8,2.1c129.7,0,198.6-35.9,426.9-35.9V0H0z"/>
</svg>
