<?xml version="1.0" encoding="utf-8"?>
<!-- Generator: Adobe Illustrator 26.0.3, SVG Export Plug-In . SVG Version: 6.00 Build 0)  -->
<svg version="1.1" id="Layer_1" xmlns="http://www.w3.org/2000/svg" xmlns:xlink="http://www.w3.org/1999/xlink" x="0px" y="0px"
	 viewBox="0 0 1632.5 192.5" style="enable-background:new 0 0 1632.5 192.5;" xml:space="preserve">
<style type="text/css">
	.st0{fill:url(#gentle-wave-2_00000030465294016393428990000001673250796178022568_);}
	.st1{fill:#0000FF;}
	.st2{fill:#190041;}
</style>
<g id="Group_922" transform="translate(1427.902 118.971) rotate(180)">
	
		<linearGradient id="gentle-wave-2_00000034079159188677836590000009284000895045157814_" gradientUnits="userSpaceOnUse" x1="202.25705" y1="26.5" x2="-396.391174" y2="26.5">
		<stop  offset="0" style="stop-color:#FF6C00"/>
		<stop  offset="1" style="stop-color:#FF0000"/>
	</linearGradient>
	<path id="gentle-wave-2" style="fill:url(#gentle-wave-2_00000034079159188677836590000009284000895045157814_);" d="
		M1427.900024,9.5C1199.599976,9.5,1130.699951,45.400002,1001,45.400002C751.5,45.400002,709.700012,9.5,574.700012,9.5
		S336.299988,119,201.300003,119S-145.899994,9.5-204.600006,9.5V-66h1632.5V9.5z"/>
	<path id="gentle-wave" class="st1" d="M1427.900024,9.5c-213.400024,0-187.5,55-378.200073,55c-162.5,0-150-55-413.5-55
		S216.5,110.699997,81.5,110.699997S-69.599998,9.5-204.600006,9.5V-66h1632.5V9.5z"/>
</g>
<path class="st2" d="M1632.5,192.5v-83c-53,0-87.699951-15.599998-118.5-34.599998
	C1452.599976,52.600002,1378.599976,25.200001,1310.800049,10.5c-103.699951,11.9-223.199951,70.099998-394.099976,91.300003
	c-20.5,4.800003-41.599976,7.699997-63.5,7.699997c-9.900024,0-19.299988-0.199997-28.299988-0.599998
	C814.000061,109.300003,803.000061,109.5,791.700073,109.5c-152,0-212.200012-18.300003-267-33.800003
	c-28.700012-1.300003-61-2.099998-97.799988-2.099998C297.200073,73.599998,228.300079,109.5,0.000092,109.5v83H1632.5z"/>
</svg>
