<?xml version="1.0" encoding="utf-8"?>
<!-- Generator: Adobe Illustrator 26.0.3, SVG Export Plug-In . SVG Version: 6.00 Build 0)  -->
<svg version="1.1" id="Layer_1" xmlns="http://www.w3.org/2000/svg" xmlns:xlink="http://www.w3.org/1999/xlink" x="0px" y="0px"
	 viewBox="0 0 110 104.9" style="enable-background:new 0 0 110 104.9;" xml:space="preserve">
<style type="text/css">
	.st0{clip-path:url(#SVGID_00000176754273367654196730000014882689680611602077_);}
	.st1{fill:url(#Rectangle_533_00000081613865667787381750000014073403952101894531_);}
	.st2{clip-path:url(#SVGID_00000158715120231670438080000003482864248445575095_);}
	.st3{fill:url(#Rectangle_539_00000041975707625943276220000004281938901516144283_);}
</style>
<g id="Group_1206" transform="translate(-665 -1662.98)">
	<g id="Group_1205" transform="translate(665 1662.98)">
		<g id="Group_1180" transform="translate(0 0)">
			<g>
				<defs>
					<rect id="SVGID_1_" width="110" height="104.9"/>
				</defs>
				<clipPath id="SVGID_00000130614275498148344000000003777813387041688735_">
					<use xlink:href="#SVGID_1_"  style="overflow:visible;"/>
				</clipPath>
			</g>
		</g>
		<g id="Group_1182" transform="translate(0 0)">
			<g>
				<defs>
					<path id="SVGID_00000008136075750346687470000011151524180699122094_" d="M68.7,98.1c-14.3,4.7-26.3,4.6-36.1,0
						c16.8,10.7,32.5,8.9,49.7-5.8C78,94.6,73.4,96.5,68.7,98.1 M32.6,98.1c-5.1-3.3-9.8-7.2-14-11.6c-0.3-0.3-0.7-0.7-1-1
						C21.4,90.9,26.6,95.2,32.6,98.1 M88.2,86.8c-2,2-3.9,3.8-5.9,5.5c17.5-9.4,30.1-24.7,27.3-41.7C107.8,62.5,99.7,75.3,88.2,86.8
						 M0,51.1L0,51.1c0,11.3,5.9,22.5,17.6,34.4c-4.1-5.7-7.3-12-9.5-18.7C3.8,54.5,2.7,43,5,33.2C1.8,38.6,0.1,44.8,0,51.1
						 M101.7,33.5c4,4.9,6.8,10.8,7.9,17c2-13.4-3.8-25.7-21.4-34.2c-0.8-0.4-1.6-0.8-2.4-1.2C91.5,21,96.8,27.1,101.7,33.5 M35.8,3
						C18.2,8.8,8.2,19.5,5,33.2c3.5-6.1,7.9-11.7,13-16.6C41.7-7.2,56.4,1,85.8,15.2C76.1,5.8,66,0,53.1,0C47.2,0.1,41.4,1.1,35.8,3
						"/>
				</defs>
				<clipPath id="SVGID_00000079450335812811916840000001495913426328273323_">
					<use xlink:href="#SVGID_00000008136075750346687470000011151524180699122094_"  style="overflow:visible;"/>
				</clipPath>
				<g id="Group_1181" style="clip-path:url(#SVGID_00000079450335812811916840000001495913426328273323_);">
					
						<linearGradient id="Rectangle_533_00000021809583989009652870000018152915594284575111_" gradientUnits="userSpaceOnUse" x1="-904.6841" y1="584.9876" x2="-904.3661" y2="585.9246" gradientTransform="matrix(50.4022 -138.5617 -136.5206 -49.6597 125579.0312 -96203.2969)">
						<stop  offset="0" style="stop-color:#FF1D25"/>
						<stop  offset="0.191" style="stop-color:#FB5421"/>
						<stop  offset="0.389" style="stop-color:#F7931E"/>
						<stop  offset="0.565" style="stop-color:#F84CB0"/>
						<stop  offset="0.75" style="stop-color:#FA27FF"/>
						<stop  offset="1" style="stop-color:#4A08FF"/>
					</linearGradient>
					<polygon id="Rectangle_533" style="fill:url(#Rectangle_533_00000021809583989009652870000018152915594284575111_);" points="
						-37.3,95.3 13.1,-43.3 149.7,6.4 99.3,144.9 					"/>
				</g>
			</g>
		</g>
	</g>
	<g id="Group_1203" transform="translate(701.546 1697.119)">
		<g>
			<defs>
				<path id="SVGID_00000078737487634403059330000016340102830339284896_" d="M24.7,0l-1.3,2.3c-2.8-1.6-6-2.4-9.2-2.3
					c-6.8,0-12,3.9-12,8.9c0,3.8,2.6,6.5,7.6,7.7C4.1,17.9,0,21.8,0,26.3c0,6.3,5.9,10.4,14.9,10.4c9.7,0,16.3-5.4,16.3-13.4
					c0-1.6-0.4-3.3-1.1-4.8l2.7-1c2.8-1,4.1-3,4.1-6.3H36c-0.7,1.4-2,2.5-3.5,2.9l-9,3.2c-3.4,1.2-5.1,3.4-5.1,6.9h1.1
					c0.7-1.7,2.1-2.9,3.8-3.4l5-1.8c0.6,1.1,1,2.4,1,3.7c0,6.6-6.3,10.5-13.9,10.5c-7.7,0-12.6-3-12.6-7.6c0-4.2,5.1-7.8,11.4-7.8
					v-2.3c-6.1-1-9.7-3.4-9.7-6.3c0-3.5,4.1-6.1,9.7-6.1c6.3,0,10.9,2.4,14,7.2l0.8-0.4L25.5,0H24.7z"/>
			</defs>
			<clipPath id="SVGID_00000054266120404501045650000016091526265462590348_">
				<use xlink:href="#SVGID_00000078737487634403059330000016340102830339284896_"  style="overflow:visible;"/>
			</clipPath>
			<g id="Group_1201" style="clip-path:url(#SVGID_00000054266120404501045650000016091526265462590348_);">
				
					<linearGradient id="Rectangle_539_00000095310700409448586210000011585075121713336961_" gradientUnits="userSpaceOnUse" x1="-914.8861" y1="544.5626" x2="-916.1191" y2="545.5106" gradientTransform="matrix(36.909 0 0 -36.657 33810.6133 19999.168)">
					<stop  offset="0" style="stop-color:#FF1D25"/>
					<stop  offset="0.191" style="stop-color:#FB5421"/>
					<stop  offset="0.415" style="stop-color:#F7931E"/>
					<stop  offset="0.652" style="stop-color:#F84CB0"/>
					<stop  offset="0.776" style="stop-color:#FA27FF"/>
					<stop  offset="1" style="stop-color:#4A08FF"/>
				</linearGradient>
				
					<rect id="Rectangle_539" x="0" y="0" style="fill:url(#Rectangle_539_00000095310700409448586210000011585075121713336961_);" width="36.9" height="36.7"/>
			</g>
		</g>
	</g>
</g>
</svg>
