<?xml version="1.0" encoding="utf-8"?>
<!-- Generator: Adobe Illustrator 26.0.3, SVG Export Plug-In . SVG Version: 6.00 Build 0)  -->
<svg version="1.1" id="Layer_1" xmlns="http://www.w3.org/2000/svg" xmlns:xlink="http://www.w3.org/1999/xlink" x="0px" y="0px"
	 viewBox="0 0 110 104.9" style="enable-background:new 0 0 110 104.9;" xml:space="preserve">
<style type="text/css">
	.st0{fill:url(#SVGID_00000152238405959408593130000006692341600978056362_);}
</style>
<g id="Group_1180" transform="translate(0 0)">
	<g>
		<g>
			<defs>
				<rect id="SVGID_1_" width="110" height="104.9"/>
			</defs>
			<clipPath id="SVGID_00000108281892507460683270000014833806641965854080_">
				<use xlink:href="#SVGID_1_"  style="overflow:visible;"/>
			</clipPath>
		</g>
	</g>
</g>
<linearGradient id="SVGID_00000108993059489080170500000002016802883628059825_" gradientUnits="userSpaceOnUse" x1="-16.8262" y1="127.882" x2="112.6304" y2="-3.8396" gradientTransform="matrix(1 0 0 -1 0 106)">
	<stop  offset="0" style="stop-color:#FF1D25"/>
	<stop  offset="0.191" style="stop-color:#FB5421"/>
	<stop  offset="0.389" style="stop-color:#F7931E"/>
	<stop  offset="0.565" style="stop-color:#F84CB0"/>
	<stop  offset="0.75" style="stop-color:#FA27FF"/>
	<stop  offset="1" style="stop-color:#4A08FF"/>
</linearGradient>
<path style="fill:url(#SVGID_00000108993059489080170500000002016802883628059825_);" d="M68.7,98.1c-14.3,4.7-26.3,4.6-36.1,0
	c16.8,10.7,32.5,8.9,49.7-5.8C78,94.6,73.4,96.5,68.7,98.1 M32.6,98.1c-5.1-3.3-9.8-7.2-14-11.6c-0.3-0.3-0.7-0.7-1-1
	C21.4,90.9,26.6,95.2,32.6,98.1 M88.2,86.8c-2,2-3.9,3.8-5.9,5.5c17.5-9.4,30.1-24.7,27.3-41.7C107.8,62.5,99.7,75.3,88.2,86.8
	 M0,51.1L0,51.1c0,11.3,5.9,22.5,17.6,34.4c-4.1-5.7-7.3-12-9.5-18.7C3.8,54.5,2.7,43,5,33.2C1.8,38.6,0.1,44.8,0,51.1 M101.7,33.5
	c4,4.9,6.8,10.8,7.9,17c2-13.4-3.8-25.7-21.4-34.2c-0.8-0.4-1.6-0.8-2.4-1.2C91.5,21,96.8,27.1,101.7,33.5 M35.8,3
	C18.2,8.8,8.2,19.5,5,33.2c3.5-6.1,7.9-11.7,13-16.6C41.7-7.2,56.4,1,85.8,15.2C76.1,5.8,66,0,53.1,0C47.2,0.1,41.4,1.1,35.8,3
	 M40.8,80.4l-4.3,3.1c-0.3,0.2-0.6,0-0.6-0.3l-0.1-5.3c0-0.6,0.1-1.2,0.4-1.7l17.6-34.9l5.7,2.9L41.9,79.1
	C41.7,79.6,41.3,80.1,40.8,80.4z M62.9,31.6l-1-0.5c-1.3-0.7-2.9-0.1-3.6,1.2l-3.2,6.3l5.7,2.9l3.2-6.3
	C64.8,33.9,64.2,32.2,62.9,31.6z M54,30.9c0.2-0.5,0.1-1.1-0.4-1.3l-3.7-1.9c-0.5-0.2-1.1-0.1-1.3,0.4c-0.2,0.5-0.1,1.1,0.4,1.3
	l3.7,1.9C53.2,31.6,53.8,31.4,54,30.9z M58.6,26.1c0.5-0.2,0.8-0.7,0.6-1.3L57.9,21c-0.2-0.5-0.7-0.8-1.3-0.6
	c-0.5,0.2-0.8,0.7-0.6,1.3l1.3,3.9c0.1,0.3,0.3,0.5,0.5,0.6S58.3,26.2,58.6,26.1z M73.2,40.6c0.2-0.5,0.1-1.1-0.4-1.3l-3.7-1.9
	c-0.5-0.2-1.1-0.1-1.3,0.4s-0.1,1.1,0.4,1.3l3.7,1.9C72.4,41.2,73,41.1,73.2,40.6z M70.1,32l3.9-1.3c0.5-0.2,0.8-0.7,0.6-1.3
	c-0.2-0.5-0.7-0.8-1.3-0.6l-3.9,1.3c-0.5,0.2-0.8,0.7-0.6,1.3c0.1,0.3,0.3,0.5,0.5,0.6C69.6,32,69.9,32.1,70.1,32z M66.4,25.6
	l1.9-3.7c0.2-0.5,0.1-1.1-0.4-1.3c-0.5-0.2-1.1-0.1-1.3,0.4l-1.9,3.7c-0.2,0.5-0.1,1.1,0.4,1.3S66.2,26.1,66.4,25.6z"/>
</svg>
