<svg xmlns="http://www.w3.org/2000/svg" width="416.148" height="396.988" viewBox="0 0 416.148 396.988">
  <g id="Group_979" data-name="Group 979" transform="translate(-800 -2513.904)">
    <g id="Group_896" data-name="Group 896" transform="translate(800 2513.904)">
      <g id="Group_894" data-name="Group 894" transform="translate(0 5.826)">
        <path id="Path_813" data-name="Path 813" d="M1264.264,799.4c-92.2,92.2-171.178,91.188-263.38-1.014S906.369,625.907,998.571,533.7s148.174-57.144,265.714-.693C1390.6,593.668,1356.466,707.2,1264.264,799.4Z" transform="translate(-930.564 -476.883)" fill="#f92100"/>
      </g>
      <g id="Group_895" data-name="Group 895" transform="translate(14.361 0)" style="mix-blend-mode: multiply;isolation: isolate">
        <path id="Path_814" data-name="Path 814" d="M1179.045,847.258c-114.568,37.668-190.857-6.7-229.511-118.33s-9.56-203.532,105.008-241.2,176.04,21.507,249.208,115.3C1385.963,708.424,1293.612,809.6,1179.045,847.258Z" transform="translate(-933.381 -476.235)" fill="#1622ff"/>
      </g>
    </g>
    <g id="Group_893" data-name="Group 893" transform="matrix(0.978, 0.208, -0.208, 0.978, 959.346, 2585.424)">
      <g id="Group_890" data-name="Group 890" transform="translate(0)">
        <path id="Path_790" data-name="Path 790" d="M3.7,37.972A16.5,16.5,0,0,1,0,37.587a5.228,5.228,0,0,0,3.7,1.356c5.669,0,14.861-2.417,28.187-14.607C43.161,13.946,52.293,3.923,61.281,0,51.826,3.337,41.7,12.2,30.348,22.661,17.022,34.854,9.367,37.972,3.7,37.972Z" transform="translate(21.673 28.654)" fill="#1622ff"/>
        <path id="Path_791" data-name="Path 791" d="M15.774,0a38.193,38.193,0,0,0-5.4,1.549A28.583,28.583,0,0,0,0,7.8,30.791,30.791,0,0,1,10.438,1.713C12.16,1.068,13.941.5,15.774,0Z" transform="translate(31.376 66.047)" fill="#1622ff"/>
        <path id="Path_792" data-name="Path 792" d="M19.287,0C6.979,1.375,0,5.5,0,16.067v3.914a28.372,28.372,0,0,0,1.051,7.394A46.528,46.528,0,0,1,.42,19.981C.42,9.436,7.131,2.659,19.287,0Z" transform="translate(0 1.284)" fill="#1622ff"/>
        <path id="Path_793" data-name="Path 793" d="M37.268,0A34.563,34.563,0,0,1,55.736,30.841c0,20.129-16.158,35.44-37.139,35.44A39.29,39.29,0,0,1,0,61.724a32.179,32.179,0,0,0,18.6,5.486c20.981,0,41.393-16.241,41.393-36.37C59.99,16.923,50.226,5.641,37.268,0Z" transform="translate(32.289 152.875)" fill="#1622ff"/>
        <path id="Path_794" data-name="Path 794" d="M9.037,13.216C9.037,7.117,5.845,2.034,0,0,4.21,2.281,4.9,7.368,4.9,13.216c0,2.7.627,6-.07,9.22A11.24,11.24,0,0,0,9.037,13.216Z" transform="translate(96.566 28.178)" fill="#1622ff"/>
        <path id="Path_795" data-name="Path 795" d="M35.436,0C62.62,11.259,77,32.34,77,61.506c0,19.561-10.773,36.855-28.351,45.078-13.892,6.521-31.186,6.521-42.811,9.924-3.661,1.1-5.066,3.027-5.838,5.247,1.631-.713,3.886-1.152,6.791-2.023,11.622-3.4,28.363-5.78,42.255-12.3,17.578-8.222,32.225-26.364,32.225-45.925C81.271,31.918,64.653,10.93,35.436,0Z" transform="translate(52.702 9.372)" fill="#1622ff"/>
        <path id="Path_796" data-name="Path 796" d="M0,0A2.908,2.908,0,0,0,3.205,2.476C5.359,2.476,5.719,1.446,5.69.1A18.546,18.546,0,0,1,3.205.228,14.863,14.863,0,0,1,0,0Z" transform="translate(41.727 143.512)" fill="#1622ff"/>
        <path id="Path_797" data-name="Path 797" d="M68.851,9.372C54.021,3.229,35.389,0,13.171,0A61.848,61.848,0,0,0,0,1.284a120.484,120.484,0,0,1,13.171-.6C34.8.683,53.554,3.649,68.851,9.372Z" transform="translate(19.287)" fill="#1622ff"/>
        <path id="Path_798" data-name="Path 798" d="M4.139,35.438c0-20.129,12.022-34.76,33-34.76A47.038,47.038,0,0,1,55.811,4.6,39.293,39.293,0,0,0,37.139,0C16.161,0,0,15.309,0,35.438A34.57,34.57,0,0,0,18.543,66.321C9.238,59.913,4.139,48.513,4.139,35.438Z" transform="translate(13.746 148.278)" fill="#1622ff"/>
        <path id="Path_799" data-name="Path 799" d="M54.248,0c-2.326,2.009-5.836,3.933-11.1,5.805C27.791,11.254,12.655,11.944,0,15.433c12.909-2.771,29.053-.629,44.407-6.078C51.094,6.979,53.479,3.543,54.248,0Z" transform="translate(47.15 50.613)" fill="#1622ff"/>
        <path id="Path_800" data-name="Path 800" d="M2.487,3.4C1.888,6.23.692,5.993.1,8.826a15.872,15.872,0,0,0,.061,3.658C2.182,12.2,2.928,11.407,3.353,9.5L4.486,3.825A36.4,36.4,0,0,1,5.451,0,4.549,4.549,0,0,0,2.487,3.4Z" transform="translate(47.251 131.127)" fill="#1622ff"/>
        <path id="Path_801" data-name="Path 801" d="M15,28.016C10.2,19.8,2.729,10.121,0,0,1.725,10.691,6.735,21.755,11.562,30.029c2.745,4.646,5.648,6.77,9.06,7.554C18.585,35.767,17.512,32.275,15,28.016Z" transform="translate(1.051 28.659)" fill="#1622ff"/>
        <path id="Path_802" data-name="Path 802" d="M0,1.758A22.924,22.924,0,0,1,7.624.322a18.145,18.145,0,0,1,5.988.96A12.406,12.406,0,0,0,7.624,0,19.009,19.009,0,0,0,0,1.758Z" transform="translate(82.954 26.896)" fill="#1622ff"/>
        <path id="Path_803" data-name="Path 803" d="M.54,21.694C.54,11.418,3.295,4.62,7.99,0,3.046,4.576,0,11.332,0,21.694c0,13.042,6.8,29.485,15.025,44.8,1.1,2.013,1.856,2.837,3.316,3.173a19.229,19.229,0,0,0-1.347-4.233C8.774,50.12.54,34.736.54,21.694Z" transform="translate(23.386 73.849)" fill="#1622ff"/>
      </g>
      <g id="Group_891" data-name="Group 891" transform="translate(0 1.284)">
        <path id="Path_804" data-name="Path 804" d="M0,7.8A30.791,30.791,0,0,1,10.438,1.713C12.16,1.068,13.941.5,15.774,0a38.193,38.193,0,0,0-5.4,1.549A28.583,28.583,0,0,0,0,7.8Z" transform="translate(31.376 64.763)" fill="#f92100"/>
        <path id="Path_805" data-name="Path 805" d="M3.7,37.972A16.5,16.5,0,0,1,0,37.587a5.228,5.228,0,0,0,3.7,1.356c5.669,0,14.861-2.417,28.187-14.607C43.161,13.946,52.293,3.923,61.281,0,51.826,3.337,41.7,12.2,30.348,22.661,17.022,34.854,9.367,37.972,3.7,37.972Z" transform="translate(21.673 27.371)" fill="#f92100"/>
        <path id="Path_806" data-name="Path 806" d="M0,0A2.908,2.908,0,0,0,3.205,2.476C5.359,2.476,5.719,1.446,5.69.1A18.546,18.546,0,0,1,3.205.228,14.863,14.863,0,0,1,0,0Z" transform="translate(41.727 142.228)" fill="#f92100"/>
        <path id="Path_807" data-name="Path 807" d="M9.037,13.216C9.037,7.117,5.845,2.034,0,0,4.21,2.281,4.9,7.368,4.9,13.216c0,2.7.627,6-.07,9.22A11.24,11.24,0,0,0,9.037,13.216Z" transform="translate(96.566 26.894)" fill="#f92100"/>
        <path id="Path_808" data-name="Path 808" d="M.42,19.981C.42,9.436,7.131,2.659,19.287,0,6.979,1.375,0,5.5,0,16.067v3.914a28.372,28.372,0,0,0,1.051,7.394A46.528,46.528,0,0,1,.42,19.981Z" fill="#f92100"/>
        <path id="Path_809" data-name="Path 809" d="M35.436,0C62.62,11.259,77,32.34,77,61.506c0,19.561-10.773,36.855-28.351,45.078-13.892,6.521-31.186,6.521-42.811,9.924-3.661,1.1-5.066,3.027-5.838,5.247,1.631-.713,3.886-1.152,6.791-2.023,11.622-3.4,28.363-5.78,42.255-12.3,17.578-8.222,32.225-26.364,32.225-45.925C81.271,31.918,64.653,10.93,35.436,0Z" transform="translate(52.702 8.089)" fill="#f92100"/>
        <path id="Path_810" data-name="Path 810" d="M37.268,0A34.563,34.563,0,0,1,55.736,30.841c0,20.129-16.158,35.44-37.139,35.44A39.29,39.29,0,0,1,0,61.724a32.179,32.179,0,0,0,18.6,5.486c20.981,0,41.393-16.241,41.393-36.37C59.99,16.923,50.226,5.641,37.268,0Z" transform="translate(32.289 151.591)" fill="#f92100"/>
      </g>
      <g id="Group_892" data-name="Group 892" transform="translate(0.42 0.683)">
        <path id="Path_811" data-name="Path 811" d="M51.672,3.919A47.037,47.037,0,0,0,33,0C12.022,0,0,14.631,0,34.76,0,47.835,5.1,59.235,14.4,65.643A39.291,39.291,0,0,0,33,70.2c20.981,0,37.139-15.311,37.139-35.44A34.563,34.563,0,0,0,51.672,3.919Z" transform="translate(17.466 148.273)" fill="#fff"/>
        <path id="Path_812" data-name="Path 812" d="M129.282,70.2c0-29.166-14.38-50.247-41.565-61.506C72.42,2.966,53.669,0,32.038,0A120.472,120.472,0,0,0,18.867.6C6.711,3.259,0,10.036,0,20.582a46.521,46.521,0,0,0,.631,7.394c2.729,10.121,10.2,19.8,15,28.016,2.515,4.259,3.588,7.751,5.625,9.567a16.508,16.508,0,0,0,3.7.385c5.669,0,13.324-3.119,26.65-15.311,11.35-10.461,21.478-19.324,30.933-22.661a19.01,19.01,0,0,1,7.624-1.758,12.406,12.406,0,0,1,5.988,1.281c5.845,2.035,9.037,7.117,9.037,13.216a11.24,11.24,0,0,1-4.205,9.22c-.77,3.543-3.154,6.979-9.841,9.356-15.354,5.449-31.5,3.306-44.407,6.078-1.833.5-3.614,1.068-5.336,1.713a30.789,30.789,0,0,0-10.438,6.089c-4.7,4.62-7.45,11.418-7.45,21.694,0,13.042,8.234,28.426,16.454,43.736a19.237,19.237,0,0,1,1.347,4.233,14.865,14.865,0,0,0,3.205.228A18.546,18.546,0,0,0,47,142.928a15.87,15.87,0,0,1-.061-3.658c.587-2.832,1.783-2.6,2.382-5.425a4.549,4.549,0,0,1,2.964-3.4c.772-2.22,2.177-4.149,5.838-5.247,11.625-3.4,28.919-3.4,42.811-9.924C118.509,107.051,129.282,89.757,129.282,70.2Z" fill="#fff"/>
      </g>
    </g>
  </g>
</svg>
