<?xml version="1.0" encoding="utf-8"?>
<!-- Generator: Adobe Illustrator 26.0.3, SVG Export Plug-In . SVG Version: 6.00 Build 0)  -->
<svg version="1.1" id="Layer_1" xmlns="http://www.w3.org/2000/svg" xmlns:xlink="http://www.w3.org/1999/xlink" x="0px" y="0px"
	 viewBox="0 0 416.14801 396.988007" style="enable-background:new 0 0 416.14801 396.988007;" xml:space="preserve">
<style type="text/css">
	.st0{fill:url(#SVGID_1_);}
</style>
<g id="Group_979" transform="translate(-800 -2513.904)">
	<path d="M1184.678467,2640.68335c-20.5-26.199951-40-49.800049-60.099976-69.199951
		c-111.399963-53.800049-166.899963-84.800049-256.699951,5.100098c-21.5,21.5-37.799988,42.300049-49.099976,62.800049
		c-8.799988,37.300049-4.5,80.5,11.599976,127.199951c9.599976,27.800049,21.599976,51.5,35.900024,70.699951
		c1.299988,1.300049,2.599976,2.600098,3.900024,3.899902c18.099976,18.100098,35.700012,32.699951,53,43.800049
		c37.099976,17.199951,82.599976,17.699951,136.699951-0.100098c17.900024-5.899902,35.199951-13.300049,51.400024-22
		c7.300049-6.300049,14.800049-13.100098,22.199951-20.600098c43.599976-43.600098,74.199951-91.899902,81-137.100098
		C1211.278564,2684.18335,1201.778564,2662.483398,1184.678467,2640.68335z"/>
</g>
<linearGradient id="SVGID_1_" gradientUnits="userSpaceOnUse" x1="529.003845" y1="77.185471" x2="-21.698372" y2="277.506104">
	<stop  offset="0" style="stop-color:#FF1D25"/>
	<stop  offset="0.1702" style="stop-color:#FC4F22"/>
	<stop  offset="0.4147" style="stop-color:#F7931E"/>
	<stop  offset="0.6617" style="stop-color:#F94AB7"/>
	<stop  offset="0.7763" style="stop-color:#FA27FF"/>
	<stop  offset="1" style="stop-color:#4A08FF"/>
</linearGradient>
<path class="st0" d="M259.978577,370.98349c17.899994-5.899994,35.200012-13.299988,51.399994-22
	c-65.200012,55.600006-124.500015,62.799988-188.100021,22.100006
	C160.378555,388.283478,205.978561,388.783478,259.978577,370.98349z M18.878563,125.483482
	c-36.400002,66.200005-19.9,128.800018,47.599998,197.899994c-14.299995-19.200012-26.299995-42.899994-35.900002-70.699997
	C14.278563,205.98349,9.978563,162.783493,18.878563,125.483482z M384.678589,126.783485
	c17,21.800011,26.600006,43.500008,30,64.400017c7.600006-50.5-14.299988-97.300011-81-129.300003
	c-3.100006-1.5-6.100006-2.900002-9.100006-4.400002C344.678589,76.983482,364.278564,100.583481,384.678589,126.783485z
	 M324.678589,57.583485C272.978577,7.483484,217.978561-15.616516,135.478561,11.483484
	c-66.599998,21.900003-104.299995,62.199997-116.599998,114c11.300001-20.5,27.600002-41.400002,49.099998-62.899998
	C157.778564-27.216516,213.278564,3.783484,324.678589,57.583485z M414.678589,191.183487
	c-6.799988,45.300003-37.399994,93.599991-81,137.099991c-7.5,7.5-14.899994,14.399994-22.200012,20.600006
	C377.578583,313.283478,425.178589,255.583496,414.678589,191.183487z M66.478561,323.383484c16,21.5,35,37.5,56.900002,47.700012
	c-17.299995-11.100006-34.900002-25.600006-53-43.799988C68.978561,325.98349,67.678558,324.683502,66.478561,323.383484z
	 M188.705948,194.651703l4.878723,1.814728c31.533249,11.729324,56.74411,4.039322,65.817764-20.354309
	c8.232666-22.132767-2.282074-42.298767-26.675705-51.372406c-23.917664-8.896591-45.669724-2.493706-60.831558,17.874344
	l-3.807785-1.416367l-13.873474-14.777946c23.443604-24.060417,50.677353-30.997925,81.139648-19.666946
	c33.080154,12.304733,45.682236,40.697319,33.731583,72.825523c-12.304718,33.080139-43.146118,46.803192-77.059235,34.188629
	l-14.562073,39.148804l-9.162476-3.408142C168.301361,249.507614,188.705963,194.651703,188.705948,194.651703z
	 M167.409378,266.108002c7.139603,2.655701,9.166016,10.31778,6.997192,16.148438
	c-2.257339,6.068665-8.947906,10.217407-15.849518,7.650238c-6.306656-2.345886-9.254547-10.079803-6.997208-16.148468
	C153.728683,267.927521,160.507767,263.540833,167.409378,266.108002z"/>
</svg>
