<svg xmlns="http://www.w3.org/2000/svg" viewBox="0 0 15.5 9.89"><defs><style>.cls-1{fill:#fff;}.cls-2{opacity:0.6;}</style></defs><g id="Layer_2" data-name="Layer 2"><g id="Video"><polygon class="cls-1" points="1.75 9.89 0 9.89 0 8.14 0.5 8.14 0.5 9.39 1.75 9.39 1.75 9.89"/><polygon class="cls-1" points="0.5 1.75 0 1.75 0 0 1.75 0 1.75 0.5 0.5 0.5 0.5 1.75"/><polygon class="cls-1" points="15.5 9.89 13.75 9.89 13.75 9.39 15 9.39 15 8.14 15.5 8.14 15.5 9.89"/><polygon class="cls-1" points="15.5 1.75 15 1.75 15 0.5 13.75 0.5 13.75 0 15.5 0 15.5 1.75"/><rect class="cls-1" x="6.25" y="6.07" width="2.99" height="0.5"/><g class="cls-2"><rect class="cls-1" x="3" y="6.94" width="9.5" height="0.5"/></g><g class="cls-2"><rect class="cls-1" x="4.53" y="7.81" width="6.44" height="0.5"/></g><g class="cls-2"><polygon class="cls-1" points="8.85 1.7 5.32 1.7 5.32 4.25 7.69 4.25 8.85 4.25 8.85 1.7"/><polygon class="cls-1" points="10.82 1.7 9.31 2.37 9.31 3.5 10.82 4.25 10.82 1.7"/></g></g></g></svg>