<svg xmlns="http://www.w3.org/2000/svg" viewBox="0 0 828.44 111.59"><defs><style>.cls-1{isolation:isolate;}.cls-2{fill:#f92100;}.cls-3{mix-blend-mode:multiply;}.cls-4{fill:#1622ff;}</style></defs><g class="cls-1"><g id="Layer_2" data-name="Layer 2"><g id="Layer_1-2" data-name="Layer 1"><path class="cls-2" d="M112.11,84.65a2.23,2.23,0,0,1-2,2.51c-2.47,0-9.43.55-17.25.55s-14.14-1.09-16.61-1.09c-.64,0-.53,0-.53-2s-.35-3,.29-3.24c1.44-.39,1.94,1.45,3.38,1.06a2.31,2.31,0,0,0,1.48-2.42C80.89,69.49,82,69.49,82,58.94c0-10-3.89-14-11.06-14-.75,0-1.15.87-1.79,1.09a19.24,19.24,0,0,1,.23,3.58c0,15.21-1.93,15.21-1.93,30.43,0,1.07,1.44.82,2.51,1.14,1.44.39,1.42.47,2.86.86.65.22.79.68.79,2.6s-.21,1.25-.85,1.25c-2.47,0-8.68-.23-16.5-.23S42.1,86,39.63,86c-.64,0-.69.59-.69-1.34s0-2.66.69-2.88c1.44-.39,1.19-.81,2.63-1.2,1.07-.32,2.22.55,2.22-.52,0-10.56,1-10.56,1-21.11,0-10-4-12.65-11.16-12.65-.75,0-.35-.72-.89-.5-.27,17.14-2.51,17.12-2.51,34.26a2.92,2.92,0,0,0,2.05,2.5c1.45.39,1.47.3,2.91.7.64.21,1.08.32,1.28,1.17A1.15,1.15,0,0,1,36,85.86c-2.47,0-8.59-.64-16.41-.64S4.71,86.67,2.24,86.67a1.94,1.94,0,0,1-2.24-2,3.38,3.38,0,0,1,2.07-3.23c1.82-.37,2,.46,3.81.09,1.07-.21.23-.39.23-1.46C6.11,66,8.32,66,8.32,51.87,8.32,50.8,7,50.22,6,50c-1.82-.33-1.77-.62-3.59-.94C1.73,49,.31,49.51.31,47.8s1.42-1.5,2.06-1.71c8.78-3.43,17-9.09,25.53-15.19a1.38,1.38,0,0,1,.91-.19c.75,0,3.24.81,3.24,1.55,0,1.72-.91,6.13-.91,12.56A21.28,21.28,0,0,1,50.35,32.4c9,0,15.53,2.58,17.67,10.29,3-6.21,9.86-11.22,19-11.22,11.24,0,19.35,6.58,19.35,18.15,0,15.21-1.93,15.21-1.93,30.43a2.23,2.23,0,0,0,2,2.06c1.82.37,1.88.09,3.7.46C110.72,82.67,112.11,82.73,112.11,84.65Zm32.41-11.33c-3.43,8.57-10.08,14.11-17.9,14.11-8.25,0-12.4-6.21-12.4-14.56,0-6.54.74-9.86,6.31-12.86a86.4,86.4,0,0,1,22.57-8.53c1.49-.83-.35-.9-.35-2.61,0-7.71-1.56-13.55-5.63-13.55-1.07,0-1.13,1.5-1.35,2.89-.38,2.57-.5,2.55-.86,5.13-1.07,7.71-5.82,11.31-11.82,11.31-3.32,0-5.32-2-5.32-6,0-6.86,12.28-16.87,28.67-16.87C161,31.79,167,37.09,167,47.48c0,9.85.74,9.85.74,19.71,0,8.57,3,9,3.89,8s-.27-2.53,1.53-2.52,1.9,3.36,1.9,4,.65.55,0,1.19c-.21.22,0,1.23-.23,1.44-6.43,6.43-11.63,10-16.88,10C151.58,89.34,147.2,82.64,144.52,73.32Zm-2.09-.71c.15-3.8.87-3.76.87-7.56,0-2.36-1.81-3-3.1-4.26s-2-3.42-3.08-3.42c-2.14,0-3.43,1.57-3.43,4.79,0,6,4.4,10.32,7.93,10.32C142.69,72.48,142.11,72.93,142.43,72.61Zm93.65,17.51c0,10.17-12.4,21.47-37.25,21.47-19.5,0-25.66-4.22-25.66-10.33,0-4.39,3.67-5.57,11.06-7.82-5.89-2.68-9.54-7.5-9.54-14.57,0-6.22,6-7.71,14.93-11.89C183,64,178.4,58.51,178.4,50.37c0-11.57,10.57-18.48,26.75-18.48,3.75,0,7.93,1.28,11.79,2.89,7.39-.33,14.35-1.28,17.24-1.28,1.5,0,2.2.17,2.2,1.56,0,3.75-.8,6.46-2.2,6.46-2.14,0-6.06-1.63-9.48-2,2.24,2.68,2.6,6.41,2.6,10.48,0,11.68-9.94,20.24-26.11,20.24-2.47,0-6-.45-7.68-.45s-4,.46-4,2.06c0,2.36,3,4.48,10.68,4.48,4.82,0,4.82-.06,9.64-.06C225.61,76.32,236.08,81,236.08,90.12Zm-16.89,11.14c0-3.11-2.9-4.44-16.83-4.44-2.94,0-2.94-1.87-5.89-1.87-2.57,0-5.09.3-7.34-.23-1.18,1-3.18,2.79-3.18,4.08,0,4.49,7.84,8.52,18.45,8.52C213.94,107.32,219.19,104.15,219.19,101.26ZM197.7,39.66c0,12.43,5.52,26,9.16,26,1.93,0,1.34-.5,1.34-4.46,0-12.43-5.19-26.53-8.73-26.53C197.54,34.66,197.7,35.69,197.7,39.66Zm39.81,45c0-1.92-.3-3.15.35-3.26,1.82-.36,2.19,1.46,4,1.09a2.28,2.28,0,0,0,1.54-2.43c0-14.09,1.08-14.09,1.08-28.18,0-1.07-1.65-1.66-2.72-1.87-1.82-.33-2.07,1.07-3.89.75-.65-.1-1.5-1.24-1.5-3s1.42-.77,2.06-1c8.79-3.43,17.71-10.25,26.28-16.14a1.92,1.92,0,0,1,1.07-.27c.75,0,2.77,1.11,2.77,1.85,0,1.83-1.85,9.11-1.85,22.29,0,12.75.52,12.75.52,25.5a2.27,2.27,0,0,0,1.59,2.39c1.82.37,2-.35,3.79,0,.64.11,1.55.16,1.55,2.09s-.87,3.36-1.52,3.36c-2.46,0-9.43-2.42-17.25-2.42s-14.62,2.05-17,2.05C237.77,87.54,237.51,86.58,237.51,84.65Zm5.83-71.13c0-7,6.27-12.58,13.45-12.58s16.69,8.42,13.52,14.62c-1.89,3.69-6.35,10-13.52,10S243.34,20.48,243.34,13.52ZM305.42,89c-16,0-27.78-12.26-27.78-29,0-17.14,14.28-30.26,33.25-30.26,13.6,0,20.93,8.73,20.93,15.8,0,4.18-2.93,7.06-7.76,7.06s-9.17-2.24-12.27-8.13c-4-7.5-4.65-10.17-7-10.17s-4.3,2.56-4.3,6.63c0,9.32,4.19,22.94,10.61,29.37,3.22,3.21,6.44,3.58,9.87,3.58,3.1,0,4.76-2.38,7.44-4.63,1-.75,5,2.2,4.55,3.27C329.62,80.57,318.71,89,305.42,89ZM427.68,58.08c0,18.65-10.48,27.83-28.16,27.83-4,0-7.87,1-11,.15-1.61,8.48,1.41,8.72,1.41,17.34,0,1.07-.56.5.52.72,1.82.37,1.43,2.27,3.26,2.64.64.1,1.44-.79,1.44,1.25s-.58,2.5-1.22,2.5c-2.47,0-9.43-1-17.25-1s-14.89-.24-17.36-.24c-.64,0-.37.68-.37-1.25s-.09-1.36.55-1.47c1.82-.36,1.68-1.1,3.5-1.47,1.07-.22,2.83-.6,2.83-1.67,0-25.76-3-25-3-50.71,0-1.07.91-1.84-.16-2-1.82-.33-1.21-2.09-3-2.41-.64-.11-2,1.28-2-.43s.53-3.19,1.17-3.41c8.79-3.43,18.28-6.45,26.85-12.56.32-.21-.07-.13.25-.13.75,0,1.8-.18,1.8.56,0,1.83,1,5.36,1,12.11,3.64-8.47,9.73-11.56,17.12-11.56C417,32.81,427.68,40.3,427.68,58.08Zm-24.36,20c0-10.5-4.84-26.5-10.62-32.28-1.07-1.08-1.64.09-2.4.09-.42,0-1.14-1.46-1.56-1.14-.21,6.91-.05,6.92-.05,13.83,0,10.18,5.26,19.38,8.91,23,1.28,1.28,1.7,3.31,3.1,3.31C403,85,403.32,82,403.32,78.12Zm29.52,6.53c0-1.92-.29-3.15.35-3.26,1.82-.36,2.19,1.46,4,1.09a2.27,2.27,0,0,0,1.54-2.43c0-14.09,1.08-14.09,1.08-28.18,0-1.07-1.65-1.66-2.72-1.87-1.82-.33-2.07,1.07-3.89.75-.64-.1-1.5-1.24-1.5-3s1.42-.77,2.07-1c8.78-3.43,17.7-10.25,26.27-16.14a1.94,1.94,0,0,1,1.07-.27c.75,0,2.78,1.11,2.78,1.85,0,1.83-1.85,9.11-1.85,22.29,0,12.75.51,12.75.51,25.5a2.47,2.47,0,0,0,1.59,2.39c1,.4,5.83-2.54,4.68,2.21-.45,1.88-.21,3.26-.86,3.26-2.46,0-9.42-2.42-17.24-2.42s-14.65.84-17,.84C433.08,86.33,432.84,86.58,432.84,84.65Zm5.84-71.13c0-7,6.26-12.58,13.44-12.58S466,6.55,466,13.52s-6.69,12-13.87,12S438.68,20.48,438.68,13.52ZM498.11,54c1.61,5.36,3.36,10.38,6.36,13.38,4.08,4.07,7.64,4.91,11.5,4.91,4.39,0,8.51-1.12,11.4-3.69,1-.86,2.18-.15,1.75.92-4.39,10.93-16,19.33-27.61,19.33-16,0-29.09-11.86-29.09-28.79,0-17.25,13.77-27.58,32.83-27.58,16,0,25,6.58,25,16.87a11.31,11.31,0,0,1-.34,2.85c-.1.43-.78.68-1.42.68C520,53.26,508.29,54.27,498.11,54Zm8.38-13.11c0-4.08-.59-6-3.59-6-3.32,0-5.09,2.75-5.09,9.18,0,2.14-1.35,4.76-.93,7,1.57.73,1.88-.17,3.59-.36C505.4,50.16,506.49,46.3,506.49,40.84ZM585.32,89c-16,0-27.79-12.26-27.79-29,0-17.14,14.29-30.26,33.25-30.26,13.61,0,20.93,8.73,20.93,15.8,0,4.18-2.93,7.06-7.75,7.06s-9.17-2.24-12.28-8.13c-4-7.5-4.65-10.17-7-10.17s-4.29,2.56-4.29,6.63c0,9.32,4.18,22.94,10.61,29.37,3.21,3.21,6.43,3.58,9.86,3.58,3.11,0,4.76-2.38,7.44-4.63,1-.75,5,2.2,4.55,3.27C609.52,80.57,598.6,89,585.32,89Zm65.45-56.74c18.64,0,31.06,9.55,31.06,26.91,0,18.21-13.38,27.18-33.2,27.18-18.64,0-31-9-31-26.33C617.62,41.8,631,32.25,650.77,32.25Zm1.65,49.25c1.29,1.29,1.46,2.15,2.53,2.15,2.14,0,2.41-1.14,2.41-6.82,0-11.25-4.78-35.55-9.39-40.16a5,5,0,0,0-3.52-1.73c-2.14,0-3,1.72-3,7.4C641.41,53.58,647.82,76.9,652.42,81.5Zm103-23.42c0,18.65-10.49,27.83-28.17,27.83-4,0-7.87,1-11,.15-1.6,8.48,1.55,6.94,1.55,15.56,0,1-.19,2.45.88,2.66,1.82.37.94,2.11,2.76,2.48.64.1,1.45-.79,1.45,1.25s-.59,2.5-1.23,2.5c-2.46,0-9.43-1-17.25-1s-14.89-.24-17.35-.24c-.65,0-.37.68-.37-1.25s-.1-1.36.55-1.47c1.82-.36,1.67-1.1,3.49-1.47,1.07-.22,2.84-.6,2.84-1.67,0-25.76-2.59-25.76-2.59-51.53,0-1.07-1.82-3.32-3.64-3.64-.64-.11-2,1.28-2-.43s.53-3.19,1.18-3.41c8.78-3.43,18.27-6.45,26.84-12.56.33-.21-.06-.13.26-.13.75,0,1.8-.18,1.8.56,0,1.83,1,5.36,1,12.11,3.64-8.47,9.72-11.56,17.11-11.56C744.73,32.81,755.43,40.3,755.43,58.08Zm-24.36,20c0-10.5-4.84-26.5-10.63-32.28-1.07-1.08-1.64.09-2.39.09-.43,0-1.14-1.46-1.57-1.14-.21,6.91,0,6.92,0,13.83,0,10.18,5.26,19.38,8.9,23,1.29,1.28,1.71,3.31,3.1,3.31C730.69,85,731.07,82,731.07,78.12Zm97.37-44a2.51,2.51,0,0,1-1.87,2.58c-2.51,1.14-2,2.31-4.5,3.44-2.15,1-3.89.49-9.78,11.63-8,15-8.1,14.93-16,30-3.25,6.17-2,6.78-5.22,13-5.57,10.93-11.1,15.13-20,15.13-6.64,0-11.13-3.33-11.13-10s4.91-9.94,11.56-9.94c4,0,7.8.42,10.91,3,3.13-1.4,4-2.59,2.79-5.79C775.57,61.88,773.15,63.05,760.94,39c-.54-1.07-.39-1.39-1.46-1.61l-2.83-.54c-.64-.1-1-.79-1-2.71s.47-2.25,1.11-2.25c2.47,0,9.43,1.75,17.25,1.75,5.68,0,18.86-1.27,21.32-1.27.64,0,0-.16,0,1.77s.67,2.08,0,2.19c-3.16.34-3.3-1.09-6.46-.77-1.07.11-.12,1.67.31,2.63,5.93,12.06.32,16.36,10.56,25.06,4.36,3.71,3.84-5.39,5.72-10.79,4-11.36,1.72-12.06-1.38-13.13s-3.36-.48-6.52-1.55c-.65-.22.66-1.72.66-3.64s-.83-1.21-.19-1.21c2.46,0,9.32.69,15,.69s11-.67,13.5-.67C827.11,32.9,828.44,32.16,828.44,34.09Z"/><g class="cls-3"><path class="cls-4" d="M111,85.45c0,1.93-.21,2.25-.85,2.25-2.47,0-9.43-.75-17.25-.75s-14.14.75-16.61.75c-.64,0-.85-.32-.85-2.25s.21-2.14.85-2.35l2.9-.75c1.07-.33,1.28-.43,1.28-1.5V59.74c0-10-2.36-13.5-9.53-13.5a11,11,0,0,0-2.68.32,22.08,22.08,0,0,1,.32,3.86V80.85c0,1.07.21,1.17,1.28,1.5l2.9.75c.64.21.85.42.85,2.35s-.21,2.25-.85,2.25c-2.47,0-8.68-.75-16.5-.75s-14.14.75-16.61.75c-.64,0-.85-.32-.85-2.25s.21-2.14.85-2.35l2.9-.75c1.07-.33,1.28-.43,1.28-1.5V59.74c0-10-2.36-13.5-9.53-13.5a8,8,0,0,0-2.36.32V80.85c0,1.07.21,1.17,1.29,1.5l2.89.75c.64.21.85.42.85,2.35s-.21,2.25-.85,2.25c-2.47,0-8.68-.75-16.5-.75s-14.89.75-17.36.75c-.64,0-.85-.32-.85-2.25s.21-2.25.85-2.35l3.65-.75c1.07-.22,1.28-.43,1.28-1.5V52.67c0-1.07-.21-1.18-1.28-1.39l-3.65-.65c-.64-.1-.85-.32-.85-2s.21-1.82.85-2C11,43.14,19.38,37.89,28,31.78a1.43,1.43,0,0,1,.85-.32c.75,0,2.79.86,2.79,1.6,0,1.72-.43,5.25-.43,11.68,2.89-6.32,9.75-12.64,19.18-12.64,9,0,15.32,4.39,17.46,12.11A21.66,21.66,0,0,1,87,32.1c11.24,0,18.21,6.75,18.21,18.32V80.85c0,1.07.21,1.28,1.28,1.5l3.65.75C110.77,83.2,111,83.52,111,85.45Z"/><path class="cls-4" d="M144.41,75.06c-3.43,8.57-10,13.61-17.79,13.61-8.25,0-13.92-6.65-13.92-15,0-6.54,2-10.29,7.6-13.29,5-2.67,13.07-5,23.25-7.28V49.67c0-7.71-2.36-12.43-6.43-12.43-1.07,0-1.5.32-1.71,1.72l-.75,5.14c-1.07,7.71-5.57,11.36-11.57,11.36-3.32,0-6.32-2-6.32-6,0-6.86,13.28-17.36,29.67-17.36,14.57,0,21.43,5.79,21.43,16.18V68c0,8.57,1.71,8.79,4.61,6.86.32-.22.42-.32.64-.32,1,0,2.57,2.35,2.57,3s-.43,1-1.07,1.6l-.43.43c-6.43,6.43-11,9.11-16.28,9.11C151.58,88.67,147.09,84.38,144.41,75.06Zm-.86-1.61v-7.6a7.3,7.3,0,0,0-2.25-5.36,6.56,6.56,0,0,0-4.18-2c-2.14,0-3.1,1.28-3.1,4.5,0,6,4.07,11.24,7.6,11.24A2.48,2.48,0,0,0,143.55,73.45Z"/><path class="cls-4" d="M235.15,90.92c0,10.17-11.47,20.67-36.32,20.67-19.5,0-26.78-3.42-26.78-9.53,0-4.39,5.14-5.47,12.53-7.71-5.89-2.68-9.64-7.61-9.64-14.68,0-6.22,5.78-7.72,14.68-11.89-6.65-3-12.22-8.47-12.22-16.61,0-11.57,11.57-19,27.75-19A31.85,31.85,0,0,1,217,34.67c7.39-.32,14.25-.53,17.14-.53,1.5,0,1.72.21,1.72,1.6,0,3.75-.32,5.57-1.72,5.57-2.14,0-5.46-.32-8.89-.64a15.53,15.53,0,0,1,3.64,10.18c0,11.68-11.57,19.39-27.74,19.39a27.14,27.14,0,0,1-7.61-1.07,3.59,3.59,0,0,0-3,3.53c0,2.36,1.93,3.43,9.64,3.43h9.64C225.61,76.13,235.15,81.81,235.15,90.92Zm-16.29,11.14c0-3.11-2.57-5.36-16.5-5.36h-5.89a31.41,31.41,0,0,1-7.28-.75,4.72,4.72,0,0,0-1.72,3.64c0,4.5,6.32,8,16.93,8C213.94,107.63,218.86,105,218.86,102.06Zm-22.28-61.6c0,12.42,6.64,26.24,10.28,26.24,1.93,0,2.9-.75,2.9-4.71,0-12.43-6.75-26.25-10.29-26.25C197.54,35.74,196.58,36.49,196.58,40.46Z"/><path class="cls-4" d="M237.18,85.45c0-1.93.22-2.25.86-2.35l3.64-.75c1.07-.22,1.29-.43,1.29-1.5V52.67c0-1.07-.22-1.18-1.29-1.39L238,50.63c-.64-.1-.86-.32-.86-2s.22-1.82.86-2c8.78-3.42,18.32-8.89,26.89-14.78a1.44,1.44,0,0,1,.86-.32c.75,0,2.78.86,2.78,1.6,0,1.83-.86,9.11-.86,22.29v25.5c0,1.07.22,1.28,1.29,1.5l3.64.75c.65.1.86.42.86,2.35s-.21,2.25-.86,2.25c-2.46,0-9.43-.75-17.25-.75s-15,.75-17.35.75C237.4,87.7,237.18,87.38,237.18,85.45Zm7.29-71.13a12.32,12.32,0,1,1,24.64,0c0,7-10,13.09-17.21,13.09S244.47,21.28,244.47,14.32Z"/><path class="cls-4" d="M305.42,88.67c-16,0-27.53-11.14-27.53-27.86,0-17.14,14-28.71,33-28.71,13.6,0,21.21,7.18,21.21,14.25,0,4.18-3.21,7.39-8,7.39s-8.35-3-11.46-8.89c-4-7.5-5.46-8.79-7.82-8.79s-3.86,1.61-3.86,5.68c0,9.32,4.82,21.86,11.25,28.29,3.22,3.21,5.36,4.17,8.79,4.17,3.1,0,5.35-1.17,8-3.42,1-.75,3.64,1.17,3.22,2.25C328.89,81.06,318.71,88.67,305.42,88.67Z"/><path class="cls-4" d="M428.12,58.88c0,18.65-10.92,29.36-28.6,29.36A39,39,0,0,1,389,87V104.2c0,1.07.21,1.29,1.28,1.5l3.65.75c.64.11.85.32.85,2.36s-.21,2.25-.85,2.25c-2.47,0-9.43-.75-17.25-.75s-14.89.75-17.36.75c-.64,0-.85-.32-.85-2.25s.21-2.25.85-2.36l3.65-.75c1.07-.21,1.28-.43,1.28-1.5V52.67c0-1.07-.21-1.18-1.28-1.39l-3.65-.65c-.64-.1-.85-.32-.85-2s.21-1.82.85-2c8.79-3.42,17.14-8.67,25.72-14.78a1.43,1.43,0,0,1,.85-.32c.75,0,2.79.86,2.79,1.6,0,1.83-.43,4.4-.43,11.15,3.64-8.47,10.18-12.11,17.57-12.11C417,32.1,428.12,41.1,428.12,58.88Zm-23.67,20c0-10.5-5.79-26.68-11.57-32.46a3.44,3.44,0,0,0-2.58-1.29,2.07,2.07,0,0,0-1.28.43V59.42c0,10.18,4.28,20,7.93,23.68a4.87,4.87,0,0,0,3.75,1.71C403,84.81,404.45,82.77,404.45,78.92Z"/><path class="cls-4" d="M432.51,85.45c0-1.93.22-2.25.86-2.35l3.64-.75c1.07-.22,1.29-.43,1.29-1.5V52.67c0-1.07-.22-1.18-1.29-1.39l-3.64-.65c-.64-.1-.86-.32-.86-2s.22-1.82.86-2c8.79-3.42,18.32-8.89,26.89-14.78a1.46,1.46,0,0,1,.86-.32c.75,0,2.78.86,2.78,1.6,0,1.83-.85,9.11-.85,22.29v25.5c0,1.07.21,1.28,1.28,1.5l3.64.75c.65.1.86.42.86,2.35s-.21,2.25-.86,2.25c-2.46,0-9.42-.75-17.24-.75s-15,.75-17.36.75C432.73,87.7,432.51,87.38,432.51,85.45Zm7.29-71.13c0-7,10-14.32,17.21-14.32s7.43,7.35,7.43,14.32a12.32,12.32,0,1,1-24.64,0Z"/><path class="cls-4" d="M497.65,54c1.61,5.35,4.5,10.49,7.5,13.49,4.07,4.08,7,5.15,10.82,5.15,4.39,0,7.5-1.82,10.39-4.4,1-.85,3.64,1.18,3.21,2.25-4.39,10.93-16.49,18.22-28.06,18.22-16,0-28.29-10.93-28.29-27.86,0-17.25,13-28.71,32-28.71,16,0,24.65,7.71,24.65,18a11,11,0,0,1-.22,2.78,1.11,1.11,0,0,1-1.18.75C520,54.06,507.83,54.28,497.65,54Zm10-12.32c0-4.08-1.71-6.22-4.71-6.22-3.32,0-6.64,3-6.64,9.43A37.1,37.1,0,0,0,497,51.6l3.42-.43C505.36,50.63,507.61,47.1,507.61,41.64Z"/><path class="cls-4" d="M585.32,88.67c-16,0-27.54-11.14-27.54-27.86,0-17.14,14-28.71,33-28.71,13.61,0,21.21,7.18,21.21,14.25,0,4.18-3.21,7.39-8,7.39s-8.36-3-11.47-8.89c-4-7.5-5.46-8.79-7.82-8.79s-3.85,1.61-3.85,5.68c0,9.32,4.82,21.86,11.25,28.29,3.21,3.21,5.35,4.17,8.78,4.17,3.11,0,5.36-1.17,8-3.42,1-.75,3.64,1.17,3.21,2.25C608.78,81.06,598.6,88.67,585.32,88.67Z"/><path class="cls-4" d="M650.77,32.1c18.64,0,31.5,10.5,31.5,27.86,0,18.21-13.82,28.71-33.64,28.71-18.64,0-31.5-10.5-31.5-27.86C617.13,42.6,631,32.1,650.77,32.1Zm.86,51A4.37,4.37,0,0,0,655,84.7c2.14,0,4-1.39,4-7.07,0-11.25-6.53-35.35-11.14-40a4.39,4.39,0,0,0-3.32-1.61c-2.14,0-4,1.4-4,7.08C640.49,54.38,647,78.49,651.63,83.1Z"/><path class="cls-4" d="M755.87,58.88c0,18.65-10.93,29.36-28.61,29.36A39,39,0,0,1,716.76,87V104.2c0,1.07.22,1.29,1.29,1.5l3.64.75c.64.11.86.32.86,2.36s-.22,2.25-.86,2.25c-2.46,0-9.43-.75-17.25-.75s-14.89.75-17.35.75c-.65,0-.86-.32-.86-2.25s.21-2.25.86-2.36l3.64-.75c1.07-.21,1.29-.43,1.29-1.5V52.67c0-1.07-.22-1.18-1.29-1.39l-3.64-.65c-.65-.1-.86-.32-.86-2s.21-1.82.86-2c8.78-3.42,17.14-8.67,25.71-14.78a1.46,1.46,0,0,1,.86-.32c.75,0,2.78.86,2.78,1.6,0,1.83-.43,4.4-.43,11.15,3.65-8.47,10.18-12.11,17.57-12.11C744.73,32.1,755.87,41.1,755.87,58.88Zm-23.68,20c0-10.5-5.79-26.68-11.57-32.46a3.42,3.42,0,0,0-2.57-1.29,2.08,2.08,0,0,0-1.29.43V59.42c0,10.18,4.29,20,7.93,23.68a4.89,4.89,0,0,0,3.75,1.71C730.69,84.81,732.19,82.77,732.19,78.92Z"/><path class="cls-4" d="M827.32,34.89c0,1.92-.21,2-.85,2.35l-5,2.25c-2.14,1-3,2-8.89,13.18l-16,30L790.25,95.1C784.68,106,780,111.59,771.08,111.59c-6.64,0-11.57-4.28-11.57-10.92s5.35-11.47,12-11.47a16.69,16.69,0,0,1,10.71,4.07l3.86-5.67L761.65,39.39c-.54-1.08-.54-1.29-1.61-1.5l-3.32-.65c-.64-.1-.85-.43-.85-2.35s.21-2.25.85-2.25c2.47,0,9.43.75,17.25.75,5.68,0,18.86-.75,21.32-.75.64,0,.86.32.86,2.25s-.22,2.25-.86,2.35l-6.32.65c-1.07.1-1.18.53-.75,1.5l11.89,24.1,3.75-10.82c4-11.36,3.54-12.32.43-13.39L798,37.14c-.64-.22-.86-.33-.86-2.25s.22-2.25.86-2.25c2.46,0,9.32.75,15,.75s11-.75,13.5-.75C827.11,32.64,827.32,33,827.32,34.89Z"/></g></g></g></g></svg>