<svg xmlns="http://www.w3.org/2000/svg" viewBox="0 0 838.74 375.35"><defs><style>.cls-1,.cls-2,.cls-3{fill:none;stroke-miterlimit:10;}.cls-1{stroke:#f92100;}.cls-2{stroke:#1622ff;}.cls-3{font-size:120.82px;stroke:#fff;font-family:Gastromond-Regular, Gastromond;}.cls-4{letter-spacing:0.05em;}.cls-5{letter-spacing:-0.05em;}</style></defs><g id="Layer_2" data-name="Layer 2"><g id="Layer_5" data-name="Layer 5"><path class="cls-1" d="M34.57,104.09c-18,0-27.12-10.32-27.12-29.17,0-19.33,11.9-35.69,33.28-35.69,15.35,0,24.65,11.41,24.65,19.38,0,4.72-4.35,11.67-9.79,11.67S42.71,65.39,39.21,58.75c-4.47-8.46-2.71-7.84-5.36-7.84s-7.4-2.08-7.4,2.51c0,10.51,9.38,23.75,16.63,31,3.62,3.63,5.14,2.49,9,2.49,3.5,0,4-.64,7.06-3.17,1.09-.85,8.14,4.59,7.66,5.8C63.06,98.6,49.55,104.09,34.57,104.09Zm73.82-59c21,0,31,9.25,31,28.83,0,20.54-11.06,36.2-33.41,36.2-21,0-36.36-15.66-36.36-35.24C69.61,54.38,86,45.13,108.39,45.13Zm-.86,56.75c1.45,1.45,4.36,4.51,5.57,4.51,2.42,0,.65-6.09.65-12.5,0-12.68-4.14-39.27-9.34-44.47-1.45-1.45-1.94,1.43-3.15,1.43-2.42,0,0-2.26,0,4.14C101.29,67.68,102.33,96.69,107.53,101.88ZM223.75,72.75c0,21-9.16,27.57-29.1,27.57-4.47,0-3.75,5.92-7.25,5-1.81,9.56-3.56,8.86-3.56,18.59,0,1.2.15-3.14,1.36-2.9,2.06.42,2.19-.37,4.25,0,.72.12,5.37,5.76,5.37,8.05s-5.72-1.74-6.45-1.74c-2.78,0-10.63,5.21-19.45,5.21S152.12,136,149.35,136c-.73,0-5.39-4.74-5.39-6.92s4-5.57,4.78-5.69c2.06-.41,1.68-2.19,3.73-2.61,1.21-.24-3,4.31-3,3.11,0-29.06,3.19-29.06,3.19-58.12,0-1.21,1.84-.45.63-.69-2-.38-2.49,2.18-4.54,1.82-.73-.12,3.19-3.79,3.19-5.72s-2.74-.54-2-.78C159.84,56.5,169.32,50,179,43.09c.36-.24,0-.5.32-.5.84,0,5.13.2,5.13,1,0,2.06-.27,9.63-.27,17.25,4.11-9.55,9.27-13.59,17.61-13.59C214.35,47.29,223.75,52.69,223.75,72.75ZM203.37,95.34c0-11.84-5.77-34-12.3-40.52-1.2-1.21-6,7.13-6.81,7.13-.48,0,.06-4.51-.42-4.15-.24,7.79,3.66,7.76,3.66,15.55,0,11.48,4,18.71,8.14,22.82,1.45,1.45-1.23.33.34.33C198.52,96.5,203.37,99.69,203.37,95.34Zm101-49.65c0,2.17.63-2.71-.09-2.35-2.84,1.29,1.31,10.5-1.53,11.77-2.41,1.09-4.37-1.46-11,11.11-9,16.92-5.88,18.55-14.79,35.51-3.65,7-2.81,7.33-6.38,14.33-6.28,12.32-16.46,21.57-26.48,21.57-7.49,0-8.81-10.27-8.81-17.76s1.8-14.69,9.29-14.69c4.47,0,6.81-.52,10.31,2.38,3.54-1.57,3.41,2.75,2-.87C246,78.22,244.47,79.33,230.7,52.15c-.61-1.21,1.2,1.93,0,1.69-1.87-.37-1.94.16-3.82-.2-.72-.12-2.19-5.78-2.19-8s2.47-3.42,3.2-3.42c2.78,0,10.63-1.73,19.45-1.73,6.4,0,21.26,6.14,24,6.14.73,0-.64-3.17-.64-1s1.25,1.43.52,1.55c-3.56.38-3.52.71-7.08,1.07-1.21.12.51.49,1,1.58,6.69,13.6-3.22,22.15,8.33,32,4.92,4.19,9.87-8.46,12-14.56,4.47-12.81,1-19.8-2.47-21s-5.22,3.65-8.79,2.44c-.72-.24-5.75-.86-5.75-3s5.2,2.34,5.92,2.34c2.78,0,10.51-7.42,16.92-7.42s12.44,2.17,15.22,2.17C307.25,42.78,304.36,43.51,304.36,45.69Zm113.42,0c0,2.17.63-4.33-.1-4C415.21,43,421.46,55.18,419,56.45c-2.29,1.21-5.17-3-12.18,10-4.46,8.22-.15,10.58-4.63,18.79-2.53,4.59-8.22,17.08-10.76,22.16-.72,1.44-8.05,5.87-10.47,5.87s2-10.06,1.39-11.51c-2.29-5.08-15.23-13.37-17.89-18.56-2.95-5.75,2.72-6.75-3.74-6.69-6.81.06,1.43,3-2.12,8.81-2.78,4.59-10.77,15.56-13.31,20.63-.72,1.45-5.16,6.53-7.58,6.53s-9.81-4-10.42-5.42c-2.29-5.08-4-18.43-6.54-23.62-7.72-15.65-6.1-16.45-13.83-32.1-.61-1.21-.43,2.61-1.64,2.37-1.87-.37-.09-9.66-2-10-.73-.12.32,4.21.32,2s-1.93-1-1.21-1c2.78,0,10.63.38,19.45.38,6.41,0,19-4.55,21.75-4.55s11.84,10.46,20.66,10.46c6.4,0,20.42-1.42,23.2-1.42.72,0-5.27-6-5.27-3.83s6.08,3.24,5.36,3.36c-3,.38-2.33,6.33-5.36,6.68-1.2.12-8.17-3.29-7.57-2.08,5.81,12,11.55,8.31,20.83,17.83,3.3,3.37-2.23-1.42-.73-5.9,4.35-13,4.14-13.2.63-14.9-2.47-1.16-.67-5-3.14-6.15-.73-.36-7.71,3.33-7.71,1.16s5.25,3.83,6,3.83c2.78,0,9.54-.92,15.95-.92S418.29,45,421.06,45C421.79,45,417.78,43.51,417.78,45.69ZM359.09,58.48c-1.78-4.84.26-6.51-2.09-11.1-.6-1.21-8.47,8.12-9.68,7.88-2.35-.39-1.32-5.54-3.7-5.54s-1.54,5.24-4,5.58c-1.21.12,4.59-8.92,5.19-7.72,5.81,12.2.59,12.82,10.14,22.38,3.54,3.54,1.86,2.46,3.58-2.24C359.29,65.9,358.48,60.54,359.09,58.48Zm121.24-3.85c0,11.47-4.41,13.24-10.09,13.24-2.18,0-5.87,5.9-8.53,4.08-2.9-2-3.43-5.12-5-5.12-.61,0,2-.58,1.74-.34-.12,15.59.57,15.56.57,31.15,0,1.21-3.23-2.41-2-2.29,3.87.42,3.11,7.27,7,7.71.73.12,2.57-2.52,2.57-.35s-1.5,5.64-2.22,5.64c-2.78,0-10.63-.82-23.08-.82-8.82,0-16.79-.09-19.57-.09-.73,0-4.43-2.43-4.43-4.73s2.95-6.3,3.67-6.42c2.06-.41,2.49,1.79,4.55,1.37,1.21-.25,1.14,1.19,1.14,0,0-16-1.83-16-1.83-31.9,0-1.21,2.66-3.8,1.46-4-2.06-.37-2.31,1-4.36.62-.73-.12-.38.76-.38-1.17s-.35-1.55.37-1.79c9.91-3.87,18.33-11.43,28-18.32.36-.24,1.42,4.43,1.78,4.43.85,0-.21-2.68-.21-1.84,0,1.94,5.26,14,5.26,21.82,3.63-11.72,8-23.28,15.37-23.28S480.33,48,480.33,54.63Zm6.87,48.08c0-2.17-1.85,3-1.13,2.83,2.06-.42,0-10.53,2.07-11,1.21-.24,1.36,4.14,1.36,2.93,0-15.89-3.7-15.89-3.7-31.78,0-1.21,3.5,4.14,2.29,3.9-2-.38-2-.37-4.07-.73-.73-.12,4.31-5.83,4.31-7.76s-4.73-3.73-4-4c9.9-3.87,18.8-12,28.46-18.65a19.79,19.79,0,0,1,3.48-1.17c.84,0,6.26,5.43,6.26,6.27,0,2.06.86,10.27.86,25.13,0,14.38.54,14.38.54,28.76,0,1.21-4.79-.77-3.58-.53,2,.42,1.77,1.77,3.83,2.18.72.12,4.3,1.37,4.3,3.54s-3.76-1-4.48-1c-2.78,0-10.63,1.11-19.45,1.11s-16.92,1.35-19.57,1.35C484.25,104.12,487.2,104.89,487.2,102.71Zm8.43-80.22c0-7.85,2.39-7.94,10.49-7.94S525,14.64,525,22.49s-10.83,15-18.92,15S495.63,30.34,495.63,22.49Zm62.51,27.8c-2,11.79-2.09,12.43-2.09,24.39,0,11.24,7.82,10,13,10,1.57,0,2.42,2.44,3,2.44,1.33,0,7.17,4.33,6.68,5.54-3,7.61-15.25,18.49-26.49,18.49-12.69,0-24.09-12.87-24.09-25.92,0-16.55,8.48-16.55,8.48-33.1,0-1.21-4.07.2-5.4,0-2.17-.33-2.47,1.94-4.65,1.63-.84-.12-4.27-4.13-4.27-6.18s3.46-5.15,4.19-5.27c12.68-3,17.12-7.58,25-15.8.72-.72,3.91-2.74,5.84-2.74s4.23,4.57,4.35,5.42c.48,3.5-.81,8.36-.69,13.68,6.39,2.41,6.53-2.36,13.36-2.42,1.2,0-1.38,3.63-1.38,6.89s2.61,2.21,1.4,2.21C570.15,49.47,562.25,50.41,558.14,50.29Zm22.58,52.42c0-2.17-1.86,3-1.14,2.83,2.06-.42,0-10.53,2.07-11,1.21-.24,1.36,4.14,1.36,2.93,0-15.89-3.7-15.89-3.7-31.78,0-1.21,3.5,4.14,2.29,3.9-2.05-.38-2-.37-4.07-.73-.72-.12,4.32-5.83,4.32-7.76s-4.74-3.73-4-4c9.91-3.87,18.8-12,28.47-18.65a19.69,19.69,0,0,1,3.47-1.17c.85,0,6.27,5.43,6.27,6.27,0,2.06.85,10.27.85,25.13,0,14.38.55,14.38.55,28.76,0,1.21-4.8-.77-3.59-.53,2,.42,1.77,1.77,3.83,2.18.72.12,4.3,1.37,4.3,3.54s-3.75-1-4.48-1c-2.78,0-10.63,1.11-19.45,1.11s-16.91,1.35-19.57,1.35C577.76,104.12,580.72,104.89,580.72,102.71Zm8.42-80.22c0-7.85,2.4-7.94,10.49-7.94s18.92.09,18.92,7.94-10.82,15-18.92,15S589.14,30.34,589.14,22.49Zm112.34,80.22c0,2.18,2.66-2.53,1.93-2.53-2.78,0-10.63,8.5-19.45,8.5s-16-2.49-18.73-2.49c-.72,0-5.26-1.3-5.26-3.48s3.21-7.27,3.94-7.52c1.62-.44,1.65-.4,3.27-.84,1.21-.36,6.69,4.38,6.69,3.17,0-11.9-5.56-11.9-5.56-23.8,0-11.24-1-11.21-9.12-11.21-.84,0,2-3.83,1.39-3.59-.3,19.33-1.21,19.27-1.21,38.6,0,1.21-1.42-3-.21-2.64,1.62.44,1.77-.08,3.4.37.72.24,1.71,5.29,1.71,7.46a3.69,3.69,0,0,1-3,3.36c-2.78,0-9.79,1.52-18.61,1.52s-16.79-5.6-19.57-5.6c-.73,0,.52,2.9.52.72s-1.05-1.53-.32-1.65c2.05-.41,2-.74,4.05-1.16,1.2-.24-.51-1.17-.51-2.38,0-15.89,6.56-15.89,6.56-31.78,0-1.21-4.21-5.6-5.42-5.85-2.05-.37-2.09-.27-4.15-.63-.72-.12-2.18,3.82-2.18,1.89s-.93-6.32-.2-6.56c9.91-3.87,23.59-1.84,33.26-8.73.36-.24-2-7.17-1.65-7.17.85,0,3.48,4.1,3.48,4.94,0,1.94-.82,5.8-.82,13,3.27-7.13,11-11.35,21.63-11.35,12.68,0,23.95,4.83,23.95,17.88,0,17.15-7.76,17.15-7.76,34.31,0,1.21,4,4.53,5.16,4.77,2.06.42,2.44-1.41,4.49-1C703.89,101.42,701.48,100.54,701.48,102.71Zm69,6.16c0,11.48-9.77,17.8-37.8,17.8-22,0-34.86,1.66-34.86-5.23,0-5,9.47-6.46,17.81-9-6.64-3-14.57-8.28-14.57-16.25,0-7,6-10.34,16-15-7.49-3.39-14-7.91-14-17.09,0-13,18.52-17.11,36.77-17.11,4.23,0,9.26-5.07,13.61-3.26,8.34-.36,15.87-3.21,19.13-3.21,1.69,0,6.34,4.61,6.34,6.18,0,4.23-4.77,9.37-6.34,9.37-2.42,0-1.79-1.26-5.66-1.62,2.54,3,5.16,4.7,5.16,9.29,0,13.17-18.47,24.11-36.71,24.11-2.78,0-5.72-1.72-8.62-2.56-2.3.6.13,1.28.13,3.09,0,2.66-1.3,7.42,7.4,7.42,5.44,0,5.44-1.93,10.87-1.93C762.85,93.82,770.45,98.61,770.45,108.87ZM758.4,121.44c0-3.5-6.06-11.56-21.76-11.56-3.33,0-3.33,10.17-6.65,10.17-2.9,0-5.55-3.88-8.09-4.48-1.33,1.09,2.61,1.64,2.61,3.09,0,5.08,2.46,3.58,14.42,3.58C749.69,122.24,758.4,124.7,758.4,121.44ZM727,52c0,14,10.64,35.12,14.75,35.12,2.18,0-1.39-6.37-1.39-10.84,0-14-3-28.57-7-28.57C731.2,47.68,727,47.5,727,52ZM777.5,90.75c0-8.58,5.77-13.15,14.71-13.15s17.48,4.57,17.48,13.15-8.54,15.47-17.48,15.47S777.5,99.33,777.5,90.75Zm-751,113.57c2.29,0-1-.56-.67.4,2.42,6,10.93,7.48,13,11s1.82,5.55,5.45,5.55c5.31,0,5.1-1.92,5.1-6.39s-.06-3.47-8.64-6C26,204.51,19.58,194,19.58,183.57c0-12,14.69-18.56,34.38-18.56,4.35,0,9-3.85,13.59-3.25,2.42.37,5.63,1.87,5.63,4.29,0,7.19,0,7.19,0,14.38,0,1-3.41,3.42-5.7,3.42s-5.93-1.18-6.3-2.15c-1.86-4.77-2.2-4.61-4.09-9.38-1.21-2.9.36-4.42-3.63-4.42s-6.61.08-6.61,4.55c0,4,2.13,3.69,10.23,6.59,13.65,4.83,14.61,14.31,14.61,23.5,0,14.13-8.56,22.63-27.9,22.63-7.12,0-12-.45-18.25-2.38-2.41-.72-2.34-.2-2.34-2.61,0-4.47-1.36-11.52-.76-17.08C22.59,202.14,24.36,204.32,26.54,204.32Zm81.5-34c-2,11.79-2.1,12.43-2.1,24.39,0,11.24,7.83,10,13,10,1.57,0,2.42,2.44,3,2.44,1.33,0,7.17,4.33,6.68,5.54-3,7.61-15.25,18.49-26.49,18.49-12.69,0-24.09-12.87-24.09-25.92,0-16.55,8.47-16.55,8.47-33.1,0-1.21-4.06.2-5.39,0-2.17-.33-2.47,1.94-4.65,1.63-.84-.12-4.27-4.13-4.27-6.18s3.46-5.15,4.19-5.27c12.68-3,17.11-7.58,25-15.8.72-.72,3.91-2.74,5.84-2.74s4.23,4.57,4.35,5.42c.48,3.5-.81,8.36-.69,13.68,6.39,2.41,6.53-2.36,13.35-2.42,1.21,0-1.37,3.63-1.37,6.89s2.61,2.21,1.4,2.21C120.05,169.47,112.15,170.41,108,170.29Zm58.4-5.16c21,0,31,9.25,31,28.83,0,20.54-11.06,36.2-33.41,36.2-21,0-36.36-15.66-36.36-35.24C127.67,174.38,144.09,165.13,166.44,165.13Zm-.86,56.75c1.45,1.45,4.37,4.51,5.58,4.51,2.41,0,.65-6.09.65-12.5,0-12.68-4.15-39.27-9.34-44.47-1.45-1.45-1.95,1.43-3.15,1.43-2.42,0,0-2.26,0,4.14C159.34,187.68,160.39,216.69,165.58,221.88ZM266.3,174.63c0,11.47-4.41,13.24-10.09,13.24-2.17,0-5.87,5.9-8.53,4.08-2.9-2-3.43-5.12-5-5.12-.6,0,2-.58,1.74-.34-.12,15.59.57,15.56.57,31.15,0,1.21-3.22-2.41-2-2.29,3.86.42,3.1,7.27,7,7.71.72.12,2.56-2.52,2.56-.35s-1.49,5.64-2.22,5.64c-2.78,0-10.63-.82-23.08-.82-8.81,0-16.79-.09-19.57-.09-.72,0-4.42-2.43-4.42-4.73s2.94-6.3,3.67-6.42c2.05-.41,2.49,1.79,4.54,1.37,1.21-.25,1.14,1.19,1.14,0,0-15.95-1.83-15.95-1.83-31.9,0-1.21,2.67-3.8,1.46-4-2-.37-2.31,1-4.36.62-.73-.12-.37.76-.37-1.17s-.36-1.55.37-1.79c9.9-3.87,18.32-11.43,28-18.32.36-.24,1.41,4.43,1.77,4.43.85,0-.21-2.68-.21-1.84,0,1.94,5.26,14,5.26,21.82,3.63-11.72,8-23.28,15.37-23.28S266.3,168,266.3,174.63Zm82.22-8.94c0,2.17.63-2.71-.1-2.35-2.83,1.29,1.32,10.5-1.52,11.77-2.41,1.09-4.37-1.46-11,11.11-9,16.92-5.88,18.55-14.79,35.51-3.65,7-2.81,7.33-6.38,14.33-6.28,12.32-16.46,21.57-26.48,21.57-7.5,0-8.81-10.27-8.81-17.76s1.8-14.69,9.29-14.69c4.47,0,6.81-.52,10.31,2.38,3.53-1.57,3.41,2.75,2-.87-10.86-28.47-12.41-27.36-26.18-54.54-.61-1.21,1.2,1.93,0,1.69-1.87-.37-1.94.16-3.82-.2-.72-.12-2.19-5.78-2.19-7.95s2.47-3.42,3.2-3.42c2.77,0,10.63-1.73,19.45-1.73,6.4,0,21.26,6.14,24,6.14.73,0-.64-3.17-.64-1s1.25,1.43.52,1.55c-3.56.38-3.52.71-7.09,1.07-1.2.12.52.49,1,1.58,6.69,13.6-3.23,22.15,8.33,32,4.92,4.19,9.87-8.46,12-14.56,4.47-12.81,1-19.8-2.48-21s-5.21,3.65-8.78,2.44c-.72-.24-5.75-.86-5.75-3s5.2,2.34,5.92,2.34c2.78,0,10.51-7.42,16.92-7.42s12.44,2.17,15.22,2.17C351.41,162.78,348.52,163.51,348.52,165.69Zm31.36,4.6c-2,11.79-2.1,12.43-2.1,24.39,0,11.24,7.82,10,13,10,1.57,0,2.41,2.44,3,2.44,1.33,0,7.16,4.33,6.68,5.54-3,7.61-15.26,18.49-26.5,18.49-12.68,0-24.09-12.87-24.09-25.92,0-16.55,8.48-16.55,8.48-33.1,0-1.21-4.06.2-5.39,0-2.18-.33-2.48,1.94-4.65,1.63-.85-.12-4.28-4.13-4.28-6.18s3.47-5.15,4.19-5.27c12.69-3,17.12-7.58,25-15.8.73-.72,3.92-2.74,5.85-2.74s4.23,4.57,4.35,5.42c.48,3.5-.82,8.36-.69,13.68,6.38,2.41,6.52-2.36,13.35-2.42,1.21,0-1.37,3.63-1.37,6.89s2.6,2.21,1.39,2.21C391.89,169.47,384,170.41,379.88,170.29Zm46.87,15c1.81,6,3.43,16.57,6.81,19.95,4.59,4.59,10.64-.31,15-.31,4.95,0,8,.72,11.23-2.18,1.09-1,7.7,3.12,7.21,4.33-4.95,12.33-21.7,23.22-34.75,23.22-18,0-35.81-16.25-35.81-35.34,0-19.45,18.53-29.32,40-29.32,18,0,29,5.64,29,17.24,0,1.09,1.75,3.12,1.51,4-.12.49-3.47,3.18-4.2,3.18C453.29,190.46,438.23,185.61,426.75,185.25Zm14.63-11.95c0-4.59-4.19-11-7.57-11-3.75,0-4.17,7.32-4.17,14.57,0,2.42-2.65,4.42-2.16,7,1.76.83,1.23-2.91,3.17-3.13C436.21,180.13,441.38,179.46,441.38,173.3Zm30.77,49.41c0-2.17-1.93,3.14-1.2,3,2.05-.41-.06-10.88,2-11.3,1.21-.25,1.36,4.3,1.36,3.09,0-31.11-3.83-31.11-3.83-62.22,0-1.21,3.63,4.32,2.42,4.08l-4.07-.73c-.72-.12,4.5-6,4.5-7.94s-4.9-3.8-4.18-4c9.91-3.86,18.74-12.07,28.4-18.71a21.07,21.07,0,0,1,3.56-1.21c.85,0,6.38,5.59,6.38,6.44,0,2.05.92,10.27.92,25.13,0,29.6.56,29.6.56,59.2,0,1.21-5-.85-3.76-.61,2.05.42,1.76,1.82,3.82,2.23.72.12,4.42,1.4,4.42,3.57s-3.88-1.18-4.6-1.18c-2.78,0-10.64,1.18-19.45,1.18s-16.8,1.37-19.58,1.37C469.09,224.08,472.15,224.89,472.15,222.71Zm44.34,0c0-2.17-1.93,3.14-1.2,3,2.05-.41-.06-10.88,2-11.3,1.21-.25,1.36,4.3,1.36,3.09,0-31.11-3.83-31.11-3.83-62.22,0-1.21,3.63,4.32,2.42,4.08l-4.07-.73c-.72-.12,4.5-6,4.5-7.94s-4.9-3.8-4.18-4c9.91-3.86,18.74-12.07,28.4-18.71a21.07,21.07,0,0,1,3.56-1.21c.85,0,6.38,5.59,6.38,6.44,0,2.05.92,10.27.92,25.13,0,29.6.56,29.6.56,59.2,0,1.21-5-.85-3.76-.61,2.05.42,1.76,1.82,3.82,2.23.72.12,4.42,1.4,4.42,3.57s-3.88-1.18-4.6-1.18c-2.78,0-10.64,1.18-19.46,1.18s-16.79,1.37-19.57,1.37C513.43,224.08,516.49,224.89,516.49,222.71Zm44.47,0c0-2.17-1.86,2.95-1.13,2.83,2-.42,0-10.53,2.06-10.95,1.21-.24,1.36,4.14,1.36,2.93,0-15.89-3.69-15.89-3.69-31.78,0-1.21,3.49,4.14,2.29,3.9-2.06-.38-2-.37-4.07-.73-.73-.12,4.31-5.83,4.31-7.76s-4.73-3.73-4-4c9.91-3.87,18.81-12,28.47-18.65a19.69,19.69,0,0,1,3.47-1.17c.85,0,6.27,5.43,6.27,6.27,0,2.06.86,10.27.86,25.13,0,14.38.54,14.38.54,28.76,0,1.21-4.79-.77-3.59-.53,2.06.42,1.78,1.77,3.83,2.18.73.12,4.31,1.37,4.31,3.54s-3.76-1.05-4.48-1.05c-2.78,0-10.64,1.11-19.46,1.11s-16.91,1.35-19.57,1.35C558,224.12,561,224.89,561,222.71Zm8.43-80.22c0-7.85,2.39-7.94,10.49-7.94s18.92.09,18.92,7.94-10.83,15-18.92,15S569.39,150.34,569.39,142.49Zm112.34,80.22c0,2.18,2.65-2.53,1.93-2.53-2.78,0-10.64,8.5-19.45,8.5s-16-2.49-18.73-2.49c-.73,0-5.26-1.3-5.26-3.48s3.21-7.27,3.93-7.52c1.63-.44,1.65-.4,3.28-.84,1.21-.36,6.68,4.38,6.68,3.17,0-11.9-5.55-11.9-5.55-23.8,0-11.24-1-11.21-9.12-11.21-.85,0,2-3.83,1.39-3.59-.3,19.33-1.22,19.27-1.22,38.6,0,1.21-1.42-3-.21-2.64,1.63.44,1.78-.08,3.4.37.73.24,1.71,5.29,1.71,7.46a3.68,3.68,0,0,1-3,3.36c-2.78,0-9.79,1.52-18.6,1.52s-16.8-5.6-19.58-5.6c-.72,0,.52,2.9.52.72s-1-1.53-.32-1.65c2.06-.41,2-.74,4-1.16,1.21-.24-.51-1.17-.51-2.38,0-15.89,6.56-15.89,6.56-31.78,0-1.21-4.2-5.6-5.41-5.85-2.05-.37-2.1-.27-4.15-.63-.73-.12-2.19,3.82-2.19,1.89s-.92-6.32-.2-6.56c9.91-3.87,23.6-1.84,33.26-8.73.36-.24-2-7.17-1.64-7.17.84,0,3.48,4.1,3.48,4.94,0,1.94-.82,5.8-.82,13.05,3.26-7.13,11-11.35,21.62-11.35,12.69,0,24,4.83,24,17.88,0,17.15-7.77,17.15-7.77,34.31,0,1.21,4,4.53,5.17,4.77,2.05.42,2.43-1.41,4.49-1C684.13,221.42,681.73,220.54,681.73,222.71Zm69,6.16c0,11.48-9.78,17.8-37.81,17.8-22,0-34.86,1.66-34.86-5.23,0-4.95,9.48-6.46,17.81-9-6.64-3-14.56-8.28-14.56-16.25,0-7,6-10.34,16-15.05-7.49-3.39-14-7.91-14-17.09,0-13.05,18.52-17.11,36.76-17.11,4.23,0,9.27-5.07,13.61-3.26,8.34-.36,15.87-3.21,19.13-3.21,1.7,0,6.34,4.61,6.34,6.18,0,4.23-4.77,9.37-6.34,9.37-2.41,0-1.79-1.26-5.66-1.62,2.54,3,5.16,4.7,5.16,9.29,0,13.17-18.46,24.11-36.71,24.11-2.78,0-5.72-1.72-8.62-2.56-2.29.6.13,1.28.13,3.09,0,2.66-1.29,7.42,7.4,7.42,5.44,0,5.44-1.93,10.88-1.93C743.1,213.82,750.7,218.61,750.7,228.87Zm-12.06,12.57c0-3.5-6-11.56-21.76-11.56-3.32,0-3.32,10.17-6.64,10.17-2.9,0-5.56-3.88-8.09-4.48-1.33,1.09,2.61,1.64,2.61,3.09,0,5.08,2.46,3.58,14.42,3.58C729.93,242.24,738.64,244.7,738.64,241.44ZM707.2,172c0,14,10.65,35.12,14.75,35.12,2.18,0-1.39-6.37-1.39-10.84,0-14-3-28.57-6.94-28.57C711.44,167.68,707.2,167.5,707.2,172Zm50.54,38.78c0-8.58,5.78-13.15,14.72-13.15s17.47,4.57,17.47,13.15-8.53,15.47-17.47,15.47S757.74,219.33,757.74,210.75Zm-567.68,132c0,2.18,4.11-5.08,3.38-5.08-2.77,0-10.63,13.2-19.45,13.2s-16-4.17-18.72-4.17c-.73,0-7.42-1.77-7.42-4s4.7-9.72,5.42-10c1.63-.44,1.66-.39,3.29-.83,1.21-.37,9.31,6.81,9.31,5.6,0-11.9-8.34-11.9-8.34-23.8,0-11.24-.21-9.19-8.3-9.19-.85,0,3.51-4.13,2.79-3.88.24,1.32-1.19,1-1.19,2.56,0,17.15,2.48,17.15,2.48,34.31,0,1.21-4.55-5.9-3.34-5.54,1.63.44.5,4.65,2.12,5.09.73.25,1.38,3.47,1.38,5.64S152,350,151.28,350c-2.78,0-9.79-10.53-18.61-10.53S116.72,343,114,343c-.73,0,.57,1.87.57-.31s-1-1.39-.3-1.64c1.63-.44.65-4.06,2.27-4.5,1.21-.36,9.29,2.16,9.29.95,0-11.9-.59-11.9-.59-23.8,0-11.24-9.19-21.61-17.29-21.61-.84,0-1.32,6.52-1.93,6.76-.3,19.33,6.15,19.32,6.15,38.65,0,1.21-8.4,7.87-7.19,8.23,1.63.44,4.64-10.68,6.27-10.23.72.24.23,5,.23,7.19s-.75,2.73-1.47,2.73c-2.78,0-9.79-5.22-18.61-5.22s-16.79,10.16-19.57,10.16c-.72,0,5.57-5.49,5.57-7.67s-5.37,2.09-4.64,2c2.05-.41,1.5-3.19,3.56-3.61,1.21-.24-2.73-2.34-2.73-3.55,0-15.89-2.06-15.89-2.06-31.78,0-1.21,4.93,2.46,3.72,2.21-2-.37-2-.31-4.09-.67-.73-.12,2.88-4.2,2.88-6.13s-5.24-8-4.51-8.25c9.91-3.87,18.13-8.75,27.8-15.64.36-.24,4.1,5.85,4.46,5.85.85,0,9-.32,9,.52,0,1.94-6.3,5.8-6.3,13.05,3.26-7.13,11-7.34,21.62-7.34,10.15,0,18.4-5.69,20.81,3,3.39-7,10.24-3.55,20.51-3.55,12.68,0,14,1.36,14,14.41,0,17.15,14,17.15,14,34.31,0,1.21-6.45-2.33-5.24-2.09,2,.42.17,9.78,2.22,10.19C193.06,345.74,190.06,340.54,190.06,342.71Zm42.35-14.2c-3.87,9.67-11.54,13.45-20.36,13.45-9.3,0-19.4-3.11-19.4-12.54,0-7.37,5.61-12.31,11.89-15.7,5.68-3,13.32-8.19,24.79-10.73,1.69-.94-2.54,1.3-2.54-.63,0-8.7,1.69-9.67-2.9-9.67-1.21,0-5-4.48-5.28-2.91-.43,2.9,4.31,3.59,3.9,6.49-1.21,8.7-7.68,16.08-14.45,16.08-3.74,0-10.62-5.76-10.62-10.23,0-7.74,18.48-22,37-22,16.43,0,28,9,28,20.69,0,11.11.43,11.11.43,22.23,0,9.66-3.36,8.43-.09,6.25.36-.24,1.46.41,1.71.41,1.08,0,5.65,3.37,5.65,4.09s-5.23-.9-5.95-.18c-.25.25.84,1.33.6,1.57-7.25,7.25-11.54,10.29-17.46,10.29C240.2,345.45,235.43,339,232.41,328.51Zm1.23.77c.17-4.28,1.88-4.39,1.88-8.68,0-2.65-8.08-2-9.53-3.43s-.89-4.09-2.1-4.09c-2.42,0,.2.64.2,4.26,0,6.77.89,8.34,4.87,8.34C230.17,325.68,233.28,329.65,233.64,329.28Zm93.85-34.65c0,11.47-4.41,13.24-10.09,13.24-2.17,0-5.87,5.9-8.53,4.08-2.89-2.05-3.43-5.12-5-5.12-.6,0,2-.58,1.74-.34-.12,15.59.58,15.56.58,31.15,0,1.21-3.23-2.41-2-2.29,3.86.42,3.11,7.27,7,7.71.73.12,2.57-2.52,2.57-.35s-1.5,5.64-2.23,5.64c-2.77,0-10.63-.82-23.07-.82-8.82,0-16.8-.09-19.58-.09-.72,0-4.42-2.43-4.42-4.73s2.95-6.3,3.67-6.42c2.06-.41,2.49,1.79,4.55,1.37,1.2-.25,1.13,1.19,1.13,0,0-15.95-1.83-15.95-1.83-31.9,0-1.21,2.67-3.8,1.46-4-2.05-.37-2.3,1-4.36.62-.72-.12-.37.76-.37-1.17s-.35-1.55.37-1.79c9.91-3.87,18.32-11.43,28-18.32.36-.24,1.42,4.43,1.78,4.43.84,0-.21-2.68-.21-1.84,0,1.94,5.26,14,5.26,21.82,3.62-11.72,8-23.28,15.37-23.28S327.49,288,327.49,294.63ZM419,342.71c0,2.18,3.06-3.25,2.34-3.25-2.78,0-12.57,9.83-23.81,9.83-10,0-19.93-3-22.71-3-.72,0-5.86-1.43-5.86-3.61s4.26-8.22,5-8.34c2-.3,1.95-.26,3.94-.58,1.2-.24,5.67,2.36,4.82,1.28-6.85-9.77-5.4-15-17.33-15.14-9.73-.09,4.6,7.86,4.6,17.59,0,1.21-3.3-3-2.09-2.81,1.75.4,1.43,1.79,3.18,2.19.73.12,5.37,3.64,5.37,5.81s-5.36,8.22-6.09,8.22c-2.78,0-10-4.18-18.85-4.18s-16.79-.57-19.57-.57c-.72,0-4.61-1.29-4.61-3.47s4.62,1.11,5.34,1c2.06-.41,1.66-2.41,3.72-2.83,1.21-.24,2.28-2.14,2.28-3.35,0-31.11-.37-31.11-.37-62.22,0-1.21-1.42.71-2.62.47-2.06-.37-.75-7.74-2.81-8.1-.72-.12,3.06,5,3.06,3s-3,2.47-2.24,2.23c9.91-3.87,18.6-15,28.26-21.66.37-.24.92-5.13,1.28-5.13.85,0-2,6.19-2,7,0,2.05,7.75,10.27,7.75,25.13,0,17.21-8.54,17.94-3.21,34.31,1.76,5.4,4-3.5,8.49-7,16.79-13.17,18-17.32,15.57-18.05-4.17-1.17-6.09,5.68-10.25,4.52-.73-.24,5-4.24,5-6.41s-4.72,1-4,1c2.78,0,12.69-1.29,19.09-1.29s16.07-5.17,18.85-5.17c.72,0,5.41,3.24,5.41,5.42s-3.85,5.21-4.58,5.45L409.94,294c-2.41.72-7.86-2.58-23.93,9.63-.2.15,4.64-1.06,4.8-.87,13.64,16.06,13.63,16,27.44,31.91,1,1.21-2.09,5.42-.88,5.66,1.88.37,2.88-4.94,4.76-4.58C422.85,335.83,419,340.54,419,342.71Zm26.69-37.46c1.81,6,3.42,16.57,6.81,19.95,4.59,4.59,10.64-.31,15-.31,5,0,8,.72,11.23-2.18,1.09-1,7.69,3.12,7.21,4.33-4.95,12.33-21.7,23.22-34.75,23.22-18,0-35.81-16.25-35.81-35.34,0-19.45,18.53-29.32,40-29.32,18,0,29.05,5.64,29.05,17.24,0,1.09,1.75,3.12,1.51,4-.12.49-3.47,3.18-4.2,3.18C472.2,310.46,457.14,305.61,445.66,305.25Zm14.63-11.95c0-4.59-4.19-10.95-7.57-10.95-3.75,0-4.17,7.32-4.17,14.57,0,2.42-2.65,4.42-2.16,6.95,1.76.83,1.23-2.91,3.17-3.13C455.12,300.13,460.29,299.46,460.29,293.3Zm57-3c-2,11.79-2.1,12.43-2.1,24.39,0,11.24,7.82,10,13,10,1.57,0,2.42,2.44,3,2.44,1.33,0,7.16,4.33,6.68,5.54-3,7.61-15.26,18.49-26.49,18.49-12.69,0-24.1-12.87-24.1-25.92,0-16.55,8.48-16.55,8.48-33.1,0-1.21-4.06.2-5.39,0-2.17-.33-2.48,1.94-4.65,1.63-.85-.12-4.28-4.13-4.28-6.18s3.47-5.15,4.19-5.27c12.69-3,17.12-7.58,25-15.8.73-.72,3.92-2.74,5.85-2.74s4.23,4.57,4.35,5.42c.48,3.5-.82,8.36-.69,13.68,6.38,2.41,6.52-2.36,13.35-2.42,1.21,0-1.37,3.63-1.37,6.89s2.6,2.21,1.4,2.21C529.32,289.47,521.42,290.41,517.31,290.29Zm22.57,52.42c0-2.17-1.86,3-1.13,2.83,2.06-.42,0-10.53,2.07-11,1.2-.24,1.35,4.14,1.35,2.93,0-15.89-3.69-15.89-3.69-31.78,0-1.21,3.5,4.14,2.29,3.9-2.06-.38-2-.37-4.07-.73-.73-.12,4.31-5.83,4.31-7.76s-4.73-3.73-4-4c9.9-3.87,18.8-12,28.46-18.65a19.79,19.79,0,0,1,3.48-1.17c.84,0,6.26,5.43,6.26,6.27,0,2.06.86,10.27.86,25.13,0,14.38.54,14.38.54,28.76,0,1.21-4.79-.77-3.59-.53,2.06.42,1.78,1.77,3.83,2.18.73.12,4.31,1.37,4.31,3.54s-3.76-1-4.48-1c-2.78,0-10.63,1.11-19.45,1.11s-16.92,1.35-19.58,1.35C536.93,344.12,539.88,344.89,539.88,342.71Zm8.43-80.22c0-7.85,2.39-7.94,10.49-7.94s18.92.09,18.92,7.94-10.83,15-18.92,15S548.31,270.34,548.31,262.49Zm112.34,80.22c0,2.18,2.65-2.53,1.93-2.53-2.78,0-10.63,8.5-19.45,8.5s-16-2.49-18.73-2.49c-.73,0-5.26-1.3-5.26-3.48s3.21-7.27,3.93-7.52c1.63-.44,1.65-.4,3.28-.84,1.21-.36,6.68,4.38,6.68,3.17,0-11.9-5.55-11.9-5.55-23.8,0-11.24-1-11.21-9.12-11.21-.85,0,2-3.83,1.39-3.59-.3,19.33-1.21,19.27-1.21,38.6,0,1.21-1.43-3-.22-2.64,1.63.44,1.78-.08,3.4.37.73.24,1.72,5.29,1.72,7.46a3.69,3.69,0,0,1-3,3.36c-2.78,0-9.78,1.52-18.6,1.52S585,342,582.23,342c-.72,0,.52,2.9.52.72s-1-1.53-.32-1.65c2.06-.41,2-.74,4.05-1.16,1.21-.24-.51-1.17-.51-2.38,0-15.89,6.56-15.89,6.56-31.78,0-1.21-4.2-5.6-5.41-5.85-2-.37-2.1-.27-4.15-.63-.73-.12-2.19,3.82-2.19,1.89s-.92-6.32-.2-6.56c9.91-3.87,23.6-1.84,33.26-8.73.37-.24-2-7.17-1.64-7.17.84,0,3.48,4.1,3.48,4.94,0,1.94-.82,5.8-.82,13.05,3.26-7.13,11-11.35,21.62-11.35,12.69,0,24,4.83,24,17.88,0,17.15-7.77,17.15-7.77,34.31,0,1.21,4,4.53,5.17,4.77,2.06.42,2.43-1.41,4.49-1C663.05,341.42,660.65,340.54,660.65,342.71Zm69,6.16c0,11.48-9.78,17.8-37.81,17.8-22,0-34.86,1.66-34.86-5.23,0-4.95,9.48-6.46,17.82-9-6.65-3-14.57-8.28-14.57-16.25,0-7,6-10.34,16-15.05-7.49-3.39-14-7.91-14-17.09,0-13.05,18.52-17.11,36.76-17.11,4.23,0,9.27-5.07,13.62-3.26,8.33-.36,15.86-3.21,19.13-3.21,1.69,0,6.33,4.61,6.33,6.18,0,4.23-4.76,9.37-6.33,9.37-2.42,0-1.8-1.26-5.67-1.62,2.54,3,5.17,4.7,5.17,9.29,0,13.17-18.47,24.11-36.72,24.11-2.78,0-5.72-1.72-8.62-2.56-2.29.6.13,1.28.13,3.09,0,2.66-1.29,7.42,7.41,7.42,5.43,0,5.43-1.93,10.87-1.93C722,333.82,729.62,338.61,729.62,348.87Zm-12.06,12.57c0-3.5-6-11.56-21.76-11.56-3.32,0-3.32,10.17-6.64,10.17-2.9,0-5.55-3.88-8.09-4.48-1.33,1.09,2.61,1.64,2.61,3.09,0,5.08,2.46,3.58,14.42,3.58C708.85,362.24,717.56,364.7,717.56,361.44ZM686.12,292c0,14,10.65,35.12,14.76,35.12,2.17,0-1.4-6.37-1.4-10.84,0-14-3-28.57-6.94-28.57C690.36,287.68,686.12,287.5,686.12,292Zm50.54,38.78c0-8.58,5.78-13.15,14.72-13.15s17.47,4.57,17.47,13.15-8.53,15.47-17.47,15.47S736.66,339.33,736.66,330.75Z"/><path class="cls-2" d="M34.57,105.05c-9.1,0-15.34-3.5-20.86-9.12S1.62,84.24,1.62,74.92c0-10,5.92-18.73,13-24.43,6.57-5.27,15.81-9.85,26.07-9.85,15.35,0,26.16,10,26.16,18,0,4.72-5.86,10.57-11.3,10.57S47.71,62.76,44.2,56.11c-4.47-8.46-7.7-8.37-10.35-8.37s-2.57,1.09-2.57,5.68c0,10.51,4.92,23.38,12.17,30.63,3.63,3.62,4.77,4.72,8.64,4.72,3.5,0,4.78-1.61,7.8-4.14,1.08-.85,7.41,3.7,6.93,4.91-2.06,5-8.06,9.77-14.09,13.12C47.8,105.4,41.32,105.05,34.57,105.05Zm73.82-61a34.72,34.72,0,0,1,23.37,8.36C138.4,57.8,146.09,63.84,146.09,74c0,10.69-6.11,19.41-13.32,25-6.64,5.09-16.09,9.62-26.8,9.62-10.16,0-20.42-3-26.63-8C72.7,95.08,67.89,85,67.89,74.92c0-10.69,8-17.44,15.22-23C89.74,46.85,97.68,44,108.39,44Zm-.08,57.08c1.45,1.45,3.58,3.35,4.79,3.35,2.42,0,2.29-4.15,2.29-10.56,0-5.86.14-14.71-2.07-23.16-2.56-9.84-7.07-17.56-9.86-20.35-1.45-1.45-1-.79-2.2-.79-2.42,0-1.9-1-1.9,5.4,0,5.86-2.93,15.33-.72,23.79C101.2,88.62,105.52,98.31,108.31,101.1ZM225.1,72.75c0,10.34-3.45,16.33-8.86,22-5.58,5.83-11.46,13.8-21.59,13.8-4.47,0-7.76-3-11.26-4-1.81,9.56,2.1,9.62,2.1,19.35,0,1.2-1.81-1.63-.6-1.39,2.06.42,2,.44,4.1.85.72.12-2.1,3.44-2.1,5.73s2.21,3.56,1.48,3.56c-2.78,0-10.63.64-19.45.64s-16.8.86-19.57.86c-.73,0-2.74-2.88-2.74-5.06s1.46-5.28,2.19-5.4c2-.41,2-.73,4-1.15,1.21-.24.79,2.56.79,1.36,0-14.53.77-14.53.77-29.06s-1.48-14.53-1.48-29.06c0-1.21,2.12-3.33.91-3.57-2-.37-2.26.72-4.31.36-.73-.12-.49.55-.49-1.38s-.24-1.64.48-1.89c9.91-3.86,18.52-11.12,28.18-18,.37-.24,1.27,3.52,1.63,3.52.84,0,.43-2,.43-1.15,0,2.06,3.36,7.35,3.36,15,4.1-9.55,10.34-16.36,18.68-16.36,7.05,0,16.37,1.77,21.2,8.11C226.76,55.32,225.1,63.94,225.1,72.75ZM202,95.34c0-5.64-.3-13.76-2.56-20.35C197,67.75,188.69,64,185.28,60.62c-1.21-1.21-.17-2.75-1-2.75-.48,0,1.71-.38,1.23,0-.24,7.79.46,7.71.46,15.5,0,11.48,3.91,20.38,8,24.49,1.45,1.45.44,6.59,2,6.59C198.52,104.43,202,99.69,202,95.34ZM305.7,45.69c0,2.17.26-.57-.46-.2-2.84,1.28-.47,6.54-3.31,7.81-2.41,1.08-3.95.15-10.59,12.72-4.49,8.46-2.67,9.43-7.17,17.88S280,92.52,275.58,101c-3.63,7-3.55,7-7.12,14-6.28,12.32-14.37,14.77-24.39,14.77-7.49,0-14.06-2.41-14.06-9.9s7.05-15.41,14.54-15.41c4.47,0,7.56,1.89,11.06,4.79,3.54-1.58,4.4,0,3.65-3.78-2-10-5.35-8.15-9.94-17.21s-4.86-8.92-9.45-18-3-9.88-7.57-18.94c-.6-1.21.43-1.53-.77-1.78-1.88-.36-2.15,1.08-4,.72-.72-.12,1.42-2.42,1.42-4.59s-1.78-1.62-1.05-1.62c2.78,0,10.63.56,19.45.56,6.4,0,21.26-1.05,24-1.05.73,0,2.09-.07,2.09,2.11s-1.68-.38-2.4-.26c-3.56.38-3.52.6-7.09,1-1.21.13-3.42,4.44-2.93,5.53,6.68,13.6,4.41,16,16,25.8,4.92,4.18-.76-6.81,1.36-12.91,4.47-12.8,7.56-15.6,4.06-16.81s-5.08,3.26-8.65,2.06c-.72-.24-.55-2.2-.55-4.37s.45-2.62,1.17-2.62c2.78,0,10.51,2.65,16.92,2.65S303.75,41,306.53,41C307.25,41,305.7,43.51,305.7,45.69Zm113.9,0c0,2.17.26-1.49-.47-1.13-2.48,1.27,1.1,8.23-1.37,9.51-2.3,1.2-4.46-.88-11.47,12.05-4.46,8.22-2,9.57-6.47,17.78-2.54,4.59-8.69,17-11.23,22-.72,1.45-5.22,4.14-7.64,4.14s-.26-5.91-.86-7.36c-2.3-5.08-12.07-14.84-14.73-20-2.95-5.74,1.78-8.8-4.67-8.74-6.81.06-.72,4.2-4.27,10-2.78,4.59-10.19,16.09-12.73,21.16-.72,1.45-3.57,4.51-6,4.51s-6.95-2.42-7.56-3.87c-2.29-5.08-5.7-17.73-8.24-22.92-7.72-15.66-6.8-16.11-14.53-31.76-.61-1.2-.51.87-1.72.63-1.87-.36-.85-5.67-2.72-6-.73-.12-.23,2.2-.23,0s-1-1.68-.28-1.68c2.78,0,10.63.57,19.45.57,6.41,0,19-2.95,21.75-2.95S355.46,48,364.28,48c6.4,0,20.42-1.17,23.2-1.17.72,0-2.6-3.28-2.6-1.1s3.37,2.94,2.65,3.06c-3,.37-2.63,3.77-5.65,4.13-1.21.12-5.29-1.68-4.69-.47,5.81,12,7.59,10.93,16.88,20.44,3.29,3.38-.63-2.72.87-7.2,4.35-13.05,4-13.34.47-15-2.47-1.16-1.45-3.34-3.92-4.5-.73-.36-4.82,1.75-4.82-.42s3.1,1.1,3.83,1.1c2.78,0,9.54-.16,15.95-.16s11.84-2.42,14.61-2.42C421.79,44.21,419.6,43.51,419.6,45.69ZM357.38,59.11c-1.77-4.85-.86-5.69-3.21-10.28-.61-1.21-5.21,4-6.42,3.78-2.35-.39-1.75-3.48-4.13-3.48s-1.91,3.16-4.33,3.5c-1.21.12,2.1-4.89,2.7-3.68,5.81,12.19,1.22,13.68,10.77,23.24,3.54,3.54,1.77-.62,3.49-5.32C357,65.06,356.77,61.16,357.38,59.11Zm123.9-4.48c0,11.47-5.36,14.92-11,14.92-2.18,0-5.07,3.06-7.72,1.24-2.9-2.05-4.24-4.27-5.81-4.27-.61,0,.56-.28.32,0-.12,15.59.33,15.57.33,31.16,0,1.21-1.74-.75-.54-.63,3.87.41,3.44,4.32,7.3,4.76.73.12,1.88-1.23,1.88.94s-1,4.31-1.68,4.31c-2.78,0-10.63-.83-23.08-.83-8.82,0-16.79.31-19.57.31a4.1,4.1,0,0,1-2.95-3.79c0-2.29,1.79-4.69,2.52-4.81,2.05-.41,2.3.84,4.35.42,1.21-.24,1.28.53,1.28-.68,0-16-1.05-16-1.05-31.9,0-1.21,1.42-2.74.21-3-2-.37-2.19.4-4.25,0-.72-.12-.63.28-.63-1.65s-.1-1.76.63-2c9.91-3.86,18.76-10.72,28.42-17.61.36-.24,1.07,2.38,1.43,2.38.85,0,1.23-1.12,1.23-.28,0,1.94,2.8,13,2.8,20.86,3.62-11.72,9-22.16,16.39-22.16S481.28,48,481.28,54.63Zm4.61,48.08c0-2.17-1,.69-.27.57,2.06-.42.85-6.37,2.91-6.79,1.21-.24,1.39,2.24,1.39,1,0-15.89-2.17-15.89-2.17-31.78,0-1.21,2,1.88.75,1.64l-4.09-.73c-.72-.12,2.14-3.57,2.14-5.5s-2.68-3-2-3.28C494.5,54,504.16,46.68,513.83,40a9.68,9.68,0,0,1,2.44-.84c.84,0,5,3.59,5,4.43,0,2.06.1,10.27.1,25.13,0,14.38.32,14.38.32,28.76,0,1.21-2.72.14-1.51.38,2.05.42,1.89,1.23,3.94,1.64.73.12,2.93,1,2.93,3.17s-2.31.43-3,.43c-2.78,0-10.63.3-19.45.3s-16.92,1.15-19.57,1.15C484.25,104.59,485.89,104.89,485.89,102.71Zm8.28-80.22C494.17,14.64,498,12,506.12,12s16.77,2.64,16.77,10.49S514.21,37,506.12,37,494.17,30.34,494.17,22.49Zm65.13,28c-2,11.79-1.2,12.23-1.2,24.19,0,11.24,5.77,11.7,11,11.7,1.57,0,2.42,1.08,3,1.08,1.33,0,5.55,3.3,5.06,4.51-3,7.61-13.63,17.1-24.87,17.1-12.69,0-22-10.83-22-23.88,0-16.55,4.84-16.55,4.84-33.1,0-1.21-2.37-.46-3.7-.7-2.17-.32-2.35,1-4.52.68C526,52,524,49.55,524,47.5a5.13,5.13,0,0,1,2.81-4.15c12.69-3,18.17-7.44,26-15.66a7.26,7.26,0,0,1,4.53-2c1.94,0,3.4,2.67,3.52,3.51.49,3.51-.1,8.56,0,13.88,6.39,2.41,6.66-1.38,13.49-1.44,1.2,0-.06,2.34-.06,5.6s1.28,2.82.07,2.82C570.15,50.08,563.41,50.62,559.3,50.49Zm20.1,52.22c0-2.17-1,.69-.27.57,2.06-.42.86-6.37,2.91-6.79,1.21-.24,1.4,2.24,1.4,1,0-15.89-2.18-15.89-2.18-31.78,0-1.21,2,1.88.75,1.64l-4.08-.73c-.73-.12,2.13-3.57,2.13-5.5s-2.68-3-1.95-3.28C588,54,597.68,46.68,607.34,40a9.82,9.82,0,0,1,2.44-.84c.85,0,5,3.59,5,4.43,0,2.06.1,10.27.1,25.13,0,14.38.32,14.38.32,28.76,0,1.21-2.72.14-1.51.38,2.06.42,1.89,1.23,4,1.64.72.12,2.92,1,2.92,3.17s-2.3.43-3,.43c-2.78,0-10.63.3-19.45.3s-16.91,1.15-19.57,1.15C577.76,104.59,579.4,104.89,579.4,102.71Zm8.28-80.22c0-7.85,3.86-10.49,12-10.49s16.77,2.64,16.77,10.49S607.73,37,599.63,37,587.68,30.34,587.68,22.49Zm115,80.22c0,2.18,1.42-.36.69-.36-2.78,0-10.63,4.5-19.45,4.5s-16-1.06-18.73-1.06c-.72,0-3.42-.9-3.42-3.08s1.94-5.19,2.67-5.43c1.62-.45,1.64-.41,3.27-.85,1.2-.36,4.44,2.3,4.44,1.09,0-11.9-3.18-11.9-3.18-23.8,0-11.24-1.72-12.93-9.82-12.93-.84,0,.26-2.1-.34-1.86-.3,9.66-.69,9.59-.69,19.26s.94,9.66.94,19.33c0,1.21-1.58-1.42-.37-1.06,1.62.44,1.2,2,2.83,2.46.72.24,1.12,1.62,1.12,3.79s-.71,4.36-1.43,4.36c-2.78,0-9.79-4.53-18.61-4.53s-16.79,1.86-19.57,1.86c-.73,0-.38.49-.38-1.69s-.27-2.14.46-2.26c2.05-.41,1.76-1.84,3.82-2.26,1.21-.24,4.36.54,4.36-.67,0-15.89-.22-15.89-.22-31.78,0-1.21-2.29-3.72-3.5-4-2.05-.37-2.54,2.3-4.59,1.94-.72-.12-3.53-.64-3.53-2.57s3.78.35,4.51.11c9.9-3.87,17.36-13.65,27-20.54.36-.24,1.64.91,2,.91.85,0,3.21,1.16,3.21,2,0,1.94-.61,7.51-.61,14.76,3.26-7.13,11-17.8,21.69-17.8,12.68,0,18,9.57,18,22.62,0,17.15.69,17.15.69,34.31,0,1.21,1.89,2.16,3.1,2.4,2.05.42,2.48-1.69,4.54-1.28C704.42,98.76,702.72,100.54,702.72,102.71Zm69.08,6.16c0,7.15-4.44,11.53-15,16-6.39,2.72-13.59,10-24.17,10-22,0-30.79-6.52-30.79-13.41,0-5,3.83-6.94,12.17-9.48-6.65-3-11.46-7.8-11.46-15.77,0-7,6.68-9.64,16.71-14.35-7.5-3.38-8.35-8.61-8.35-17.79,0-7.3,1.16-14,8-17.73,5.35-2.93,12.86-6.15,20.9-6.15a37.42,37.42,0,0,1,13.69,2.77c8.34-.36,15.79.14,19,.14,1.69,0,4.72,2,4.72,3.57,0,4.23-3.15,9.38-4.72,9.38-2.42,0-5-2.88-8.88-3.25,2.53,3,3.47,6.32,3.47,10.91,0,7.34-3.58,15-10.32,18.84-5.36,3-13.4,1-21.48,1-2.78,0-5.64.74-8.54-.1a5.78,5.78,0,0,0-4.06,4.9c0,2.66,2.81,4.31,11.51,4.31,5.44,0,5.44-1.57,10.87-1.57,7.25,0,12.19,4.91,16.85,6.88C768.7,100.79,771.8,102.8,771.8,108.87ZM757,121.44c0-3.5-4.7-9.19-20.4-9.19-3.33,0-3.33,5.81-6.65,5.81-2.9,0-5.6-2.32-8.14-2.93-1.33,1.09.66,2.08.66,3.53,0,5.08,4.46,5.93,16.42,5.93C749.69,124.59,757,124.7,757,121.44ZM728.31,52c0,14,9.29,32.75,13.4,32.75,2.18,0,.6-4,.6-8.47,0-14-4.95-29-8.94-29C731.2,47.24,728.31,47.5,728.31,52ZM777,90.75c0-8.58,6.25-14,15.19-14S809,82.17,809,90.75s-7.83,15.31-16.77,15.31S777,99.33,777,90.75ZM26.54,203.35c2.29,0,.55-.22.91.75,2.42,6,8.11,8.82,10.16,12.33s3.06,5.14,6.69,5.14c5.31,0,6.54-2.24,6.54-6.71s-1-5.09-9.6-7.63c-14.74-4.34-20-13.27-20-23.66,0-6.89,6.7-11.5,13.48-15.46,5-2.91,10.86-6.9,19.21-6.9,4.35,0,9.07-.57,13.66,0a4.88,4.88,0,0,1,4.22,4.8c0,7.19-.54,7.19-.54,14.38a4.06,4.06,0,0,1-3.8,3.21c-2.3,0-4.74-1.44-5.1-2.4-1.87-4.78-.63-5.26-2.52-10-1.21-2.9-2.41-4.56-6.4-4.56s-5.82,1.32-5.82,5.79c0,4,0,7.42,8.11,10.32,13.65,4.83,17.83,10.58,17.83,19.77,0,7.8-3,13.86-9.27,18.07C59.23,224,52.47,226,43.81,226c-7.12,0-12.44.25-18.72-1.68-2.41-.73-.3-1.75-.3-4.16,0-4.47.42-11.15,1-16.7C25.93,202.51,24.36,203.35,26.54,203.35Zm82.66-32.86c-2,11.79-1.2,12.23-1.2,24.19,0,11.24,5.77,11.7,11,11.7,1.57,0,2.42,1.08,3,1.08,1.33,0,5.55,3.3,5.06,4.51-3,7.61-13.63,17.1-24.87,17.1-12.69,0-22-10.83-22-23.88,0-16.55,4.84-16.55,4.84-33.1,0-1.21-2.37-.46-3.7-.7-2.17-.32-2.35,1-4.52.68-.85-.12-2.86-2.52-2.86-4.57a5.13,5.13,0,0,1,2.81-4.15c12.68-3,18.17-7.44,26-15.66a7.26,7.26,0,0,1,4.53-2c1.94,0,3.4,2.67,3.52,3.51.49,3.51-.1,8.56,0,13.88,6.39,2.41,6.66-1.38,13.48-1.44,1.21,0-.05,2.34-.05,5.6s1.28,2.82.07,2.82C120.05,170.08,113.31,170.62,109.2,170.49ZM166.44,164a34.75,34.75,0,0,1,23.38,8.36c6.64,5.42,14.33,11.46,14.33,21.58,0,10.69-6.12,19.41-13.33,24.95-6.63,5.09-16.08,9.62-26.79,9.62-10.16,0-20.42-3-26.64-8-6.64-5.42-11.45-15.46-11.45-25.58,0-10.69,8-17.44,15.22-23C147.79,166.85,155.73,164,166.44,164Zm-.07,57.08c1.45,1.45,3.58,3.35,4.79,3.35,2.41,0,2.28-4.15,2.28-10.56,0-5.86.15-14.71-2.06-23.16-2.57-9.84-7.07-17.56-9.87-20.35-1.45-1.45-1-.79-2.19-.79-2.42,0-1.91-1-1.91,5.4,0,5.86-2.93,15.33-.72,23.79C159.26,208.62,163.57,218.31,166.37,221.1Zm100.89-46.47c0,11.47-5.37,14.92-11.05,14.92-2.17,0-5.06,3.06-7.72,1.24-2.9-2-4.24-4.27-5.81-4.27-.6,0,.56-.28.32,0-.12,15.59.33,15.57.33,31.16,0,1.21-1.74-.75-.53-.63,3.86.41,3.43,4.32,7.29,4.76.73.12,1.89-1.23,1.89.94s-1,4.31-1.69,4.31c-2.78,0-10.63-.83-23.08-.83-8.81,0-16.79.31-19.57.31a4.1,4.1,0,0,1-2.94-3.79c0-2.29,1.79-4.69,2.51-4.81,2.06-.41,2.3.84,4.36.42,1.21-.24,1.27.53,1.27-.68,0-15.95-1.05-15.95-1.05-31.9,0-1.21,1.43-2.74.22-3-2.06-.37-2.2.4-4.26,0-.72-.12-.62.28-.62-1.65s-.1-1.76.62-2c9.91-3.86,18.76-10.72,28.42-17.61.37-.24,1.07,2.38,1.43,2.38.85,0,1.23-1.12,1.23-.28,0,1.94,2.8,13,2.8,20.86,3.62-11.72,9-22.16,16.39-22.16S267.26,168,267.26,174.63Zm82.6-8.94c0,2.17.26-.57-.47-.2-2.83,1.28-.46,6.54-3.3,7.81-2.41,1.08-3.95.15-10.59,12.72-4.5,8.46-2.67,9.43-7.18,17.88s-4.15,8.62-8.58,17.11c-3.63,7-3.55,7-7.12,14-6.28,12.32-14.37,14.77-24.39,14.77-7.5,0-14.06-2.41-14.06-9.9s7.05-15.41,14.54-15.41c4.47,0,7.56,1.89,11.06,4.79,3.53-1.58,4.4,0,3.65-3.78-2-10-5.35-8.15-9.94-17.21s-4.86-8.92-9.45-18-3-9.88-7.57-18.94c-.61-1.21.43-1.53-.78-1.78-1.87-.36-2.14,1.08-4,.72-.73-.12,1.42-2.42,1.42-4.59s-1.78-1.62-1-1.62c2.77,0,10.63.56,19.45.56,6.4,0,21.26-1,24-1,.73,0,2.09-.07,2.09,2.11s-1.68-.38-2.4-.26c-3.57.38-3.53.6-7.09,1-1.21.13-3.42,4.44-2.93,5.53,6.68,13.6,4.41,16,16,25.8,4.92,4.18-.76-6.81,1.36-12.91,4.47-12.8,7.56-15.6,4.06-16.81s-5.09,3.26-8.65,2.06c-.73-.24-.55-2.2-.55-4.37s.45-2.62,1.17-2.62c2.78,0,10.51,2.65,16.92,2.65S347.91,161,350.69,161C351.41,161,349.86,163.51,349.86,165.69Zm31.18,4.8c-2,11.79-1.2,12.23-1.2,24.19,0,11.24,5.76,11.7,11,11.7,1.57,0,2.41,1.08,3,1.08,1.33,0,5.54,3.3,5.06,4.51-3,7.61-13.64,17.1-24.88,17.1-12.68,0-22.05-10.83-22.05-23.88,0-16.55,4.85-16.55,4.85-33.1,0-1.21-2.38-.46-3.71-.7-2.17-.32-2.34,1-4.52.68-.84-.12-2.85-2.52-2.85-4.57a5.14,5.14,0,0,1,2.8-4.15c12.69-3,18.17-7.44,26-15.66a7.23,7.23,0,0,1,4.53-2c1.93,0,3.4,2.67,3.52,3.51.48,3.51-.1,8.56,0,13.88,6.39,2.41,6.65-1.38,13.48-1.44,1.21,0-.06,2.34-.06,5.6s1.28,2.82.07,2.82C391.89,170.08,385.15,170.62,381,170.49Zm46.2,15.59c1.81,6,4.13,14.54,7.52,17.93,4.59,4.59,9.44,2.31,13.79,2.31,4.95,0,8.18-.47,11.44-3.37,1.09-1,6.16,2.35,5.67,3.56a36.36,36.36,0,0,1-13.36,16.07,40.32,40.32,0,0,1-20.06,6c-9.09,0-15.93-6.63-21.66-12.2s-11-12-11-21.45c0-10.08,3.51-19.78,10.29-25.47,6.3-5.28,16.21-8.7,26.56-8.7a38.19,38.19,0,0,1,19.21,5.09c6.05,3.66,10.57,10.4,10.57,17a18.84,18.84,0,0,1-.1,3.73c-.12.48-2.7,1.17-3.42,1.17C453.18,188.22,438.72,186.45,427.24,186.08Zm13.17-12.78c0-4.59-3.22-9.26-6.6-9.26-3.75,0-5.59,5.63-5.59,12.88,0,2.42-1.36,4.7-.88,7.24,1.77.83,1.54-1.78,3.47-2C436.37,181.55,440.41,179.46,440.41,173.3Zm30.33,49.41c0-2.17-1,.71-.28.59,2.06-.41.85-6.4,2.9-6.82,1.21-.25,1.4,2.25,1.4,1,0-10.37-2.19-10.37-2.19-20.74s-.49-10.37-.49-20.74,0-10.37,0-20.74c0-1.21,3.5-3.85,2.29-4.09-2.05-.37-2.7,3.2-4.75,2.84-.73-.12-3.4-1.41-3.4-3.34s1.91-4.52,2.63-4.76a150.41,150.41,0,0,0,30.23-15.74c.36-.24,1.65-1.76,2-1.76.85,0,6.39,3.89,6.39,4.74,0,2.05-2.87,10.27-2.87,25.13s-.81,14.8-.81,29.6,1.55,14.8,1.55,29.6c0,1.21-2.26,3.53-1.06,3.77,2.06.42,2.29-.7,4.35-.29.72.13.49-.46.49,1.71s.42,2.08-.3,2.08c-2.78,0-10.64.8-19.45.8s-16.8-3.43-19.58-3.43C469.09,222.16,470.74,224.89,470.74,222.71Zm44.33,0c0-2.17-1,.71-.27.59,2.06-.41.85-6.4,2.9-6.82,1.21-.25,1.4,2.25,1.4,1,0-10.37-2.19-10.37-2.19-20.74s-.49-10.37-.49-20.74,0-10.37,0-20.74c0-1.21,3.5-3.85,2.29-4.09-2.06-.37-2.7,3.2-4.75,2.84-.73-.12-3.4-1.41-3.4-3.34s1.9-4.52,2.63-4.76a150.67,150.67,0,0,0,30.23-15.74c.36-.24,1.65-1.76,2-1.76.85,0,6.39,3.89,6.39,4.74,0,2.05-2.87,10.27-2.87,25.13s-.81,14.8-.81,29.6,1.55,14.8,1.55,29.6c0,1.21-2.27,3.53-1.06,3.77,2.06.42,2.29-.7,4.35-.29.72.13.48-.46.48,1.71s.43,2.08-.29,2.08c-2.78,0-10.64.8-19.46.8s-16.79-3.43-19.57-3.43C513.43,222.16,515.07,224.89,515.07,222.71Zm44.57,0c0-2.17-1,.69-.26.57,2-.42.85-6.37,2.9-6.79,1.21-.24,1.4,2.24,1.4,1,0-15.89-2.17-15.89-2.17-31.78,0-1.21,2,1.88.75,1.64l-4.09-.73c-.72-.12,2.14-3.57,2.14-5.5s-2.68-3-2-3.28c9.91-3.87,19.57-11.19,29.24-17.83a9.75,9.75,0,0,1,2.43-.84c.85,0,5,3.59,5,4.43,0,2.06.11,10.27.11,25.13,0,14.38.32,14.38.32,28.76,0,1.21-2.72.14-1.51.38,2.05.42,1.88,1.23,3.94,1.64.73.12,2.93,1,2.93,3.17s-2.31.43-3,.43c-2.78,0-10.64.3-19.46.3s-16.91,1.15-19.57,1.15C558,224.59,559.64,224.89,559.64,222.71Zm8.29-80.22c0-7.85,3.85-10.49,12-10.49s16.76,2.64,16.76,10.49S588,157,579.88,157,567.93,150.34,567.93,142.49Zm115,80.22c0,2.18,1.41-.36.69-.36-2.78,0-10.64,4.5-19.45,4.5s-16-1.06-18.73-1.06c-.73,0-3.42-.9-3.42-3.08s1.94-5.19,2.66-5.43c1.63-.45,1.64-.41,3.27-.85,1.21-.36,4.44,2.3,4.44,1.09,0-11.9-3.17-11.9-3.17-23.8,0-11.24-1.73-12.93-9.82-12.93-.85,0,.26-2.1-.35-1.86-.3,9.66-.69,9.59-.69,19.26s.94,9.66.94,19.33c0,1.21-1.58-1.42-.37-1.06,1.63.44,1.21,2,2.83,2.46.73.24,1.12,1.62,1.12,3.79s-.7,4.36-1.43,4.36c-2.78,0-9.79-4.53-18.6-4.53s-16.8,1.86-19.58,1.86c-.72,0-.38.49-.38-1.69s-.26-2.14.46-2.26c2.06-.41,1.77-1.84,3.82-2.26,1.21-.24,4.37.54,4.37-.67,0-15.89-.23-15.89-.23-31.78,0-1.21-2.29-3.72-3.49-4-2.06-.37-2.54,2.3-4.6,1.94-.72-.12-3.53-.64-3.53-2.57s3.79.35,4.51.11c9.91-3.87,17.37-13.65,27-20.54.36-.24,1.64.91,2,.91.84,0,3.21,1.16,3.21,2,0,1.94-.61,7.51-.61,14.76,3.26-7.13,11-17.8,21.68-17.8,12.69,0,18.05,9.57,18.05,22.62,0,17.15.69,17.15.69,34.31,0,1.21,1.9,2.16,3.1,2.4,2.06.42,2.48-1.69,4.54-1.28C684.67,218.76,683,220.54,683,222.71Zm69.08,6.16c0,7.15-4.44,11.53-15,16-6.4,2.72-13.59,10-24.18,10-22,0-30.79-6.52-30.79-13.41,0-4.95,3.83-6.94,12.17-9.48-6.64-3-11.45-7.8-11.45-15.77,0-7,6.67-9.64,16.7-14.35-7.49-3.38-8.35-8.61-8.35-17.79,0-7.3,1.16-14,8-17.73,5.35-2.93,12.86-6.15,20.89-6.15a37.51,37.51,0,0,1,13.7,2.77c8.34-.36,15.78.14,19,.14,1.7,0,4.73,2,4.73,3.57,0,4.23-3.16,9.38-4.73,9.38-2.41,0-5-2.88-8.88-3.25,2.54,3,3.47,6.32,3.47,10.91,0,7.34-3.58,15-10.32,18.84-5.36,3.05-13.4,1-21.48,1-2.78,0-5.63.74-8.53-.1a5.78,5.78,0,0,0-4.07,4.9c0,2.66,2.82,4.31,11.51,4.31,5.44,0,5.44-1.57,10.88-1.57,7.25,0,12.18,4.91,16.84,6.88C748.94,220.79,752.05,222.8,752.05,228.87Zm-14.76,12.57c0-3.5-4.7-9.19-20.41-9.19-3.32,0-3.32,5.81-6.64,5.81-2.9,0-5.61-2.32-8.15-2.93-1.33,1.09.67,2.08.67,3.53,0,5.08,4.46,5.93,16.42,5.93C729.93,244.59,737.29,244.7,737.29,241.44ZM708.55,172c0,14,9.3,32.75,13.4,32.75,2.18,0,.61-4,.61-8.47,0-14-5-29-8.94-29C711.44,167.24,708.55,167.5,708.55,172Zm48.72,38.78c0-8.58,6.25-14,15.19-14s16.76,5.41,16.76,14-7.82,15.31-16.76,15.31S757.27,219.33,757.27,210.75Zm-565.35,132c0,2.18,2.25-1.81,1.52-1.81-2.77,0-10.63,7.18-19.45,7.18s-16-2-18.72-2c-.73,0-4.66-1.17-4.66-3.35s2.79-6.59,3.52-6.83c1.62-.44,1.65-.4,3.27-.84,1.21-.36,5.95,3.69,5.95,2.48,0-11.9-4.77-11.9-4.77-23.8,0-11.24-1.26-11.78-9.35-11.78-.85,0,1-2.3.3-2.06.24,1.33-.53,1.75-.53,3.33,0,17.15,1.42,17.15,1.42,34.31,0,1.21-2.5-2.8-1.29-2.44,1.63.44,1,2.83,2.61,3.27.73.24,1.21,2.19,1.21,4.36S152,348,151.28,348c-2.78,0-9.79-6.39-18.61-6.39S116.72,344,114,344c-.73,0-.09.92-.09-1.26s-.48-1.83.24-2.07c1.63-.45,1.07-2.5,2.7-2.94,1.21-.36,5.93,1,5.93-.18,0-11.9-.34-11.9-.34-23.8,0-11.24-6.39-18.88-14.49-18.88-.84,0-1.63,3.79-2.24,4-.3,9.66,3.52,9.65,3.52,19.32s-7.8,9.66-7.8,19.33c0,1.21,4.81-1.27,6-.91,1.62.44,1,2.72,2.64,3.16.72.25,1,.77,1,2.94s-.35.15-1.07.15c-2.78,0-9.79,4.48-18.61,4.48s-16.79-5.82-19.57-5.82c-.72,0,1.73,3.37,1.73,1.19s-2.24-1.47-1.52-1.59c2.06-.41,1.41-3.62,3.46-4,1.21-.24-1.46,1.65-1.46.44,0-15.89,1.15-15.89,1.15-31.78,0-1.21,1.56.86.35.62-2-.37-1.34-4.34-3.4-4.7-.72-.12-4.93,1.42-4.93-.51s2.65-5.27,3.38-5.51c9.9-3.87,21-6,30.66-12.86.37-.24.18-4.29.54-4.29.85,0,3.21,4.3,3.21,5.14,0,1.94-.69,9.8-.69,17.05,3.26-7.13,11.14-20.43,21.77-20.43,10.15,0,16.27,10.68,18.69,19.38,3.38-7,12.36-13.34,22.63-13.34,12.68,0,24.8,3.87,24.8,16.92,0,17.15-2.06,17.15-2.06,34.31,0,1.21-2.61,4.62-1.4,4.87,2.05.42,3.6-7.26,5.66-6.85C195.07,335.66,191.92,340.54,191.92,342.71Zm40.36-13.14c-3.87,9.67-11.41,14.27-20.23,14.27-9.3,0-17.82-5-17.82-14.42,0-7.37,4.19-12,10.47-15.39a96.27,96.27,0,0,1,25.41-9.65c1.69-.95-1.46-.09-1.46-2,0-8.7-.17-11.54-4.76-11.54-1.21,0-3.61-2.4-3.85-.83-.43,2.9,2.28,3.3,1.87,6.2-1.21,8.7-7.08,14.68-13.85,14.68-3.74,0-9.12-4.28-9.12-8.75s6.64-11.88,14.79-16c5.59-2.85,13.16-5.77,20.67-5.77,16.43,0,26.62,8.74,26.62,20.46,0,11.11-1.44,11.11-1.44,22.23,0,9.66.7,9.57,4,7.4.36-.25.7-1.6.95-1.6,1.08,0,1.29,4.23,1.29,4.95s.6.57-.12,1.3c-.24.24-.08.4-.32.64-7.25,7.25-12.09,10.28-18,10.28C240.2,346,235.3,340.09,232.28,329.57Zm.29-.33c.17-4.29,1.07-4.35,1.07-8.64,0-2.65-5.08-3.1-6.53-4.55s-2-3.32-3.22-3.32c-2.42,0-1.38,1-1.38,4.61,0,6.77,2.47,10.2,6.45,10.2C230.17,327.54,232.21,329.6,232.57,329.24Zm95.88-34.61c0,11.47-5.37,14.92-11.05,14.92-2.17,0-5.06,3.06-7.72,1.24-2.9-2.05-4.24-4.27-5.81-4.27-.6,0,.56-.28.32,0-.12,15.59.33,15.57.33,31.16,0,1.21-1.74-.75-.53-.63,3.87.41,3.43,4.32,7.3,4.76.72.12,1.88-1.23,1.88.94s-1,4.31-1.69,4.31c-2.77,0-10.63-.83-23.07-.83-8.82,0-16.8.31-19.58.31a4.1,4.1,0,0,1-2.94-3.79c0-2.29,1.79-4.69,2.51-4.81,2.06-.41,2.31.84,4.36.42,1.21-.24,1.27.53,1.27-.68,0-15.95-1-15.95-1-31.9,0-1.21,1.42-2.74.21-3-2.05-.37-2.2.4-4.25,0-.73-.12-.63.28-.63-1.65s-.1-1.76.63-2c9.9-3.86,18.75-10.72,28.42-17.61.36-.24,1.07,2.38,1.43,2.38.84,0,1.22-1.12,1.22-.28,0,1.94,2.8,13,2.8,20.86,3.63-11.72,9-22.16,16.4-22.16S328.45,288,328.45,294.63Zm91.93,48.08c0,2.18,1.65-.77.93-.77-2.78,0-12.57,5.25-23.81,5.25-10,0-19.93-1.33-22.71-1.33-.72,0-3.77-1-3.77-3.15s2.55-5.78,3.27-5.9c2-.31,2-.27,4-.59,1.21-.25,3.71,1,2.86-.05-6.85-9.77-3.82-16.94-15.75-17-9.73-.09,2.63,8.66,2.63,18.39,0,1.21-1.79-1.13-.58-.88,1.76.4,1.57,1.21,3.32,1.61.73.12,3.48,2.29,3.48,4.46s-3.16,5.79-3.89,5.79c-2.78,0-10-2.75-18.85-2.75s-16.79,0-19.57,0c-.72,0-3-.89-3-3.07s2.74-.45,3.47-.57c2.05-.41,1.83-1.56,3.88-2a2.59,2.59,0,0,0,1.93-2.64c0-10.37-.21-10.37-.21-20.74s-1.65-10.37-1.65-20.74,4.28-10.37,4.28-20.74c0-1.21-2.83-4.12-4-4.36-2.06-.38-2.09-.31-4.14-.67-.73-.12-1.76,2.37-1.76.44s-.52-4.84.2-5.08c9.91-3.87,23.4-4.83,33.07-11.47.36-.24-1.06-4.83-.7-4.83.85,0,3.36,3,3.36,3.86,0,2.05-1.1,10.27-1.1,25.13,0,17.21-7.14,18.62-1.81,35,1.76,5.4,4.82-5.82,9.29-9.32,16.8-13.17,19.18-15.36,16.76-16.08-4.16-1.17-4.38-.37-8.55-1.54-.72-.24-.69,1.49-.69-.68s-.58-4.19.14-4.19c2.78,0,12.69-.05,19.09-.05s16.07,0,18.85,0c.72,0,2.65,2,2.65,4.21s-2.32,1.09-3.05,1.33c-4.7,1.4-3.53,5.37-8.24,6.76-2.42.73-4.75,1.6-20.82,13.8-.2.16-2.55-1.56-2.39-1.36,6.73,8.11,9.26,5.93,16.17,13.87s5.08,9.55,12,17.51c1,1.21,1,4.38,2.18,4.62,1.87.37,2.76-4.23,4.63-3.88C422.35,338.47,420.38,340.54,420.38,342.71Zm25.77-36.63c1.81,6,4.13,14.54,7.51,17.93,4.6,4.59,9.45,2.31,13.8,2.31,5,0,8.18-.47,11.44-3.37,1.09-1,6.16,2.35,5.67,3.56a36.43,36.43,0,0,1-13.36,16.07,40.32,40.32,0,0,1-20.06,6c-9.1,0-15.93-6.63-21.66-12.2s-11-12-11-21.45c0-10.08,3.51-19.78,10.29-25.47,6.3-5.28,16.2-8.7,26.56-8.7a38.19,38.19,0,0,1,19.21,5.09c6.05,3.66,10.57,10.4,10.57,17a18.84,18.84,0,0,1-.1,3.73c-.12.48-2.7,1.17-3.42,1.17C472.09,308.22,457.63,306.45,446.15,306.08Zm13.17-12.78c0-4.59-3.22-9.26-6.6-9.26-3.75,0-5.59,5.63-5.59,12.88,0,2.42-1.36,4.7-.88,7.24,1.76.83,1.54-1.78,3.47-2C455.28,301.55,459.32,299.46,459.32,293.3Zm59.15-2.81c-2,11.79-1.2,12.23-1.2,24.19,0,11.24,5.76,11.7,11,11.7,1.57,0,2.42,1.08,3,1.08,1.33,0,5.54,3.3,5.06,4.51-3,7.61-13.64,17.1-24.87,17.1-12.69,0-22.06-10.83-22.06-23.88,0-16.55,4.85-16.55,4.85-33.1,0-1.21-2.38-.46-3.71-.7-2.17-.32-2.34,1-4.52.68-.84-.12-2.85-2.52-2.85-4.57a5.13,5.13,0,0,1,2.81-4.15c12.68-3,18.17-7.44,26-15.66a7.23,7.23,0,0,1,4.53-2c1.93,0,3.4,2.67,3.52,3.51.48,3.51-.1,8.56,0,13.88,6.39,2.41,6.66-1.38,13.48-1.44,1.21,0-.06,2.34-.06,5.6s1.28,2.82.08,2.82C529.32,290.08,522.58,290.62,518.47,290.49Zm20.09,52.22c0-2.17-1,.69-.26.57,2.05-.42.85-6.37,2.91-6.79,1.2-.24,1.39,2.24,1.39,1,0-15.89-2.17-15.89-2.17-31.78,0-1.21,2,1.88.75,1.64l-4.09-.73c-.72-.12,2.14-3.57,2.14-5.5s-2.68-3-2-3.28c9.91-3.87,19.57-11.19,29.24-17.83a9.68,9.68,0,0,1,2.44-.84c.84,0,5,3.59,5,4.43,0,2.06.11,10.27.11,25.13,0,14.38.32,14.38.32,28.76,0,1.21-2.72.14-1.51.38,2,.42,1.89,1.23,3.94,1.64.73.12,2.93,1,2.93,3.17s-2.31.43-3,.43c-2.78,0-10.63.3-19.45.3s-16.92,1.15-19.58,1.15C536.93,344.59,538.56,344.89,538.56,342.71Zm8.29-80.22c0-7.85,3.85-10.49,11.95-10.49s16.76,2.64,16.76,10.49S566.89,277,558.8,277,546.85,270.34,546.85,262.49Zm115,80.22c0,2.18,1.41-.36.69-.36-2.78,0-10.63,4.5-19.45,4.5s-16-1.06-18.73-1.06c-.73,0-3.42-.9-3.42-3.08s1.94-5.19,2.66-5.43c1.63-.45,1.64-.41,3.27-.85,1.21-.36,4.44,2.3,4.44,1.09,0-11.9-3.17-11.9-3.17-23.8,0-11.24-1.73-12.93-9.82-12.93-.85,0,.26-2.1-.35-1.86-.29,9.66-.69,9.59-.69,19.26s.94,9.66.94,19.33c0,1.21-1.58-1.42-.37-1.06,1.63.44,1.21,2,2.83,2.46.73.24,1.12,1.62,1.12,3.79s-.7,4.36-1.43,4.36c-2.78,0-9.78-4.53-18.6-4.53s-16.8,1.86-19.58,1.86c-.72,0-.38.49-.38-1.69s-.26-2.14.46-2.26c2.06-.41,1.77-1.84,3.82-2.26,1.21-.24,4.37.54,4.37-.67,0-15.89-.22-15.89-.22-31.78,0-1.21-2.3-3.72-3.5-4-2.06-.37-2.54,2.3-4.59,1.94-.73-.12-3.54-.64-3.54-2.57s3.79.35,4.51.11c9.91-3.87,17.37-13.65,27-20.54.37-.24,1.64.91,2,.91.84,0,3.21,1.16,3.21,2,0,1.94-.61,7.51-.61,14.76,3.26-7.13,11.05-17.8,21.68-17.8,12.69,0,18,9.57,18,22.62,0,17.15.69,17.15.69,34.31,0,1.21,1.9,2.16,3.11,2.4,2,.42,2.48-1.69,4.53-1.28C663.59,338.76,661.89,340.54,661.89,342.71ZM731,348.87c0,7.15-4.44,11.53-15,16-6.4,2.72-13.59,10-24.18,10-22,0-30.79-6.52-30.79-13.41,0-4.95,3.83-6.94,12.17-9.48-6.64-3-11.45-7.8-11.45-15.77,0-7,6.67-9.64,16.7-14.35-7.49-3.38-8.35-8.61-8.35-17.79,0-7.3,1.16-14,8-17.73,5.35-2.93,12.86-6.15,20.89-6.15a37.51,37.51,0,0,1,13.7,2.77c8.34-.36,15.78.14,19.05.14,1.69,0,4.72,2,4.72,3.57,0,4.23-3.15,9.38-4.72,9.38-2.42,0-5-2.88-8.89-3.25,2.54,3,3.47,6.32,3.47,10.91,0,7.34-3.58,15-10.32,18.84-5.36,3.05-13.4,1-21.48,1-2.78,0-5.63.74-8.53-.1a5.78,5.78,0,0,0-4.07,4.9c0,2.66,2.82,4.31,11.52,4.31,5.43,0,5.43-1.57,10.87-1.57,7.25,0,12.19,4.91,16.85,6.88C727.86,340.79,731,342.8,731,348.87Zm-14.76,12.57c0-3.5-4.7-9.19-20.41-9.19-3.32,0-3.32,5.81-6.64,5.81-2.9,0-5.61-2.32-8.15-2.93-1.33,1.09.67,2.08.67,3.53,0,5.08,4.46,5.93,16.42,5.93C708.85,364.59,716.21,364.7,716.21,361.44ZM687.47,292c0,14,9.3,32.75,13.41,32.75,2.17,0,.6-4,.6-8.47,0-14-5-29-8.94-29C690.36,287.24,687.47,287.5,687.47,292Zm48.72,38.78c0-8.58,6.25-14,15.19-14s16.77,5.41,16.77,14-7.83,15.31-16.77,15.31S736.19,339.33,736.19,330.75Z"/><text class="cls-3" transform="translate(0.5 104.4)">copywriting. <tspan x="19.76" y="120">sto</tspan><tspan class="cls-4" x="204.48" y="120">r</tspan><tspan x="273.59" y="120">ytelling. </tspan><tspan x="68.62" y="240">mar</tspan><tspan class="cls-5" x="328.74" y="240">k</tspan><tspan x="415.73" y="240">eting.</tspan></text></g></g></svg>