<svg xmlns="http://www.w3.org/2000/svg" xmlns:xlink="http://www.w3.org/1999/xlink" viewBox="0 0 571.44937 297.19551"><defs><style>.a{fill:#fff;}.b{fill:#b4b4b4;}.c{fill:#505050;}.d{fill:url(#a);}.e{fill:url(#b);}.f{fill:url(#c);}.g{fill:url(#d);}.h{fill:url(#e);}.i{fill:url(#f);}.j{fill:url(#g);}.k{fill:url(#h);}.l{fill:url(#i);}.m{fill:url(#j);}.n{fill:url(#k);}.o{fill:url(#l);}.p{fill:url(#m);}.q{fill:url(#n);}.r{fill:url(#o);}.s{fill:url(#p);}.t{fill:url(#q);}.u{fill:url(#r);}</style><linearGradient id="a" x1="367.3724" y1="-24.90941" x2="163.69709" y2="110.35587" gradientUnits="userSpaceOnUse"><stop offset="0" stop-color="#ff1d25"/><stop offset="0.17024" stop-color="#fc4f22"/><stop offset="0.41471" stop-color="#f7931e"/><stop offset="0.66173" stop-color="#f94ab7"/><stop offset="0.77633" stop-color="#fa27ff"/><stop offset="1" stop-color="#4a08ff"/></linearGradient><linearGradient id="b" x1="353.67471" y1="-45.53467" x2="149.9994" y2="89.73061" xlink:href="#a"/><linearGradient id="c" x1="372.69164" y1="-16.89998" x2="169.01634" y2="118.3653" xlink:href="#a"/><linearGradient id="d" x1="417.90408" y1="51.17853" x2="214.22878" y2="186.4438" xlink:href="#a"/><linearGradient id="e" x1="371.41133" y1="-18.82781" x2="167.73602" y2="116.43747" xlink:href="#a"/><linearGradient id="f" x1="386.17158" y1="3.3974" x2="182.49628" y2="138.66268" xlink:href="#a"/><linearGradient id="g" x1="377.75041" y1="-9.28275" x2="174.0751" y2="125.98253" xlink:href="#a"/><linearGradient id="h" x1="608.94162" y1="245.78467" x2="382.2136" y2="267.24158" xlink:href="#a"/><linearGradient id="i" x1="609.15186" y1="248.0062" x2="382.42384" y2="269.46311" xlink:href="#a"/><linearGradient id="j" x1="609.30905" y1="249.66724" x2="382.58103" y2="271.12415" xlink:href="#a"/><linearGradient id="k" x1="609.52501" y1="251.94915" x2="382.79699" y2="273.40606" xlink:href="#a"/><linearGradient id="l" x1="609.79374" y1="254.78876" x2="383.06572" y2="276.24567" xlink:href="#a"/><linearGradient id="m" x1="610.07893" y1="257.80223" x2="383.35091" y2="279.25914" xlink:href="#a"/><linearGradient id="n" x1="610.23576" y1="259.45947" x2="383.50774" y2="280.91638" xlink:href="#a"/><linearGradient id="o" x1="610.36282" y1="260.80205" x2="383.6348" y2="282.25896" xlink:href="#a"/><linearGradient id="p" x1="610.55522" y1="262.83507" x2="383.8272" y2="284.29198" xlink:href="#a"/><linearGradient id="q" x1="610.73068" y1="264.68911" x2="384.00266" y2="286.14602" xlink:href="#a"/><linearGradient id="r" x1="610.96352" y1="267.14939" x2="384.2355" y2="288.6063" xlink:href="#a"/></defs><path class="a" d="M208.06012,172.49081c4.67579-4.00977,9.28955-6.34479,13.916-7.05433l-.53174-5.48156a16.64831,16.64831,0,0,1,4.29346-12.75318c3.75244-4.13464,9.56445-3.86645,15.94287-3.86645,7.29248,0,13.80713.24682,18.64453,5.22876a21.57639,21.57639,0,0,1,8.50293-1.73206c10.28125,0,16.61182,15.49658,21.34912,17.03424.06445.02106.02393.13684.03809.2041a27.01786,27.01786,0,0,1,4.67138-.431,25.84094,25.84094,0,0,1,2.71534.14289,26.84879,26.84879,0,0,1,8.812,2.652c3.75537-5.94019,10.68017-9.65345,18.978-9.65345a32.189,32.189,0,0,1,23.40917,10.80591,35.10388,35.10388,0,0,1,5.46924,8.14588c5.53028-7.77637,13.70948-16.34968,25.78028-25.1081,3.01806-2.18994,6.14306-4.26825,9.31884-6.23376-5.10205-32.33911-32.10253-53.76471-54.981-77.84827-6.06885-6.38855-34.13916,87.4184-38.60742,87.4184-10.88331,0-44.481-89.62995-48.981-85.35517-24.6626,23.428-50.80078,47.2569-51.73633,83.68976a70.0453,70.0453,0,0,0,.77734,12.77912A22.6707,22.6707,0,0,1,208.06012,172.49081Z"/><path class="a" d="M293.63376,116.416l-38.553-75.3048c.22413-.11074.42968-.2343.64613-.3506.26231-.14076.53145-.27645.78262-.42418.23648-.13906.45637-.28689.68377-.4314.23354-.14832.47407-.29272.698-.44589.22183-.15162.42754-.30954.64013-.4652.21075-.15412.429-.30546.63112-.46255.209-.16264.40238-.328.60229-.49245.18807-.15489.38353-.30812.564-.4641.20061-.17345.38589-.34655.57727-.52013.1637-.14856.33441-.29681.49147-.44458.19245-.18148.37013-.359.55325-.5384.141-.13816.28949-.278.42481-.41433.18513-.18594.356-.36465.53143-.54622.12006-.124.24709-.25185.36261-.37325.283-.29678.55335-.58449.81151-.85953.13637-.1445.30674-.32624.4907-.5202.23208.04029.45519.08015.64884.11444a31.43313,31.43313,0,0,0,11.82454.40225,31.06218,31.06218,0,0,0,10.72484-4.673c.17916-.11093.4223-.26139.68484-.42115.27093.12443.52819.24545.731.34048.69.323,1.44366.67567,2.2588,1.02869a27.21477,27.21477,0,0,0,8.93185,2.36669,23.36229,23.36229,0,0,0,3.40462-.00868,37.6699,37.6699,0,0,0,8.31209-1.76685c.17906-.054.39083-.11823.61474-.18455.19814.16576.388.32546.55035.46157.48372.40832,1.0148.85155,1.57631,1.30556.1069.08675.20629.17017.31634.25779.2028.16094.42063.32491.63366.48814.14983.11473.29175.2284.44664.34358.207.15391.42926.30638.64575.46012.17658.125.34541.25081.52836.375.20976.14253.43482.28054.65306.42075.20618.13219.40527.2666.61933.396.21438.12989.44412.25246.66659.37865.23473.13308.463.26916.70685.39735.22085.116.45685.22188.68573.33334.2631.12783.52034.25946.794.38.22688.09989.46816.18722.70243.28152.26624.10692.52357.22151.7995.32015Z"/><path class="b" d="M333.024,89.52749a5.20287,5.20287,0,0,1,3.12793,2.63965,9.74646,9.74646,0,0,0,4.00293,3.9486c2.50147,1.60029,6.5,2.63062,10.12109,3.02387a5.63686,5.63686,0,0,1,4.81543,4.19635,19.04438,19.04438,0,0,0,9.60743,11.9306,5.6071,5.6071,0,0,1,3.1748,4.73932,17.29146,17.29146,0,0,0,6.48389,12.97113c2.00976,1.56311,5.97851,6.912,6.105,7.81366.41943,3.00293-.59033,4.70532,1.041,8.81024a156.13836,156.13836,0,0,1,17.53809-10.73016c-13.08594-20.01965-53.0752-67.83246-54.8291-67.11969-2.1792.88574-20.09954,8.86732-16.287,12.49629C329.26967,85.52646,330.81208,88.85128,333.024,89.52749Z"/><path class="b" d="M281.434,133.172c1.03194,2.16451,17.70388,27.18606,17.93768,29.5027.17219,1.70625-3.07738,3.82017-5.56582,5.26994a2.76438,2.76438,0,0,1-3.68859-.84222c-6.02779-8.92559-20.1177-34.175-23.688-40.08474-4.49306-7.43709-8.425-15.15591-12.35172-22.86547l-5.65536-11.1034c-1.27588-2.505-4.26452-6.21619-3.4299-8.70732,1.80281-5.3809,9.70913-1.16584,11.27019,1.52229,2.89734,4.98917,6.36745,10.766,9.23788,15.78536C271.3189,111.82382,276.4157,122.64606,281.434,133.172Z"/><path class="b" d="M255.14237,37.45573c.97657,3.31213.03935,6.98335,3.49646,6.78682,2.30808-.1312,5.83812-1.36807,7.04033-3.03376a1.26982,1.26982,0,0,1,1.39628-.4506c2.362.72166,8.1515.16609,11.48847-.68458,2.66586-.67959,7.07627-2.52982,9.23745-4.64493a2.27083,2.27083,0,0,1,2.76116-.29859c2.49806,1.46831,7.23963,2.49109,8.6037,2.68241a18.681,18.681,0,0,0,10.38405-1.89592,3.46947,3.46947,0,0,1,3.76324.407c1.85516,1.442,4.83989,1.89881,6.37322,2.07784a6.33718,6.33718,0,0,0,5.76558-2.11645c1.542-2.02942-3.83781-6.74112-6.16255-7.78611s-5.01746-.67068-7.52746-1.1137c-2.271-.40082-4.37517-1.47045-6.63046-1.95169-2.62385-.5599-5.36051-.30557-8.01671-.26527l-10.03663.30666c-4.933.228-9.90973.19942-14.81992.83614-3.12587.40533-6.21,1.0784-9.2895,1.75065a13.65985,13.65985,0,0,0-5.85306,2.27A7.25017,7.25017,0,0,0,255.14237,37.45573Z"/><path class="b" d="M274.14894,68.6872c3.89369,7.51088,10.78277,22.80957,14.86234,30.22113,1.58428,2.87824,7.52848,12.92852,7.76466,15.9031s-1.76633,2.72633-4.706,2.21445c-10.89116-16.35446-36.22025-69.44649-38.1543-73.92094-.83318-1.92758,2.17245-7.07,2.82705-5.80728C262.00905,47.45637,268.8826,58.52847,274.14894,68.6872Z"/><path d="M340.59155,13.84908a4.46746,4.46746,0,0,0-4.41414-3.57618c-.73554.00527-1.44839.02135-2.1503.04187-.33273.01049-.93064.02832-1.44742.03544-.38679-.3138-.81455-.67419-1.11811-.92935-2.76792-2.33425-6.95132-5.862-12.96783-7.10038-5.93234-1.22367-11.13053.34407-14.5833,1.38568-.312.09507-.92526.28027-1.454.42974-.46649-.20853-.986-.45133-1.301-.59965C297.87429,2.00067,292.91185-.317,286.785.03607c-6.05738.30515-10.70524,3.18211-13.78022,5.087l-.17916.11012c-.28437.17541-.7314.45171-1.13308.69163-.55285-.08686-1.179-.198-1.5035-.25719-3.53438-.63419-8.8767-1.59184-14.643.31647-5.82546,1.927-9.57368,5.91666-12.0561,8.5591-.19381.2074-.61649.65831-.994,1.04663-.5256.05707-1.121.10873-1.49161.14111-.62446.05261-1.29924.117-1.99908.1928a4.53633,4.53633,0,0,0-2.45671.9997,4.46745,4.46745,0,0,0-1.08826,5.5706l9.99582,18.58442,45.67358,81.91014a3.126,3.126,0,0,0,2.54294,1.61177,3.31964,3.31964,0,0,0,.39559.001,3.13246,3.13246,0,0,0,2.73045-1.94373l35.79043-86.6495,7.73237-19.51986A4.57673,4.57673,0,0,0,340.59155,13.84908ZM265.136,33.943a31.83086,31.83086,0,0,0,11.99849.40183,31.43858,31.43858,0,0,0,10.88523-4.7364l.46638-.28628.53316.24835c.68473.32072,1.43032.66967,2.23583,1.01777a27.94053,27.94053,0,0,0,9.08745,2.40509,26.97689,26.97689,0,0,0,3.47452-.0085,38.277,38.277,0,0,0,8.49793-1.81192l.28323-.08475.35241.2957c.48539.40991,1.019.85566,1.58462,1.3128l.31822.25984c.14958.11808.30562.23751.46259.357l.63033.48374c.1518.11261.31111.22477.47048.336l.34532.24567c.12343.08835.24592.17663.375.26441.14792.1002.30254.198.45709.29679l.36927.23692c.15351.10056.30707.20019.46647.29646.15492.09317.31653.184.47821.27382l.38909.21948c.17406.10094.34824.2.531.29685.1529.08088.31361.15665.47339.23236l.41549.20153c.204.10005.4081.20011.62188.29425.15106.0658.30708.12723.46408.1878l.5079.20464c.03823.01648.07559.032.11388.04751l-28.7487,79.2705-37.959-75.39035.00192-.00081.4816-.261c.18683-.09841.37366-.19682.5506-.30147.16907-.09861.32913-.20248.48912-.30541l.43-.27365c.16663-.10437.33227-.20788.48977-.31565.1624-.1112.31653-.22479.47071-.33932l.37192-.27176c.154-.1108.3079-.22161.45358-.33481.15362-.12018.30077-.2417.447-.36329l.35342-.28978c.13024-.10577.26049-.21155.38328-.3178.15048-.12973.29154-.2582.43265-.38759l.32565-.29437c.11114-.09951.22128-.19815.32683-.298.15027-.141.2911-.28068.43281-.41939l.25741-.251c.1017-.09825.20433-.19644.29933-.29231.187-.18819.35937-.368.53474-.55036l1.4934-1.57118Z"/><path d="M178.648,152.5143c-.23046.52369-.52392,1.14942-.66894,1.45874-1.40332,2.99561-3.46729,7.41114-3.49024,12.82453a24.39762,24.39762,0,0,1,4.5542,1.42895,18.55314,18.55314,0,0,1,11.55762-3.76,23.39294,23.39294,0,0,1,11.50725,3.06974c.12891-.28247.9322-1.60166,1.02449-1.79752a31.02524,31.02524,0,0,0,3.39014-11.18353,31.53918,31.53918,0,0,0-1.77637-11.71442c-.0542-.17908-.11719-.39093-.18311-.61371.16846-.204.33008-.39508.46143-.55035a31.21705,31.21705,0,0,0,6.19824-9.94678,31.43987,31.43987,0,0,0,1.33057-11.72265c-.00488-.17945-.01319-.41785-.01953-.67872.20654-.14434.40576-.28472.58007-.40533a31.2763,31.2763,0,0,0,8.59424-8.026,31.36823,31.36823,0,0,0,4.31641-10.9787c.04541-.19562.1001-.42767.15967-.67126.24023-.08881.47168-.17249.66943-.24353a31.36624,31.36624,0,0,0,10.38233-5.55268,31.32835,31.32835,0,0,0,6.98486-9.48541c.09375-.17584.20605-.38556.32568-.60468.26026-.02447.5-.0451.68213-.06018,1.12549-.09808,2.42481-.22229,3.81787-.43023l43.09668,80.22558c.12744.23719.24083.58579.45117.65326s1.52491-.11011,2.29248-.11011a25.84094,25.84094,0,0,1,2.71534.14289c.31494.03332.6416.102.96191.15057a3.97837,3.97837,0,0,0,.80762-1.25806l33.49609-84.68432c1.44287.04632,2.769.01745,3.8457-.01514.19043-.00567.42774-.01269.68311-.01886.16064.22895.30469.43573.40674.58319a31.29009,31.29009,0,0,0,8.02588,8.59326,31.33251,31.33251,0,0,0,10.96728,4.31171c.18994.04468.42774.10016.68262.16211.09033.24555.17383.47485.23926.65857a31.29555,31.29555,0,0,0,5.55566,10.39465,31.31725,31.31725,0,0,0,9.46777,6.97358c.16553.08782.38477.20507.62207.33428.02491.26288.04542.50367.06055.68683a31.44471,31.44471,0,0,0,2.68115,11.47858,31.16088,31.16088,0,0,0,7.3125,9.163c.14454.13636.32618.30671.52.49067-.04345.248-.084.47558-.11425.6477a31.52668,31.52668,0,0,0-.40235,11.82788,22.92993,22.92993,0,0,0,.92285,3.37384A152.09994,152.09994,0,0,1,411.80817,132.926a24.08138,24.08138,0,0,0-.95019-10.01673c-1.89161-5.7149-5.82764-9.40973-8.46387-11.88507-.26709-.25207-.75733-.71271-1.14356-1.09076-.0664-.58917-.1289-1.31939-.16015-1.68225-.30762-3.54089-.77149-8.89056-4.05274-13.86554-3.29492-5.00519-8.042-7.5476-11.19043-9.23413-.30908-.1651-.9414-.50421-1.43994-.7843-.21533-.54987-.46045-1.22919-.58105-1.56177-1.21289-3.34411-3.04444-8.39673-7.50684-12.37066-4.46435-3.97162-9.69531-5.20356-13.17041-6.02277-.37207-.08759-1.0581-.24835-1.59814-.38788-.34571-.47168-.75391-1.0581-.95557-1.34759C358.56012,59.75075,355.484,55.33083,350.13,52.635a25.06036,25.06036,0,0,0-11.08252-2.45306,5.28414,5.28414,0,0,0-.61084.03711,3.98021,3.98021,0,0,0-4.15088,2.48291l-.34863.88153-.00635.01251L326.51423,72.32c-.01172.02966-.01319.06134-.02442.09125l-31.38037,79.335L254.73053,76.57992c-.01318-.02576-.01806-.05414-.03173-.0799l-9.16114-17.03344-.833-1.55048a4.03425,4.03425,0,0,0-4.47413-2.01941c-.18847.03027-.35937.04547-.55224.06921a25.05082,25.05082,0,0,0-10.71778,3.72181c-4.99951,3.29449-7.542,8.037-9.23144,11.19036-.1665.30878-.50537.94245-.78467,1.4408-.54834.21411-1.22558.45929-1.55908.581-3.34326,1.21033-8.39746,3.03894-12.374,7.50721-3.97266,4.46563-5.20362,9.69616-6.0293,13.20446-.08594.364-.24463,1.03412-.38184,1.56409-.47265.3468-1.061.756-1.35058.957-2.92383,2.03491-7.34229,5.1106-10.03614,10.46-2.68017,5.32611-2.52246,10.69031-2.4165,14.27234.01172.38446.03272,1.09772.0376,1.657-.36279.45344-.82031.99457-1.04688,1.26215-2.30273,2.73352-5.78271,6.86316-6.99316,12.75342-1.19824,5.829.3501,10.95587,1.37451,14.34906C178.274,151.23379,178.49079,151.95217,178.648,152.5143Z"/><path class="c" d="M286.74643,26.47194a17.80678,17.80678,0,0,1-9.8978,3.38612,31.00653,31.00653,0,0,1-4.564-.35395q-.20436.726-.36549,1.456a19.153,19.153,0,0,0,5.0809.64873,14.46623,14.46623,0,0,0,9.14622-3.81731A1.43427,1.43427,0,0,0,286.74643,26.47194Z"/><path class="c" d="M263.16476,30.61839a21.46074,21.46074,0,0,1-3.79078,3.86753,2.65906,2.65906,0,0,0-.96141,2.56351l.0026.017a14.72177,14.72177,0,0,0,4.59545-5.00653A1.4343,1.4343,0,0,0,263.16476,30.61839Z"/><path class="c" d="M302.043,30.93956a14.466,14.466,0,0,0,9.50362-2.81178,1.43429,1.43429,0,0,0,.73855-1.24743,17.80683,17.80683,0,0,1-10.20451,2.30225c-1.2798-.04935-6.432-1.14149-7.52133-1.871C294.4062,29.70177,300.56966,30.8452,302.043,30.93956Z"/><path class="c" d="M236.72623,90.68347a14.466,14.466,0,0,0,4.16472-8.99333,1.43428,1.43428,0,0,0-.449-1.37839,17.80688,17.80688,0,0,1-5.0102,9.18315c-.88223.92844-5.10484,4.0761-6.372,4.41231C230.75348,95.60063,235.68242,91.72748,236.72623,90.68347Z"/><path class="d" d="M319.33287,7.13542c-2.183-.69232-7.71915-.87279-10.47916-.62776-1.03911.09211-5.42824.786-9.21138,1.49037-2.90919-2.48674-10.05166-3.7695-12.91753-3.47508-3.65065.375-10.59254,2.99668-10.66256,5.43863-.028.978,6.41291-.22638,10.3136-.52551,3.57753-.27433,5.21008.373,8.00923,2.20353,1.97745,1.29305,1.974,6.59809,2.68363,6.54379,1.0071.02885,3.05211-4.37779,3.668-6.80622a37.59338,37.59338,0,0,1,17.61689,1.1585,5.66877,5.66877,0,0,1,4.02858,5.12344,5.73779,5.73779,0,0,1-2.39636,4.54333c-1.872,1.06641-5.63218.01269-5.68762,1.95415-.04258,1.47878,7.73361,6.62572,9.53409,6.6774,1.04963.0301,5.982-13.3215,5.74133-16.46052C329.34646,11.41256,323.76626,8.54143,319.33287,7.13542Z"/><path class="e" d="M270.79927,12.46748a31.68269,31.68269,0,0,0-3.70021-1.82131,11.09522,11.09522,0,0,0-7.6515-.21591c-1.09075.3813-10.59432,3.68943-10.77809,10.09-.06159,2.14947,7.26854-3.871,11.33879-4.60456,4.413-.79545,13.32261,1.18838,13.3801-.80948C273.41265,14.254,271.92273,13.07026,270.79927,12.46748Z"/><path class="f" d="M238.92735,61.53526a10.32037,10.32037,0,0,0-4.593,1.00921,25.35633,25.35633,0,0,0-5.84754,4.96653c-.9122.95826-4.1386,5.35035-3.5062,6.53529,1.15861,1.22711,4.88928-1.5132,7.12739-2.66627,2.28982-1.17915,4.87556-2.21948,7.3794-1.62241,3.11.74163,5.084,3.72907,6.61757,6.5344.54062.98919.55116,2.70058,2.54973,1.663,2.38708-1.23938-4.12572-12.836-5.60461-14.70815A5.55137,5.55137,0,0,0,238.92735,61.53526Z"/><path class="g" d="M386.96436,91.45586c-1.27409-.63961-5.37648-2.417-6.17177-3.60007a25.40105,25.40105,0,0,1-2.13265-5.1955c-2.27611-7.0924-10.03458-12.33388-17.43633-13.17213a10.92921,10.92921,0,0,1-3.64734-.72088c-1.9-.9328-2.80732-3.06949-3.954-4.84855-2.18332-3.38881-8.50592-8.82551-13.00384-7.45162-4.50336,1.37583-5.19028,7.70552-7.21635,12.91408-1.05414,2.70995,8.048-7.53437,11.01012-5.95932,2.605,1.38511,5.7637,7.85095,7.116,10.473,4.26972,8.27708,11.16185-2.2745,17.556,4.49718,7.19719,7.62281,2.523,11.48208,6.39852,15.58674,2.76777,2.93193,6.07758,2.44554,8.468,3.09549,6.35846,1.72868,8.54231,7.886,11.22386,14.90241a.40024.40024,0,0,0,.75556.00184C397.12019,107.92511,394.7034,95.34141,386.96436,91.45586Z"/><path class="h" d="M218.91737,78.55428a6.461,6.461,0,0,0-4.55845.97849c-3.352,1.98565-11.37188,10.1866-9.22316,14.60135a60.38218,60.38218,0,0,0,6.03029-4.76368,17.57147,17.57147,0,0,1,2.87317-2.03684c2.22221-1.16449,4.80182-.13767,6.61584-.27681C223.498,86.8387,220.59223,78.99947,218.91737,78.55428Z"/><path class="i" d="M187.67905,127.76205a5.37814,5.37814,0,0,0-2.80442,2.68262c-1.50976,2.87019-3.61648,12.183-.167,14.3749a50.2598,50.2598,0,0,0,2.19616-6.00807,31.927,31.927,0,0,1,1.59833-4.02625c1.06716-1.7951,2.89347-.864,4.11867-1.7542C194.5409,131.636,189.06057,127.34684,187.67905,127.76205Z"/><path class="j" d="M199.98688,100.61416a2.35643,2.35643,0,0,0-2.01979.76751c-4.80244,4.14744-7.187,11.95426-7.28012,18.11866,2.005-.43157,3.99177-5.45041,5.47723-7.19737,1.257-1.4782,2.92987-2.95048,4.86019-2.75577,2.508.253,4.3866,3.2508,6.86093,2.76934-.79414-4.25988-3.85291-7.68693-6.78775-10.87505A2.523,2.523,0,0,0,199.98688,100.61416Z"/><path class="b" d="M286.79916,67.10388A19.86545,19.86545,0,0,0,290.978,78.1388a.80286.80286,0,0,0,1.31061-.11125,19.86556,19.86556,0,0,0,2.25905-11.5814,20.14416,20.14416,0,0,0-3.906-10.70218,1.08765,1.08765,0,0,0-1.79637.15248A20.14419,20.14419,0,0,0,286.79916,67.10388Z"/><path class="b" d="M340.94921,139.28554a20.16642,20.16642,0,0,1-9.70675,5.90052,1.10974,1.10974,0,0,1-1.33439-1.269,21.74223,21.74223,0,0,1,15.113-15.891,1.10974,1.10974,0,0,1,1.33438,1.26905A20.16639,20.16639,0,0,1,340.94921,139.28554Z"/><path class="b" d="M243.46564,139.6344a20.26151,20.26151,0,0,0,9.8255,5.40823,1.20357,1.20357,0,0,0,1.38744-1.45017,21.803,21.803,0,0,0-15.66265-14.98513,1.20358,1.20358,0,0,0-1.38744,1.45018A20.26154,20.26154,0,0,0,243.46564,139.6344Z"/><path d="M129.91364,221.45754c2.65771-25.16315,30.76172-56.922,32.09619-69.55481.354-3.35187-7.07617-10.203-12.03076-10.72638-10.19678-1.07708-48.88037,46.62586-64.7876,70.76465,7.65283-22.17163,28.62842-46.98193,30.05713-60.50787.32813-3.10895-7.48779-10.49207-11.17969-10.882-5.35449-.56568-18.28662,13.34851-30.85547,29.50891a27.90721,27.90721,0,0,0,1.11622-5.1189A13.41989,13.41989,0,0,0,65.732,150.57754a21.04528,21.04528,0,0,0-12.68311-5.98487c-11.46435-1.211-49.74267,22.582-52.85742,52.06861-.956,9.04956,1.32666,23.76867,14.69776,25.18109,3.1333.331,8.87255-2.27191,9.24218-5.76947-3.71631-.39258-9.27148-4.301-7.80078-18.22461,1.30615-12.36517,21.001-38.3454,45.54-40.782-3.68848,16.30853-31.45166,49.22918-34.96826,72.00952-4.30713,27.03009,24.09326,25.23224,22.81934,17.47693-2.44483-.25824-6.8335-2.67945-5.583-14.52021.65429-6.19232,5.82129-16.177,11.70459-26.88226,11.95654-17.52423,31.73047-39.49609,43.31152-48.6131-7.73828,11.84229-29.0581,45.68585-30.73535,61.56555-1.5293,14.47608,12.84228,22.10962,13.23242,18.41773.00342-.03479.00977-.14069.01758-.27655,2.33984-11.329,50.0542-70.80829,64.35742-80.403-5.646,10.37116-29.40869,40.26825-31.728,62.22254-2.95849,28.00757,25.89161,28.40094,24.707,17.88434C134.03815,235.423,129.04108,229.71572,129.91364,221.45754Z"/><path d="M207.21051,238.19949c5.05713-2.91138,12.16456-6.91962,18.13477-11.84217a33.13631,33.13631,0,0,0,3.85938-3.49524,33.58339,33.58339,0,0,0,4.13574-5.00128c5.666-7.77881,9.74658-17.42291,9.84179-22.75683a18.91857,18.91857,0,0,0-1.28222-7.8443c5.74511-3.66828,13.62549-13.56946,11.57715-21.47077-3.54737-13.68652-17.72705-11.14166-17.34961-7.26044,4.18359.442,8.49414,18.36835,1.24853,23.61255-2.82373-1.655-6.69043-2.45062-11.69775-2.54-6.07617-.10888-14.48633,12.24518-19.56738,22.96051-4.91749,6.17548-14.42872,17.28888-18.85938,16.82087-6.55762-.69275,9.01172-21.87958,10.708-28.267,3.25732-12.2652-8.96338-13.17542-10.10352-10.928.59375,1.75928-2.31836,6.98541-5.6206,13.35333.00537-.12518.0249-.24994.0249-.37518,0-3.71246-5.69141-11.4566-11.64209-12.08521-9.91455-1.04724-27.0415,19.54206-28.73486,35.57264-.99854,9.45233,6.31933,12.94745,12.29443,13.57861,5.97021.63061,14.4458-8.39856,19.93945-15.22278a12.85662,12.85662,0,0,0,10.81787,14.444c5.46973.57776,12.04053-5.25183,17.13819-11.05322a17.42854,17.42854,0,0,0,9.45947,10.35827c-12.43848,5.80134-26.35449,11.87525-27.043,14.0575-.29687.94092-1.87988,7.48865,2.97266,9.99054,8.76269-9.4978,99.06738-7.22839,96.585,16.27521-1.0625,10.05554-10.48584,15.1018-16.41309,9.67-6.59375,5.38635,1.16309,18.52374,14.72022,18.44409,21.95312-.129,26.58447-17.93414,27.35205-25.19916C313.64411,234.72005,236.63239,231.4211,207.21051,238.19949ZM155.73786,222.439c-8.064-.85181,9.4834-32.817,19.00488-31.81128,4.2749.45154-1.79,9.00226-2.98144,10.31946-2.57227,2.84436,3.48144,4.15832,3.84082,4.23333C170.3111,211.496,160.10358,222.90011,155.73786,222.439Zm76.59961-34.803c9.76758.17492-4.8169,33.40088-16.24561,33.19629C207.61139,220.68044,223.253,187.47347,232.33747,187.636Z"/><path d="M318.16852,176.47823c3.2544.34381,9.04053,7.88086,8.27051,15.16748-1.1084,10.49274-13.61621,31.71741-35.67041,29.38776-17.19629-1.81653-1.99707-34.10346,9.22412-32.91815,3.64356.38489-2.20312,12.48926-5.395,14.80456,4.65674,4.74073,13.51367,4.59565,14.77588-7.35443,1.20068-11.36712-9.43506-16.70257-13.32129-17.1131-9.22412-.97436-20.73486,9.87757-23.06787,25.92774-5.16064,6.304-13.34131,15.37939-17.35352,14.95563-6.5581-.69275,9.22413-23.71943,10.52686-28.97382,2.99561-12.08618-9.72217-12.11566-9.92187-10.22113.60058,5.29687-12.38282,21.88867-13.73,34.64032a12.86634,12.86634,0,0,0,10.8086,14.62506c6.80908.71918,15.32471-8.48645,20.57764-15.21075,3.84521,10.54907,16.27832,19.153,26.36767,20.21875,15.44775,1.63177,40.55859-14.2829,42.9292-36.72571C346.06794,170.43648,319.21,166.617,318.16852,176.47823Z"/><path d="M435.79352,141.464c-24.77344,2.62622-74.78711,32.72809-77.958,62.749-2.07324,19.6253,5.6294,24.85192,11.50733,25.47283,4.66357.49262,9.53906-2.075,9.87012-5.20825-6.70362-.70813-8.85694-5.22131-7.97413-13.5766,1.43848-13.619,25.69288-47.27783,54.96827-56.55316.58984,14.42676-34.09229,48.0611-37.00928,75.677-2.75049,26.03754,24.78174,23.08631,23.03564,15.90229-1.82177-.19245-6.96191-1.5213-5.50439-15.31733,1.62158-15.35046,28.97559-46.45178,30.82275-63.93963.50684-4.80023-1.57617-10.79352-7.13183-13.4773a45.76044,45.76044,0,0,1,15.144-1.0141c11.49707,1.21442,17.64355,8.45392,16.21875,21.94434-1.688,15.98-29.917,48.99042-37.67676,34.56464-6.37207,1.73376-5.87842,15.19555,4.75977,16.31933,14.86474,1.57019,41.25635-24.08227,44.33545-53.22876C475.26374,152.25014,461.92292,138.69411,435.79352,141.464Z"/><path d="M497.23151,174.64071c3.58984-1.64783,5.90674-5.15009,4.75391-8.92841a7.15259,7.15259,0,0,0-13.68262,4.1742C490.66706,177.63558,490.62458,177.67306,497.23151,174.64071Z"/><path d="M270.41217,175.7123c3.47559-1.87774,6.26124-4.7127,5.38282-8.56408a7.1525,7.1525,0,1,0-13.94678,3.18121C263.65,178.22817,265.57233,178.32735,270.41217,175.7123Z"/><path d="M543.01911,176.65237c2.769.29248,9.04053,7.88079,8.271,15.16748-1.00048,9.47259-10.47949,33.1784-34.81689,30.6076-5.11914-.54071-7.23291-4.40863-7.38477-9.35455,16.98731,1.21881,23.81788-9.50464,24.61182-17.02033,1.19043-11.26995-8.91064-17.01562-12.79687-17.42614-9.4375-.99689-21.5625,10.35681-23.51416,27.01947-5.15821,6.16058-12.46436,13.9403-16.186,13.54712-6.55811-.69275,10.44482-22.85126,11.01318-28.23468,1.34473-12.7273-10.27636-12.21113-10.40869-10.96027,1.88135,3.63928-12.38281,21.88873-13.72949,34.64032a12.866,12.866,0,0,0,10.80859,14.62506c6.35987.67181,14.21241-7.31891,19.50147-13.85583,3.90674,11.27642,15.761,18.12932,24.34805,18.12932,19.82459,0,42.9332-13.23156,45.3038-35.67437C570.919,170.61056,543.835,168.92855,543.01911,176.65237Zm-33.5752,31.81457c1.67432-9.74609,8.80616-20.874,15.39991-20.17755a1.45972,1.45972,0,0,1,.40869.1026,1.34323,1.34323,0,0,1,.11865.07166,1.39207,1.39207,0,0,1,.22949.13842,1.78049,1.78049,0,0,1,.3877.48426,4.09784,4.09784,0,0,1,.4624,1.92175v.00647c.11035,3.353-1.97022,9.07928-6.08887,13.0556-.02832.02765-.05957.0528-.08838.08026a17.45563,17.45563,0,0,1-1.43066,1.21961,14.49774,14.49774,0,0,1-9.39893,3.097v-.00006Z"/><path class="k" d="M323.8273,271.94859c0-5.85058,4.23926-9.543,9.20215-9.543a8.66575,8.66575,0,0,1,4.73047,1.32617l.93066-1.32617h.85254l1.75781,6.34473-.82715.31152a8.62874,8.62874,0,0,0-7.44433-3.58789c-4.47168,0-7.57324,2.88574-7.57324,6.47461,0,4.082,3.0498,6.34375,7.57324,6.34375a9.22791,9.22791,0,0,0,8.09082-4.52441l.69726.36425c-1.31836,4.47266-4.39355,7.25391-8.78808,7.25391C327.34292,281.38609,323.8273,277.38218,323.8273,271.94859Z"/><path class="l" d="M347.30191,272.07847a9.4123,9.4123,0,1,1,18.81738,0,9.40924,9.40924,0,0,1-18.81738,0Zm9.40918,6.21387c4.16113,0,7.80566-2.26172,7.80566-6.42187,0-3.875-3.61816-6.3711-7.80566-6.3711-4.26563,0-7.80664,2.54883-7.80664,6.55274S352.23941,278.29234,356.71109,278.29234Z"/><path class="m" d="M373.33609,275.30211v-6.83789c0-2.70411-1.34473-3.874-3.46387-4.81055v-.85742h11.11524c3.46289,0,5.81543,1.89746,5.81543,5.19922,0,3.30273-2.35254,4.88867-5.81543,4.88867h-6.10059v2.39258c0,2.67773,1.39551,3.82129,4.084,4.86132v.8584h-9.09863v-.8584C371.99136,279.2025,373.33609,278.00621,373.33609,275.30211Zm8.27148-4.3418c1.99024,0,3.48926-1.06641,3.48926-2.834,0-1.76856-1.499-2.8086-3.48926-2.8086H377.6271a2.41153,2.41153,0,0,0-2.74023,2.65235v2.99023Z"/><path class="n" d="M400.74039,275.32847v-.416l-5.14454-7.82617a7.62111,7.62111,0,0,0-4.00585-3.43262v-.85742h8.55566v.7539c-1.62891.49414-2.5332,1.42969-2.5332,2.4961a5.12187,5.12187,0,0,0,1.11132,2.626l2.792,4.31543,2.81738-4.31543a5.17086,5.17086,0,0,0,1.11133-2.626c0-1.09278-.80176-2.002-2.48145-2.4961v-.7539h8.47852v.85742a7.74047,7.74047,0,0,0-4.00684,3.32812l-5.14355,7.95606v.39062c0,2.626,1.37011,3.92579,3.61816,4.80957v.8584h-8.78808v-.8584C399.37027,279.25426,400.74039,277.92808,400.74039,275.32847Z"/><path class="o" d="M423.10464,277.69468a8.90263,8.90263,0,0,0-.51757-2.10644l-3.0752-8.63184a4.90379,4.90379,0,0,0-3.41211-3.30273v-.85742h8.0127v.85742c-1.24024.25976-2.5586.8584-2.5586,2.31445a21.93209,21.93209,0,0,0,1.34375,4.67969l2.71387,7.72266,2.5332-7.85254a17.655,17.655,0,0,0,.87891-4.62793c0-1.35254-1.1377-1.9502-2.48145-2.23633v-.85742h9.25391v.85742c-1.21484.18164-2.249.80664-2.249,2.28809a15.98888,15.98888,0,0,0,.98242,4.57617l2.63672,7.5664,2.66211-7.5664a17.52852,17.52852,0,0,0,1.18945-4.54981c0-1.32617-1.21484-2.05469-2.5332-2.31445v-.85742h8.01269v.85742a4.888,4.888,0,0,0-3.4375,3.30273l-3.05078,9.04786a6.33322,6.33322,0,0,0-.36133,1.79394c0,1.27441.95606,2.08008,2.29981,2.33984v.8584h-9.61524v-.8584a2.62461,2.62461,0,0,0,2.27442-2.52148,7.18428,7.18428,0,0,0-.46485-2.33984l-2.94726-8.60645-2.66211,8.63184a8.8259,8.8259,0,0,0-.46485,2.418,2.272,2.272,0,0,0,1.93848,2.418v.8584h-9.35742v-.8584A2.61927,2.61927,0,0,0,423.10464,277.69468Z"/><path class="p" d="M454.75015,275.30211V268.724a5.10566,5.10566,0,0,0-3.46387-5.07031v-.85742h11.26954c3.59375,0,5.86816,2.002,5.86816,5.17383,0,3.09375-2.14551,4.88769-5.86816,4.88769h-.7754l.49122.88477c1.16308,2.10547,3.38671,4.16015,5.09277,4.16015a3.66417,3.66417,0,0,0,1.6543-.36426l.59375.70215-2.71387,3.14551c-1.75781-.416-3.64453-2.33984-5.11817-5.17383l-1.73144-3.35449h-3.748v2.41895c0,2.67773,1.2666,3.874,3.72168,4.86132v.8584h-8.73633v-.8584C453.53531,279.15074,454.75015,277.87633,454.75015,275.30211Zm8.68457-4.36817c1.99024,0,3.23145-1.06543,3.23145-2.834,0-1.71582-1.18946-2.7041-3.23145-2.7041h-4.39355a2.54532,2.54532,0,0,0-2.74024,2.834v2.7041Z"/><path class="q" d="M478.0441,275.30211v-6.83789c0-2.70411-1.37012-3.874-3.64453-4.81055v-.85742h8.83984v.85742c-2.27441.93652-3.64453,2.10644-3.64453,4.81055v6.83789c0,2.7041,1.37012,3.90039,3.64453,4.83593v.8584h-8.83984v-.8584C476.674,279.2025,478.0441,278.00621,478.0441,275.30211Z"/><path class="r" d="M496.03726,275.30211v-6.52637c0-2.3916-.93066-3.32813-2.74023-3.32813h-.36133c-1.47363,0-3.12793.88379-4.5752,2.91211l-.77539-.33789,1.57617-5.61621h.85352l.3877.39063h12.82031l.38769-.39063h.85352l1.57617,5.61621-.77539.33789c-1.44727-2.02832-3.17871-2.91211-4.60059-2.91211h-.3623c-1.80859,0-2.71387.93653-2.71387,3.32813v6.52637c0,2.65234,1.293,3.92578,3.64453,4.83593v.8584h-8.83984v-.8584C494.74527,279.22789,496.03726,277.95445,496.03726,275.30211Z"/><path class="s" d="M514.03238,275.30211v-6.83789c0-2.70411-1.37012-3.874-3.64453-4.81055v-.85742h8.83984v.85742c-2.27441.93652-3.64453,2.10644-3.64453,4.81055v6.83789c0,2.7041,1.37012,3.90039,3.64453,4.83593v.8584h-8.83984v-.8584C512.66226,279.2025,514.03238,278.00621,514.03238,275.30211Z"/><path class="t" d="M537.68667,276.16051l-8.53027-9.10059v7.98242c0,2.96387,1.37012,4.05567,3.72168,5.0957v.8584h-8.73633v-.8584c2.11914-.93554,3.4375-2.13183,3.4375-4.83593v-6.83789c0-2.67871-1.31836-3.874-3.4375-4.81055v-.85742h6.66895c0,1.8457.62012,4.18554,1.57715,5.17383l8.32226,8.76171v-7.98144c0-2.96484-1.36914-4.05664-3.72168-5.09668v-.85742h8.73633v.85742c-2.11914.93652-3.46289,2.13184-3.46289,4.81055v12.792h-1.60254C540.65933,279.43687,539.21109,277.77281,537.68667,276.16051Z"/><path class="u" d="M551.02945,271.94859a9.28438,9.28438,0,0,1,9.6416-9.543,8.64193,8.64193,0,0,1,4.78223,1.32617l.98144-1.32617h.85352l1.75781,6.34473-.85352.31152c-2.01562-2.75586-4.52343-3.53613-7.65039-3.53613-4.42089,0-7.93554,2.73047-7.93554,6.42285,0,4.23731,3.64453,6.292,7.96093,6.292,3.56739,0,6.2295-1.27441,6.2295-3.43261,0-1.29981-1.47364-1.9502-2.68848-1.9502h-2.22266v-2.08008h9.56348v2.08008h-1.085a2.12534,2.12534,0,0,0-2.249,2.08008,2.45334,2.45334,0,0,0,1.835,2.21v.80664a13.27733,13.27733,0,0,1-9.22754,3.43164C554.57046,281.38609,551.02945,277.38218,551.02945,271.94859Z"/></svg>