<?xml version="1.0" encoding="utf-8"?>
<!-- Generator: Adobe Illustrator 25.2.0, SVG Export Plug-In . SVG Version: 6.00 Build 0)  -->
<svg version="1.1" id="Layer_1" xmlns="http://www.w3.org/2000/svg" xmlns:xlink="http://www.w3.org/1999/xlink" x="0px" y="0px"
	 viewBox="0 0 810 375" style="enable-background:new 0 0 810 375;" xml:space="preserve">
<style type="text/css">
	.st0{fill:none;stroke:#F92100;stroke-miterlimit:10;}
	.st1{fill:none;stroke:#1622FF;stroke-width:1.5;stroke-linecap:round;stroke-linejoin:round;stroke-miterlimit:10;}
	.st2{enable-background:new    ;}
	.st3{fill:none;stroke:#FFFFFF;stroke-width:1.5;stroke-miterlimit:10;}
</style>
<g>
	<g>
		<g>
			<path class="st0" d="M26.1,71.1c0-4.5,4.8-7.7,6.2-11.5c1.5-4.1,2-8,4.8-11c2.9-3,5.2-7.6,9.1-9.2c3.8-1.5,8.6-1.2,13-1.2
				c4.1,0,6.8,3.8,10,4.9c3.8,1.4,5.9,2.8,8.1,5.3c2.7,3,5,4.6,5,8.2c0,5.9-2.7,10.8-8,10.8c-6.2,0-6.5-7.3-8.4-12.7
				c-1.2-3.2-4.8-3.8-9.3-3.8c-5.4,0-7.7,3.1-7.7,10.8c0,5.5-0.1,10.9,2.5,14.5c2.9,4,8,4.6,13.4,4.6c5.6,0,10.2-0.1,13.5-2.4
				c1.6-1.2,1.9-1.2,3.3-1.2c2.2,0,0.6-0.5,0.6,2.8c0,3.2,2.7,8.4-0.3,11.8c-2.5,2.8-7.7,3.5-12.4,5.5c-3.7,1.6-7.5,2.9-12.4,2.9
				c-4.2,0-7.5-1.4-11-2.7c-3.8-1.4-5.7-4.1-8.4-6.9s-7.7-3.9-9.1-7.7C27.4,79.5,26.1,75.3,26.1,71.1z"/>
		</g>
		<g>
			<path class="st0" d="M86.8,70.4c0-4.8,2.5-9.9,4.2-13.8c1.9-4.1,5.2-8.2,8.7-11.1c3.3-2.7,8.6-2.8,13.1-4.1c4-1.2,8.2-1.3,13-1.3
				c4.5,0,8.7-1,12.4,0.3c4.1,1.4,6.8,4.7,9.8,7.5s5.8,5.6,7.4,9.5c1.5,3.7,3.6,7.6,3.6,12c0,4.8-3.7,8.3-5.4,12.1
				c-1.9,4.1-2.3,9-5.8,11.8c-3.3,2.7-7.2,5.9-11.7,7.3c-4,1.2-9-1.2-13.7-1.2c-4.5,0-7.7-1.8-11.4-3.1c-4.2-1.4-10.3,0.9-13.3-1.8
				c-3.1-2.8-1.9-8.8-3.5-12.8C92.6,78.2,86.8,74.9,86.8,70.4z M133.1,80c0-3.7,0.7-7.7-0.4-12c-1.1-4.2-2.5-8-4.5-11.3
				c-2.6-4.5-4.5-9.3-8.1-9.3c-4.6,0-9.6,4.8-9.6,12.3c0,3.7,2.3,8.1,3.5,12.4c1.1,4.2,1.4,9,3.4,12.4c2.6,4.5,6.9,7.4,10.5,7.4
				C132.7,92,133.1,87.3,133.1,80z"/>
		</g>
		<g>
			<path class="st0" d="M235.6,68.7c0,4.3-2.6,7.9-3.7,11.5c-1.2,4-1.5,8.4-3.9,11.3c-2.6,3.2-5.7,6.4-9.4,8.1
				c-3.5,1.6-8-1.4-12.2-1.4c-5.4,0-12-0.1-15.9-2.3c-2.2,2.1,3.4,4.3,3.4,7.3c0,4.5-2.2,7.4-0.3,8.1c3.2,1.2,5.2,1.2,5.2,4.1
				c0,3.2-2,7.6-7,8.4c-3,0.5-7.2-2.7-11.3-2.7c-3.9,0-8,3.3-10.8,2.7c-4.7-0.9-4.2-5.3-4.2-8.4c0-2.9-0.8-4.5,1.6-5.5
				c1.6-0.7,0.3-2.7,0.3-6.7c0-6.9,2.1-6.9,2.1-13.8s-0.9-6.9-0.9-13.8s1.3-6.9,1.3-13.8c0-3.5-1.7-5.6-3.2-6
				c-3.1-0.9-3.4-3.8-3.4-6.1c0-1.7-1-4.7,1.1-6c2.6-1.6,6.5-3.6,10.1-4.6c4-1.1,8.6,1.2,11,1.2c6,0,5.4,3.1,5.4,10.4
				c0,0.5-0.9,0.3-0.6-0.1c1.8-3.8,6.2-6.2,9.8-8.4c3.5-2.2,7.7-4,12.1-4c4.9,0,9,2.7,12.6,5.7c3.3,2.8,4.9,6.8,6.6,11.6
				C232.6,59.5,235.6,63.6,235.6,68.7z M210.1,72.7c0-4.9,1.4-9.1,0.4-12.1c-1.7-5.1-5.6-6.4-9.2-6.4c-3.5,0-5.3,2.1-7.2,7.7
				c-1,3.1-5.6,6.8-5.6,11.9c0,4.8,1.6,9.1,2.5,11.8c1.7,4.8,6.2,4.1,9.8,4.1c3.8,0,7.8,0.2,9.6-4.7C211.5,82,210.1,77.7,210.1,72.7
				z"/>
		</g>
		<g>
			<path class="st0" d="M305.3,45.9c0,3-0.6,4.5-3.8,6c-3.2,1.5-3.8,5.3-6.1,11.4c-1.3,3.5-5.6,5.6-6.8,8.8
				c-1.2,3.2-2.2,6.5-3.4,10.1c-1.1,3-2.8,6.2-4.1,9.8c-1.7,4.8-2,9.7-3.8,13.6c-2.2,4.8-2.8,10.4-6,13.2c-3.4,2.9-8.6,1.3-14.2,1.3
				c-4.2,0-9.5,2.9-12.3,0.8c-3.4-2.4-6.5-8.1-6.5-11.8c0-5.1,6.2-7.1,11.4-7.1c4.6,0,5.5,1,6.1,5.3c0.1,0.9,3.4,1.8,3.6,2.6
				c0.3,1.3-0.1,1.4,1.3,1.4c2.7,0,4.8-1.3,5.5-5.4c0.5-3.5-3.5-7.5-7.1-15c-1.1-2.3-3.3-5.6-5.1-9.6c-1.5-3.1,0.7-8.3-0.8-11.6
				c-1.6-3.6-6.1-5.7-7.4-8.5c-3.2-7.2-4.4-6.1-6.1-6.7c-2.7-0.9-3.7-5.4-3.7-7.9c0-2.9,2.7-4.1,8.4-5.2c2.9-0.6,6.3-0.5,10.9-0.5
				c4.4,0,7.9-0.4,10.7,0.1c5.4,1.1,10,2.5,10,5.4c0,2.8-4.3,3.9-6.7,4.7c-1.6,0.6-3.7,4.8-2.8,8c0.9,2.8,7.6,4.8,9.4,8.9
				c1.5,3.5,0.8,6.8,2.4,10.2c1.5-3.5,5.3-4.9,6.6-8.5c1.5-4.4,3.1-8.6,3.6-11.3c0.8-3.5-1.3-8.8-3.4-9.7c-2.8-1.2-4.1-0.5-4.1-2.8
				c0-3.7,3.7-6.8,12.8-6.8C302.1,39.2,305.3,42.1,305.3,45.9z"/>
		</g>
		<g>
			<path class="st0" d="M412.8,45.9c0,2.9,0.3,4.3-3,5.6c-2.8,1.2-5.9,4.9-8.6,10.8c-2,4.7-1.5,10.3-3.4,14.7
				c-2.2,4.9-5.7,8.8-7.7,12.8c-3.9,7.4-5.6,9.8-10.6,9.8s-10.3-0.9-13.4-7.8c-1.7-3.9-2.2-9.6-4.6-16.1c-2.8,5.4-2.9,9.9-5.9,15.5
				c-4,7.5-8.8,11.9-13.6,11.9c-5,0-5-7-8.7-13.7c-1.2-2.4-3.6-5.4-5.3-9.3c-1.5-3.2-5.2-5.6-6.7-8.8c-1.6-3.6-2.3-7.5-3.5-10.3
				c-3.2-7.3-5-6.5-6.6-7.3c-2.4-1-4.9-4.5-4.9-7.2c0-2.8,3.7-5.6,9.5-6.7c2.8-0.6,6.6-0.2,11.1-0.2c3.9,0,7.4,0.1,10.1,0.8
				c4.5,1.2,5.3,3.5,5.3,6.3c0,2.5,0.3,4-1.7,4.8c-1.4,0.6-0.5,3.4,0.4,6.8c0.9,2.9,2.5,6.5,4.3,10.5c1.6,3.5,3.3,8.9,4.9,12.2
				c3.4-5.6,6-13.2,7.9-18.2c0.2-0.9-3.4,0.2-3.8-0.7c-2.9-7.4-1.7-7.7-3.1-8.4c-2.1-0.9-1.4-4.5-1.4-7.1c0-2.7,0.9-6.6,5.7-7.8
				c2.6-0.6,6.4,3.6,10.5,3.6c4,0,6.8-0.3,9.5,0.4c4.7,1.1,10.2,1,10.2,3.7c0,2.8-3.8,7-6,7.7c-1.7,0.6-1.6,0.6-0.6,4
				c1,2.9,2.6,6.4,4.1,10.3c1.3,3.5,1.8,10.3,3.2,13.5c1.6-3.4,3.6-9.5,4.9-12.9c1.6-4.1,3.6-7.8,4.3-10.7c0.8-3.5-0.4-7.9-2.3-8.8
				c-2.7-1-6.1-1.2-6.1-3.4c0-3.8,6.3-8.3,14.5-8.3C410,37.7,412.8,42.1,412.8,45.9z"/>
		</g>
		<g>
			<path class="st0" d="M473.8,51.6c0,7.9-3.9,13.7-10.4,13.7c-4,0-9-0.7-10.8-2.5c-1.4-1.4-0.6-3.1-2.2-3.1c-2.4,0-4.8,1.9-4.8,6.3
				c0,7.7,1.5,7.7,1.5,15.4c0,4.6-1.6,8.7,0,9.3c3.6,1,9.2,0.1,9.2,3c0,3.2-6,4.4-11.1,5.2c-3,0.5-6.7,1.3-10.9,1.3
				c-3.9,0-8,2.6-10.8,2.1c-4.6-0.9-4.5-5.6-4.5-8.7c0-2.8,0.1-3.1,2.5-3.9c1.5-0.6,1.5-4.1,1.5-8c0-4.9,1.3-4.9,1.3-9.9
				s-2.3-4.9-2.3-9.9c0-3.6,0.4-7.3-1.1-7.8c-3.1-0.9-7.4-2.1-7.4-4.3c0-1.7,2.1-5.3,4.2-6.5c2.5-1.6,7.9,0.7,11.5-0.3
				c4-1.1,7.6-0.9,10-0.9c6,0,6.2,1.5,6.2,8.8c0,1.3-0.5,3.7,0.5,2.9c1.6-4,3.1-8.1,5.7-10.6c3.1-2.9,7.1-3.3,11-3.3
				c3.4,0,7.9-0.7,10,1.8C474.5,43.5,473.8,47.8,473.8,51.6z"/>
		</g>
		<g>
			<path class="st0" d="M474.5,93.4c0-2.8,4.6-5.2,7-6c1.5-0.6,5-2.2,5-5.9c0-4.9-0.9-4.9-0.9-9.9s-0.5-4.9-0.5-9.9
				c0-3.6-1.4-9.3-2.9-9.7c-3.1-0.9-7.1-0.2-7.1-2.4c0-1.7,2.4-3.6,4.4-4.9c2.5-1.6,6-4.1,9.6-5.1c4-1.1,8.4,2,10.8,2
				c6.1,0,5.7,1.7,5.7,9c0,4.2,2.8,9.1,2.8,14.9c0,8-0.6,8-0.6,16c0,4.7-1.8,7.9-0.4,8.5c2.5,0.9,5.2,0.7,5.2,3.4
				c0,3.2-3.3,3.8-7.8,4.7c-2.8,0.6-6,4.5-9.9,4.5s-6.8-5.6-9.6-6.2C480.8,95.5,474.5,96.6,474.5,93.4z M477.7,25.4
				c0-3.9,4.8-7.6,8.1-9.2c3-1.4,7.3,2,10.7,2c7.5,0,9.1,0.7,9.1,5.8c0,3.7-1.1,4.9-4.4,6.5c-3,1.4-6.1,1-9.4,1
				C484.5,31.6,477.7,30.5,477.7,25.4z"/>
		</g>
		<g>
			<path class="st0" d="M565.8,85.2c0,3.3-3.9,8.9-9.6,12.2c-3.9,2.3-9.4,0.4-15,0.4s-9.6,0.7-12.6-2.1c-3.2-2.9-6.8-6.8-6.8-12.3
				c0-7.7,4-7.7,4-15.4s-0.7-7.8-1.1-15.4c0-0.4-1.8,2.9-2.2,2.9c-2.5,0-8.6-3.8-8.6-7.7c0-4,9.4-7.5,14.7-11.4
				c5-3.5,9.3-10.4,12.8-10.4c2.9,0,3.1,4.3,3.1,7.9c0,4.1-2,5.8,1.5,8c5.5,3.5,6.4-0.6,12.8-0.6c3.9,0,5.8,2.1,5.8,5.9
				c0,3.7-1.6,5.5-5.8,5.5c-6.5,0-6.9-3.3-11.6,1.2c-4.5,4.3,0.6,4.8,0.6,11s-2.4,6.2-2.4,12.4c0,6,2,6.9,5.3,6.9
				c5,0,7.6-0.5,10.6-0.5C563.4,83.8,565.8,82.5,565.8,85.2z"/>
		</g>
		<g>
			<path class="st0" d="M569.9,93.4c0-2.8,1.8-1.3,4.2-2.1c1.5-0.6,3.3-6.1,3.3-9.8c0-4.9-3.7-4.9-3.7-9.9s3-4.9,3-9.9
				c0-3.6-3-4.5-4.5-5c-3.1-0.9-4.8-5-4.8-7.2c0-1.7,1.4-3.7,3.5-4.9c2.5-1.6,6.3-3.1,9.9-4c4-1.1,8.2-3,10.6-3
				c6.1,0,7.8,5.7,7.8,13c0,4.2,1.6,9.1,1.6,14.9c0,8-1.9,8-1.9,16c0,4.7-0.5,5.4,0.9,6c2.5,0.9,3.2,3.1,3.2,5.9
				c0,3.2-1.9,5-6.4,5.9c-2.8,0.6-6.3,3.1-10.2,3.1s-7.9,0-10.7-0.5C571,101,569.9,96.6,569.9,93.4z M573.1,25.4
				c0-3.9,2.4-4,5.7-5.6c3-1.4,5.5-2.1,8.9-2.1c7.5,0,12.4,1.1,12.4,6.2c0,3.7-4.5,4.7-7.8,6.3c-3,1.4-6,6.2-9.3,6.2
				C575.7,36.5,573.1,30.5,573.1,25.4z"/>
		</g>
		<g>
			<path class="st0" d="M683,93.4c0,3.2-2.5,4.4-6.9,5.3c-2.8,0.6-6.2-1.6-10.1-1.6c-3.9,0-7.1,2-9.8,1.5c-4.5-0.9-6.3-2-6.3-5.1
				c0-2.8-0.2-6.2,1.9-7.1c1.5-1,3.7-1.5,3.7-5c0-5.8,1.3-5.8,1.3-11.7c0-4.2-3.7-7.1-4.3-9.5c-1.2-4.3-2.2-8.4-5.7-8.4
				c-3.2,0-5.1,4.1-6.7,8.4c-0.9,2.4-2.3,5.4-2.3,9.8c0,5.7-0.8,5.7-0.8,11.4c0,4.3,2,4,3.5,5.1c2.2,0.9,1.1,4.2,1.1,7
				c0,3.1-0.2,7.9-4.6,8.7c-2.7,0.6-6.7,0.4-10.5,0.4c-3.9,0-7.1-4.3-9.9-4.9c-4.6-0.9-7.8-1.3-7.8-4.4c0-2.9,2.2-4.4,4.4-5.1
				c1.6-0.8,3.8-3.3,3.8-6.8c0-4.9,0.3-4.9,0.3-9.9s-5.3-4.9-5.3-9.9c0-3.6,2.9-8.6,1.4-9c-3.1-0.9-6.9-0.9-6.9-3.1
				c0-1.7,1.4-4.9,3.5-6.2c2.5-1.6,7-2.1,10.6-3.1c4-1.1,8.3-2.8,10.6-2.8c6,0,6.8,5.8,6.8,13.1c0,0.9,0.4,3.5,0.9,2.9
				c1.9-4,4.6-6.8,8.3-9.2c3.5-2.2,6.5-7.6,11.4-7.6c4,0,8.3,1.8,11.1,3.6c2.9,1.8,5.5,5.5,6.9,9.2c1.1,3-0.8,6.9-0.8,11
				c0,5.2-0.3,5.2-0.3,10.5s1,5.2,1,10.5c0,4.4,0.7,6.3,2.3,7.2C681.4,89.5,683,90.6,683,93.4z"/>
		</g>
		<g>
			<path class="st0" d="M754.4,98.7c0,4.6-4.5,6.6-7.1,9.7s-4.9,5.1-8.9,7c-3.8,1.7-7,4.6-11.1,5.4c-4.5,0.9-8.8,1.8-12.4,1.8
				c-4.1,0-7.8-0.1-11.1-0.7c-4.3-0.8-6.2-4.8-8.8-6.4c-3.8-2.4-10-3.1-10-6.4c0-4,7.1-7.2,10.6-8.9c-3.5-2.7-9.5-6.4-9.5-9.8
				c0-5.4,8.8-8.8,14.3-12c-3.2-1.7-6.1-6.3-7.9-8.9c-1.9-2.8-6-4.8-6-8.3c0-4.8,2.8-9.6,6-13.1c2.9-3.2,7.2-5.6,12.2-7.2
				c4.1-1.4,8.8,0.5,13.9,0.5c6.2,0,11.3-0.2,15.6,1.8c4.4-0.9,7.1-3.5,9.9-4.9c1.9-0.9,3.4-1.4,4.7-1.4c2.3,0,5.3,1.8,5.3,4.1
				c0,3.7-4.3,9.4-8.5,13.1c0.6,1.6-0.5,3.1-0.5,4.8c0,4.8-0.1,10-3.5,13.6c-2.9,3.2-8.3,3.7-13.1,5.3c-4.1,1.4-8.4,0.5-13.4,0.5
				c-3.2,0-6.1,2.7-8.9,2.2c-1.5,1.4,1.1,2.5,1.1,3.6c0,2.5-0.1,2.2,3.8,2.2c4.9,0,9.4-0.6,13.8-1.2c5.1-0.7,10.1-1.6,14.2-1.6
				c3.8,0,8.8,1.4,11.5,4C753.3,89.5,754.4,94.2,754.4,98.7z M735.3,105.6c0-2-0.8-5.7-3.3-5.7c-2.3,0-6.7,1-11.4,1.5
				c-3.6,0.3-7.2,2.5-10.9,2.5c-2.7,0-5.1,0.4-7.3-0.1c-0.9,0.7-0.9,1.6-0.9,2.7c0,3.4,3.6,10.2,14.8,10.2c4.1,0,7.2-5.9,10.5-6.9
				C731.8,108.2,735.3,108.3,735.3,105.6z M709,57.9c0,3.1-2.6,7.9-1.1,10.8c1.6,3.1,6.6,6.4,10.1,6.4c5.3,0,8.9-6.4,8.9-12.9
				c0-3-1.3-6.5-2.8-9.3c-1.6-3-4-4.9-7.6-4.9C711.3,48,709,51.4,709,57.9z"/>
		</g>
		<g>
			<path class="st0" d="M760.6,87.2c0-3.5-1.6-6.8,0.6-9.2c2.3-2.4,5.5-1.5,9-1.5s6.2-0.4,8.5,2c2.2,2.4,5.4,5.2,5.4,8.7
				s-2.8,6.7-5,9c-2.3,2.4-5.3,3.7-8.8,3.7s-6.4-1.5-8.7-3.9C759.4,93.7,760.6,90.7,760.6,87.2z"/>
		</g>
		<g>
			<path class="st0" d="M97.4,204.2c0,4.3,3.3,9.7,0.9,12.8c-2.3,3-8.1,2.9-12.1,4.5c-3.5,1.3-7.2,2.3-11.5,2.3
				c-5.6,0-11.6,2.1-16.2-0.4c-0.5,2.3-2.1-1.6-4.6-1.6c-3.3,0-5.7-0.6-7.7-4.3c-1.8-3.3-4.3-7-4.3-10.4c0-4.7,3-9.7,5.6-9.7
				c2.9,0,5.7,4.3,7.7,7.1c2.2,2.9,4.6,4.3,7.1,5.9c3.1,2,5.2,3.2,8.2,3.2c4.4,0,7.2-0.5,7.2-3.6c0-4.2-4.3-4.7-12.1-7
				c-3.5-1.1-6.8-2.7-9.9-4.2c-3.4-1.6-5.7-4.4-7.9-6.9c-2.2-2.6-2-5.2-2-9.3c0-4.3-3-9.7-0.7-12.8s6.7-6.5,10.6-8.1
				c3.5-1.4,8.5-2,12.8-2c5.1,0,10.8,2.5,15.3,4.9c0.5-2.2,2.1,0.4,4.3,0.4c2.9,0,5.6-0.4,7.5,3.1c1.6,3,5.3,6.6,5.3,9.6
				c0,4.7-5.4,7.5-7.7,7.5c-2.5,0-3.8-3.5-6.1-6.3c-3.8-5.2-10-6.1-14.7-6.1c-4.4,0-4.3,0.8-4.3,3.6c0,3.6,1.3,3.7,9,5.8
				c3.4,0.9,6.8,3.2,10.3,4.9c3.5,1.6,6.8,3.7,9.1,6.6C98.8,196.3,97.4,199.8,97.4,204.2z"/>
		</g>
		<g>
			<path class="st0" d="M152.2,208.5c0,3.3-1.2,10.3-6.9,13.7c-3.9,2.3-10.2,2.4-15.8,2.4c-5.6,0-8.7-3.7-11.7-6.5
				c-3.2-2.9-9-5.8-9-11.3c0-7.7,5.8-7.7,5.7-15.4c0-7.7,0.3-7.9-0.2-15.5c0-0.4-3.3-0.2-3.7-0.2c-2.5,0-3.5-0.6-3.5-4.5
				c0-4,3.6-8.6,8.9-12.5c5-3.5,10.1-9.8,13.6-9.8c2.9,0,7.4,4.8,7.4,8.4c0,4.1-4.9,3.6-1.4,5.8c5.5,3.5,4.9,4.6,11.4,4.6
				c3.9,0,4.7-0.8,4.7,2.9s-0.6,2.4-4.7,2.4c-6.5,0-9.6-3.1-14.3,1.4c-4.5,4.3-1,7.6-1,13.8s2.3,6.2,2.3,12.4c0,6,1.7,8.1,4.9,8.1
				c5,0,7.6-6.6,10.6-6.6C151.8,202.2,152.2,205.8,152.2,208.5z"/>
		</g>
		<g>
			<path class="st0" d="M154.9,193.7c0-4.8,3.6-8.2,5.3-12.1c1.9-4.1,0.9-10.5,4.5-13.4c3.3-2.7,8.9-2.8,13.4-4.1
				c4-1.2,8.4,0.6,13.2,0.6c4.5,0,8.2-0.8,11.9,0.5c4.1,1.4,6.9,3.7,9.8,6.5c3,2.8,9.2,3.9,10.8,7.9c1.5,3.7,1.8,8.8,1.8,13.2
				c0,4.8-2.4,9.4-4.1,13.3c-1.9,4.1-4.8,7.9-8.3,10.8c-3.3,2.7-8.3,2.5-12.8,3.8c-4,1.2-7.9,5.2-12.7,5.2c-4.5,0-9.6,0.6-13.3-0.7
				c-4.2-1.4-6.7-6.5-9.7-9.2c-3.1-2.8-8.5-4.9-10.1-8.9C153.2,203.5,154.9,198.2,154.9,193.7z M201.1,203.3c0-3.7,2.1-8.7,0.9-13.1
				c-1.1-4.2-7.1-6.5-9.1-9.8c-2.6-4.5-3.9-9-7.4-9c-4.6,0-10.8,4.2-10.8,11.7c0,3.7,2.1,8.5,3.3,12.8c1.1,4.2,2.4,9,4.3,12.3
				c2.6,4.5,7.5,3.9,11.1,3.9C198.2,212.1,201.1,210.6,201.1,203.3z"/>
		</g>
		<g>
			<path class="st0" d="M287.1,174.9c0,7.9-4.6,11.7-11.1,11.7c-4,0-7-0.7-8.9-2.5c-1.4-1.4-2.6-5.3-4.2-5.3
				c-2.4,0-2.5,6.1-2.5,10.4c0,7.7-1.1,7.7-1.1,15.4c0,4.6-1,7.4,0.6,8c3.6,1,5.3,1.4,5.3,4.3c0,3.2-1.9,7.8-7,8.7
				c-3,0.5-7.3,0.9-11.5,0.9c-3.9,0-7.3-3.9-10-4.5c-4.6-0.9-9.1-2.1-9.1-5.2c0-2.8,3.1-5.4,5.5-6.3c1.5-0.6,0.7-1.7,0.7-5.7
				c0-4.9-0.2-4.9-0.2-9.9c0-4.9,1.2-4.9,1.2-9.9c0-3.6,0.1-7.3-1.4-7.7c-3.1-0.9-3.1-2.2-3.1-4.4c0-1.7,0.4-1.2,2.5-2.5
				c2.5-1.6,4.3-7.2,7.9-8.1c4-1.1,8.6-2.1,11-2.1c6,0,6.6,6.5,6.6,13.8c0,1.3,0,4.8,1,4c1.6-4,2.2-9.2,4.8-11.6
				c3.1-2.9,7.1-6.1,11-6.1c3.4,0,7.8,2.1,9.9,4.6C286.9,166.9,287.1,171.1,287.1,174.9z"/>
		</g>
		<g>
			<path class="st0" d="M356.6,169.2c0,3,1,6.7-2.2,8.2s-4.1,3.4-6.4,9.5c-1.3,3.5-3.2,6.5-4.4,9.7c-1.2,3.2-2.1,6.6-3.4,10.1
				c-1.1,3-1.5,6.6-2.8,10.3c-1.7,4.8-3.3,9.5-5.1,13.5c-2.2,4.8-7,7.7-10.3,10.5c-3.4,2.9-7.5,3-13.1,3c-4.2,0-6.9-1.1-9.8-3.1
				c-3.4-2.4-5.8-4.6-5.8-8.2c0-5.1,2.8-8.1,8-8.1c4.6,0,7,1.7,7.6,6c0.1,0.9-1.4,2.9-1.1,3.7c0.3,1.3,3.1-1.6,4.5-1.6
				c2.7,0,2,0.4,2.7-3.8c0.5-3.5-0.1-7.4-3.7-14.9c-1.1-2.3-4.7-5-6.5-8.9c-1.5-3.1-0.4-7.8-1.9-11.1c-1.6-3.6-2.3-7.4-3.6-10.3
				c-3.2-7.2-6.4-5.1-8.1-5.6c-2.7-0.9-6.3-5.5-6.3-8.1c0-2.9,5.3-4.2,11-5.4c2.9-0.6,6.4-4.2,11-4.2c4.4,0,8.1,2.2,10.9,2.8
				c5.4,1.1,7.4,3.7,7.4,6.6c0,2.8-2.6,1.7-5.1,2.5c-1.6,0.6-1.2,6.4-0.2,9.7c0.9,2.8,2.6,6.8,4.4,10.9c1.5,3.5,4.1,9.1,5.7,12.5
				c1.5-3.5,0.5-10.2,1.7-13.8c1.5-4.4,3.5-7.9,4-10.6c0.8-3.5,1.9-5.4-0.2-6.3c-2.8-1.2-4.8-3-4.8-5.3c0-3.7,5.5-5.5,14.7-5.5
				C353.9,163.8,356.6,165.4,356.6,169.2z"/>
		</g>
		<g>
			<path class="st0" d="M409.9,208.5c0,3.3-6.4,5.6-12.1,8.9c-3.9,2.3-7.5,5.7-13.1,5.7s-8.1-2.9-11.1-5.7c-3.2-2.9-6-5.2-6-10.7
				c0-7.7,2.2-7.7,2.2-15.4s-1.2-7.8-1.6-15.4c0-0.4-1.8,2.1-2.2,2.1c-2.5,0-6.6-3-6.6-6.9c0-4,6.7-8.5,12-12.4
				c5-3.5,10-7.4,13.5-7.4c2.9,0,4.4,2.3,4.4,5.9c0,4.1-2.2,4.2,1.3,6.4c5.5,3.5,5.3,0.6,11.8,0.6c3.9,0,2.6,2.6,2.6,6.3
				s1.5,3.2-2.6,3.2c-6.5,0-7.8-2-12.5,2.5c-4.5,4.3-3.1,5.7-3.1,11.9s1.4,6.2,1.4,12.4c0,6,2.8,8.6,6,8.6c5,0,7.6-3.8,10.6-3.8
				C407,205.5,409.9,205.8,409.9,208.5z"/>
		</g>
		<g>
			<path class="st0" d="M470,204c0,2.8-1.7,6.9-4.2,10.1c-2.5,3.2-6.1,7.8-11,9.9c-3.9,1.6-9.4,1.6-14.6,1.6c-4.2,0-8.6-0.7-12-2
				c-3.8-1.4-5.8-5.7-8.5-8.4s-3.7-6-5.1-9.8c-1.3-3.5-5.2-6.6-5.2-10.8c0-4.5,2.7-8.4,4.1-12.1c1.6-4.1,2.2-8.8,5.1-11.8
				c3-3,6.5-6.9,10.5-8.5c3.8-1.5,9,2.6,13.4,2.6c4.6,0,9.1-2.8,12.5-1.3c4.2,1.7,9.2,3.6,11.5,6.6c2.8,3.5,4.5,9.3,4.5,13.1
				c0,5.8-5.9,12.1-12.3,12.1c-7,0-7-5.3-13.9-5.3c-7,0-8.1-2.1-14.8,0c0.9,4.2,3.9,9.8,6.7,12.1c2.8,2.2,6.2,4.6,10.5,4.6
				c6,0,10.4-2.7,13.9-5.3c1.4-0.9,2.5-0.1,3.9-0.1C467.4,201.3,470,200.8,470,204z M430.6,184.2c5.6,1.8,5.5-0.1,11.4-0.2
				c5.9-0.2,6-1.3,6-4.9c0-4.3-0.7-6.7-6-6.7c-3.6,0-5.5,1.2-7.6,4.1C432.7,179,430.9,180.4,430.6,184.2z"/>
		</g>
		<g>
			<path class="st0" d="M474.4,216.8c0-2.8,0.6-6.4,3-7.2c1.5-0.6,2.7-0.8,2.7-4.7c0-5.6-1.3-5.6-1.3-11.2c0-5.6,1-5.6,1-11.2
				c0-5.6-0.9-5.6-0.9-11.3s0.8-5.6,0.8-11.3c0-3.9-0.6-7.5-2.2-8.2c-3.5-1-4.5-2.6-4.5-5c0-1.7-1.1-4.8,0.9-6.1
				c2.7-1.6,7.9,0.3,11.7-0.7c4.2-1.1,7.9-6.4,10.5-6.4c6.1,0,4,6.8,4,14.2c0,4-0.5,9-0.5,14.8c0,7.1,3.8,7.1,3.8,14.1
				c0,7.1-1.2,7.1-1.2,14.1c0,7.1,0.6,7.1,0.6,14.1c0,4.7-0.2,7.1,1.2,7.7c2.7,0.9,4.4,1.4,4.4,4.2c0,3.2-2.6,4.5-7.1,5.5
				c-2.8,0.6-6.2-1-10.1-1s-7.1,0.4-9.9-0.2C476.8,220.1,474.4,219.9,474.4,216.8z"/>
		</g>
		<g>
			<path class="st0" d="M515.9,216.8c0-2.8-1.2-5.9,1.2-6.7c1.5-0.6,4.4-1.3,4.4-5.2c0-5.6-0.1-5.6-0.1-11.2c0-5.6-1.6-5.6-1.6-11.2
				c0-5.6-1.7-5.6-1.7-11.3s0.9-5.6,0.9-11.3c0-3.9-0.2-7.8-1.8-8.5c-3.5-1-6.5-2.2-6.5-4.7c0-1.7,2.9-1.3,5-2.6
				c2.7-1.6,5.4-4.8,9.1-5.8c4.2-1.1,8.3-0.5,10.9-0.5c6.1,0,4.5,2.6,4.5,10c0,4,3.2,9,3.2,14.8c0,7.1,1.9,7.1,1.9,14.1
				c0,7.1-4.1,7.1-4.1,14.1c0,7.1-0.7,7.1-0.7,14.1c0,4.7,2.7,4.5,4.1,5.1c2.7,0.9,6.4,4,6.4,6.8c0,3.2-5.9,2.8-10.4,3.7
				c-2.8,0.6-5.8,5-9.7,5s-6.9-4.9-9.7-5.4C516.6,219.1,515.9,219.9,515.9,216.8z"/>
		</g>
		<g>
			<path class="st0" d="M552.1,216.8c0-2.8,3.1-6.1,5.6-6.9c1.5-0.6,4.6-1.3,4.6-5c0-4.9,0-4.9,0-9.9c0-4.9-1.3-4.9-1.3-9.9
				c0-3.6-1.1-7.7-2.6-8.1c-3.1-0.9-4.6-1.8-4.6-4c0-1.7,0.9-2.7,3-4c2.5-1.6,5.9-3.5,9.4-4.5c4-1.1,8-3.7,10.4-3.7
				c6.1,0,5.1,5.9,5.1,13.2c0,4.2-1.7,9.1-1.7,14.9c0,8,4.9,8,4.9,16c0,4.7-1.3,5.5,0.1,6.1c2.5,0.9,1.3,3,1.3,5.8
				c0,3.2,0.4,6.9-4.1,7.9c-2.8,0.6-6.7-2.7-10.6-2.7c-3.9,0-7.5,1.6-10.3,1.1C556.7,222.1,552.1,219.9,552.1,216.8z M555.3,148.8
				c0-3.9,3.3-8.6,6.6-10.1c3-1.4,7.7,2.2,11.1,2.2c7.5,0,9,1.5,9,6.6c0,3.7-0.7,5.6-4,7.1c-3,1.4-6.4,2.1-9.7,2.1
				C561,156.6,555.3,153.8,555.3,148.8z"/>
		</g>
		<g>
			<path class="st0" d="M670.6,216.8c0,3.2-4.5,5.3-9,6.2c-2.8,0.6-6.4,2.7-10.2,2.7c-3.9,0-7-3.7-9.7-4.2c-4.5-0.9-8.5-1.5-8.5-4.6
				c0-2.8,4.4-1.3,6.5-2.1c1.5-1-1.3-6.5-1.3-10c0-5.8,2.6-5.8,2.6-11.7c0-4.2-2.6-7.1-3.3-9.5c-1.2-4.3-2.1-6.4-5.6-6.4
				c-3.2,0-8.5,0.8-10.1,5c-0.9,2.4,1.2,6.7,1.2,11.1c0,5.7,1.3,5.7,1.3,11.4c0,4.3-1.5,6.4,0,7.5c2.2,0.9,4.8,1.8,4.8,4.6
				c0,3.1-2.7,7.6-7.1,8.5c-2.7,0.6-6.7-4.1-10.5-4.1c-3.9,0-7.6,3-10.4,2.4c-4.6-0.9-7.4-3.7-7.4-6.9c0-2.9,3.3-2.1,5.5-2.8
				c1.6-0.8,1.3-5.5,1.3-9.1c0-4.9,0.2-4.9,0.2-9.9c0-4.9,1-4.9,1-9.9c0-3.6-2-7.2-3.6-7.7c-3.1-0.9-5.8-2.2-5.8-4.4
				c0-1.7,2.1-2.9,4.2-4.1c2.5-1.6,5.8-4,9.4-5c4-1.1,8.2-1,10.6-1c6,0,5.8,3.8,5.8,11.1c0,0.9,1.8,4,2.3,3.3c1.9-4,2.4-10,6.1-12.4
				c3.5-2.2,8.3-5.7,13.1-5.7c4,0,6.3,5.8,9.2,7.6s7.4,2.4,8.8,6.1c1.1,3,1.8,6.9,1.8,11c0,5.2,0.6,5.2,0.6,10.5s-4.6,5.2-4.6,10.5
				c0,4.4,3.9,3.9,5.5,4.7C667.6,210.4,670.6,213.9,670.6,216.8z"/>
		</g>
		<g>
			<path class="st0" d="M736.9,222c0,4.6,2.2,9.9-0.4,13c-2.6,3.1-6.6,6.8-10.6,8.6c-3.8,1.7-9.2-0.2-13.3,0.6
				c-4.5,0.9-8.8,1.8-12.4,1.8c-4.1,0-7.6-1.2-10.9-1.9c-4.3-0.8-8.8,0.2-11.5-1.4c-3.8-2.4-7.6-7.1-7.6-10.4c0-4,7.3-7.2,10.9-8.9
				c-3.5-2.7-6.2-6.4-6.2-9.8c0-5.4,1.2-10.8,6.8-14c-3.2-1.7-5.5-2-7.3-4.6c-1.9-2.8-2.5-7.1-2.5-10.6c0-4.8,3-9.2,6.3-12.8
				c2.9-3.2,7.6-3.5,12.6-5.1c4.1-1.4,8-6.8,13.1-6.8c6.2,0,11.3,5.1,15.6,7.1c4.4-0.9,7.3-3.7,10.1-5c1.9-0.9,3.3-4.7,4.5-4.7
				c2.3,0,5,4.7,5,7c0,3.7-4.9,8.8-9,12.6c0.6,1.6-1.5,3.6-1.5,5.4c0,4.8,0.8,9.2-2.5,12.8c-2.9,3.2-7.4,4.7-12.2,6.4
				c-4.1,1.4-8.4,5.1-13.5,5.1c-3.2,0-6.2-2.6-9-3.2c-1.5,1.4-1.1,3-1.1,4.2c0,2.5,2.2,5.7,6,5.7c4.9,0,9.7-2.2,14.1-2.8
				c5.1-0.7,9.8-0.7,13.9-0.7c3.8,0,9.7-2.4,12.4,0.2C739.5,211.9,736.9,217.5,736.9,222z M723.3,228.9c0-2-3.5-0.7-6.1-0.7
				c-2.3,0-6.1,1.3-10.9,1.7c-3.6,0.3-7.7-2.8-11.5-2.8c-2.7,0-5.1,0.3-7.3-0.1c-0.9,0.7-1.9,1.5-1.9,2.7c0,3.4,4.7,5.6,15.9,5.6
				c4.1,0,7.2-1.4,10.5-2.3C717.1,231.5,723.3,231.6,723.3,228.9z M691.5,181.3c0,3.1,4.7,5.6,6.1,8.5c1.6,3.1,2.1,3.4,5.6,3.4
				c5.3,0,8.7-1.1,8.7-7.5c0-3-1.2-6.5-2.7-9.3c-1.6-3-4-6-7.5-6C696.5,170.2,691.5,174.7,691.5,181.3z"/>
		</g>
		<g>
			<path class="st0" d="M745.8,210.5c0-3.5,0.5-5,2.7-7.4c2.3-2.4,3.5-5,7-5s8.1-0.5,10.4,1.9c2.2,2.4,1.1,6.9,1.1,10.5
				c0,3.5,1.7,8.6-0.6,10.9c-2.3,2.4-7.4,2.4-10.9,2.4s-4.5-4-6.7-6.4C746.5,215.2,745.8,214.1,745.8,210.5z"/>
		</g>
		<g>
			<path class="st0" d="M194.1,340.1c0,3.2-3.7,2.6-8.2,3.5c-2.8,0.6-5.8,5.2-9.7,5.2s-7.2-2-9.9-2.6c-4.4-0.9-6.4-2.9-6.4-6
				c0-2.8,1.7-2.9,3.9-3.7c1.5-0.9,3.6-5,3.6-8.3c0-5.8-2.6-5.8-2.6-11.7c0-4.1-2.5-6.8-3.1-9.2c-1.1-4.2-0.9-5.6-4.4-5.6
				c-3.1,0-7.4,0.1-9,4.4c-0.9,2.4-1.7,6.3-1.7,10.6c0,5.7-0.7,5.7-0.7,11.5c0,4.2,3.6,4.4,5.3,5.5c2.1,0.9,1.6,3.7,1.6,6.5
				c0,3.2-1.4,4.3-5.8,5.2c-2.7,0.5-6,3.2-9.8,3.2c-3.9,0-6.9-3.4-9.6-4c-4.4-0.9-6.4-1.3-6.4-4.4c0-2.8,0.5-4.8,2.7-5.7
				c1.5-0.9,0-3,0-6.4c0-5.8,1.9-5.8,1.9-11.7c0-4.1,0.8-7.6,0.2-10c-1-4.2-4.1-3.1-7.6-3.1c-3.1,0-6.1-1.2-7.7,3.2
				c-0.9,2.4,1,5.8,1,10.2c0,5.7,0.4,5.7,0.4,11.4c0,4.2-1.7,4.6-0.1,5.8c2.2,0.9,5.8,3.5,5.8,6.3c0,3.1-5.1,5.5-9.5,6.4
				c-2.7,0.6-6.2,0-10.1,0s-7.9,2.4-10.7,1.9c-4.6-0.9-6.2-5.3-6.2-8.4c0-2.8,1.6-3.5,4-4.3c1.5-0.6,1.6-3.7,1.6-7.6
				c0-4.9-1.7-4.9-1.7-9.9s-0.7-4.9-0.7-9.9c0-3.6,2.6-9.7,1.1-10.2c-3.1-0.9-7.5,0.2-7.5-2c0-1.7,3.6-2,5.7-3.3
				c2.5-1.6,4.8-6.3,8.4-7.2c4-1.1,8.6,2.7,11,2.7c6.1,0,6.4,1.6,6.4,8.9c0,0.9-2,1.4-1.3,0.7c1.9-4,6.2-6,9.9-8.4
				c3.4-2.3,7.4-6.3,12.2-6.3c4.5,0,8.3,3.5,11.3,5.9c2.9,2.3,4.9,5.9,6,10.4c2-4.1,6.2-5.9,10.1-8.3c3.6-2.3,6.7-2.9,11.7-2.9
				c4,0,6.4-0.2,9.2,1.7c2.9,1.9,4.5,3.7,5.9,7.4c1.1,2.9,2.3,5.9,2.3,10c0,5.2-0.8,5.2-0.8,10.5s2.9,5.2,2.9,10.5
				c0,4.7-0.8,6.5,0.6,7.1C191.9,336.1,194.1,337.3,194.1,340.1z"/>
		</g>
		<g>
			<path class="st0" d="M263.6,335.9c0,2.8-0.8,8.4-4,10.5c-2.4,1.6-7.1-1.1-11-1.1c-6.6,0-12.6,0.3-15.3-5.6
				c-2,3.1-2.2,6.4-5.6,8.1c-3.1,1.6-8.1-0.2-12-0.2c-5.1,0-11-0.1-14.3-3c-3.4-2.9-1.4-8.6-1.4-14c0-4.3-1.4-7.9,0.9-10.8
				c2.3-2.8,5.3-5.6,9.3-6.9c3.4-1.1,7.4,1,11.6,1c4.2,0,10.7-0.2,14,0.6c1.6-3.1-0.4-4.8-0.4-8.3c0-5.9-2.4-9.4-7.3-9.4
				c-3.1,0-6.5,0.5-8.9,3.6c-2.2,3.4-4.4,8.3-10.4,8.3c-4.9,0-10.5-3.5-10.5-6.7c0-3.3,7.3-4.8,12.2-7.7c3.4-2,6.4-5.9,10.9-7.1
				c4.2-1.1,8.7-3.4,13-3.4s7.9,2.9,10.9,4.2c3.8,1.5,7.6,3.1,9.4,6.4c1.6,3,1.5,7.1,1.5,11.4c0,4.9,3,4.9,3,9.8s-3.6,4.9-3.6,9.8
				c0,5.1,0.9,10.4,5.8,11.7C262.2,337.3,263.6,335.1,263.6,335.9z M233.4,325.2c0-1.8-1.6-1.1-2.1-2.8c-1.4-1.2-0.9-4.4-3.7-4.4
				c-5,0-5.7,4.5-5.7,9.6s0.3,4.9,4.3,4.9C230.4,332.5,233.4,332.3,233.4,325.2z"/>
		</g>
		<g>
			<path class="st0" d="M327.5,298.2c0,7.9-6.9,11.6-13.4,11.6c-4,0-6.9-0.6-8.7-2.5c-1.4-1.4-2.7-1.8-4.3-1.8
				c-2.4,0-7.6,2.7-7.6,7.1c0,7.7,2.5,7.7,2.5,15.4c0,4.6,0.5,7.4,2.1,8c3.6,1,6.6,1.3,6.6,4.2c0,3.2-3.3,7.5-8.4,8.4
				c-3,0.5-7.2-3.2-11.4-3.2c-3.9,0-7.9,3.8-10.7,3.3c-4.6-0.9-6-5.4-6-8.6c0-2.8,1.3-3.7,3.7-4.5c1.5-0.6,1-3.5,1-7.4
				c0-4.9-2.3-4.9-2.3-9.9s1.1-4.9,1.1-9.9c0-3.6,0.5-4.2-1-4.7c-3.1-0.9-2.6-5.3-2.6-7.5c0-1.7,0-2.6,2-3.9
				c2.5-1.6,6.2-1.9,9.8-2.9c4-1.1,7.6-4,10-4c6,0,7.6,4.5,7.6,11.8c0,1.3-2.5,3-1.5,2.2c1.6-4,4.4-6.7,7-9.1
				c3.1-2.9,6.4-5.7,10.3-5.7c3.4,0,7.8,1,9.9,3.5C325,290.2,327.5,294.4,327.5,298.2z"/>
		</g>
		<g>
			<path class="st0" d="M402.8,340c0,4.5-5.8,6.6-15.5,6.6c-8,0-9.3-1.9-11.7-5.4c-1.6-2.1-8.4-4.2-11.1-9.2
				c-2.3-4.2-2.9-8.4-4.6-11.9c-2,1.4-3.7,1-5.4,2.4c-0.7,2.6,0.3,2.9,0.3,5.7c0,4.7,1.5,4.7,2.9,5.3c2.8,0.9,3.4,3.8,3.4,6.6
				c0,3.2-2.2,4.7-6.8,5.6c-2.8,0.6-6.3,2-10.2,2c-3.9,0-6.8-4.1-9.6-4.6c-4.5-0.9-6.9,0.1-6.9-3c0-2.8,1-4.1,3.4-4.9
				c1.4-0.6,3.6-3.1,3.6-7c0-5.6,0.6-5.6,0.6-11.2s-1.2-5.6-1.2-11.2s-0.9-5.6-0.9-11.3s-1.4-5.6-1.4-11.3c0-3.9-0.7-5.8-2.4-6.5
				c-3.5-1-7.5-4.3-7.5-6.7c0-1.7,3.5-3.1,5.6-4.3c2.7-1.6,6.2-4.1,10-5.1c4.2-1.1,8.7,1.5,11.3,1.5c6.1,0,9.3,1.6,9.3,9
				c0,4-3,9-3,14.8c0,6.6,2.9,6.6,2.9,13.2s-7.1,8.1-3.6,13.8c1.8,2.9,4.5-1.4,7.4-3.4c4.3-3.1,4.8-8,5.6-9.9c0.7-1.4,3-4,1.5-4.6
				c-2.1-0.6-7,1-7-2c0-2.8,4.6-2,9.9-3.1c2.7-0.6,5.6-2,9.9-2c4.1,0,7.3-0.3,10,0.2c4.9,1.1,8.1,2,8.1,4.8c0,3.6-3.3,6.5-7.6,7.3
				c-4.7,0.9-10-0.3-16.9,4.5c1.7,3.2,4.5,9.9,7.1,14.6c2.1,3.6,5,7.5,7.7,11.5c2.7,3.7,5.1,4.3,6.9,5.1
				C400.9,336.7,402.8,337.1,402.8,340z"/>
		</g>
		<g>
			<path class="st0" d="M457.7,327.3c0,2.8,0.6,6.4-1.9,9.6s-6.1,6.8-11,8.8c-3.9,1.6-8.8,2.6-13.9,2.6c-4.2,0-8.7,0.2-12.2-1.1
				c-3.8-1.4-6.6-5.2-9.3-7.9c-2.7-2.7-4.2-6.4-5.6-10.2c-1.3-3.5-2.1-7.2-2.1-11.4c0-4.5,2-8,3.4-11.7c1.6-4.1,2.3-8.1,5.3-11.1
				s7-4,10.9-5.6c3.8-1.5,7.4-4.9,11.8-4.9c4.6,0,8.7,1.6,12.2,3c4.2,1.7,9.6,2.8,11.9,5.7c2.8,3.5,3.2,9.3,3.2,13.1
				c0,5.8-4.6,10.6-11,10.6c-7,0-7,1.9-13.9,1.9s-6.8-3.4-13.4-1.3c0.9,4.2,0.7,7.7,3.6,10c2.8,2.2,7.9,2.9,12.3,2.9
				c6,0,10.2-3.5,13.7-6.1c1.4-0.9,2.7-4.8,4.1-4.8C458.1,319.6,457.7,324.1,457.7,327.3z M420.4,310.4c5.6,1.8,6.4-2.1,12.3-2.2
				c5.9-0.2,7.7-2.1,7.7-5.7c0-4.3-2.3-7.3-7.6-7.3c-3.6,0-5.2,2-7.2,4.9C423.7,302.5,420.7,306.5,420.4,310.4z"/>
		</g>
		<g>
			<path class="st0" d="M515.1,331.9c0,3.3-5.1,9.5-10.8,12.8c-3.9,2.3-9.7,1.2-15.3,1.2c-5.6,0-8.3-2.1-11.3-4.9
				c-3.2-2.9-7.6-5.4-7.6-10.9c0-7.7,3.2-7.7,3.2-15.4s0.1-7.8-0.3-15.5c0-0.4-2.3,0.4-2.7,0.4c-2.5,0-4.2-1.2-4.2-5.2
				s4.5-8.4,9.8-12.2c5-3.5,9.9-5.6,13.4-5.6c2.9,0,6.3,0.4,6.3,3.9c0,4.1-4.4,4.8-1,7c5.5,3.5,5.7,0.3,12.2,0.3
				c3.9,0,3.5,2.3,3.5,6s0.6,7.8-3.5,7.8c-6.5,0-9.6-8.4-14.2-3.9c-4.5,4.3,1.6,7.5,1.6,13.8s0.6,6.2,0.6,12.4c0,6,0.7,6.8,3.9,6.8
				c5,0,7.6-2.7,10.6-2.7C511.3,328.1,515.1,329.1,515.1,331.9z"/>
		</g>
		<g>
			<path class="st0" d="M515.8,340.1c0-2.8,1.9-6.6,4.3-7.4c1.5-0.6,4.2-0.8,4.2-4.5c0-4.9,1.1-4.9,1.1-9.9s0.3-4.9,0.3-9.9
				c0-3.6-4.2-4.6-5.7-5.1c-3.1-0.9-0.9-4.9-0.9-7.1c0-1.7-1-1.1,1.1-2.4c2.5-1.6,4.9-4.9,8.5-5.8c4-1.1,8-0.8,10.4-0.8
				c6.1,0,4.6,2.9,4.6,10.1c0,4.2,2.6,9.1,2.6,14.9c0,8,2.1,8,2.1,16c0,4.7-2.7,6.4-1.3,6.9c2.5,0.9,5,2.2,5,5c0,3.2-3,6.9-7.5,7.8
				c-2.8,0.6-6.7,0.7-10.6,0.7c-3.9,0-7.3-2.6-10.1-3.1C519.4,344.5,515.8,343.2,515.8,340.1z M519,272.1c0-3.9,2-9,5.2-10.6
				c3-1.4,7.9,2,11.3,2c7.5,0,8.5,2.1,8.5,7.2c0,3.7-1,3.6-4.3,5.2c-3,1.4-5.5,7.2-8.8,7.2C523.5,283.1,519,277.2,519,272.1z"/>
		</g>
		<g>
			<path class="st0" d="M630.8,340.1c0,3.2-1.8,7.5-6.3,8.4c-2.8,0.6-6.8-2.8-10.7-2.8s-6.7-1.7-9.4-2.2c-4.5-0.9-8.8-0.2-8.8-3.3
				c0-2.8,4.6-1.1,6.6-1.9c1.5-1,0.7-6.7,0.7-10.1c0-5.8,0.5-5.8,0.5-11.7c0-4.2-1.4-7.4-2.1-9.8c-1.2-4.3-3.3-6.4-6.8-6.4
				c-3.2,0-5.4,2.3-7,6.6c-0.9,2.4-0.3,5.5-0.3,9.9c0,5.7-3.3,5.7-3.3,11.4c0,4.3,1.8,5.9,3.3,7c2.2,0.9,6.7,2.3,6.7,5.1
				c0,3.1-5.4,5.2-9.8,6.1c-2.7,0.6-6.2-0.8-10-0.8c-3.9,0-7.9,3.3-10.6,2.7c-4.6-0.9-7.9-5-7.9-8.1c0-2.9,3.6-3.1,5.8-3.8
				c1.6-0.8,0.2-4.5,0.2-8.1c0-4.9-0.8-4.9-0.8-9.9s1.6-4.9,1.6-9.9c0-3.6-0.5-6-2-6.5c-3.1-0.9-1.8-3.5-1.8-5.7
				c0-1.7-1.3-2.5,0.8-3.8c2.5-1.6,5.8-3.4,9.4-4.4c4-1.1,7.9-2.3,10.3-2.3c6,0,7.5,4.2,7.5,11.5c0,0.9-3.6,0.7-3.1,0.1
				c1.9-4,7.2-5.1,10.9-7.5c3.5-2.2,7.2-1.7,12.1-1.7c4,0,6.5-0.1,9.4,1.7c2.9,1.8,7.8,2.5,9.2,6.2c1.1,3,1.3,7.2,1.3,11.3
				c0,5.2-0.6,5.2-0.6,10.5s1.9,5.2,1.9,10.5c0,4.4-3,7.5-1.4,8.3C628.8,337.3,630.8,337.2,630.8,340.1z"/>
		</g>
		<g>
			<path class="st0" d="M699.3,345.3c0,4.6-1,7.1-3.5,10.2c-2.6,3.1-3.7,8.4-7.7,10.3c-3.8,1.7-8.1,4.3-12.1,5.1
				c-4.5,0.9-9.4,1-13,1c-4.1,0-7.3-5.6-10.5-6.2c-4.3-0.8-7.5-0.7-10.1-2.3c-3.8-2.4-4.3-4.4-4.3-7.7c0-4-1-7.3,2.6-8.9
				c-3.5-2.7-6.1-6.3-6.1-9.7c0-5.4,6-10.1,11.5-13.2c-3.2-1.7-5.9-3.4-7.7-6c-1.9-2.8-0.8-6.4-0.8-9.9c0-4.8-1.7-11.1,1.6-14.7
				c2.9-3.2,9.1-3.5,14-5.1c4.1-1.4,8.6-5,13.8-5c6.2,0,11.3,4.7,15.6,6.6c4.4-0.9,6.7-4.3,9.5-5.7c1.9-0.9,3.8,0,5.1,0
				c2.3,0,6.4,1.2,6.4,3.5c0,3.7-4.6,10-8.7,13.7c0.6,1.6-0.6,2.5-0.6,4.2c0,4.8-1.9,8.9-5.3,12.5c-2.9,3.2-6.9,5.5-11.7,7.2
				c-4.1,1.4-8.6,0.6-13.7,0.6c-3.2,0-5.7,3.8-8.5,3.2c-1.5,1.4-4.8,0.5-4.8,1.7c0,2.5,5.4,1.2,9.2,1.2c4.9,0,9.4,0,13.8-0.7
				c5.1-0.7,10.1,0.2,14.2,0.2c3.8,0,9.5-0.8,12.2,1.7C701.9,335.4,699.3,340.8,699.3,345.3z M686.1,352.2c0-2-3.7-5-6.3-5
				c-2.3,0-6.3,4.4-11,4.9c-3.6,0.3-7.6,1.9-11.3,1.9c-2.7,0-4.9-0.5-7.1-1c-0.9,0.7-4-1.1-4,0.1c0,3.4,6.5,8.7,17.8,8.7
				c4.1,0,8.6,0.2,11.9-0.8C681.1,359.5,686.1,355,686.1,352.2z M653.9,304.6c0,3.1,1,7.6,2.5,10.4c1.6,3.1,5.9,2.6,9.5,2.6
				c5.3,0,5.3-2.3,5.3-8.7c0-3-0.1-5.3-1.6-8.1c-1.6-3-1.7-9.1-5.2-9.1C659.1,291.7,653.9,298,653.9,304.6z"/>
		</g>
		<g>
			<path class="st0" d="M706.4,333.8c0-3.5,0.6-6.7,2.8-9c2.3-2.4,5.3-5.9,8.8-5.9s8.7,1.4,11,3.8c2.2,2.4,1.1,7.5,1.1,11.1
				c0,3.5-1.1,6.6-3.3,8.9c-2.3,2.4-5.3,5.3-8.8,5.3s-7.5-2-9.7-4.4C706.1,341.3,706.4,337.4,706.4,333.8z"/>
		</g>
	</g>
	<g>
		<g>
			<path class="st1" d="M27,71.1c0-2.9,2-5.5,2.6-8.1c0.7-2.8,0.9-5.5,2.2-8s2.2-5.4,4.1-7.5c2-2,4.6-3.4,7-4.8
				c2.4-1.4,5.4-1.2,8.2-1.9c2.6-0.7,5.2-1,8.1-1c3,0,5.6-0.3,8.2,0.4c2.9,0.8,5.9,0.9,8.1,2.3c2.5,1.6,3.6,4.5,5,6.7
				c1.6,2.4,4.3,4.7,4.3,7.5c0,2.9-2,5.4-3.5,7c-1.7,1.7-4.2,2.1-6.9,2.1c-3.2,0-5.7-0.7-7.2-2.7c-1.5-2-1.5-5.1-2.4-7.7
				c-1.2-3.2-3.5-8.1-8-8.1c-3.1,0-6.5,2.2-7.8,5.3c-1.1,2.4,0.2,5.9,0.2,9.2c0,3.5-0.5,7,0.5,9.8c1.3,3.3,3.5,6,6,7.8
				s5.8,3.3,9.4,3.3c2.6,0,5.2-0.1,7.1-1c2.2-0.9,3.4-3.6,5.2-4.8c1.6-1.2,3.1-0.8,4.5-0.8c2.2,0,3.7,0.8,3.7,4s-2.5,6.5-5.5,10
				c-1.7,2-2.6,5.6-5.3,7.3c-2.3,1.4-5.6,1.8-8.6,2.6c-2.7,0.7-5.6-0.1-8.7-0.1c-3.3,0-6.4,0.7-9.3-0.2c-3.1-0.9-6.3-1.9-8.8-3.6
				c-2.6-1.8-3.8-4.9-5.6-7.6c-1.7-2.5-4-4.9-4.8-8C27.9,77.6,27,74.4,27,71.1z"/>
		</g>
		<g>
			<path class="st1" d="M88.5,70.4c0-3.1,1-6.3,1.8-9.1c0.8-2.9,2.2-5.8,3.8-8.3c1.6-2.5,4.5-4,6.8-5.9c2.3-1.8,4.8-3.1,7.7-4.3
				c2.6-1.2,5.2-2.7,8.3-3.3c2.8-0.5,5.8-0.2,9-0.2c2.9,0,5.6,0,8.2,0.5c2.8,0.6,5.7,1,8.1,2.2c2.5,1.3,4,3.9,6,5.7
				c2,1.9,4.7,3.3,6.1,5.7c1.4,2.4,2.9,4.9,3.6,7.7c0.6,2.6-0.4,5.5-0.4,8.4c0,3.1-0.9,5.7-1.7,8.5c-0.8,2.9,0,6.6-1.6,9
				c-1.6,2.5-5.1,3.4-7.5,5.3c-2.2,1.8-3.8,4.9-6.6,6.2c-2.6,1.2-5.7,1.9-8.7,2.5c-2.8,0.5-5.9,0.7-9,0.7c-2.9,0-5.6-1.5-8.2-2
				c-2.8-0.6-5.9-0.3-8.3-1.5c-2.6-1.3-5-2.9-7-4.8c-2.1-1.9-4.2-4-5.7-6.4c-1.4-2.4-0.7-5.7-1.4-8.4C91.2,75.9,88.5,73.3,88.5,70.4
				z M134.8,80c0-2.8,0.2-5.9-0.5-9.2c-0.7-3-1.5-6.1-2.7-8.9c-1.2-3.1-1.8-6.5-3.5-8.8c-2.3-3-5.2-5.4-8-5.4c-2.7,0-4.9,2-6.3,4.6
				c-1.1,1.9-2.3,4.4-2.3,7.5c0,2.8,0.7,6.1,1.4,9.4c0.6,3.1,2.1,6,3.3,8.9c1.2,3.2,1.7,6.7,3.4,9c2.3,3,5.6,4.1,8.5,4.1
				c2.7,0,4.3-1.4,5.7-4C134.8,85.4,134.8,83.2,134.8,80z"/>
		</g>
		<g>
			<path class="st1" d="M235.2,68.7c0,3.4-1.4,6.4-2.1,9.4c-0.8,3.3-1,6.6-2.5,9.2c-1.6,2.9-3.5,5.7-5.9,7.7
				c-2.4,2.1-6.1,1.8-9.2,2.9c-2.9,1-5.6,2-8.9,2c-2.6,0-5.4,1.7-7.9,1.1c-2.6-0.7-5.3-3-7.4-4.1c-1.2,2.8,0.2,3.2,0.2,6.2
				c0,4.5,1.2,5,3,5.7c3.2,1.2,4.5,3.5,4.5,6.4c0,3.2-2.4,6.4-7.4,7.3c-3,0.5-7-2.2-11.1-2.2c-3.9,0-7.5,1.6-10.3,1
				c-4.7-0.9-8.4-3-8.4-6.1c0-2.9,3.2-3.9,5.6-4.8c1.6-0.7,1.5-3.4,1.5-7.3c0-4.1,0.7-4.1,0.7-8.3c0-4.1-1.2-4.1-1.2-8.3
				c0-4.1,1.3-4.1,1.3-8.3c0-4.1-1.4-4.1-1.4-8.3s-0.3-4.1-0.3-8.3c0-3.5,0.8-7.4-0.7-7.9c-3.1-0.9-4.2-2-4.2-4.3
				c0-1.7-0.3-4,1.8-5.3c2.6-1.6,6.7-2.2,10.3-3.2c4-1.1,8-2,10.4-2c3.4,0,4.9,1.7,5.6,4.2c0.5,1.8,0.1,4.2,0.1,7.4
				c0,0.5-0.7,0.4-0.5,0c1.2-2.5,3.1-4.9,5.2-6.8c2-1.9,4.9-3.6,7.5-4.7c2.5-1,5.8,1,8.7,1s5,0.7,7.5,1.8s5.3,1.4,7.3,3.5
				c1.8,1.9,2.5,4.7,3.7,7.3c1.1,2.4,2.1,4.8,2.7,7.7C233.7,63.1,235.2,65.8,235.2,68.7z M210.5,72.7c0-3,0.9-5.7,0.5-8
				c-0.5-3.2-2.4-5.3-3.5-7.1c-1.7-2.6-3.6-3.4-6.2-3.4c-2.6,0-6.2-0.2-8,2.7c-1.2,1.9-1.8,5.1-2.4,8.4c-0.4,2.4,1.4,5.3,1.4,8.5
				c0,2.9-1.5,5.5-1.2,7.7c0.5,3.1,1.7,5.5,2.9,7.2c1.7,2.4,4.2,1.8,6.7,1.8c2.7,0,5.4,0.5,7.1-2c1.3-1.8,0.4-4.8,1-8
				C209.4,78.2,210.5,75.8,210.5,72.7z"/>
		</g>
		<g>
			<path class="st1" d="M305.9,45.9c0,3-1.2,4.4-4.5,5.9c-1.9,0.9-2.7,2.7-4,5.1c-0.9,1.7-3.4,3.1-4.3,5.6c-1,2.6-1.7,5.1-2.6,7.5
				c-0.9,2.5-2.1,4.9-3,7.4c-0.9,2.4-1.1,5.1-2,7.7c-0.9,2.3-0.4,5.3-1.4,8c-1,2.8-3.8,4.8-4.8,7.3c-1.1,2.8,0.1,6.5-1.2,8.8
				c-1.4,2.7-3.1,5.4-4.9,7.4c-1.9,2.2-5.7,1.8-8.3,3c-2.4,1-4.7,1.6-7.9,1.6c-2.7,0-5.5,1.1-7.7,0.2c-2.5-1.1-4.7-3-6.2-4.9
				c-1.7-2.1-2-4.8-2-7.3s0.2-5.2,1.7-6.9c1.5-1.7,4.1-3.2,6.7-3.2c4.6,0,5.9,3.9,6.5,8.2c0.1,0.9,1.9,2.2,2.2,3
				c0.3,1.3,0.9,0.5,2.3,0.5c2.7,0,4.3-0.8,4.9-4.9c0.3-2.1,0-4.8-1.5-8.1c-1-2.1-2-4.6-3.4-7.6c-0.9-1.8-2.4-4.2-3.8-7.2
				c-1.1-2.3-3.5-4.2-4.7-6.8c-1.1-2.5-1.2-5.5-2.3-7.9c-1.2-2.7-1.2-5.8-2.1-7.9c-3.2-7.2-5.9-6.6-7.6-7.2c-2.7-0.9-5-4-5-6.5
				c0-2.9,3.5-3.8,9.2-4.9c2.9-0.6,6.3-0.7,10.9-0.7c4.4,0,7.8-0.1,10.6,0.4c5.4,1.1,7.5,2.1,7.5,5c0,2.8-1.5,4.4-3.9,5.2
				c-1.6,0.6-2.2,3.8-1.3,7.1c0.7,2,3.5,3.8,4.7,6.6c0.9,2.3,1.9,4.7,3,7.1s1.4,4.7,2.4,7c1-2.3,1.4-4.5,2.3-6.9
				c0.9-2.5,3.3-4.5,4-6.8c0.9-2.9,1.9-5.5,2.2-7.5c0.8-3.5,0.1-8-1.9-8.9c-2.8-1.2-4.5-0.9-4.5-3.2s1.4-4,5.2-5.2
				c2.2-0.7,4.9-2.4,8.2-2.4c3.2,0,6.1,0.6,8.2,1.2C305.1,40.8,305.9,43.5,305.9,45.9z"/>
		</g>
		<g>
			<path class="st1" d="M413.3,45.9c0,2.9-0.3,4.3-3.5,5.6c-1.7,0.7-3.9,2.1-5.2,4.7c-0.9,1.7-0.2,4.6-1.3,7
				c-1.3,3.1-3.6,5.7-4.9,8.7c-1.3,3.1-2.9,6.1-4.2,8.9c-1.5,3.2-0.6,7.4-2,10.1c-1.6,3-3.4,5.3-4.8,6.9c-2,2.4-5.1,4.4-8.1,4.4
				c-2.9,0-6.4-1.6-8.2-3.7c-1.4-1.6,0.4-5.7-1-8.7c-1-2.2-2.7-4.9-3.9-8.2c-1.1-2.7-3.4-4.7-4.5-7.6c-1.4,2.7-3,4.9-4.5,7.6
				c-1.4,2.7-1.4,6.2-2.9,8.9c-1.6,3-3.5,5.2-4.9,6.8c-2,2.5-4.8,3.4-7.8,3.4c-2.9,0-4.9-1.5-6.8-3.7c-1.4-1.6-2.8-3.7-4.4-6.5
				c-1-1.9-0.9-5-2.3-7.9c-1.1-2.3-3.4-4.3-4.5-6.8s-2.6-4.9-3.7-7.3c-1.2-2.7-2.4-5.2-3.4-7.4c-3.2-7.3-2.9-9.8-4.5-10.6
				c-2.4-1-4.7-1.5-4.7-4.2c0-2.8,1.8-7,7.6-8.2c2.8-0.6,6.9-0.4,11.4-0.4c3.9,0,7.1,2.7,9.8,3.4c4.5,1.2,8.5,2.6,8.5,5.4
				c0,2.5-3.5,2.1-5.4,2.9c-1.4,0.6-1.8,5.8-0.9,9.2c0.6,2,4.6,3.4,5.8,6.1c0.9,2.2,2.2,4.4,3.3,6.8c1.1,2.4,0.3,5,1.4,7.2
				c1.6-2.6,2.5-5.3,3.9-8c1.5-3,5.5-5.5,6.4-8.1c0.1-0.9-1.8-1.2-2.2-2c-2.9-7.4-3.6-9.4-5-10.1c-2.1-0.9-2.9-1.5-2.9-4.1
				c0-2.7,1.2-5.6,6.1-6.8c2.6-0.6,6.2-1.5,10.3-1.5c4,0,7.2,1.9,9.9,2.6c4.7,1.1,7,2.9,7,5.6c0,2.8-1.3,6.2-3.5,6.9
				c-1.7,0.6-0.9,1.3,0.1,4.7c1,2.9,0.6,7.2,2.1,11c1.3,3.5,2.8,7.9,4.2,11.1c1.1-2.2,1.3-6,2.3-8.3c1-2.4,3.4-4.2,4.2-6.4
				c1-2.7,0.8-5.4,1.3-7.5c0.8-3.5,0.9-6.1-1-7.1c-2.7-1-2.5-2.5-2.5-4.7c0-2.3-0.5-6,2.9-7.1c2.1-0.7,5.4,0.1,8.6,0.1
				s5.9,0.5,8,1.2C412.9,41.3,413.3,43.6,413.3,45.9z"/>
		</g>
		<g>
			<path class="st1" d="M473.9,51.6c0,3.7-0.6,6.9-2.2,9.1c-1.9,2.6-4.9,5-8.4,5c-4,0-7.4-2.6-9.3-4.5c-1.4-1.4-2.2-3.3-3.8-3.3
				c-2.4,0-4.2,3.6-4.2,8c0,3.8-1.5,3.8-1.5,7.7c0,3.8,2,3.8,2,7.7c0,4.6-0.7,6.7,0.9,7.3c3.6,1,5.8,2.1,5.8,5c0,3.2-2.9,6.1-8,7
				c-3,0.5-7-1.3-11.2-1.3c-3.9,0-7.3,0.3-10.1-0.3c-4.6-0.9-7.3-2.4-7.3-5.6c0-2.8,2.1-3.4,4.5-4.2c1.5-0.6,1.2-3.7,1.2-7.7
				c0-4.9,0.5-4.9,0.5-9.9s-1.2-4.9-1.2-9.9c0-3.6,0.2-6.1-1.3-6.5c-3.1-0.9-3.7-3.4-3.7-5.6c0-1.7,0.7-2.4,2.8-3.6
				c2.5-1.6,5.7-3.7,9.3-4.7c4-1.1,8-1.6,10.4-1.6c3.4,0,5.3,1,6,3.4c0.5,1.8,0.1,4.4,0.1,7.5c0,1.3-1,1.8,0.3,1.7
				c1.1-2.6,3-3.6,4.5-5.6c1.7-2.2,2.9-4.7,5-6c2.3-1.4,4.9-1.2,7.5-1.2c3.4,0,5.5,1.3,7.6,3.7C472.1,45.5,473.9,47.8,473.9,51.6z"
				/>
		</g>
		<g>
			<path class="st1" d="M475.9,93.4c0-2.8,3.4-4.6,5.8-5.4c1.5-0.6,3.5-2.8,3.5-6.5c0-4.9-0.5-4.9-0.5-9.9s-0.3-4.9-0.3-9.9
				c0-3.6-1-8.3-2.5-8.7c-3.1-0.9-6-1.2-6-3.4c0-1.7,1.7-3.4,3.7-4.7c2.5-1.6,6.1-3.6,9.7-4.6c4-1.1,8.2,0.3,10.6,0.3
				c3.5,0,4.7,0.2,5.4,2.6c0.6,1.8,2.2,4.2,2.2,7.3c0,2.2-0.4,4.7-0.4,7.5c0,2.3-1.7,4.8-1.7,7.5c0,4,0.9,4,0.9,8s-0.8,4-0.8,8
				c0,4.7,1.4,5.3,2.8,5.9c2.5,0.9,2.4,3.2,2.4,6c0,3.2-1.5,3.5-6,4.4c-2.8,0.6-6,0.7-9.9,0.7s-7.5,2-10.3,1.5
				C480.1,99.1,475.9,96.6,475.9,93.4z M479.1,25.4c0-3.9,3.7-7.1,7-8.7c3-1.4,7,0.2,10.4,0.2c3.3,0,5.2,0,7,1.2
				c2.3,1.5,3.3,3,3.3,5.9c0,3.7-2.2,5.1-5.5,6.6c-3,1.4-6.2,4.2-9.4,4.2c-3.2,0-5.9-1.4-7.7-2.5C481.8,30.9,479.1,28.3,479.1,25.4z
				"/>
		</g>
		<g>
			<path class="st1" d="M565.3,85.2c0,2.4-2,5.9-5.2,8.8c-2.3,2-6,2.3-9.4,3.6c-3,1.1-5.9,2.6-9.5,2.6c-3.5,0-6.9,0.4-9.4-0.8
				c-3-1.3-3.9-4.7-5.4-7.5c-1.3-2.5-2.3-5-2.3-8.5c0-5.1-2-5.1-2-10.2s0.3-5.1,0.3-10.3c0-5.1,2.2-5.2,1.8-10.3
				c0-0.4-1.2,1.2-1.6,1.2c-2.5,0-5.7-2.1-5.7-6c0-2.3,1.3-4.9,3.9-7.3c2.1-1.9,4.5-4,6.8-5.7c2.2-1.5,4.5-2.9,6.6-4.1
				c2.7-1.5,5.4-2.4,7.4-2.4c2.9,0,5.4,2,5.4,5.6c0,4.1-3.9,5.2-0.4,7.4c5.5,3.5,6,1,12.5,1c3.9,0,5.6,1.2,5.6,4.9s-1.4,3.9-5.6,3.9
				c-6.5,0-8.1-3.1-13.5,0.4c-3.5,2.2,1.1,5,1.1,9.1s-1.1,4.1-1.1,8.3s-0.7,4.1-0.7,8.3c0,6,2.8,6.3,6.1,6.3c5,0,7.6-3.1,10.6-3.1
				C563.4,80.6,565.3,82.5,565.3,85.2z"/>
		</g>
		<g>
			<path class="st1" d="M569.4,93.4c0-2.8,1.9-2.5,4.3-3.3c1.5-0.6,2.6-4.9,2.6-8.6c0-4.9-2-4.9-2-9.9s1.6-4.9,1.6-9.9
				c0-3.6-1.9-5.7-3.4-6.1c-3.1-0.9-4.7-3.8-4.7-6c0-1.7,1.2-3.4,3.2-4.7c2.5-1.6,6.2-3,9.8-4c4-1.1,8.1-2.4,10.5-2.4
				c3.5,0,5.8,2.1,6.6,4.5c0.6,1.8,1.6,4.5,1.6,7.7c0,2.2-1.1,4.7-1.1,7.5c0,2.3,0,4.8,0,7.5c0,4-1.1,4-1.1,8s0.5,4,0.5,8
				c0,4.7,0.7,5.4,2.1,6c2.5,0.9,5.5,3.1,5.5,5.9c0,3.2-4,6.1-8.5,7c-2.8,0.6-6.5,0.4-10.4,0.4s-7.6,0.3-10.4-0.3
				C571.2,99.6,569.4,96.6,569.4,93.4z M572.6,25.4c0-3.9,2.4-5.1,5.7-6.7c3-1.4,6-2.1,9.5-2.1c3.3,0,6.2-1.3,8-0.1
				c2.3,1.5,2.1,4.5,2.1,7.4c0,3.7-0.9,7.5-4.2,9.1c-3,1.4-7.3,1.3-10.6,1.3c-3.2,0-6-0.9-7.8-2C573,30.9,572.6,28.3,572.6,25.4z"/>
		</g>
		<g>
			<path class="st1" d="M683.3,93.4c0,3.2-2.6,4.7-7.1,5.6c-2.8,0.6-6.2-0.4-10.1-0.4c-3.9,0-7.2,0.9-9.9,0.3
				c-4.5-0.9-6.7-2.4-6.7-5.5c0-2.8,0.9-5,3-5.8c1.5-1,2.6-2.7,2.6-6.2c0-5.8,0.6-5.8,0.6-11.7c0-4.2-2-7.3-2.6-9.7
				c-1.2-4.3-2.8-7.1-6.3-7.1c-3.2,0-5.5,2.8-7.2,7.1c-0.9,2.4-1.9,5.6-1.9,9.9c0,5.7-0.4,5.7-0.4,11.4c0,4.3,1,5.2,2.5,6.3
				c2.2,0.9,2.6,3,2.6,5.8c0,3.1-1.5,6.4-5.9,7.2c-2.7,0.6-6.4,0.6-10.2,0.6c-3.9,0-7.3-2.2-10-2.8c-4.6-0.9-7.5-2-7.5-5.2
				c0-2.9,2.2-4.2,4.4-4.9c1.6-0.8,2.8-3.4,2.8-7c0-4.9,0.2-4.9,0.2-9.9s-2.6-4.9-2.6-9.9c0-3.6,1.1-7.8-0.4-8.3
				c-3.1-0.9-5.7-1.7-5.7-3.9c0-1.7,1.1-4,3.2-5.3c2.5-1.6,6.6-2.6,10.2-3.5c4-1.1,8.1-2.2,10.5-2.2c3.4,0,5.2,2.2,5.9,4.6
				c0.5,1.8-0.5,4.4-0.5,7.5c0,0.9,0.8,3.1,1.5,2.6c1.3-2.6,1.6-6.7,3.7-8.7c2.1-2,5-3.6,7.8-4.7c2.6-1,5.7-1.5,8.9-1.5
				c2.9,0,5.3,1.7,7.6,2.7c2.5,1.1,4.3,2.6,6,4.8c1.5,2,3,4,3.8,6.8c0.6,2.4,1.3,5,1.3,7.9c0,5.2-1.4,5.2-1.4,10.5s0.2,5.2,0.2,10.5
				c0,4.4,1,6.7,2.6,7.5C681.3,89.8,683.3,90.6,683.3,93.4z"/>
		</g>
		<g>
			<path class="st1" d="M754.1,98.7c0,3-2.5,5-3.7,7.4c-1.2,2.5-2.5,4.3-4.7,6.1c-2.1,1.7-3.8,3.9-6.4,5.1c-2.5,1.1-5,2.4-7.7,3.1
				c-2.8,0.7-5.5,1.4-8.2,1.7c-3,0.4-5.9-1.2-8.4-1.2c-3,0-5.9,2.9-8.5,2.5c-3-0.4-5.2-3.4-7.6-4.2c-3-1.1-6.7-0.4-8.5-2
				c-2.4-2.1-1.2-5.7-1.2-8.3c0-4,2.6-7.3,6.2-8.9c-3.5-2.7-7.2-6.4-7.2-9.7c0-2.9,1.6-5.7,3.4-7.9c1.6-2,4-3.6,6.6-5.1
				c-3.2-1.7-4.5-4.7-6.2-7.4c-1.9-2.8-3.4-5.2-3.4-8.7c0-2.9,0.2-5.6,1.4-8.1c1.2-2.4,3-4.6,5.2-6.5c2-1.7,4-4.2,6.7-5.4
				c2.4-1,5.5-1.2,8.4-1.7c2.6-0.5,5.5,0,8.5,0c2.9,0,5.7-0.9,8.2-0.4c2.8,0.5,5.3,2.8,7.5,3.8c4.4-0.9,7.7-1.9,10.5-3.3
				c1.9-0.9,2.7-3.1,4-3.1c2.3,0,5.1,2.1,5.1,4.4c0,2-1.8,4.9-3.3,7.4c-1.2,2.1-2.8,4-4.7,5.7c0.6,1.6,0.9,3.1,0.9,4.8
				c0,2.9-0.7,6.1-2,8.6c-1.2,2.4-4.4,3.6-6.6,5.5c-2,1.7-4,3.8-6.7,5c-2.5,1.1-5.4,0.6-8.3,1.2c-2.6,0.5-5.2,1.9-8.2,1.9
				c-3.2,0-6,0.3-8.8-0.3c-1.5,1.4-3.4,2.2-3.4,3.4c0,2.5,4.3,3.9,8.1,3.9c3.2,0,6.5,1,9.6,0.7c3.2-0.4,6.2-2.6,9.1-3
				c3.4-0.5,6.5-2.3,9.3-2.3c3.8,0,7.9,2.4,10.6,5C752.4,90.5,754.1,94.2,754.1,98.7z M735.6,105.6c0-2-1.1-4.5-3.6-4.5
				c-2.3,0-6.6,0.8-11.3,1.2c-3.6,0.3-7.3,1.7-11,1.7c-2.7,0-5.1,0.1-7.3-0.4c-0.9,0.7-1,1.6-1,2.7c0,2.2,1,6.2,5.4,7.7
				c2.3,0.8,5.8-1.7,9.6-1.7c2.6,0,5.4,2.1,7.7,1.7c2.8-0.5,4.4-3.5,6.4-4.5C733.5,108.1,735.6,107.6,735.6,105.6z M708.7,57.9
				c0,3.1-1.2,7.3,0.3,10.2c1.6,3.1,5.5,5.9,9,5.9c2.9,0,5.3-2.3,6.7-4.4c1.2-1.8,1.6-4.4,1.6-7.4s-0.8-6.5-2.3-9.3
				c-1.6-3-4-6.8-7.5-6.8c-2.8,0-3.8,3.5-5.2,5.6C710.1,53.4,708.7,54.9,708.7,57.9z"/>
		</g>
		<g>
			<path class="st1" d="M758.2,87.2c0-3.5,0.9-6.8,3.1-9.1c2.3-2.4,5.4-3.5,8.9-3.5s6.6,1.2,8.9,3.6c2.2,2.4,3.9,5.5,3.9,9.1
				c0,3.5-1.6,6.7-3.8,9.1c-2.3,2.4-5.4,3.8-8.9,3.8s-6.6-1.5-8.9-3.9C759.1,93.9,758.2,90.7,758.2,87.2z"/>
		</g>
		<g>
			<path class="st1" d="M98.9,204.2c0,3.2,1.2,6.6-0.2,9.2c-1.4,2.6-4.6,4-7.2,5.8c-2.3,1.6-4.9,3-8,3.8c-2.7,0.7-5.7,2.5-8.9,2.5
				c-2.7,0-5.3-2.4-8-3c-2.8-0.6-5.8-0.8-8.1-2c-0.5,2.3-2.1,4.4-4.6,4.4c-3.3,0-7.3-2.7-9.3-6.5c-1.8-3.3-2.4-7.8-2.4-11.2
				c0-4.7,2.7-7.8,5.3-7.8c2.9,0,5,2.9,7.1,5.7c2.2,2.9,4.2,5.4,6.7,7c3.1,2,6.3,2.8,9.2,2.8c4.4,0,7.3-1.7,7.3-4.8
				c0-2.6-1.4-4.3-4.5-5.6c-1.9-0.8-4.2-2-7.1-2.8c-2.6-0.8-5.8,0.2-8.2-0.8c-2.6-1.1-5.2-2.4-7.3-3.8c-2.3-1.6-4.4-3.9-5.7-6.2
				c-1.2-2.2-1.5-5.2-1.5-8.2c0-3.2,2.3-5.5,3.6-8.1c1.4-2.6,2.3-5.4,4.7-7.3c2.3-1.7,4.7-4.1,7.7-4.9c2.7-0.8,6-0.7,9.1-0.7
				c2.5,0,5.2,1,7.8,1.6c2.6,0.6,5,0.7,7.3,1.9c0.5-2.2,2.4-4.2,4.6-4.2c2.9,0,6,3.4,7.9,6.9c1.6,3,2.3,6.8,2.3,9.9
				c0,4.7-2.8,6.4-5.1,6.4c-2.5,0-4.1-2.2-6.4-4.9c-1.8-2.4-4-4.3-6.3-5.7c-2.7-1.5-5.5-1.8-8.1-1.8c-4.4,0-6.8,1.9-6.8,4.6
				c0,2.3,1.8,2.8,4.8,4c1.7,0.7,3.9,1.1,6.7,1.9c2.6,0.7,4.8,3.2,7.5,4.2c2.6,1,6,0.9,8.3,2.5c2.3,1.7,2.8,5,4.1,7.5
				C98.4,198.8,98.9,201,98.9,204.2z"/>
		</g>
		<g>
			<path class="st1" d="M152.7,208.5c0,2.4-0.6,6.5-3.8,9.4c-2.3,2-5.9,3.2-9.4,4.5c-3,1.1-6.4,0.5-10,0.5c-3.5,0-7.1,1.5-9.6,0.4
				c-3-1.3-3.5-5.3-4.9-8.1c-1.3-2.5-1.9-4.9-1.9-8.4c0-5.1-1.2-5.1-1.2-10.2c0-5.1,1.2-5.1,1.1-10.3c0-5.1-0.8-5.2-1.2-10.3
				c0-0.4-0.6,1.4-1,1.4c-2.5,0-7.7-2.3-7.7-6.2c0-2.3,2.4-5.8,5.1-8.2c2.1-1.9,6.1-2,8.4-3.6c2.2-1.5,3.9-3.6,6-4.8
				c2.7-1.5,5.2-1.4,7.1-1.4c2.9,0,3.6,0.5,3.6,4.1c0,4.1-3.2,6.9,0.3,9.1c5.5,3.5,7.1-0.9,13.5-0.9c3.9,0,5,1.4,5,5.1
				c0,3.7-0.9,6.2-5,6.2c-6.5,0-7.5-4.5-12.9-1c-3.5,2.2-0.7,4.1-0.7,8.2c0,4.1-0.2,4.1-0.2,8.3s0.7,4.1,0.7,8.3c0,6,1.8,8.6,5,8.6
				c5,0,7.6-4.1,10.6-4.1C151.8,205.2,152.7,205.8,152.7,208.5z"/>
		</g>
		<g>
			<path class="st1" d="M155.1,193.7c0-3.1,1.6-5.8,2.4-8.6c0.8-2.9,0.2-6.5,1.8-9s4.6-4,7-6c2.3-1.8,5.2-2.4,8.1-3.6
				c2.6-1.2,5.1-2.6,8.2-3.1c2.8-0.5,5.7-0.5,8.8-0.5c2.9,0,5.9-1.7,8.5-1.1c2.8,0.6,5.6,1.9,8,3.1c2.5,1.3,4.6,3.4,6.6,5.3
				c2,1.9,3.8,4.1,5.2,6.6c1.4,2.4,1.3,5.3,2,8.1c0.6,2.6,2.5,5.2,2.5,8.1c0,3.1,0.2,6.4-0.6,9.2c-0.8,2.9-3.4,5.2-5,7.7
				s-2.7,5.8-5,7.7c-2.2,1.8-6,1.5-8.8,2.7c-2.6,1.2-4.9,4-7.9,4.6c-2.8,0.5-6-1.5-9.1-1.5c-2.9,0-5.6,0.6-8.2,0.1
				c-2.8-0.6-5.4-1.5-7.8-2.7c-2.6-1.3-4.6-3-6.6-4.9c-2.1-1.9-5.1-3.1-6.5-5.5s-2.9-5.1-3.5-7.9
				C154.4,199.7,155.1,196.7,155.1,193.7z M201.3,203.3c0-2.8,0.8-6.3,0.1-9.6c-0.7-3-3.6-5.5-4.8-8.4c-1.2-3.1-1.7-6.5-3.4-8.8
				c-2.3-3-5-6.1-7.8-6.1c-2.7,0-5.5,2.2-6.9,4.8c-1.1,1.9-2,4.7-2,7.9c0,2.8,2.4,5.8,3.1,9.2c0.6,3.1,1.2,6.1,2.4,9
				c1.2,3.2,2.2,6.2,3.9,8.5c2.3,3,4.6,4.8,7.5,4.8c2.7,0,5.7-0.6,7.1-3.1C201.6,209.4,201.3,206.5,201.3,203.3z"/>
		</g>
		<g>
			<path class="st1" d="M286.8,174.9c0,3.7-1.5,6.4-3.1,8.7c-1.9,2.6-4.3,4.4-7.7,4.4c-4,0-6.2-2.7-8.1-4.6c-1.4-1.4-3.4-1.2-5-1.2
				c-2.4,0-4.3,2.7-4.3,7.1c0,3.8-0.8,3.8-0.8,7.7c0,3.8,0.1,3.8,0.1,7.7c0,4.6,1.1,5.4,2.7,6c3.6,1,6.6,3.4,6.6,6.3
				c0,3.2-4.4,4.7-9.5,5.6c-3,0.5-6.7,1.7-10.9,1.7c-3.9,0-7.5-0.3-10.3-0.8c-4.6-0.9-7.8-3.4-7.8-6.5c0-2.8,2.4-4.6,4.8-5.4
				c1.5-0.6,1.7-2.6,1.7-6.5c0-4.9,0.3-4.9,0.3-9.9c0-4.9,0.5-4.9,0.5-9.9c0-3.6-1-7.9-2.5-8.4c-3.1-0.9-5.8-1.6-5.8-3.8
				c0-1.7,1.2-4,3.3-5.3c2.5-1.6,6.7-2.2,10.3-3.2c4-1.1,8-0.9,10.4-0.9c3.4,0,5.3,0.4,6,2.9c0.5,1.8,1.1,4.4,1.1,7.5
				c0,1.3-2.1,1.9-0.8,1.8c1.1-2.6,2.5-4.1,4-6c1.7-2.2,4-3.4,6.1-4.6c2.3-1.4,4.3-3.9,7-3.9c3.4,0,6.3,2.3,8.4,4.8
				C285.4,168.2,286.8,171.1,286.8,174.9z"/>
		</g>
		<g>
			<path class="st1" d="M357.5,169.2c0,3-0.4,5.6-3.6,7.1c-1.9,0.9-2.9,1.7-4.1,4.1c-0.9,1.7-2.1,3.5-3,6c-1,2.6-1.7,5.1-2.6,7.5
				c-0.9,2.5-1.4,5.1-2.3,7.6c-0.9,2.4-1.7,4.9-2.7,7.5c-0.9,2.3-3,4.3-4,7c-1,2.8-2.7,5.2-3.7,7.7c-1.1,2.8-2.2,5.3-3.5,7.7
				c-1.4,2.7-2.4,5.3-4.2,7.2c-1.9,2.2-4.1,3.5-6.8,4.6c-2.4,1-4.9,2-8.1,2c-2.7,0-4.8-1.4-7-2.3c-2.5-1.1-6.2-0.6-7.8-2.5
				c-1.7-2.1-2.7-5.5-2.7-8s2-5,3.5-6.6c1.5-1.7,3.8-3.9,6.4-3.9c4.6,0,7,4.2,7.6,8.5c0.1,0.9-0.3,2.6,0,3.4c0.3,1.3,2,0.1,3.4,0.1
				c2.7,0,2.9-0.9,3.6-5.1c0.3-2.1,1.3-4.6-0.2-7.9c-1-2.1-3.8-3.8-5.2-6.7c-0.9-1.8-1.2-4.8-2.6-7.8c-1.1-2.3-1.8-5-3-7.6
				c-1.1-2.5-1.2-5.5-2.3-7.9c-1.2-2.7-3.2-4.8-4.2-7c-3.2-7.2-4.3-8.8-6.1-9.4c-2.7-0.9-3.6-2.2-3.6-4.8c0-2.9,1-6.4,6.7-7.5
				c2.9-0.6,6.8-0.4,11.4-0.4c4.4,0,8.1,0.8,10.9,1.3c5.4,1.1,8.2,3.5,8.2,6.4c0,2.8-2.7,3.7-5.1,4.5c-1.6,0.6-0.6,4.1,0.3,7.3
				c0.7,2,0.7,4.9,1.8,7.6c0.9,2.3,3.9,3.9,5,6.3c1.1,2.4,0.9,5.1,2,7.4c1-2.3,1.3-4.7,2.2-7.1c0.9-2.5,1.8-5,2.5-7.2
				c0.9-2.9,3.4-5.1,3.8-7c0.8-3.5-1-5.4-3-6.4c-2.8-1.2-3-3.5-3-5.8s1.4-2.9,5.1-4.1c2.2-0.7,4.5-3.2,7.9-3.2
				c3.2,0,5.8,1.3,7.9,1.9C356.7,165.1,357.5,166.8,357.5,169.2z"/>
		</g>
		<g>
			<path class="st1" d="M409.1,208.5c0,2.4-3.4,4.6-6.7,7.4c-2.3,2-4.5,4.5-7.9,5.8c-3,1.1-6.2,0.7-9.8,0.7c-3.5,0-6.5,0.4-9-0.7
				c-3-1.3-4.2-3.8-5.6-6.6c-1.3-2.5-2.6-4.9-2.6-8.4c0-5.1-1.6-5.1-1.6-10.2c0-5.1,0.9-5.1,0.8-10.3c0-5.1,0.7-5.2,0.3-10.3
				c0-0.4-0.6,0.2-1,0.2c-2.5,0-6.3-1.1-6.3-5.1c0-2.3,1.2-5.5,3.9-8c2.1-1.9,4.9-3.5,7.3-5.2c2.2-1.5,5.3-1.4,7.4-2.6
				c2.7-1.5,4.7-2.6,6.7-2.6c2.9,0,4.8,0.9,4.8,4.5c0,4.1-4.4,7-1,9.2c5.5,3.5,7.1-0.5,13.6-0.5c3.9,0,4.8,0.8,4.8,4.5
				s-0.6,4.7-4.8,4.7c-6.5,0-7.4-2.8-12.9,0.7c-3.5,2.2,0.2,4,0.2,8.1s-1.2,4.1-1.2,8.3s1.1,4.1,1.1,8.3c0,6,1.5,8.3,4.7,8.3
				c5,0,7.6-3.4,10.6-3.4C407,205.6,409.1,205.8,409.1,208.5z"/>
		</g>
		<g>
			<path class="st1" d="M469.3,204c0,2.8-1.5,6.5-4,9.7c-1.7,2.2-3.9,4.9-6.8,6.7c-2.5,1.5-5.7,2.4-8.9,3.3c-2.8,0.7-6,1.2-9.4,1.2
				c-3.3,0-6.3-1.5-9.2-2.3c-3.1-0.9-5.6-2.5-8.1-4.3c-2.6-1.8-5.7-3.1-7.5-5.7c-1.8-2.5-2.4-5.7-3.3-8.9c-0.8-2.9-2.1-5.9-2.1-9.3
				c0-2.9-0.2-6,0.5-8.6c0.7-2.8,3.6-4.7,5-7.1c1.4-2.5,1.8-5.6,3.8-7.6s4-4.4,6.5-5.8c2.4-1.4,5.3-2.4,8.1-3.1
				c2.7-0.7,5.7-1.1,8.6-1.1c3.3,0,6.1,2.5,8.8,3.3c3.2,0.9,5.6,2.2,7.9,3.9c2.7,1.9,5.5,3.3,7,5.8c1.7,2.8,2,6,2,8.9
				c0,3-0.6,5.3-2.4,6.9c-1.7,1.6-3.9,1.8-7,1.8c-4.6,0-4.6,0.5-9.3,0.5c-4.6,0-4.6,0-9.3,0s-5.1-2.1-9.6-0.7
				c0.6,2.7,1.2,6.5,2.6,8.4c1.5,2.1,4.5,2.3,7,3.4c2.2,0.9,4.3,1.8,7.1,1.8c2.8,0,5.3,0.5,7.4-0.2c2.5-0.8,4.2-2.9,6.1-4.3
				c1.4-0.9,3-1.6,4.3-1.6C467.4,199.2,469.3,200.8,469.3,204z M430.4,184.9c5.6,1.8,5.8-0.1,11.7-0.2c5.9-0.2,7.5-1.9,7.5-5.5
				c0-4.3-2.1-7.5-7.5-7.5c-3.6,0-6.2,1.5-8.2,4.4C432.1,178.5,430.7,181,430.4,184.9z"/>
		</g>
		<g>
			<path class="st1" d="M474.1,216.8c0-2.8,1.2-5.3,3.7-6.1c1.5-0.6,2.3-1.9,2.3-5.8c0-4.5-0.7-4.5-0.7-9s0.6-4.5,0.6-9
				s-0.5-4.5-0.5-9s0.5-4.5,0.5-9s0.1-4.5,0.1-9c0-3.9-0.6-8-2.2-8.7c-3.5-1-6.7-2-6.7-4.5c0-1.7,2.4-2.4,4.5-3.7
				c2.7-1.6,5.6-5.5,9.3-6.4c4.2-1.1,8.8,1.4,11.3,1.4c3.5,0,3.5,0.3,4.3,2.7c0.6,1.8,2.8,3.8,2.8,7c0,2.2-0.7,4.7-0.7,7.4
				c0,2.3,0.3,4.8,0.3,7.4c0,4.2-0.5,4.2-0.5,8.5c0,4.2,0.2,4.2,0.2,8.5c0,4.2-0.1,4.2-0.1,8.5c0,4.2-1,4.2-1,8.5
				c0,4.2,0.3,4.2,0.3,8.5c0,4.7,0.6,8.2,2,8.7c2.7,0.9,5.4,0.4,5.4,3.2c0,3.2-3.1,4.6-7.6,5.5c-2.8,0.6-6.2,1.3-10.1,1.3
				s-7.2-1.3-10-1.9C476.7,220.7,474.1,219.9,474.1,216.8z"/>
		</g>
		<g>
			<path class="st1" d="M514.8,216.8c0-2.8,0.2-5,2.6-5.8c1.5-0.6,3.3-2.2,3.3-6.1c0-4.5-0.1-4.5-0.1-9s-0.9-4.5-0.9-9s-1-4.5-1-9
				s0.5-4.5,0.5-9s0.5-4.5,0.5-9c0-3.9-1.2-7-2.8-7.7c-3.5-1-4-3.1-4-5.5c0-1.7-0.4-3.2,1.7-4.5c2.7-1.6,6.6-2.4,10.4-3.3
				c4.2-1.1,8.2-1.2,10.7-1.2c3.5,0,5.8-0.1,6.6,2.3c0.6,1.8,1.8,4.6,1.8,7.7c0,2.2-2.4,4.7-2.4,7.4c0,2.3-0.4,4.8-0.4,7.4
				c0,4.2,2.2,4.2,2.2,8.5c0,4.2,0.3,4.2,0.3,8.5c0,4.2-2.8,4.2-2.8,8.5c0,4.2,2.4,4.2,2.4,8.5c0,4.2-2.6,4.2-2.6,8.5
				c0,4.7,1.7,6.6,3.1,7.2c2.7,0.9,3.2,2,3.2,4.8c0,3.2-1.8,3.4-6.3,4.3c-2.8,0.6-6,2.9-9.9,2.9s-7.3-1.3-10.1-1.9
				C516.2,221.2,514.8,219.9,514.8,216.8z"/>
		</g>
		<g>
			<path class="st1" d="M552.9,216.8c0-2.8,2.6-5.1,5-5.9c1.5-0.6,3.3-2.3,3.3-6c0-4.9,0-4.9,0-9.9c0-4.9-0.7-4.9-0.7-9.9
				c0-3.6-0.9-7.4-2.4-7.8c-3.1-0.9-4.6-2.1-4.6-4.3c0-1.7,0.9-2.9,2.9-4.2c2.5-1.6,6-3.3,9.6-4.2c4-1.1,8-2.8,10.4-2.8
				c3.5,0,4.4,2.6,5.1,5c0.6,1.8-0.3,4.1-0.3,7.2c0,2.2,2.6,4.7,2.6,7.5c0,2.3-0.5,4.8-0.5,7.4c0,4-2.1,4-2.1,8s2.6,4,2.6,8
				c0,4.7-1.2,7.4,0.2,7.9c2.5,0.9,5,1.2,5,4c0,3.2-2.8,6.1-7.3,7c-2.8,0.6-6.5,1.1-10.4,1.1s-7.5-1-10.3-1.6
				C556.6,222.3,552.9,219.9,552.9,216.8z M556.2,148.8c0-3.9,2.9-7.6,6.1-9.2c3-1.4,7.3,0.3,10.7,0.3c3.3,0,5.2,0.5,7,1.7
				c2.3,1.5,3.7,3,3.7,5.8c0,3.7-2.2,5.9-5.5,7.5c-3,1.4-6.5,2.2-9.8,2.2c-3.2,0-5.6-0.8-7.4-1.9
				C558.6,153.7,556.2,151.6,556.2,148.8z"/>
		</g>
		<g>
			<path class="st1" d="M669.6,216.8c0,3.2-3.6,5.1-8.1,6.1c-2.8,0.6-6.3,1.7-10.2,1.7s-7.1-1.9-9.8-2.5c-4.5-0.9-7.7-2.1-7.7-5.2
				c0-2.8,3.2-2.6,5.3-3.4c1.5-1,0.2-5.2,0.2-8.6c0-5.8,1.3-5.8,1.3-11.7c0-4.2-1.4-7.3-2.1-9.7c-1.2-4.3-2.8-6.1-6.2-6.1
				c-3.2,0-7.2,1.2-8.8,5.5c-0.9,2.4-0.2,6.2-0.2,10.6c0,5.7,0.6,5.7,0.6,11.4c0,4.3-0.8,6.4,0.7,7.4c2.2,0.9,4.5,1.8,4.5,4.6
				c0,3.1-2.7,6.2-7.1,7.1c-2.7,0.6-6.4-1.6-10.2-1.6c-3.9,0-7.5,1.3-10.3,0.8c-4.6-0.9-7.4-3.2-7.4-6.4c0-2.9,2.7-3.1,4.9-3.8
				c1.6-0.8,1.5-4.5,1.5-8.1c0-4.9,0.1-4.9,0.1-9.9c0-4.9,0.5-4.9,0.5-9.9c0-3.6-1.3-7.1-2.8-7.6c-3.1-0.9-5.2-2.3-5.2-4.5
				c0-1.7,1.4-3,3.5-4.3c2.5-1.6,6-3.5,9.6-4.5c4-1.1,8.1-1.3,10.5-1.3c3.4,0,4.8,1.3,5.5,3.8c0.5,1.8-0.3,4.2-0.3,7.3
				c0,0.9,0.1,1.8,0.8,1.3c1.3-2.6,2.3-5.7,4.4-7.7c2.1-2,5.9-1.6,8.8-2.7c2.6-1,5.1-3.1,8.2-3.1c2.9,0,5.8,0.6,8.1,1.6
				c2.5,1.1,5.1,2.7,6.8,4.9c1.5,2,0.7,5.3,1.4,8.1c0.6,2.4,3.6,4.7,3.6,7.7c0,5.2-1.9,5.2-1.9,10.5s1.2,5.2,1.2,10.5
				c0,4.4-0.8,7,0.8,7.8C666.4,213.5,669.6,213.9,669.6,216.8z"/>
		</g>
		<g>
			<path class="st1" d="M737.8,222c0,3,1.6,6.3,0.4,8.6c-1.2,2.5-3.1,5.3-5.3,7.2c-2.1,1.7-5.7,1.7-8.3,2.9
				c-2.5,1.1-5.1,2.3-7.8,3.1c-2.8,0.7-5.6,0.8-8.3,1.1c-3,0.4-5.8,2-8.3,2c-3,0-6,0.3-8.5,0c-3-0.4-5.2-3.5-7.5-4.3
				c-3-1.1-5.5-1.8-7.3-3.4c-2.4-2.1-5-4.2-5-6.8c0-4,2.8-7.3,6.4-8.9c-3.5-2.7-4.8-6.3-4.8-9.7c0-2.9,1.7-5.5,3.6-7.8
				c1.6-2,5.1-4,7.8-5.5c-3.2-1.7-8.1-3-9.9-5.6c-1.9-2.8-0.9-6.7-0.9-10.2c0-2.9,0.1-5.5,1.3-8c1.2-2.4,1.7-5.9,4-7.9
				c2-1.7,5.1-2.8,7.8-4c2.4-1,5.5-0.8,8.5-1.3c2.6-0.5,5.4,0.5,8.4,0.5c2.9,0,5.6-1.3,8-0.8c2.8,0.5,5.4,2,7.7,3
				c4.4-0.9,6.5-4.2,9.2-5.6c1.9-0.9,3.9-0.3,5.2-0.3c2.3,0,3.8,1.8,3.8,4.1c0,2-2.2,4-3.7,6.5c-1.2,2.1-2.1,4.6-4,6.3
				c0.6,1.6,0.3,3.5,0.3,5.2c0,2.9,1.6,6.4,0.3,8.9c-1.2,2.4-5.2,3-7.5,4.9c-2,1.7-4.2,2.9-7,4.1c-2.5,1.1-5,1.4-7.9,1.9
				c-2.6,0.5-5.1,1.2-8.1,1.2c-3.2,0-6.2,0.3-9-0.3c-1.5,1.4-0.5,3.2-0.5,4.4c0,2.5,1.6,4,5.5,4c3.2,0,6.4-0.2,9.4-0.5
				c3.2-0.4,6.5-0.2,9.4-0.6c3.4-0.5,6.3-3.3,9.2-3.3c3.8,0,6.9,3.2,9.6,5.7C736.6,214.9,737.8,217.5,737.8,222z M722.4,228.9
				c0-2-2.6-1.6-5.2-1.6c-2.3,0-6.3,0.9-11,1.4c-3.6,0.3-7.6-1.3-11.3-1.3c-2.7,0-5.1,0.1-7.3-0.4c-0.9,0.7-1.6,1.6-1.6,2.7
				c0,2.2,2.5,3.7,6.8,5.2c2.3,0.8,4.9,0.7,8.8,0.7c2.6,0,5.4,2.3,7.7,1.9c2.8-0.5,5.3-1.9,7.2-2.8
				C719.6,233.2,722.4,230.9,722.4,228.9z M692.4,181.3c0,3.1,2.9,6,4.4,8.9c1.6,3.1,2.9,4.2,6.5,4.2c2.9,0,5.3,0.6,6.7-1.5
				c1.2-1.8,1.6-4.4,1.6-7.4s-0.3-6.8-1.8-9.6c-1.6-3-4.5-4-8-4c-2.8,0-3.8,0.9-5.2,3C695.4,176.7,692.4,178.3,692.4,181.3z"/>
		</g>
		<g>
			<path class="st1" d="M743.5,210.5c0-3.5,1.2-6.5,3.4-8.8c2.3-2.4,5.1-4.1,8.6-4.1s6.9,1.2,9.2,3.6c2.2,2.4,3.1,5.8,3.1,9.4
				c0,3.5-0.8,7.1-3.1,9.4c-2.3,2.4-5.7,3.6-9.3,3.6s-6.3-1.9-8.6-4.3C744.7,216.9,743.5,214.1,743.5,210.5z"/>
		</g>
		<g>
			<path class="st1" d="M194,340.1c0,3.2-3.4,3.2-7.9,4.1c-2.8,0.6-5.9,4-9.8,4c-3.9,0-7.2-1.6-9.9-2.1c-4.4-0.9-6.5-2.8-6.5-5.9
				c0-2.8,1.7-3.1,3.9-4c1.5-0.9,3.1-4.7,3.1-8.1c0-5.8-1.9-5.8-1.9-11.7c0-4.1-1.9-6.9-2.5-9.3c-1.1-4.2-1.5-5.7-5-5.7
				c-3.1,0-7,0.5-8.6,4.8c-0.9,2.4-1.6,6.1-1.7,10.5c0,5.7-0.5,5.7-0.5,11.5c0,4.2,2.7,4.9,4.3,6c2.1,0.9,2.2,3.2,2.2,6
				c0,3.2-1.7,4.5-6.1,5.4c-2.7,0.5-6,2.5-9.9,2.5s-7-2.6-9.7-3.2c-4.4-0.9-6.6-1.7-6.6-4.8c0-2.8,0.8-4.6,3-5.4
				c1.5-0.9,0.4-3.3,0.4-6.6c0-5.8,1.4-5.8,1.4-11.7c0-4.1,0.5-7.5-0.1-9.9c-1-4.2-3.8-3.8-7.4-3.8c-3.1,0-6-0.5-7.6,3.9
				c-0.9,2.4,0.4,5.8,0.3,10.1c0,5.7,0.3,5.7,0.3,11.4c0,4.2-1.2,5,0.3,6.2c2.2,0.9,5.3,3.1,5.3,5.8c0,3.1-4.4,5.4-8.8,6.3
				c-2.7,0.6-6.2,0.2-10,0.2c-3.9,0-7.8,1.7-10.6,1.2c-4.6-0.9-6.5-4.6-6.5-7.8c0-2.8,1.7-3.6,4.1-4.4c1.5-0.6,1.6-3.6,1.6-7.5
				c0-4.9-1.3-4.9-1.3-9.9s-0.5-4.9-0.5-9.9c0-3.6,1.8-9,0.3-9.5c-3.1-0.9-6.7-0.5-6.7-2.7c0-1.7,2.9-2.3,4.9-3.6
				c2.5-1.6,5.2-5.4,8.8-6.4c4-1.1,8.4,1.5,10.8,1.5c3.5,0,5.1-0.4,5.8,2c0.5,1.8,1.8,4.3,1.8,7.4c0,0.9-1.9,2.6-1.1,2.1
				c1.3-2.7,1.6-6.5,3.6-8.6c2-2,5.7-2.5,8.5-3.6c2.6-1,5.4-1.5,8.6-1.5c2.9,0,4.9,1.9,7.2,2.9c2.5,1.1,3.7,2.4,5.3,4.6
				c1.5,2,4,4.6,4.7,7.5c1.4-2.7,4.1-5.7,6.3-7.8c2.1-2.1,4.1-4,7-5.1c2.7-1,5.4-1,8.6-1c2.9,0,5.9-1.5,8.2-0.6
				c2.5,1.1,4.3,3.4,6,5.6c1.5,2,1.1,4.8,1.8,7.7c0.6,2.4,2.2,4.7,2.2,7.6c0,5.2,2,5.2,2,10.5s-1.4,5.2-1.4,10.5
				c0,4.7-0.2,6.3,1.2,6.9C192,336,194,337.3,194,340.1z"/>
		</g>
		<g>
			<path class="st1" d="M263.3,335.9c0,2.8-1.3,7-4.5,9.2c-2.4,1.6-6.2,1-10.1,1c-3.3,0-6.6,0.7-9-0.8s-3.7-3.2-5.1-6.2
				c-2,3.1-4.8,4.3-8.1,6c-3.1,1.6-6.7,3.2-10.7,3.2c-3.3,0-5.9-2.5-8.6-3.8c-2.9-1.3-5.8-2.3-7.5-5c-1.5-2.5-2.7-5.5-2.7-8.9
				c0-3.2,1.8-5.5,3.1-7.9c1.4-2.5,3.2-4.1,5.7-5.7c2.3-1.5,4.6-2.7,7.6-3.4c2.7-0.6,5.4-2.5,8.5-2.5c4.2,0,8.8,1.7,12.1,2.5
				c1.6-3.1-0.7-3.8-0.7-7.3c0-2.6-1-4.7-1.5-6.7c-0.6-2.5-0.7-5.5-3.5-5.5c-3.1,0-5.4,4-7.8,7.2c-1.2,1.8-2.3,4.3-4.4,5.7
				c-1.8,1.1-4.3,1-7.1,1c-4.9,0-7.9-2.7-7.9-5.9c0-2.6,2.5-5.3,5.8-7.8c2.3-1.7,4.8-4.5,8.1-5.8c2.9-1.2,6.6-0.7,9.9-1.4
				c3.2-0.7,6.5-0.2,9.7-0.2c3.1,0,6.2-1.6,8.7-1c3,0.8,5.3,2.9,7.3,4.7c2.1,1.8,3.3,4.3,4.3,7.2c0.9,2.4,1.2,5.1,1.2,8.2
				c0,4.9,0.3,4.9,0.3,9.8s1.3,4.9,1.3,9.8c0,5.1-0.1,7.1,4.8,8.4C263.1,334,263.3,335.1,263.3,335.9z M233.8,325.2
				c0-1.8-0.4-1.5-0.9-3.2c-1.4-1.2-2.5-3.1-5.3-3.1c-5,0-7,3.7-7,8.8s1.6,6.7,5.6,6.7c2.4,0,4.6,0.2,6.1-2.1
				C233.4,330.5,233.8,328.2,233.8,325.2z"/>
		</g>
		<g>
			<path class="st1" d="M325.8,298.2c0,3.7-2.4,6.4-4.1,8.6c-1.9,2.6-4.2,4.3-7.7,4.3c-4,0-7.2-1.7-9-3.5c-1.4-1.4-2.4-4.2-4-4.2
				c-2.4,0-4.9,4.7-4.9,9.1c0,3.8-0.3,3.8-0.3,7.7s0.6,3.8,0.6,7.7c0,4.6,0.5,5.5,2.2,6.1c3.6,1,4.9,3.3,4.9,6.2
				c0,3.2-2.4,6-7.5,6.9c-3,0.5-7-0.6-11.2-0.6c-3.9,0-7.4,0-10.2-0.6c-4.6-0.9-7.6-2.7-7.6-5.8c0-2.8,1.8-5,4.3-5.8
				c1.5-0.6,1.4-2.1,1.4-6.1c0-4.9-0.4-4.9-0.4-9.9s1.6-4.9,1.6-9.9c0-3.6-1-7.3-2.5-7.7c-3.1-0.9-4.1-2.2-4.1-4.4
				c0-1.7,0-3.4,2.1-4.6c2.5-1.6,6.2-3.2,9.8-4.2c4-1.1,8.1-1.4,10.5-1.4c3.4,0,4.9,1.5,5.6,3.9c0.5,1.8,1.1,4.3,1.1,7.4
				c0,1.3-1.6,1.9-0.4,1.8c1.1-2.6,1.5-4.8,3-6.8c1.7-2.2,4.4-3.5,6.5-4.8c2.3-1.4,4.9-2.4,7.5-2.4c3.4,0,5.5,2.4,7.6,4.8
				C322.7,292.2,325.8,294.4,325.8,298.2z"/>
		</g>
		<g>
			<path class="st1" d="M403,340c0,2.8-2.2,4.6-6.3,5.7c-2.5,0.7-5.7,0-9.4,0c-3.1,0-5.8,2.5-7.6,2.1c-2.9-0.6-5-2.8-6.4-5
				c-1.2-1.5-1.6-5.2-3.5-8.5c-1.4-2.5-3.1-5.2-4.5-7.9c-1.5-2.9-3.6-4.5-4.8-6.8c-2,1.4-3.7,1.6-5.5,3c-0.7,2.6,0.2,2.8,0.2,5.5
				c0,4.7,0.6,6.1,2,6.7c2.8,0.9,2.9,2.4,2.9,5.2c0,3.2-1.3,4.4-5.8,5.4c-2.8,0.6-6.2,1.4-10.2,1.4c-3.9,0-7.2-1.4-10-2
				c-4.5-0.9-6.1-1.7-6.1-4.8c0-2.8,0.9-3.2,3.3-4c1.4-0.6,1.6-4,1.6-7.9c0-4.5-0.8-4.5-0.8-9s-0.6-4.5-0.6-9s-0.4-4.5-0.4-9
				s1.6-4.5,1.6-9s-0.7-4.5-0.7-9c0-3.9,0-8.7-1.7-9.4c-3.5-1-7.4-1.4-7.4-3.8c0-1.7,2.4-3.2,4.5-4.4c2.7-1.6,6.1-4.6,10-5.6
				c4.2-1.1,8.8,0.4,11.4,0.4c3.5,0,4.4,0.9,5.2,3.3c0.6,1.8,2.6,4.1,2.6,7.3c0,2.2-2.8,4.7-2.8,7.4c0,2.3,2.5,4.8,2.5,7.4
				c0,4.4-2.7,4.4-2.7,8.8s0.7,4.4,0.7,8.8s-2.8,6.4,0.6,9.3c2.6,2.3,3.1-2.7,5.9-4.7c4.3-3.1,7-6.1,7.8-8c0.7-1.4,1.4-3.4-0.1-4
				c-2.1-0.6-3.7-0.1-3.7-3.1c0-2.8,1.2-4,6.6-5.1c2.7-0.6,6-1.4,10.4-1.4c4.1,0,7.5,0.1,10.2,0.7c4.9,1.1,8.7,2.9,8.7,5.7
				c0,3.6-4,6.7-8.3,7.6c-2.8,0.5-4.6,0.7-7.2,2.3c-1.8,1.1-3.6,1.8-6.4,3.8c1.2,2.3,1.7,4.7,3.4,7.7c1.4,2.5,1.5,5.9,3.2,8.7
				c1.5,2.5,5.8,3.3,7.6,5.9c2.7,3.7,2.6,5.6,4.4,6.4C401.1,336.1,403,337.1,403,340z"/>
		</g>
		<g>
			<path class="st1" d="M458.8,327.3c0,2.8-0.6,6.3-3.1,9.5c-1.7,2.2-4,4.6-6.9,6.3c-2.5,1.5-5.4,2.8-8.7,3.6
				c-2.8,0.7-6,1.6-9.3,1.6s-6.5-1.1-9.3-2c-3.1-0.9-5.8-2.5-8.3-4.3c-2.6-1.8-4.8-4-6.6-6.6c-1.8-2.5-2.6-5.5-3.5-8.6
				c-0.8-2.9-1.9-5.8-1.9-9.1c0-2.9,0.9-5.6,1.5-8.2c0.7-2.8,0.7-5.8,2-8.2c1.4-2.5,3.4-4.6,5.3-6.6c2-2,3.7-4.6,6.2-6
				c2.4-1.4,5.5-1.9,8.3-2.6c2.7-0.7,5.6-1,8.5-1c3.3,0,6.7-0.3,9.5,0.5c3.2,0.9,6.1,2.9,8.4,4.6c2.7,1.9,3.4,5.4,4.9,7.9
				c1.7,2.8,2.8,5.4,2.8,8.3c0,3-0.3,5.4-2.1,7c-1.7,1.6-4,3.7-7.1,3.7c-4.6,0-4.6-1.6-9.3-1.6c-4.6,0-4.6,1.3-9.3,1.3
				c-4.6,0-4.6-1.6-9.1-0.2c0.6,2.7,2.1,3.8,3.5,5.7c1.5,2.1,2.5,4.9,4.9,5.9c2.2,0.9,5,1.3,7.8,1.3s4.8-1.9,6.9-2.6
				c2.5-0.8,5.2-0.7,7.1-2.1c1.4-0.9,2.4-2.6,3.8-2.6C458.1,322.3,458.8,324.1,458.8,327.3z M420.7,309.3c5.6,1.8,6.1-0.9,12-1
				c5.9-0.2,8.1-2.2,8.1-5.8c0-4.3-2.8-7.7-8.1-7.7c-3.6,0-6,1.8-8.1,4.7C422.9,301.9,421,305.5,420.7,309.3z"/>
		</g>
		<g>
			<path class="st1" d="M513.8,331.9c0,2.4-2.5,6.2-5.7,9c-2.3,2-5.9,2.7-9.4,4c-3,1.1-6.1,1.1-9.7,1.1c-3.5,0-6.8,1-9.3-0.1
				c-3-1.3-4.1-4.4-5.6-7.2c-1.3-2.5-2-5-2-8.6c0-5.1-1.1-5.1-1.1-10.2s1.1-5.1,1.1-10.3c0-5.1-0.3-5.2-0.7-10.3
				c0-0.4-0.7-0.7-1.1-0.7c-2.5,0-7.2-0.2-7.2-4.2c0-2.3,2.3-5.3,5-7.8c2.1-1.9,4.8-3.6,7.2-5.3c2.2-1.5,5-1.9,7.1-3.1
				c2.7-1.5,4.9-4.4,6.9-4.4c2.9,0,3.7,3.1,3.7,6.6c0,4.1-2.5,5.9,0.9,8.1c5.5,3.5,6.4-0.3,12.9-0.3c3.9,0,5.6,1.8,5.6,5.5
				s-1.5,5-5.6,5c-6.5,0-6.8-2.1-12.2,1.3c-3.5,2.2-1,3-1,7.1s0.4,4.1,0.4,8.3s0.2,4.1,0.2,8.3c0,6,1.3,8.3,4.5,8.3
				c5,0,7.6-3.8,10.6-3.8C511.3,328.5,513.8,329.1,513.8,331.9z"/>
		</g>
		<g>
			<path class="st1" d="M516.1,340.1c0-2.8,1.9-5.4,4.3-6.2c1.5-0.6,3.1-2,3.1-5.7c0-4.9,0.6-4.9,0.6-9.9s0.1-4.9,0.1-9.9
				c0-3.6-2.6-5.7-4.1-6.2c-3.1-0.9-2.6-3.8-2.6-6c0-1.7-0.2-2,1.9-3.3c2.5-1.6,5.5-4,9.1-5c4-1.1,8-1.2,10.4-1.2
				c3.5,0,4.1,1,4.9,3.4c0.6,1.8,2.1,4,2.1,7.2c0,2.2,1.1,4.8,1.1,7.5c0,2.3-1.6,4.8-1.6,7.4c0,4,0.2,4,0.2,8s0.7,4,0.7,8
				c0,4.7-0.5,5.7,0.9,6.3c2.5,0.9,3.8,2.9,3.8,5.7c0,3.2-2.5,4.8-7,5.8c-2.8,0.6-6.3,1.1-10.1,1.1c-3.9,0-7.4-0.5-10.2-1
				C519.3,345,516.1,343.2,516.1,340.1z M519.4,272.1c0-3.9,2.1-7.9,5.4-9.4c3-1.4,7.4,0.2,10.8,0.2c3.3,0,5,1.1,6.8,2.3
				c2.3,1.5,2.7,2.7,2.7,5.6c0,3.7-0.2,7.5-3.6,9.1c-3,1.4-7.3-0.9-10.6-0.9c-3.2,0-5.1-0.1-6.9-1.2
				C521.7,276.2,519.4,274.9,519.4,272.1z"/>
		</g>
		<g>
			<path class="st1" d="M631.1,340.1c0,3.2-2.3,6.2-6.8,7.1c-2.8,0.6-6.5-0.9-10.4-0.9s-7-0.9-9.7-1.5c-4.5-0.9-7.9-1.5-7.9-4.6
				c0-2.8,3.2-2.5,5.3-3.3c1.5-1,1.2-5.3,1.2-8.7c0-5.8,0.3-5.8,0.3-11.7c0-4.2-0.9-7.4-1.5-9.8c-1.2-4.3-3.4-6.1-6.9-6.1
				c-3.2,0-5.7,1.9-7.3,6.2c-0.9,2.4-0.9,5.6-1,10c0,5.7-1.6,5.7-1.6,11.4c0,4.3,0.9,6.1,2.4,7.2c2.2,0.9,5.4,2.1,5.4,4.8
				c0,3.1-4,5.1-8.4,6c-2.7,0.6-6.1,0-10,0s-7.6,1.5-10.4,0.9c-4.6-0.9-7.6-3.8-7.6-7c0-2.9,2.9-3.6,5.1-4.3c1.6-0.8,1-4.1,1-7.6
				c0-4.9-0.4-4.9-0.4-9.9s0.8-4.9,0.8-9.9c0-3.6-0.6-6.5-2.1-7c-3.1-0.9-3.2-2.9-3.2-5.1c0-1.7-0.2-2.8,1.9-4.1
				c2.5-1.6,6-3.2,9.6-4.2c4-1.1,8-2,10.4-2c3.4,0,5.5,1.3,6.3,3.7c0.5,1.8,1.3,4.5,1.3,7.6c0,0.9-1.7,2.6-1,2.1
				c1.3-2.6,3.6-4.5,5.7-6.5c2.1-2,4-3.7,6.8-4.8c2.6-1,5.1-3.3,8.3-3.3c2.9,0,5.8,0.8,8.1,1.8c2.5,1.1,4.7,3.1,6.4,5.2
				c1.5,2,3.6,4.3,4.4,7.1c0.6,2.4-0.9,5.4-0.9,8.3c0,5.2,1,5.2,1,10.5s0.8,5.2,0.8,10.5c0,4.4-1.6,7.3,0,8.1
				C628.9,337.1,631.1,337.2,631.1,340.1z"/>
		</g>
		<g>
			<path class="st1" d="M700.3,345.3c0,3-0.5,5.2-1.7,7.5c-1.2,2.5-1.4,5.9-3.6,7.7c-2.1,1.7-4.4,3.9-7,5.1c-2.5,1.1-5.5,2-8.2,2.7
				c-2.8,0.7-6.1-1.6-8.8-1.3c-3,0.4-5.7,1.3-8.1,1.3c-3,0-5.6-0.7-8.1-1c-3-0.4-6.2,1-8.5,0.2c-3-1.1-6.1-2.2-7.8-3.8
				c-2.4-2.1-2.9-5.6-2.9-8.2c0-4,2.6-7.3,6.2-8.9c-3.5-2.7-4-6.3-4-9.7c0-2.9-1-6.5,0.9-8.7c1.6-2,5.3-2.9,7.9-4.4
				c-3.2-1.7-7-3.2-8.8-5.8c-1.9-2.8-1.1-6.8-1.1-10.3c0-2.9-0.3-5.8,0.9-8.4c1.2-2.4,3.6-4.1,5.9-6.1c2-1.7,3.5-5,6.3-6.2
				c2.4-1,5.6-1.2,8.6-1.7c2.6-0.5,5.6,0.2,8.6,0.2c2.9,0,5.5,0.3,8,0.8c2.8,0.5,5.4,1.4,7.7,2.5c4.4-0.9,7.4-1.9,10.2-3.3
				c1.9-0.9,3-3.7,4.2-3.7c2.3,0,2.1,3.2,2.1,5.5c0,2,1.7,5.2,0.2,7.7c-1.2,2.1-3,3.8-4.9,5.5c0.6,1.6-0.1,3-0.1,4.7
				c0,2.9,0.7,6.3-0.6,8.9c-1.2,2.4-5.4,2.8-7.7,4.7c-2,1.7-3.5,4.4-6.2,5.5c-2.5,1.1-5,2.9-7.9,3.5c-2.6,0.5-5.6-0.7-8.6-0.7
				c-3.2,0-6.1,0.4-8.8-0.2c-1.5,1.4-0.3,2.4-0.3,3.5c0,2.5,1.2,2.4,5.1,2.4c3.2,0,6.2,0,9.3-0.3c3.2-0.4,6.6,1.3,9.6,0.9
				c3.4-0.5,6.3-3.2,9.2-3.2c3.8,0,7.7,2.1,10.4,4.7C700.1,337.3,700.3,340.8,700.3,345.3z M685.1,352.2c0-2-2.7-4.1-5.3-4.1
				c-2.3,0-6.3,2.7-11.1,3.1c-3.6,0.3-7.5,1.3-11.3,1.3c-2.7,0-5-0.4-7.2-0.9c-0.9,0.7-2.7,0.1-2.7,1.3c0,2.2,2.9,5.4,7.3,6.9
				c2.3,0.8,5.5,1.8,9.3,1.8c2.6,0,5-2.3,7.4-2.8c2.8-0.5,4.8-1.7,6.8-2.6C681.4,354.8,685.1,354.2,685.1,352.2z M654.8,304.6
				c0,3.1,0.9,7.2,2.3,10c1.6,3.1,5.1,3.8,8.6,3.8c2.9,0,3.7-1.1,5.1-3.2c1.2-1.8,1.7-3.3,1.7-6.3s2.1-7.2,0.6-10.1
				c-1.6-3-5.4-5.3-8.9-5.3c-2.8,0-6,1.2-7.4,3.2C655.7,298.5,654.8,301.6,654.8,304.6z"/>
		</g>
		<g>
			<path class="st1" d="M705.7,333.8c0-3.5,1.2-6.8,3.4-9.1c2.3-2.4,5.4-4.3,8.9-4.3s7,1.5,9.3,3.9c2.2,2.4,3.1,5.9,3.1,9.5
				c0,3.5-1.3,6.7-3.5,9.1c-2.3,2.4-5.4,4.1-8.9,4.1s-6.8-1.6-9.1-4C706.8,340.7,705.7,337.4,705.7,333.8z"/>
		</g>
	</g>
	<g class="st2">
		<path class="st3" d="M27.9,71.1c0-18.6,13.5-32.4,31.7-32.4c14.7,0,24.4,8.8,24.4,18c0,5.9-4,9.5-9.3,9.5
			c-6.2,0-8.4-5.3-10.3-10.6c-1.2-3.2-2.9-7.5-7.4-7.5c-5.4,0-8.3,6.1-8.3,13.8c0,11.8,6.4,20.2,16.5,20.2c5.6,0,9.3-2.5,12.5-4.9
			c1.6-1.2,2.9-1.9,4.3-1.9c2.2,0,3.7,1.5,3.7,4.7s-1.6,7.3-4.6,10.8c-4.4,5.1-12.5,10.2-23.6,10.2C40.1,101.1,27.9,88.7,27.9,71.1z
			"/>
		<path class="st3" d="M90.1,70.4c0-18.7,14.7-31.7,36.1-31.7c19.3,0,32.3,12.8,32.3,30.8c0,18.9-14.9,31.6-35.9,31.6
			C103.1,101.1,90.1,88.4,90.1,70.4z M136.4,80c0-11.9-7.1-31.7-16-31.7c-4.6,0-8.1,3.9-8.1,11.5c0,12,6.8,31.7,16,31.7
			C133,91.5,136.4,87.3,136.4,80z"/>
		<path class="st3" d="M234.9,68.7c0,19.3-11.9,32.2-28.1,32.2c-5.4,0-10.8-1.5-14.7-3.7v6c0,4.5,0.3,6.4,2.2,7.1
			c3.2,1.2,5.4,2.2,5.4,5.1c0,5.2-8,6.6-19,6.6c-10.4,0-17.8-1.6-17.8-6.6c0-2.9,2.2-4,4.6-5c1.6-0.7,1.9-3.2,1.9-7.2V61.8
			c0-3.5-0.6-7.1-2.1-7.5c-3.1-0.9-4.6-2.3-4.6-4.6c0-1.7,0.8-3.1,2.9-4.4c5.4-3.4,15.6-5.7,20.1-5.7c6,0,6.4,3.8,6.4,11.1v0.9
			c3.6-7.4,11.3-12.6,20.2-12.6C225.5,39,234.9,51,234.9,68.7z M211.3,72.7c0-13.2-4-19.3-9.7-19.3c-5.4,0-10.1,5.9-10.1,20.4
			c0,13.3,4,18,9.6,18C207.3,91.8,211.3,85.8,211.3,72.7z"/>
		<path class="st3" d="M306.9,45.9c0,3-2,4.3-5.2,5.8s-4.9,5.1-7.2,11.2c-3.7,10.2-6.6,17.8-11,30c-6,16.8-10.9,29.4-26.3,29.4
			c-9.1,0-16.2-6.2-16.2-13c0-5.1,3.5-9.3,8.7-9.3c4.6,0,7.3,2.9,7.9,7.2c0.1,0.9,0.2,2.4,0.5,3.2c0.3,1.3,1.3,2,2.7,2
			c2.7,0,4.3-2.3,5-6.5c0.5-3.5-2.1-7.9-5.7-15.4c-3-6.1-9.7-20.8-13.6-29.5c-3.2-7.2-4-8.6-5.8-9.1c-2.7-0.9-4.6-2.7-4.6-5.2
			c0-4.4,5.6-7.2,19.3-7.2c13.1,0,18.7,2.5,18.7,6.9c0,2.8-2.2,4.2-4.6,5c-1.6,0.6-1.2,3.7-0.2,6.9c1.7,5.2,5.7,14.1,9.1,21.4
			c3.2-7.7,6.4-17,7.3-21.9c0.8-3.5,0.7-6.2-1.4-7.2c-2.8-1.2-4.4-2.4-4.4-4.7c0-3.7,4.9-6.5,14-6.5
			C302.4,39.6,306.9,42.1,306.9,45.9z"/>
		<path class="st3" d="M414.9,45.9c0,2.9-1.5,4.4-4.7,5.7c-2.8,1.2-4.5,5.4-7.2,11.3c-4.2,9.9-8.3,19.7-12,27.1
			c-3.9,7.4-6.1,10.4-11.1,10.4s-7.7-2.9-10.9-9.8c-1.7-3.9-4.3-10.5-6.7-17c-2.8,5.4-5.7,10.8-8.7,16.3c-4,7.5-6.5,10.5-11.3,10.5
			c-5,0-7.3-3.1-11-9.8c-3.4-6.5-9.7-20.9-13.5-29.5c-3.2-7.3-3.8-8.6-5.4-9.4c-2.4-1-4.4-2.5-4.4-5.2c0-4.2,5.3-6.9,19.2-6.9
			c10.5,0,17.1,2.7,17.1,7.2c0,2.5-1.5,3.9-3.5,4.7c-1.4,0.6-1,3.6-0.1,6.9c1.6,5.4,5.7,14.1,9,21c3.4-5.6,6.5-11.8,8.3-16.8
			l-0.7-1.7c-2.9-7.4-3.6-8.7-5-9.4c-2.1-0.9-3.5-2.4-3.5-5c0-4.2,5.6-7.1,17.3-7.1c10.9,0,17.2,2.7,17.2,6.9c0,2.8-2.2,4.3-4.4,5
			c-1.7,0.6-1.5,3.6-0.5,6.9c1.9,5.6,5,14,7.9,20.7c3.5-7.4,6.7-15.8,8-21.2c0.8-3.5,0.3-6.2-1.5-7.2c-2.7-1-4.4-2.5-4.4-4.7
			c0-3.8,5.2-6.5,13.4-6.5C410.3,39.6,414.9,42.1,414.9,45.9z"/>
		<path class="st3" d="M474.3,51.6c0,7.9-4.2,13-10.6,13c-4,0-6.9-2-8.8-3.8c-1.4-1.4-2.7-2.8-4.3-2.8c-2.4,0-4.7,3.6-4.7,8v15.4
			c0,4.6,0.5,6.5,2.1,7.1c3.6,1,5.8,2.3,5.8,5.2c0,5.1-8,6.6-19.2,6.6c-10.4,0-17.5-1.6-17.5-6.7c0-2.8,2-3.9,4.4-4.7
			c1.5-0.6,1.7-3.2,1.7-7.2V61.8c0-3.6-0.6-7.1-2.1-7.5c-3.1-0.9-4.6-2.4-4.6-4.6c0-1.7,0.8-3.1,2.9-4.4c5.3-3.5,15.6-5.7,20.1-5.7
			c6,0,6.4,3.8,6.4,11.1v2.5c3.6-8.7,9.8-14.3,17-14.3C469.2,38.9,474.3,43.5,474.3,51.6z"/>
		<path class="st3" d="M477.8,93.5c0-2.8,2-3.9,4.4-4.7c1.5-0.6,1.7-3.5,1.7-7.2V61.8c0-3.6-0.6-7.1-2.1-7.5
			c-3.1-0.9-4.6-2.4-4.6-4.6c0-1.7,0.8-3.1,2.9-4.4c5.3-3.5,15.6-5.7,20.1-5.7c6.1,0,6.5,3.8,6.5,11.1c0,4.2-0.1,9.1-0.1,14.9v16
			c0,4.7,0.2,6.6,1.6,7.2c2.5,0.9,4.5,2,4.5,4.7c0,5.2-7.4,6.7-17.5,6.7C484.9,100.2,477.8,98.5,477.8,93.5z M481,25.4
			c0-7.4,8.6-10.1,15.7-10.1c7.5,0,11.1,3.6,11.1,8.7c0,7.1-8.8,9.8-15.7,9.8C484.7,33.9,481,30.5,481,25.4z"/>
		<path class="st3" d="M565.1,85.2c0,5.6-9.9,15.3-23.7,15.3c-11.5,0-17.8-6.2-17.8-17l-0.1-30.8h-0.8c-2.5,0-6.4-0.9-6.4-4.9
			c0-4,6.2-8.9,11.6-12.7c5-3.5,10.3-6.6,13.8-6.6c2.9,0,4.5,1.9,4.5,5.4v8.2h13c3.9,0,5.2,1.4,5.2,5.1s-1,5.2-5.2,5.2h-13v24.9
			c0,6,1.6,7.8,4.9,7.8c5,0,7.6-4,10.6-4C563.7,81.1,565.1,82.5,565.1,85.2z"/>
		<path class="st3" d="M569.1,93.5c0-2.8,2-3.9,4.4-4.7c1.5-0.6,1.7-3.5,1.7-7.2V61.8c0-3.6-0.6-7.1-2.1-7.5
			c-3.1-0.9-4.6-2.4-4.6-4.6c0-1.7,0.8-3.1,2.9-4.4c5.3-3.5,15.6-5.7,20.1-5.7c6.1,0,6.5,3.8,6.5,11.1c0,4.2-0.1,9.1-0.1,14.9v16
			c0,4.7,0.2,6.6,1.6,7.2c2.5,0.9,4.5,2,4.5,4.7c0,5.2-7.4,6.7-17.5,6.7C576.1,100.2,569.1,98.5,569.1,93.5z M572.3,25.4
			c0-7.4,8.6-10.1,15.7-10.1c7.5,0,11.1,3.6,11.1,8.7c0,7.1-8.8,9.8-15.7,9.8C576,33.9,572.3,30.5,572.3,25.4z"/>
		<path class="st3" d="M683.8,93.5c0,5.2-7.4,6.7-17.5,6.7c-10.4,0-17-1.6-17-6.6c0-2.8,2-3.8,4-4.6c1.5-1,1.6-3.9,1.6-7.4V69.9
			c0-11.8-2.4-15.7-7.9-15.7c-5,0-9,3.9-9.1,16v11.5c0,4.3,0,6.4,1.5,7.4c2.2,0.9,4.2,1.9,4.2,4.6c0,5.1-6.9,6.6-17,6.6
			c-10.4,0-17.5-1.6-17.5-6.7c0-2.9,2.2-4,4.4-4.7c1.6-0.8,1.7-3.6,1.7-7.2V61.8c0-3.6-0.6-7.1-2.1-7.5c-3.1-0.9-4.6-2.4-4.6-4.6
			c0-1.7,0.8-3.1,2.9-4.4c5.3-3.5,15.6-5.7,20.1-5.7c6,0,6.4,3.8,6.4,11.1v1.7C641.7,44.8,649,39,659,39c11.2,0,18.6,7.4,18.6,21.6
			v20.9c0,4.4,0,6.4,1.6,7.2C681.7,89.5,683.8,90.6,683.8,93.5z"/>
		<path class="st3" d="M754,98.7c0,18.5-25,23.8-38.6,23.8c-17.5,0-27.2-6.2-27.2-13.5c0-4,2.8-7.3,6.4-8.9
			c-3.5-2.7-5.2-6.4-5.2-9.7c0-5.4,3.8-9.9,9.4-13.1c-6.5-3.6-10.3-9.3-10.3-16.1c0-12.6,12.4-22.2,30.8-22.2
			c6.2,0,11.5,1.2,15.7,3.1c4.4-0.9,6.9-2.7,9.7-4c1.9-0.9,3.5-1.5,4.7-1.5c2.3,0,3.5,2,3.5,4.3c0,3.7-2.9,9.1-7.1,12.8
			c0.6,1.6,0.8,3.4,0.8,5.1c0,12.5-13.1,22.3-30.9,22.3c-3.2,0-6.1-0.3-8.9-0.9c-1.5,1.4-1.9,2.7-1.9,3.8c0,2.5,2.9,3.6,6.7,3.6
			c10.6,0,20.4-2.8,28-2.8C746.9,84.8,754,89.2,754,98.7z M736.3,105.6c0-2-1.5-2.9-4-2.9c-4,0-13.6,1.6-22.3,1.6
			c-2.7,0-5.1-0.2-7.3-0.7c-0.9,0.7-1.2,1.6-1.2,2.8c0,3.4,3.9,7.4,15.2,7.4C727,113.8,736.3,110.1,736.3,105.6z M708.5,57.9
			c0,6.4,2.9,14.8,9.7,14.8c5.3,0,8.3-4,8.3-10.5c0-6.2-3-14.6-9.8-14.6C711.5,47.6,708.5,51.3,708.5,57.9z"/>
		<path class="st3" d="M758,87.2c0-7.2,5.6-13.1,12.5-13.1c6.9,0,12.5,5.9,12.5,13.1c0,7.2-5.6,13-12.5,13
			C763.6,100.2,758,94.4,758,87.2z"/>
	</g>
	<g class="st2">
		<path class="st3" d="M99.4,204.1c0,12-10.9,20.1-25.2,20.1c-5.6,0-11.5-1.2-16.1-3.7c-0.5,2.3-2.2,3.8-4.7,3.8
			c-6.2,0-11.1-10.1-11.1-17.3c0-4.7,2.1-6.9,4.7-6.9c2.9,0,4.5,2.4,6.6,5.2c5,6.5,11.1,9.7,16.4,9.7c4.4,0,7.4-2,7.4-5.1
			c0-4.2-4.3-5.3-12-7.6c-11.2-3.6-22.1-8-22.1-19.8c0-12.3,11-20.5,24.8-20.5c5.1,0,10.8,1.2,15.3,3.6c0.5-2.2,2.2-3.7,4.4-3.7
			c5.3,0,10.2,9.1,10.2,15.7c0,4.7-2.8,6.4-5.1,6.4c-2.5,0-4.3-2-6.6-4.7c-3.8-5.2-9.5-8-14.2-8c-4.4,0-6.8,2.3-6.8,5.1
			c0,3.6,3.6,4.9,11.2,6.9C86.3,186.1,99.4,190.7,99.4,204.1z"/>
		<path class="st3" d="M152.6,208.5c0,5.6-9.9,15.3-23.7,15.3c-11.5,0-17.8-6.2-17.8-17L111,176h-0.8c-2.5,0-6.4-0.9-6.4-4.9
			c0-4,6.2-8.9,11.6-12.7c5-3.5,10.3-6.6,13.8-6.6c2.9,0,4.5,1.9,4.5,5.4v8.2h13c3.9,0,5.2,1.4,5.2,5.1s-1,5.2-5.2,5.2h-13v24.9
			c0,6,1.6,7.8,4.9,7.8c5,0,7.6-4,10.6-4C151.2,204.4,152.6,205.8,152.6,208.5z"/>
		<path class="st3" d="M154.7,193.7c0-18.7,14.7-31.7,36.1-31.7c19.3,0,32.3,12.8,32.3,30.8c0,18.9-14.9,31.6-35.9,31.6
			C167.6,224.4,154.7,211.7,154.7,193.7z M201,203.3c0-11.9-7.1-31.7-16-31.7c-4.6,0-8.1,3.9-8.1,11.5c0,12,6.8,31.7,16,31.7
			C197.6,214.8,201,210.6,201,203.3z"/>
		<path class="st3" d="M286.1,174.9c0,7.9-4.2,13-10.6,13c-4,0-6.9-2-8.8-3.8c-1.4-1.4-2.7-2.8-4.3-2.8c-2.4,0-4.7,3.6-4.7,8v15.4
			c0,4.6,0.5,6.5,2.1,7.1c3.6,1,5.8,2.3,5.8,5.2c0,5.1-8,6.6-19.2,6.6c-10.4,0-17.5-1.6-17.5-6.7c0-2.8,2-3.9,4.4-4.7
			c1.5-0.6,1.7-3.2,1.7-7.2v-19.8c0-3.6-0.6-7.1-2.1-7.5c-3.1-0.9-4.6-2.4-4.6-4.6c0-1.7,0.8-3.1,2.9-4.4c5.3-3.5,15.6-5.7,20.1-5.7
			c6,0,6.4,3.8,6.4,11.1v2.5c3.6-8.7,9.8-14.3,17-14.3C281,162.2,286.1,166.8,286.1,174.9z"/>
		<path class="st3" d="M357.9,169.2c0,3-2,4.3-5.2,5.8c-3.2,1.5-4.9,5.1-7.2,11.2c-3.7,10.2-6.6,17.8-11,30
			c-6,16.8-10.9,29.4-26.3,29.4c-9.1,0-16.2-6.2-16.2-13c0-5.1,3.5-9.3,8.7-9.3c4.6,0,7.3,2.9,7.9,7.2c0.1,0.9,0.2,2.4,0.5,3.2
			c0.3,1.3,1.3,2,2.7,2c2.7,0,4.3-2.3,5-6.5c0.5-3.5-2.1-7.9-5.7-15.4c-3-6.1-9.7-20.8-13.6-29.5c-3.2-7.2-4-8.6-5.8-9.1
			c-2.7-0.9-4.6-2.7-4.6-5.2c0-4.4,5.6-7.2,19.3-7.2c13.1,0,18.7,2.5,18.7,6.9c0,2.8-2.2,4.2-4.6,5c-1.6,0.6-1.2,3.7-0.2,6.9
			c1.7,5.2,5.7,14.1,9.1,21.4c3.2-7.7,6.4-17,7.3-21.9c0.8-3.5,0.7-6.2-1.4-7.2c-2.8-1.2-4.4-2.4-4.4-4.7c0-3.7,4.9-6.5,14-6.5
			C353.4,162.9,357.9,165.4,357.9,169.2z"/>
		<path class="st3" d="M407.9,208.5c0,5.6-9.9,15.3-23.7,15.3c-11.5,0-17.8-6.2-17.8-17l-0.1-30.8h-0.8c-2.5,0-6.4-0.9-6.4-4.9
			c0-4,6.2-8.9,11.6-12.7c5-3.5,10.3-6.6,13.8-6.6c2.9,0,4.5,1.9,4.5,5.4v8.2h13c3.9,0,5.2,1.4,5.2,5.1s-1,5.2-5.2,5.2h-13v24.9
			c0,6,1.6,7.8,4.9,7.8c5,0,7.6-4,10.6-4C406.5,204.4,407.9,205.8,407.9,208.5z"/>
		<path class="st3" d="M468.3,204c0,2.8-1.4,6.2-3.9,9.5c-4.5,5.8-13.1,10.9-24.8,10.9c-17.6,0-29.7-12.4-29.7-29.8
			c0-18.9,14.1-32.3,31.9-32.3c16.8,0,26.1,11.2,26.1,20.8c0,5.8-3.5,9.5-9.8,9.5h-27.9c1.7,8.2,7.5,13.1,16.4,13.1
			c6,0,10.2-2.1,13.6-4.6c1.4-0.9,2.8-1.7,4.2-1.7C466.8,199.3,468.3,200.8,468.3,204z M429.7,185.3l11.8-0.2
			c5.9-0.2,8.4-2.3,8.4-5.9c0-4.3-3.1-8-8.4-8C434.8,171.2,430.3,177,429.7,185.3z"/>
		<path class="st3" d="M473.2,216.8c0-2.8,2.1-3.9,4.5-4.7c1.5-0.6,1.7-3.2,1.7-7.2v-45c0-3.9-0.8-7.5-2.4-8.2c-3.5-1-5.4-2.5-5.4-5
			c0-1.7,0.8-3.2,2.9-4.5c5.7-3.5,16.3-5.7,21.2-5.7c6.1,0,6.6,3.8,6.6,11.2c0,4-0.1,9-0.1,14.8v42.3c0,4.7,0.2,6.6,1.6,7.2
			c2.7,0.9,4.5,2,4.5,4.7c0,5.2-7.3,6.7-17.5,6.7C480.4,223.5,473.2,221.8,473.2,216.8z"/>
		<path class="st3" d="M512.8,216.8c0-2.8,2.1-3.9,4.5-4.7c1.5-0.6,1.7-3.2,1.7-7.2v-45c0-3.9-0.8-7.5-2.4-8.2c-3.5-1-5.4-2.5-5.4-5
			c0-1.7,0.8-3.2,2.9-4.5c5.7-3.5,16.3-5.7,21.2-5.7c6.1,0,6.6,3.8,6.6,11.2c0,4-0.1,9-0.1,14.8v42.3c0,4.7,0.2,6.6,1.6,7.2
			c2.7,0.9,4.5,2,4.5,4.7c0,5.2-7.3,6.7-17.5,6.7C519.9,223.5,512.8,221.8,512.8,216.8z"/>
		<path class="st3" d="M553.5,216.8c0-2.8,2-3.9,4.4-4.7c1.5-0.6,1.7-3.5,1.7-7.2v-19.8c0-3.6-0.6-7.1-2.1-7.5
			c-3.1-0.9-4.6-2.4-4.6-4.6c0-1.7,0.8-3.1,2.9-4.4c5.3-3.5,15.6-5.7,20.1-5.7c6.1,0,6.5,3.8,6.5,11.1c0,4.2-0.1,9.1-0.1,14.9v16
			c0,4.7,0.2,6.6,1.6,7.2c2.5,0.9,4.5,2,4.5,4.7c0,5.2-7.4,6.7-17.5,6.7C560.5,223.5,553.5,221.8,553.5,216.8z M556.7,148.7
			c0-7.4,8.6-10.1,15.7-10.1c7.5,0,11.1,3.6,11.1,8.7c0,7.1-8.8,9.8-15.7,9.8C560.4,157.2,556.7,153.8,556.7,148.7z"/>
		<path class="st3" d="M668.2,216.8c0,5.2-7.4,6.7-17.5,6.7c-10.4,0-17-1.6-17-6.6c0-2.8,2-3.8,4-4.6c1.5-1,1.6-3.9,1.6-7.4v-11.7
			c0-11.8-2.4-15.7-7.9-15.7c-5,0-9,3.9-9.1,16v11.5c0,4.3,0,6.4,1.5,7.4c2.2,0.9,4.2,1.9,4.2,4.6c0,5.1-6.9,6.6-17,6.6
			c-10.4,0-17.5-1.6-17.5-6.7c0-2.9,2.2-4,4.4-4.7c1.6-0.8,1.7-3.6,1.7-7.2v-19.8c0-3.6-0.6-7.1-2.1-7.5c-3.1-0.9-4.6-2.4-4.6-4.6
			c0-1.7,0.8-3.1,2.9-4.4c5.3-3.5,15.6-5.7,20.1-5.7c6,0,6.4,3.8,6.4,11.1v1.7c3.7-7.6,11-13.4,21.1-13.4c11.2,0,18.6,7.4,18.6,21.6
			v20.9c0,4.4,0,6.4,1.6,7.2C666.1,212.8,668.2,213.9,668.2,216.8z"/>
		<path class="st3" d="M738.4,222c0,18.5-25,23.8-38.6,23.8c-17.5,0-27.2-6.2-27.2-13.5c0-4,2.8-7.3,6.4-8.9
			c-3.5-2.7-5.2-6.4-5.2-9.7c0-5.4,3.8-9.9,9.4-13.1c-6.5-3.6-10.3-9.3-10.3-16.1c0-12.6,12.4-22.2,30.8-22.2
			c6.2,0,11.5,1.2,15.7,3.1c4.4-0.9,6.9-2.7,9.7-4c1.9-0.9,3.5-1.5,4.7-1.5c2.3,0,3.5,2,3.5,4.3c0,3.7-2.9,9.1-7.1,12.8
			c0.6,1.6,0.8,3.4,0.8,5.1c0,12.5-13.1,22.3-30.9,22.3c-3.2,0-6.1-0.3-8.9-0.9c-1.5,1.4-1.9,2.7-1.9,3.8c0,2.5,2.9,3.6,6.7,3.6
			c10.6,0,20.4-2.8,28-2.8C731.3,208.1,738.4,212.5,738.4,222z M720.7,228.9c0-2-1.5-2.9-4-2.9c-4,0-13.6,1.6-22.3,1.6
			c-2.7,0-5.1-0.2-7.3-0.7c-0.9,0.7-1.2,1.6-1.2,2.8c0,3.4,3.9,7.4,15.2,7.4C711.5,237.1,720.7,233.4,720.7,228.9z M692.9,181.2
			c0,6.4,2.9,14.8,9.7,14.8c5.3,0,8.3-4,8.3-10.5c0-6.2-3-14.6-9.8-14.6C696,170.9,692.9,174.6,692.9,181.2z"/>
		<path class="st3" d="M742.4,210.5c0-7.2,5.6-13.1,12.5-13.1s12.5,5.9,12.5,13.1c0,7.2-5.6,13-12.5,13S742.4,217.7,742.4,210.5z"/>
	</g>
	<g class="st2">
		<path class="st3" d="M191.4,340c0,5.2-7.3,6.7-17.5,6.7c-10.3,0-16.9-1.6-16.9-6.6c0-2.8,1.9-3.8,4-4.6c1.5-0.9,1.5-4,1.5-7.4
			v-11.7c0-11.5-2.1-15.7-7.5-15.7c-4.9,0-8.8,3.8-8.9,16v11.5c0,4.2,0,6.2,1.6,7.4c2.1,0.9,4,1.9,4,4.6c0,5.1-6.8,6.6-17,6.6
			c-10.3,0-16.9-1.6-16.9-6.6c0-2.8,1.9-3.8,4-4.6c1.5-0.9,1.5-4,1.5-7.4v-11.7c0-11.3-2-15.7-7.5-15.7c-4.9,0-8.8,3.8-8.9,16v11.5
			c0,4.2,0,6.2,1.5,7.4c2.2,0.9,4.2,1.9,4.2,4.6c0,5.1-6.9,6.6-17,6.6c-10.4,0-17.5-1.6-17.5-6.7c0-2.8,2-3.9,4.4-4.7
			c1.5-0.6,1.7-3.2,1.7-7.2v-19.8c0-3.6-0.6-7.1-2.1-7.5c-3.1-0.9-4.6-2.4-4.6-4.6c0-1.7,0.8-3.1,2.9-4.4c5.3-3.5,15.6-5.7,20.1-5.7
			c6.1,0,6.4,3.8,6.4,11.1v1.9c3.7-7.7,10.9-13.5,20.8-13.5c8.8,0,15.2,4.6,17.3,13.8c3.9-7.9,11.3-13.8,21.7-13.8
			c11.2,0,18.3,7.4,18.3,21.6v20.9c0,4.7,0.2,6.6,1.6,7.2C189.6,336.2,191.4,337.3,191.4,340z"/>
		<path class="st3" d="M260.7,335.9c0,4.9-5.1,10.8-14.3,10.8c-6.6,0-11.5-3-14.1-8.9c-3.9,6-10.5,9.7-18.7,9.7
			c-10.3,0-18.5-6.1-18.5-16.9c0-12.1,10.4-18.9,24.6-18.9c4.2,0,8.3,0.7,11.6,1.5v-7.1c0-5.9-0.3-11.2-5.3-11.2
			c-3.1,0-5.4,3-7.9,6.1c-2.2,3.4-5.4,6.9-11.5,6.9c-4.9,0-7.5-2.9-7.5-6.1c0-7.8,17.6-16.3,33.1-16.3c14.3,0,22,7.2,22,20.2v19.5
			c0,5.1,0.8,7.9,5.7,9.1C260.6,334.7,260.7,335.1,260.7,335.9z M231.8,325.1v-3.6c-1.4-1.2-3.7-2.2-6.5-2.2c-5,0-8,3.1-8,8.2
			s2.5,8,6.6,8C228.1,335.5,231.8,332.3,231.8,325.1z"/>
		<path class="st3" d="M322.5,298.2c0,7.9-4.2,13-10.6,13c-4,0-6.9-2-8.8-3.8c-1.4-1.4-2.7-2.8-4.3-2.8c-2.4,0-4.7,3.6-4.7,8v15.4
			c0,4.6,0.5,6.5,2.1,7.1c3.6,1,5.8,2.3,5.8,5.2c0,5.1-8,6.6-19.2,6.6c-10.4,0-17.5-1.6-17.5-6.7c0-2.8,2-3.9,4.4-4.7
			c1.5-0.6,1.7-3.2,1.7-7.2v-19.8c0-3.6-0.6-7.1-2.1-7.5c-3.1-0.9-4.6-2.4-4.6-4.6c0-1.7,0.8-3.1,2.9-4.4c5.3-3.5,15.6-5.7,20.1-5.7
			c6,0,6.4,3.8,6.4,11.1v2.5c3.6-8.7,9.8-14.3,17-14.3C317.4,285.5,322.5,290.1,322.5,298.2z"/>
		<path class="st3" d="M401,339.9c0,4.5-6.2,6.8-16,6.8c-8,0-10.9-1-13.2-4.5c-3-3.8-9.5-16.2-13.3-23.7c-2,1.4-3.7,2.8-5.4,4.2v5.4
			c0,4.7,0.2,6.6,1.6,7.2c2.8,0.9,4.7,1.9,4.7,4.7c0,5.2-7.4,6.7-17.7,6.7s-17.5-1.6-17.5-6.7c0-2.8,2.1-3.9,4.5-4.7
			c1.4-0.6,1.6-3.2,1.6-7.2v-45c0-3.9-0.9-7.5-2.7-8.2c-3.5-1-5.4-2.5-5.4-5c0-1.7,0.8-3.2,2.9-4.5c5.8-3.5,16.5-5.7,21.4-5.7
			c6.1,0,6.6,3.8,6.6,11.2c0,4-0.1,9-0.1,14.8v26.5l5.7-3.9c4.3-3.1,7.5-6,8.3-7.9c0.7-1.4,0.2-2.2-1.3-2.8
			c-2.1-0.6-4.4-1.6-4.4-4.6c0-4.3,5.1-6.9,18.2-6.9c11.8,0,17.6,2.4,17.6,6.8c0,3.6-3,5.1-7.3,5.9c-4.7,0.9-7.4,2.5-14.2,7.4
			c3.1,5.8,7.6,14.5,13.9,23.6c2.7,3.7,3.9,4.6,5.7,5.4C398.8,336,401,337,401,339.9z"/>
		<path class="st3" d="M457.3,327.3c0,2.8-1.4,6.2-3.9,9.5c-4.5,5.8-13.1,10.9-24.8,10.9c-17.6,0-29.7-12.4-29.7-29.8
			c0-18.9,14.1-32.3,31.9-32.3c16.8,0,26.1,11.2,26.1,20.8c0,5.8-3.5,9.5-9.8,9.5h-27.9c1.7,8.2,7.5,13.1,16.4,13.1
			c6,0,10.2-2.1,13.6-4.6c1.4-0.9,2.8-1.7,4.2-1.7C455.8,322.6,457.3,324.1,457.3,327.3z M418.7,308.6l11.8-0.2
			c5.9-0.2,8.4-2.3,8.4-5.9c0-4.3-3.1-8-8.4-8C423.8,294.5,419.3,300.3,418.7,308.6z"/>
		<path class="st3" d="M510.4,331.8c0,5.6-9.9,15.3-23.7,15.3c-11.5,0-17.8-6.2-17.8-17l-0.1-30.8H468c-2.5,0-6.4-0.9-6.4-4.9
			c0-4,6.2-8.9,11.6-12.7c5-3.5,10.3-6.6,13.8-6.6c2.9,0,4.5,1.9,4.5,5.4v8.2h13c3.9,0,5.2,1.4,5.2,5.1s-1,5.2-5.2,5.2h-13V324
			c0,6,1.6,7.8,4.9,7.8c5,0,7.6-4,10.6-4C509,327.7,510.4,329.1,510.4,331.8z"/>
		<path class="st3" d="M514.3,340c0-2.8,2-3.9,4.4-4.7c1.5-0.6,1.7-3.5,1.7-7.2v-19.8c0-3.6-0.6-7.1-2.1-7.5
			c-3.1-0.9-4.6-2.4-4.6-4.6c0-1.7,0.8-3.1,2.9-4.4c5.3-3.5,15.6-5.7,20.1-5.7c6.1,0,6.5,3.8,6.5,11.1c0,4.2-0.1,9.1-0.1,14.9v16
			c0,4.7,0.2,6.6,1.6,7.2c2.5,0.9,4.5,2,4.5,4.7c0,5.2-7.4,6.7-17.5,6.7C521.4,346.8,514.3,345.1,514.3,340z M517.6,272
			c0-7.4,8.6-10.1,15.7-10.1c7.5,0,11.1,3.6,11.1,8.7c0,7.1-8.8,9.8-15.7,9.8C521.3,280.5,517.6,277.1,517.6,272z"/>
		<path class="st3" d="M629.1,340c0,5.2-7.4,6.7-17.5,6.7c-10.4,0-17-1.6-17-6.6c0-2.8,2-3.8,4-4.6c1.5-1,1.6-3.9,1.6-7.4v-11.7
			c0-11.8-2.4-15.7-7.9-15.7c-5,0-9,3.9-9.1,16v11.5c0,4.3,0,6.4,1.5,7.4c2.2,0.9,4.2,1.9,4.2,4.6c0,5.1-6.9,6.6-17,6.6
			c-10.4,0-17.5-1.6-17.5-6.7c0-2.9,2.2-4,4.4-4.7c1.6-0.8,1.7-3.6,1.7-7.2v-19.8c0-3.6-0.6-7.1-2.1-7.5c-3.1-0.9-4.6-2.4-4.6-4.6
			c0-1.7,0.8-3.1,2.9-4.4c5.3-3.5,15.6-5.7,20.1-5.7c6,0,6.4,3.8,6.4,11.1v1.7c3.7-7.6,11-13.4,21.1-13.4c11.2,0,18.6,7.4,18.6,21.6
			v20.9c0,4.4,0,6.4,1.6,7.2C627,336.1,629.1,337.2,629.1,340z"/>
		<path class="st3" d="M699.3,345.3c0,18.5-25,23.8-38.6,23.8c-17.5,0-27.2-6.2-27.2-13.5c0-4,2.8-7.3,6.4-8.9
			c-3.5-2.7-5.2-6.4-5.2-9.7c0-5.4,3.8-9.9,9.4-13.1c-6.5-3.6-10.3-9.3-10.3-16.1c0-12.6,12.4-22.2,30.8-22.2
			c6.2,0,11.5,1.2,15.7,3.1c4.4-0.9,6.9-2.7,9.7-4c1.9-0.9,3.5-1.5,4.7-1.5c2.3,0,3.5,2,3.5,4.3c0,3.7-2.9,9.1-7.1,12.8
			c0.6,1.6,0.8,3.4,0.8,5.1c0,12.5-13.1,22.3-30.9,22.3c-3.2,0-6.1-0.3-8.9-0.9c-1.5,1.4-1.9,2.7-1.9,3.8c0,2.5,2.9,3.6,6.7,3.6
			c10.6,0,20.4-2.8,28-2.8C692.2,331.4,699.3,335.8,699.3,345.3z M681.6,352.2c0-2-1.5-2.9-4-2.9c-4,0-13.6,1.6-22.3,1.6
			c-2.7,0-5.1-0.2-7.3-0.7c-0.9,0.7-1.2,1.6-1.2,2.8c0,3.4,3.9,7.4,15.2,7.4C672.3,360.4,681.6,356.7,681.6,352.2z M653.8,304.5
			c0,6.4,2.9,14.8,9.7,14.8c5.3,0,8.3-4,8.3-10.5c0-6.2-3-14.6-9.8-14.6C656.8,294.2,653.8,297.9,653.8,304.5z"/>
		<path class="st3" d="M703.3,333.8c0-7.2,5.6-13.1,12.5-13.1s12.5,5.9,12.5,13.1c0,7.2-5.6,13-12.5,13S703.3,341,703.3,333.8z"/>
	</g>
</g>
</svg>
