<svg xmlns="http://www.w3.org/2000/svg" viewBox="0 0 809.06 367.26"><defs><style>.cls-1,.cls-2,.cls-3{fill:none;stroke-miterlimit:10;}.cls-1{stroke:#f92100;}.cls-2{stroke:#1622ff;}.cls-3{stroke:#fff;}</style></defs><g id="Layer_2" data-name="Layer 2"><g id="Layer_5" data-name="Layer 5"><path class="cls-1" d="M33.45,96c-18,0-27.12-10.32-27.12-29.17,0-19.33,11.89-35.7,33.28-35.7,15.34,0,24.65,11.41,24.65,19.39,0,4.71-4.35,11.66-9.79,11.66S41.59,57.3,38.09,50.65c-4.47-8.46-2.71-7.83-5.37-7.83s-7.39-2.09-7.39,2.5c0,10.51,9.37,23.76,16.62,31,3.63,3.62,5.15,2.49,9,2.49,3.5,0,4-.64,7.06-3.18,1.09-.84,8.14,4.59,7.65,5.8C61.94,90.5,48.43,96,33.45,96Zm73.81-59c21,0,31,9.25,31,28.82,0,20.54-11.06,36.2-33.41,36.2-21,0-36.36-15.66-36.36-35.23C68.49,46.29,84.91,37,107.26,37Zm-.86,56.75c1.45,1.45,4.37,4.51,5.58,4.51,2.41,0,.65-6.1.65-12.5,0-12.69-4.15-39.28-9.34-44.47-1.45-1.45-2,1.42-3.15,1.42-2.42,0,0-2.26,0,4.14C100.17,59.58,101.21,88.59,106.4,93.79ZM222.62,64.66c0,21-9.16,27.57-29.09,27.57-4.47,0-3.75,5.92-7.25,5-1.82,9.56-3.57,8.86-3.57,18.58,0,1.21.16-3.14,1.37-2.9,2,.42,2.19-.36,4.24,0,.73.12,5.38,5.75,5.38,8s-5.73-1.75-6.45-1.75c-2.78,0-10.64,5.22-19.46,5.22s-16.79,3.45-19.57,3.45c-.72,0-5.38-4.75-5.38-6.92s4-5.57,4.77-5.69c2.06-.42,1.68-2.19,3.74-2.61,1.21-.25-3,4.31-3,3.1,0-29.06,3.19-29.06,3.19-58.11,0-1.21,1.85-.46.64-.7-2-.37-2.49,2.19-4.55,1.83-.72-.12,3.19-3.79,3.19-5.72s-2.73-.55-2-.79c9.9-3.86,19.39-10.38,29.06-17.27.36-.24-.05-.51.31-.51.85,0,5.13.2,5.13,1,0,2.05-.27,9.63-.27,17.24,4.11-9.54,9.28-13.59,17.62-13.59C213.22,39.19,222.62,44.6,222.62,64.66ZM202.25,87.25c0-11.84-5.78-34-12.3-40.52-1.21-1.21-6,7.13-6.81,7.13-.49,0,.06-4.52-.43-4.16-.23,7.79,3.66,7.77,3.66,15.56,0,11.48,4,18.7,8.15,22.81,1.45,1.45-1.23.34.34.34C197.39,88.41,202.25,91.6,202.25,87.25Zm101-49.66c0,2.18.63-2.7-.1-2.34-2.83,1.28,1.32,10.49-1.52,11.76-2.42,1.09-4.38-1.45-11,11.12-9,16.92-5.88,18.54-14.79,35.51-3.66,7-2.81,7.32-6.38,14.33-6.28,12.32-16.46,21.57-26.49,21.57-7.49,0-8.8-10.27-8.8-17.77s1.79-14.69,9.29-14.69c4.47,0,6.8-.51,10.31,2.39,3.53-1.58,3.4,2.74,2-.87-10.87-28.47-12.42-27.36-26.19-54.55-.6-1.21,1.21,1.93,0,1.69-1.87-.36-1.95.16-3.82-.19-.72-.12-2.19-5.78-2.19-8s2.47-3.42,3.19-3.42c2.78,0,10.63-1.72,19.45-1.72,6.41,0,21.27,6.13,24.05,6.13.72,0-.64-3.16-.64-1s1.24,1.44.52,1.56c-3.56.38-3.52.71-7.09,1.07-1.21.12.52.49,1,1.58,6.69,13.6-3.23,22.15,8.32,32,4.93,4.18,9.88-8.47,12-14.57,4.47-12.8,1-19.79-2.48-21s-5.22,3.64-8.78,2.44c-.73-.25-5.75-.86-5.75-3s5.19,2.35,5.92,2.35c2.78,0,10.51-7.43,16.91-7.43s12.45,2.18,15.23,2.18C306.13,34.69,303.24,35.42,303.24,37.59Zm113.42,0c0,2.18.63-4.32-.1-4-2.48,1.27,3.78,13.45,1.31,14.73-2.3,1.21-5.17-3-12.18,10-4.47,8.21-.15,10.57-4.63,18.78-2.54,4.6-8.22,17.09-10.76,22.16-.72,1.45-8.05,5.88-10.47,5.88s2-10.07,1.39-11.52c-2.3-5.07-15.24-13.36-17.89-18.56-3-5.74,2.71-6.74-3.74-6.68-6.81.06,1.43,3-2.12,8.81-2.78,4.59-10.77,15.55-13.31,20.63-.73,1.44-5.17,6.53-7.58,6.53s-9.82-4-10.42-5.43c-2.3-5.07-4-18.42-6.55-23.62-7.72-15.65-6.09-16.45-13.83-32.09-.6-1.21-.43,2.6-1.63,2.36-1.88-.36-.09-9.65-2-10-.72-.12.33,4.22.33,2s-1.94-1-1.21-1c2.78,0,10.63.37,19.45.37,6.4,0,19-4.54,21.75-4.54s11.84,10.46,20.66,10.46c6.4,0,20.41-1.42,23.19-1.42.73,0-5.26-6-5.26-3.84s6.08,3.24,5.35,3.36c-3,.38-2.33,6.33-5.35,6.69-1.21.12-8.17-3.29-7.57-2.09,5.81,12,11.55,8.32,20.83,17.83,3.3,3.38-2.23-1.42-.74-5.89,4.35-13.05,4.14-13.21.64-14.9-2.47-1.16-.68-5-3.15-6.16-.72-.36-7.7,3.34-7.7,1.16s5.25,3.84,6,3.84c2.78,0,9.55-.93,15.95-.93s11.84-3.59,14.62-3.59C420.67,36.91,416.66,35.42,416.66,37.59ZM358,50.39c-1.77-4.85.27-6.51-2.08-11.11-.61-1.21-8.48,8.13-9.68,7.88-2.36-.38-1.32-5.53-3.7-5.53s-1.54,5.24-4,5.58c-1.21.12,4.58-8.93,5.19-7.72,5.81,12.2.58,12.82,10.14,22.37,3.54,3.54,1.85,2.46,3.57-2.24C358.17,57.81,357.36,52.44,358,50.39ZM479.2,46.53c0,11.48-4.41,13.25-10.09,13.25-2.17,0-5.87,5.89-8.53,4.08-2.9-2-3.43-5.12-5-5.12-.6,0,2-.58,1.74-.34-.12,15.58.58,15.56.58,31.14,0,1.21-3.23-2.4-2-2.28,3.86.42,3.11,7.26,7,7.71.72.12,2.57-2.53,2.57-.35s-1.5,5.63-2.23,5.63c-2.78,0-10.63-.82-23.07-.82-8.82,0-16.8-.09-19.58-.09-.72,0-4.42-2.43-4.42-4.72s2.95-6.31,3.67-6.43c2.06-.41,2.49,1.79,4.54,1.37,1.21-.24,1.14,1.19,1.14,0,0-15.94-1.83-15.94-1.83-31.89,0-1.21,2.67-3.81,1.46-4-2.05-.37-2.3,1-4.36.62-.72-.12-.37.77-.37-1.16s-.36-1.55.37-1.79c9.91-3.87,18.32-11.44,28-18.33.36-.24,1.41,4.44,1.78,4.44.84,0-.21-2.69-.21-1.84,0,1.93,5.26,14,5.26,21.81,3.62-11.72,8-23.27,15.37-23.27S479.2,39.89,479.2,46.53Zm6.88,48.09c0-2.18-1.86,2.94-1.13,2.82,2.05-.41,0-10.53,2.06-11,1.21-.24,1.36,4.14,1.36,2.93,0-15.88-3.69-15.88-3.69-31.77,0-1.21,3.49,4.13,2.28,3.89l-4.06-.73c-.73-.12,4.31-5.82,4.31-7.75s-4.73-3.73-4-4c9.91-3.86,18.8-12,28.47-18.64a19.74,19.74,0,0,1,3.47-1.18c.85,0,6.27,5.43,6.27,6.28,0,2.05.86,10.27.86,25.13,0,14.38.54,14.38.54,28.75,0,1.21-4.8-.77-3.59-.53,2.06.42,1.78,1.78,3.83,2.19.73.12,4.31,1.36,4.31,3.54s-3.76-1.06-4.48-1.06c-2.78,0-10.64,1.11-19.46,1.11S486.51,96,483.85,96C483.13,96,486.08,96.79,486.08,94.62Zm8.42-80.23c0-7.85,2.4-7.93,10.49-7.93s18.93.08,18.93,7.93-10.83,15-18.93,15S494.5,22.25,494.5,14.39ZM557,42.2c-2,11.79-2.1,12.43-2.1,24.39,0,11.23,7.82,10,13,10,1.57,0,2.42,2.44,3,2.44,1.33,0,7.16,4.32,6.68,5.53-3,7.61-15.26,18.5-26.49,18.5-12.69,0-24.1-12.87-24.1-25.92,0-16.55,8.48-16.55,8.48-33.1,0-1.21-4.06.19-5.39,0-2.17-.32-2.48,1.94-4.65,1.64-.85-.12-4.28-4.13-4.28-6.19s3.47-5.15,4.19-5.27c12.69-3,17.12-7.58,25-15.79.73-.73,3.92-2.74,5.85-2.74s4.23,4.57,4.35,5.41c.48,3.51-.82,8.37-.69,13.68,6.38,2.41,6.52-2.36,13.35-2.42,1.21,0-1.37,3.63-1.37,6.89s2.6,2.22,1.4,2.22C569,41.38,561.13,42.32,557,42.2Zm22.57,52.42c0-2.18-1.86,2.94-1.13,2.82,2.06-.41,0-10.53,2.07-11,1.2-.24,1.35,4.14,1.35,2.93,0-15.88-3.69-15.88-3.69-31.77,0-1.21,3.5,4.13,2.29,3.89l-4.07-.73c-.73-.12,4.31-5.82,4.31-7.75s-4.73-3.73-4-4c9.9-3.86,18.8-12,28.46-18.64a19.84,19.84,0,0,1,3.48-1.18c.84,0,6.26,5.43,6.26,6.28,0,2.05.86,10.27.86,25.13,0,14.38.54,14.38.54,28.75,0,1.21-4.79-.77-3.59-.53,2.06.42,1.78,1.78,3.83,2.19.73.12,4.31,1.36,4.31,3.54s-3.76-1.06-4.48-1.06c-2.78,0-10.63,1.11-19.45,1.11S580,96,577.36,96C576.64,96,579.59,96.79,579.59,94.62ZM588,14.39c0-7.85,2.39-7.93,10.49-7.93s18.92.08,18.92,7.93-10.83,15-18.92,15S588,22.25,588,14.39ZM700.36,94.62c0,2.17,2.65-2.54,1.93-2.54-2.78,0-10.63,8.51-19.45,8.51s-16-2.49-18.73-2.49c-.73,0-5.26-1.31-5.26-3.48s3.21-7.28,3.93-7.52c1.63-.45,1.65-.4,3.28-.84,1.21-.36,6.68,4.37,6.68,3.16,0-11.9-5.55-11.9-5.55-23.8,0-11.23-1-11.21-9.12-11.21-.85,0,2-3.83,1.39-3.59-.3,19.33-1.21,19.27-1.21,38.6,0,1.21-1.43-3-.22-2.64,1.63.44,1.78-.07,3.4.37.73.25,1.72,5.29,1.72,7.47a3.69,3.69,0,0,1-3,3.35c-2.78,0-9.78,1.53-18.6,1.53s-16.8-5.61-19.58-5.61c-.72,0,.52,2.9.52.73s-1-1.53-.32-1.66c2.06-.41,2-.74,4.05-1.16,1.21-.24-.51-1.17-.51-2.38,0-15.88,6.56-15.88,6.56-31.77,0-1.21-4.2-5.61-5.41-5.85-2.05-.37-2.1-.28-4.15-.64-.73-.12-2.19,3.83-2.19,1.9s-.92-6.33-.2-6.57c9.91-3.87,23.6-1.84,33.26-8.73.37-.24-2-7.17-1.64-7.17.84,0,3.48,4.1,3.48,4.95,0,1.93-.82,5.79-.82,13,3.26-7.13,11-11.35,21.62-11.35,12.69,0,24,4.83,24,17.88,0,17.16-7.77,17.16-7.77,34.31,0,1.21,4,4.53,5.17,4.77,2.06.42,2.43-1.4,4.49-1C702.76,93.32,700.36,92.44,700.36,94.62Zm69,6.16c0,11.48-9.78,17.8-37.81,17.8-22,0-34.86,1.65-34.86-5.24,0-5,9.48-6.45,17.82-9-6.65-3-14.57-8.28-14.57-16.26,0-7,6-10.34,16-15-7.49-3.38-14-7.9-14-17.08,0-13.05,18.52-17.12,36.76-17.12,4.23,0,9.27-5.07,13.62-3.25,8.33-.37,15.86-3.21,19.13-3.21,1.69,0,6.33,4.61,6.33,6.18,0,4.23-4.76,9.37-6.33,9.37-2.42,0-1.8-1.27-5.67-1.63,2.54,3,5.17,4.7,5.17,9.29,0,13.17-18.47,24.11-36.72,24.11-2.78,0-5.72-1.71-8.62-2.56-2.29.6.13,1.29.13,3.1,0,2.66-1.29,7.41,7.41,7.41,5.43,0,5.43-1.93,10.87-1.93C761.73,85.72,769.33,90.51,769.33,100.78Zm-12.06,12.56c0-3.5-6-11.55-21.76-11.55-3.32,0-3.32,10.17-6.64,10.17-2.9,0-5.55-3.88-8.09-4.49-1.33,1.09,2.61,1.65,2.61,3.1,0,5.07,2.46,3.57,14.42,3.57C748.56,114.14,757.27,116.61,757.27,113.34ZM725.83,43.87c0,14,10.65,35.12,14.76,35.12,2.17,0-1.4-6.36-1.4-10.83,0-14-3-28.58-6.94-28.58C730.08,39.58,725.83,39.4,725.83,43.87Zm50.54,38.79c0-8.58,5.78-13.15,14.72-13.15s17.47,4.57,17.47,13.15S800,98.12,791.09,98.12,776.37,91.24,776.37,82.66Zm-751,113.57c2.3,0-1-.57-.67.4,2.42,6,10.93,7.47,13,11s1.82,5.55,5.44,5.55c5.32,0,5.1-1.92,5.1-6.4s-.05-3.46-8.63-6c-14.74-4.35-21.18-14.9-21.18-25.29,0-12,14.69-18.55,34.38-18.55,4.35,0,9-3.86,13.58-3.25,2.42.36,5.63,1.87,5.63,4.28,0,7.19,0,7.19,0,14.38,0,1-3.41,3.43-5.71,3.43s-5.93-1.18-6.29-2.15c-1.87-4.78-2.2-4.62-4.1-9.38-1.21-2.9.36-4.42-3.62-4.42s-6.61.08-6.61,4.55c0,4,2.13,3.69,10.22,6.59,13.65,4.83,14.61,14.31,14.61,23.49,0,14.14-8.56,22.64-27.89,22.64-7.13,0-12-.45-18.25-2.38-2.42-.73-2.34-.2-2.34-2.62,0-4.47-1.36-11.51-.76-17.07C21.46,194,23.24,196.23,25.41,196.23Zm81.51-34c-2,11.79-2.1,12.43-2.1,24.39,0,11.23,7.82,10,13,10,1.57,0,2.41,2.44,3,2.44,1.33,0,7.16,4.32,6.68,5.53-3,7.61-15.26,18.5-26.5,18.5C88.36,223,77,210.15,77,197.1c0-16.55,8.48-16.55,8.48-33.1,0-1.21-4.07.19-5.39-.05-2.18-.32-2.48,1.94-4.65,1.64-.85-.12-4.28-4.13-4.28-6.19s3.47-5.15,4.19-5.27c12.69-3,17.12-7.58,25-15.79.73-.73,3.92-2.74,5.85-2.74s4.22,4.57,4.35,5.41c.48,3.51-.82,8.37-.7,13.68,6.39,2.41,6.53-2.36,13.36-2.42,1.21,0-1.37,3.63-1.37,6.89s2.6,2.22,1.39,2.22C118.93,161.38,111,162.32,106.92,162.2Zm58.4-5.16c21,0,31,9.25,31,28.82,0,20.54-11.06,36.2-33.41,36.2-21,0-36.36-15.66-36.36-35.23C126.54,166.29,143,157,165.32,157Zm-.86,56.75c1.45,1.45,4.36,4.51,5.57,4.51,2.42,0,.65-6.1.65-12.5,0-12.69-4.14-39.28-9.34-44.47-1.45-1.45-1.94,1.42-3.15,1.42-2.41,0,0-2.26,0,4.14C158.22,179.58,159.26,208.59,164.46,213.79Zm100.72-47.26c0,11.48-4.41,13.25-10.09,13.25-2.18,0-5.87,5.89-8.53,4.08-2.9-2.05-3.43-5.12-5-5.12-.6,0,2-.58,1.74-.34-.12,15.58.58,15.56.58,31.14,0,1.21-3.23-2.4-2-2.28,3.87.42,3.11,7.26,7,7.71.73.12,2.57-2.53,2.57-.35s-1.5,5.63-2.22,5.63c-2.78,0-10.64-.82-23.08-.82-8.82,0-16.79-.09-19.57-.09-.73,0-4.43-2.43-4.43-4.72s2.95-6.31,3.67-6.43c2.06-.41,2.49,1.79,4.55,1.37,1.21-.24,1.14,1.19,1.14,0,0-15.94-1.83-15.94-1.83-31.89,0-1.21,2.66-3.81,1.45-4.05-2-.37-2.3,1-4.35.62-.73-.12-.38.77-.38-1.16s-.35-1.55.37-1.79c9.91-3.87,18.33-11.44,28-18.33.36-.24,1.42,4.44,1.78,4.44.85,0-.21-2.69-.21-1.84,0,1.93,5.26,14,5.26,21.81,3.62-11.72,8-23.27,15.37-23.27S265.18,159.89,265.18,166.53Zm82.21-8.94c0,2.18.63-2.7-.09-2.34-2.83,1.28,1.32,10.49-1.52,11.76-2.42,1.09-4.38-1.45-11,11.12-9,16.92-5.88,18.54-14.79,35.51-3.66,7-2.82,7.32-6.38,14.33-6.29,12.32-16.46,21.57-26.49,21.57-7.49,0-8.8-10.27-8.8-17.77s1.79-14.69,9.28-14.69c4.47,0,6.81-.51,10.32,2.39,3.53-1.58,3.4,2.74,2-.87-10.87-28.47-12.42-27.36-26.19-54.55-.6-1.21,1.2,1.93,0,1.69-1.88-.36-2,.16-3.82-.19-.73-.12-2.19-5.78-2.19-8s2.47-3.42,3.19-3.42c2.78,0,10.63-1.72,19.45-1.72,6.41,0,21.27,6.13,24.05,6.13.72,0-.65-3.16-.65-1s1.25,1.44.53,1.56c-3.57.38-3.53.71-7.09,1.07-1.21.12.52.49,1,1.58,6.68,13.6-3.23,22.15,8.32,32,4.92,4.18,9.87-8.47,12-14.57,4.47-12.8,1-19.79-2.48-21s-5.22,3.64-8.78,2.44c-.73-.25-5.75-.86-5.75-3s5.19,2.35,5.92,2.35c2.78,0,10.51-7.43,16.91-7.43s12.45,2.18,15.22,2.18C350.29,154.69,347.39,155.42,347.39,157.59Zm31.36,4.61c-2,11.79-2.09,12.43-2.09,24.39,0,11.23,7.82,10,13,10,1.57,0,2.42,2.44,3,2.44,1.33,0,7.17,4.32,6.68,5.53-3,7.61-15.25,18.5-26.49,18.5-12.69,0-24.09-12.87-24.09-25.92,0-16.55,8.48-16.55,8.48-33.1,0-1.21-4.07.19-5.4-.05-2.17-.32-2.47,1.94-4.65,1.64-.84-.12-4.27-4.13-4.27-6.19s3.46-5.15,4.19-5.27c12.68-3,17.12-7.58,25-15.79.72-.73,3.91-2.74,5.84-2.74s4.23,4.57,4.35,5.41c.48,3.51-.81,8.37-.69,13.68,6.39,2.41,6.53-2.36,13.36-2.42,1.2,0-1.38,3.63-1.38,6.89s2.61,2.22,1.4,2.22C390.76,161.38,382.86,162.32,378.75,162.2Zm46.87,15c1.82,6,3.43,16.58,6.81,20,4.6,4.59,10.65-.32,15-.32,4.95,0,8,.73,11.23-2.17,1.09-1,7.69,3.12,7.21,4.33-5,12.32-21.71,23.21-34.76,23.21-18,0-35.8-16.24-35.8-35.33,0-19.45,18.53-29.33,40-29.33,18,0,29.06,5.65,29.06,17.25,0,1.08,1.75,3.11,1.5,4-.12.48-3.47,3.17-4.19,3.17C452.16,182.36,437.1,177.52,425.62,177.15Zm14.63-12c0-4.59-4.18-10.94-7.56-10.94-3.75,0-4.17,7.32-4.17,14.57,0,2.41-2.65,4.41-2.17,6.95,1.76.83,1.24-2.91,3.17-3.14C435.08,172,440.25,171.37,440.25,165.2ZM471,214.62c0-2.18-1.93,3.13-1.21,3,2.06-.41-.06-10.88,2-11.3,1.21-.24,1.35,4.3,1.35,3.09,0-31.11-3.82-31.11-3.82-62.22,0-1.21,3.63,4.33,2.42,4.09-2.06-.38-2-.37-4.07-.73-.73-.12,4.5-6,4.5-7.95s-4.91-3.79-4.18-4c9.9-3.87,18.73-12.07,28.4-18.72a20.72,20.72,0,0,1,3.56-1.2c.85,0,6.38,5.59,6.38,6.43,0,2.06.92,10.27.92,25.13,0,29.6.56,29.6.56,59.2,0,1.21-5-.85-3.77-.61,2.06.42,1.77,1.83,3.83,2.24.72.12,4.42,1.39,4.42,3.57s-3.88-1.19-4.61-1.19c-2.78,0-10.63,1.18-19.45,1.18S471.47,216,468.69,216C468,216,471,216.79,471,214.62Zm44.34,0c0-2.18-1.93,3.13-1.21,3,2.06-.41-.06-10.88,2-11.3,1.2-.24,1.35,4.3,1.35,3.09,0-31.11-3.82-31.11-3.82-62.22,0-1.21,3.62,4.33,2.42,4.09-2.06-.38-2-.37-4.07-.73-.73-.12,4.5-6,4.5-7.95s-4.91-3.79-4.18-4c9.9-3.87,18.73-12.07,28.4-18.72a20.72,20.72,0,0,1,3.56-1.2c.84,0,6.38,5.59,6.38,6.43,0,2.06.91,10.27.91,25.13,0,29.6.57,29.6.57,59.2,0,1.21-5-.85-3.77-.61,2.06.42,1.77,1.83,3.82,2.24.73.12,4.43,1.39,4.43,3.57s-3.88-1.19-4.61-1.19c-2.78,0-10.63,1.18-19.45,1.18S515.81,216,513,216C512.3,216,515.37,216.79,515.37,214.62Zm44.47,0c0-2.18-1.86,2.94-1.14,2.82,2.06-.41,0-10.53,2.07-10.95,1.21-.24,1.36,4.14,1.36,2.93,0-15.88-3.7-15.88-3.7-31.77,0-1.21,3.5,4.13,2.29,3.89l-4.07-.73c-.72-.12,4.32-5.82,4.32-7.75s-4.73-3.73-4-4c9.91-3.86,18.8-12,28.47-18.64a19.74,19.74,0,0,1,3.47-1.18c.85,0,6.27,5.43,6.27,6.28,0,2.05.85,10.27.85,25.13,0,14.38.55,14.38.55,28.75,0,1.21-4.8-.77-3.59-.53,2,.42,1.77,1.78,3.83,2.19.72.12,4.3,1.36,4.3,3.54s-3.75-1.06-4.48-1.06c-2.78,0-10.63,1.11-19.45,1.11S560.27,216,557.61,216C556.88,216,559.84,216.79,559.84,214.62Zm8.42-80.23c0-7.85,2.4-7.93,10.49-7.93s18.92.08,18.92,7.93-10.82,15-18.92,15S568.26,142.25,568.26,134.39ZM680.6,214.62c0,2.17,2.66-2.54,1.93-2.54-2.78,0-10.63,8.51-19.45,8.51s-16-2.49-18.73-2.49c-.72,0-5.26-1.31-5.26-3.48s3.21-7.28,3.94-7.52c1.62-.45,1.65-.4,3.27-.84,1.21-.36,6.69,4.37,6.69,3.16,0-11.9-5.56-11.9-5.56-23.8,0-11.23-1-11.21-9.12-11.21-.84,0,2-3.83,1.39-3.59-.3,19.33-1.21,19.27-1.21,38.6,0,1.21-1.42-3-.21-2.64,1.62.44,1.77-.07,3.4.37.72.25,1.71,5.29,1.71,7.47a3.69,3.69,0,0,1-3,3.35c-2.78,0-9.79,1.53-18.61,1.53s-16.79-5.61-19.57-5.61c-.73,0,.52,2.9.52.73s-1.05-1.53-.32-1.66c2.06-.41,2-.74,4.05-1.16,1.2-.24-.51-1.17-.51-2.38,0-15.88,6.56-15.88,6.56-31.77,0-1.21-4.21-5.61-5.42-5.85-2.05-.37-2.09-.28-4.15-.64-.72-.12-2.18,3.83-2.18,1.9s-.93-6.33-.2-6.57c9.91-3.87,23.59-1.84,33.26-8.73.36-.24-2-7.17-1.65-7.17.85,0,3.48,4.1,3.48,4.95,0,1.93-.82,5.79-.82,13,3.27-7.13,11-11.35,21.63-11.35,12.68,0,23.95,4.83,23.95,17.88,0,17.16-7.76,17.16-7.76,34.31,0,1.21,4,4.53,5.17,4.77,2.05.42,2.43-1.4,4.48-1C683,213.32,680.6,212.44,680.6,214.62Zm69,6.16c0,11.48-9.77,17.8-37.8,17.8-22,0-34.86,1.65-34.86-5.24,0-5,9.47-6.45,17.81-9-6.65-3-14.57-8.28-14.57-16.26,0-7,6-10.34,16-15.05-7.49-3.38-14-7.9-14-17.08,0-13.05,18.52-17.12,36.77-17.12,4.23,0,9.26-5.07,13.61-3.25,8.34-.37,15.87-3.21,19.13-3.21,1.69,0,6.34,4.61,6.34,6.18,0,4.23-4.77,9.37-6.34,9.37-2.42,0-1.79-1.27-5.66-1.63,2.54,3,5.16,4.7,5.16,9.29,0,13.17-18.47,24.11-36.71,24.11-2.78,0-5.72-1.71-8.62-2.56-2.3.6.13,1.29.13,3.1,0,2.66-1.3,7.41,7.4,7.41,5.44,0,5.44-1.93,10.87-1.93C742,205.72,749.57,210.51,749.57,220.78Zm-12.05,12.56c0-3.5-6.06-11.55-21.76-11.55-3.33,0-3.33,10.17-6.65,10.17-2.9,0-5.55-3.88-8.09-4.49-1.33,1.09,2.61,1.65,2.61,3.1,0,5.07,2.46,3.57,14.42,3.57C728.8,234.14,737.52,236.61,737.52,233.34Zm-31.44-69.47c0,14,10.64,35.12,14.75,35.12,2.17,0-1.39-6.36-1.39-10.83,0-14-3-28.58-7-28.58C710.32,159.58,706.08,159.4,706.08,163.87Zm50.54,38.79c0-8.58,5.77-13.15,14.71-13.15s17.48,4.57,17.48,13.15-8.54,15.46-17.48,15.46S756.62,211.24,756.62,202.66Zm-567.69,132c0,2.17,4.12-5.08,3.39-5.08-2.78,0-10.63,13.2-19.45,13.2s-16-4.17-18.73-4.17c-.72,0-7.41-1.78-7.41-3.95s4.69-9.72,5.42-10c1.62-.45,1.66-.4,3.28-.84,1.21-.36,9.32,6.81,9.32,5.6,0-11.9-8.35-11.9-8.35-23.8,0-11.23-.2-9.19-8.3-9.19-.85,0,3.52-4.12,2.79-3.88.25,1.33-1.19,1-1.19,2.56,0,17.16,2.48,17.16,2.48,34.31,0,1.21-4.54-5.89-3.33-5.53,1.62.44.49,4.64,2.12,5.09.72.24,1.38,3.46,1.38,5.64s-1.47,7.33-2.2,7.33c-2.77,0-9.78-10.54-18.6-10.54s-16,3.51-18.73,3.51c-.72,0,.57,1.87.57-.3s-1-1.4-.29-1.64c1.62-.44.64-4.07,2.27-4.5,1.21-.37,9.28,2.15,9.28.94,0-11.9-.59-11.9-.59-23.8,0-11.23-9.18-21.61-17.28-21.61-.85,0-1.33,6.52-1.93,6.76-.3,19.33,6.15,19.32,6.15,38.65,0,1.21-8.4,7.87-7.2,8.24,1.63.43,4.65-10.68,6.27-10.24.73.24.24,5,.24,7.2s-.75,2.72-1.48,2.72c-2.77,0-9.78-5.21-18.6-5.21s-16.8,10.16-19.57,10.16c-.73,0,5.56-5.5,5.56-7.67s-5.36,2.09-4.64,2c2.06-.41,1.51-3.19,3.56-3.61,1.21-.25-2.72-2.35-2.72-3.56,0-15.88-2.06-15.88-2.06-31.77,0-1.21,4.92,2.45,3.72,2.21-2.06-.37-2-.32-4.09-.68-.73-.12,2.87-4.19,2.87-6.12s-5.23-8-4.51-8.26c9.91-3.86,18.14-8.75,27.8-15.64.36-.24,4.11,5.86,4.47,5.86.84,0,9-.33,9,.52,0,1.93-6.3,5.8-6.3,13,3.26-7.13,11-7.35,21.62-7.35,10.15,0,18.4-5.69,20.82,3,3.38-7,10.23-3.55,20.5-3.55,12.69,0,14,1.36,14,14.41,0,17.16,14,17.16,14,34.31,0,1.21-6.45-2.33-5.24-2.09,2,.42.16,9.78,2.22,10.19C191.93,337.64,188.93,332.44,188.93,334.62Zm42.36-14.21c-3.87,9.67-11.54,13.45-20.36,13.45-9.31,0-19.41-3.11-19.41-12.53,0-7.37,5.61-12.32,11.89-15.7,5.68-3,13.32-8.2,24.8-10.74,1.69-.94-2.55,1.31-2.55-.63,0-8.69,1.7-9.67-2.89-9.67-1.21,0-5.05-4.47-5.29-2.9-.43,2.9,4.31,3.59,3.9,6.49-1.21,8.7-7.68,16.08-14.44,16.08-3.75,0-10.63-5.77-10.63-10.24,0-7.73,18.48-22,37-22,16.43,0,28,9,28,20.69,0,11.12.42,11.12.42,22.23,0,9.67-3.35,8.43-.09,6.26.36-.24,1.47.41,1.71.41,1.09,0,5.65,3.36,5.65,4.09s-5.22-.91-5.95-.18c-.24.24.84,1.32.6,1.57-7.25,7.25-11.53,10.29-17.46,10.29C239.08,337.36,234.31,330.93,231.29,320.41Zm1.23.78c.17-4.29,1.87-4.39,1.87-8.68,0-2.66-8.08-2-9.53-3.43s-.89-4.1-2.09-4.1c-2.42,0,.2.64.2,4.27,0,6.76.88,8.33,4.87,8.33C229.05,317.58,232.15,321.55,232.52,321.19Zm93.85-34.66c0,11.48-4.41,13.25-10.09,13.25-2.18,0-5.87,5.89-8.53,4.08-2.9-2.05-3.43-5.12-5-5.12-.61,0,2-.58,1.74-.34-.12,15.58.57,15.56.57,31.14,0,1.21-3.22-2.4-2-2.28,3.87.42,3.11,7.26,7,7.71.72.12,2.56-2.53,2.56-.35s-1.5,5.63-2.22,5.63c-2.78,0-10.63-.82-23.08-.82-8.82,0-16.79-.09-19.57-.09-.72,0-4.43-2.43-4.43-4.72s3-6.31,3.68-6.43c2.05-.41,2.49,1.79,4.54,1.37,1.21-.24,1.14,1.19,1.14,0,0-15.94-1.83-15.94-1.83-31.89,0-1.21,2.67-3.81,1.46-4-2-.37-2.31,1-4.36.62-.73-.12-.38.77-.38-1.16s-.35-1.55.38-1.79c9.9-3.87,18.32-11.44,28-18.33.37-.24,1.42,4.44,1.78,4.44.85,0-.21-2.69-.21-1.84,0,1.93,5.26,14,5.26,21.81,3.63-11.72,8-23.27,15.37-23.27S326.37,279.89,326.37,286.53Zm91.47,48.09c0,2.17,3.07-3.25,2.34-3.25-2.78,0-12.56,9.82-23.8,9.82-10,0-19.93-3-22.71-3-.73,0-5.87-1.44-5.87-3.61s4.27-8.22,5-8.34c2-.31,1.95-.26,3.94-.59,1.21-.24,5.68,2.37,4.83,1.28-6.85-9.76-5.4-15-17.33-15.14-9.73-.09,4.59,7.87,4.59,17.59,0,1.21-3.3-3.05-2.09-2.81,1.76.41,1.43,1.79,3.19,2.2.72.12,5.36,3.63,5.36,5.81s-5.36,8.22-6.08,8.22c-2.78,0-10-4.18-18.85-4.18s-16.8-.57-19.57-.57c-.73,0-4.61-1.3-4.61-3.47s4.61,1.11,5.34,1c2.05-.41,1.66-2.41,3.71-2.83,1.21-.25,2.28-2.15,2.28-3.36,0-31.11-.36-31.11-.36-62.22,0-1.21-1.42.71-2.63.47-2.05-.37-.75-7.73-2.8-8.09-.73-.12,3.06,5,3.06,3s-3,2.47-2.25,2.23c9.91-3.87,18.6-15,28.27-21.65.36-.25.92-5.13,1.28-5.13.84,0-2,6.19-2,7,0,2.06,7.76,10.27,7.76,25.13,0,17.22-8.55,17.95-3.21,34.32,1.76,5.4,4-3.5,8.49-7,16.79-13.17,18-17.33,15.56-18.05-4.16-1.17-6.08,5.68-10.25,4.51-.72-.24,5-4.23,5-6.41s-4.72,1.05-4,1.05c2.77,0,12.68-1.3,19.09-1.3s16.06-5.17,18.84-5.17c.73,0,5.42,3.25,5.42,5.42s-3.86,5.22-4.58,5.46c-4.71,1.4-4.71,1.42-9.42,2.81-2.42.73-7.86-2.57-23.93,9.63-.21.16,4.63-1.06,4.8-.86,13.64,16.05,13.62,16,27.43,31.91,1,1.2-2.08,5.42-.87,5.66,1.87.36,2.88-4.94,4.75-4.59C421.73,327.74,417.84,332.44,417.84,334.62Zm26.69-37.47c1.82,6.05,3.43,16.58,6.81,20,4.59,4.59,10.65-.32,15-.32,5,0,8,.73,11.24-2.17,1.09-1,7.69,3.12,7.21,4.33-5,12.32-21.71,23.21-34.76,23.21-18,0-35.8-16.24-35.8-35.33,0-19.45,18.53-29.33,40-29.33,18,0,29.06,5.65,29.06,17.25,0,1.08,1.74,3.11,1.5,4-.12.48-3.47,3.17-4.19,3.17C471.07,302.36,456,297.52,444.53,297.15Zm14.63-11.95c0-4.59-4.18-10.94-7.57-10.94-3.74,0-4.16,7.32-4.16,14.57,0,2.41-2.65,4.41-2.17,6.95,1.76.83,1.24-2.91,3.17-3.14C454,292,459.16,291.37,459.16,285.2Zm57-3c-2,11.79-2.09,12.43-2.09,24.39,0,11.23,7.82,10,13,10,1.58,0,2.42,2.44,3,2.44,1.32,0,7.16,4.32,6.67,5.53-3,7.61-15.25,18.5-26.49,18.5-12.68,0-24.09-12.87-24.09-25.92,0-16.55,8.48-16.55,8.48-33.1,0-1.21-4.07.19-5.4-.05-2.17-.32-2.47,1.94-4.64,1.64-.85-.12-4.28-4.13-4.28-6.19s3.46-5.15,4.19-5.27c12.68-3,17.12-7.58,25-15.79.72-.73,3.91-2.74,5.85-2.74s4.22,4.57,4.34,5.41c.49,3.51-.81,8.37-.69,13.68,6.39,2.41,6.53-2.36,13.36-2.42,1.2,0-1.38,3.63-1.38,6.89s2.61,2.22,1.4,2.22C528.19,281.38,520.29,282.32,516.18,282.2Zm22.58,52.42c0-2.18-1.86,2.94-1.14,2.82,2.06-.41,0-10.53,2.07-10.95,1.21-.24,1.36,4.14,1.36,2.93,0-15.88-3.7-15.88-3.7-31.77,0-1.21,3.5,4.13,2.29,3.89l-4.07-.73c-.72-.12,4.32-5.82,4.32-7.75s-4.73-3.73-4-4c9.91-3.86,18.8-12,28.47-18.64a19.74,19.74,0,0,1,3.47-1.18c.85,0,6.27,5.43,6.27,6.28,0,2,.85,10.27.85,25.13,0,14.38.55,14.38.55,28.75,0,1.21-4.8-.77-3.59-.53,2.05.42,1.77,1.78,3.83,2.19.72.12,4.31,1.36,4.31,3.54s-3.76-1.06-4.49-1.06c-2.78,0-10.63,1.11-19.45,1.11S539.19,336,536.53,336C535.8,336,538.76,336.79,538.76,334.62Zm8.42-80.23c0-7.85,2.4-7.93,10.49-7.93s18.92.08,18.92,7.93-10.82,15-18.92,15S547.18,262.25,547.18,254.39Zm112.34,80.23c0,2.17,2.66-2.54,1.93-2.54-2.78,0-10.63,8.51-19.45,8.51s-16-2.49-18.73-2.49c-.72,0-5.26-1.31-5.26-3.48s3.21-7.28,3.94-7.52c1.62-.45,1.65-.4,3.27-.84,1.21-.36,6.69,4.37,6.69,3.16,0-11.9-5.55-11.9-5.55-23.8,0-11.23-1-11.21-9.13-11.21-.84,0,2-3.83,1.4-3.59-.3,19.33-1.22,19.27-1.22,38.6,0,1.21-1.42-3-.21-2.64,1.62.44,1.77-.07,3.4.37.72.25,1.71,5.29,1.71,7.47a3.69,3.69,0,0,1-3,3.35c-2.78,0-9.79,1.53-18.61,1.53s-16.79-5.61-19.57-5.61c-.73,0,.52,2.9.52.73s-1-1.53-.32-1.66c2.06-.41,2-.74,4.05-1.16,1.21-.24-.51-1.17-.51-2.38,0-15.88,6.56-15.88,6.56-31.77,0-1.21-4.21-5.61-5.42-5.85-2-.37-2.09-.28-4.15-.64-.72-.12-2.18,3.83-2.18,1.9s-.93-6.33-.2-6.57c9.91-3.87,23.59-1.84,33.26-8.73.36-.24-2-7.17-1.65-7.17.85,0,3.48,4.1,3.48,5,0,1.93-.82,5.79-.82,13,3.27-7.13,11-11.35,21.63-11.35,12.68,0,23.95,4.83,23.95,17.88,0,17.16-7.76,17.16-7.76,34.31,0,1.21,4,4.53,5.17,4.77,2,.42,2.43-1.4,4.49-1C661.93,333.32,659.52,332.44,659.52,334.62Zm69,6.16c0,11.48-9.77,17.8-37.8,17.8-22,0-34.86,1.65-34.86-5.24,0-4.95,9.47-6.45,17.81-9-6.64-3-14.56-8.28-14.56-16.26,0-7,6-10.34,16-15-7.49-3.38-14-7.9-14-17.08,0-13,18.52-17.12,36.77-17.12,4.23,0,9.26-5.07,13.61-3.25,8.34-.37,15.87-3.21,19.13-3.21,1.69,0,6.34,4.61,6.34,6.18,0,4.23-4.77,9.37-6.34,9.37-2.42,0-1.79-1.27-5.66-1.63,2.54,3,5.16,4.7,5.16,9.29,0,13.17-18.47,24.11-36.71,24.11-2.78,0-5.72-1.71-8.62-2.56-2.3.6.13,1.29.13,3.1,0,2.66-1.3,7.41,7.4,7.41,5.44,0,5.44-1.93,10.87-1.93C720.89,325.72,728.49,330.51,728.49,340.78Zm-12,12.56c0-3.5-6.06-11.55-21.76-11.55-3.33,0-3.33,10.17-6.65,10.17-2.9,0-5.55-3.88-8.09-4.49-1.33,1.09,2.61,1.65,2.61,3.1,0,5.07,2.46,3.57,14.42,3.57C707.73,354.14,716.44,356.61,716.44,353.34ZM685,283.87c0,14,10.64,35.12,14.75,35.12,2.18,0-1.39-6.36-1.39-10.83,0-14-3-28.58-6.94-28.58C689.24,279.58,685,279.4,685,283.87Zm50.54,38.79c0-8.58,5.77-13.15,14.71-13.15s17.48,4.57,17.48,13.15-8.54,15.46-17.48,15.46S735.54,331.24,735.54,322.66Z"/><path class="cls-2" d="M33.45,97c-9.11,0-15.34-3.51-20.87-9.12S.5,76.15.5,66.83c0-10,5.92-18.74,13-24.44,6.56-5.26,15.81-9.84,26.07-9.84,15.34,0,26.15,10,26.15,18,0,4.71-5.85,10.56-11.29,10.56S46.58,54.66,43.08,48c-4.47-8.46-7.7-8.38-10.36-8.38s-2.57,1.09-2.57,5.68c0,10.51,4.93,23.38,12.18,30.63C46,79.58,47.1,80.68,51,80.68c3.5,0,4.77-1.61,7.79-4.15,1.09-.85,7.42,3.7,6.93,4.91-2.06,5-8,9.78-14.08,13.12C46.67,97.3,40.19,97,33.45,97Zm73.81-61a34.7,34.7,0,0,1,23.38,8.36C137.28,49.71,145,55.75,145,65.86c0,10.7-6.12,19.42-13.33,25-6.63,5.09-16.08,9.62-26.79,9.62-10.16,0-20.42-3-26.63-8C71.57,87,66.76,76.94,66.76,66.83c0-10.7,8-17.45,15.22-23C88.61,38.76,96.55,35.93,107.26,35.93ZM107.19,93c1.45,1.45,3.58,3.35,4.79,3.35,2.41,0,2.28-4.16,2.28-10.56,0-5.87.15-14.71-2.06-23.17-2.57-9.83-7.07-17.56-9.87-20.35-1.45-1.45-1-.79-2.19-.79-2.42,0-1.91-1-1.91,5.4,0,5.87-2.93,15.34-.72,23.8C100.08,80.52,104.39,90.21,107.19,93ZM224,64.66c0,10.34-3.46,16.33-8.86,22-5.58,5.82-11.46,13.8-21.59,13.8-4.47,0-7.76-3-11.27-4-1.81,9.55,2.1,9.62,2.1,19.34,0,1.21-1.8-1.63-.59-1.38,2,.42,2,.43,4.09.84.73.13-2.09,3.44-2.09,5.74s2.2,3.55,1.48,3.55c-2.78,0-10.64.64-19.46.64S151,126,148.22,126c-.72,0-2.73-2.89-2.73-5.06s1.46-5.28,2.18-5.4c2.06-.42,2-.73,4-1.15,1.2-.24.79,2.56.79,1.35,0-14.53.77-14.53.77-29.06s-1.48-14.52-1.48-29.05c0-1.21,2.11-3.33.9-3.57-2.05-.38-2.25.72-4.31.36-.72-.12-.49.55-.49-1.38s-.24-1.65.49-1.89c9.91-3.87,18.51-11.12,28.18-18,.36-.24,1.26,3.52,1.62,3.52.85,0,.44-2,.44-1.14,0,2.05,3.35,7.35,3.35,15,4.11-9.54,10.35-16.35,18.69-16.35,7,0,16.36,1.76,21.19,8.11C225.63,47.22,224,55.85,224,64.66ZM200.89,87.25c0-5.64-.29-13.77-2.55-20.36-2.48-7.23-10.77-11-14.19-14.36-1.21-1.21-.17-2.75-1-2.75-.49,0,1.71-.39,1.22,0-.23,7.79.47,7.72.47,15.51,0,11.48,3.91,20.38,8,24.48,1.45,1.45.44,6.6,2,6.6C197.39,96.34,200.89,91.6,200.89,87.25ZM304.58,37.59c0,2.18.26-.56-.47-.2-2.83,1.29-.46,6.54-3.3,7.81-2.42,1.09-3.95.15-10.6,12.72-4.49,8.46-2.67,9.43-7.17,17.89s-4.15,8.61-8.58,17.11c-3.64,7-3.55,7-7.12,14-6.28,12.33-14.37,14.77-24.4,14.77-7.49,0-14.05-2.4-14.05-9.9s7-15.41,14.54-15.41c4.47,0,7.55,1.89,11.06,4.79,3.53-1.58,4.39,0,3.65-3.78-2-10-5.35-8.14-9.94-17.2s-4.86-8.93-9.46-18-3-9.88-7.57-18.94c-.6-1.21.44-1.53-.77-1.77-1.87-.37-2.14,1.07-4,.72-.73-.12,1.41-2.42,1.41-4.6S226,36,226.75,36c2.78,0,10.63.56,19.45.56,6.41,0,21.27-1,24.05-1,.72,0,2.09-.07,2.09,2.1s-1.68-.38-2.41-.26c-3.56.39-3.52.61-7.08,1-1.21.12-3.42,4.44-2.94,5.53,6.69,13.6,4.42,16,16,25.79,4.92,4.18-.76-6.8,1.36-12.9,4.47-12.81,7.56-15.61,4.06-16.82s-5.09,3.27-8.65,2.06c-.73-.24-.56-2.19-.56-4.37s.45-2.61,1.18-2.61c2.78,0,10.51,2.64,16.91,2.64s12.45-4.68,15.23-4.68C306.13,32.94,304.58,35.42,304.58,37.59Zm113.9,0c0,2.18.25-1.49-.47-1.12-2.48,1.26,1.09,8.22-1.38,9.5-2.29,1.21-4.45-.87-11.46,12.05-4.47,8.22-2,9.57-6.48,17.78-2.54,4.59-8.68,17-11.22,22-.73,1.45-5.22,4.14-7.64,4.14s-.26-5.91-.86-7.36c-2.3-5.07-12.07-14.83-14.73-20-3-5.74,1.78-8.8-4.68-8.74-6.8.07-.71,4.2-4.26,10-2.78,4.59-10.2,16.09-12.73,21.16-.73,1.45-3.58,4.51-6,4.51s-7-2.43-7.56-3.88c-2.3-5.07-5.71-17.72-8.25-22.92C313.05,59.07,314,58.61,306.24,43c-.6-1.21-.5.87-1.71.63-1.87-.37-.85-5.68-2.73-6-.72-.12-.23,2.2-.23,0s-1-1.68-.27-1.68c2.78,0,10.63.58,19.45.58,6.4,0,19-3,21.75-3s11.84,6.34,20.66,6.34c6.4,0,20.41-1.17,23.19-1.17.73,0-2.59-3.28-2.59-1.11s3.37,2.94,2.64,3.06c-3,.38-2.62,3.78-5.64,4.13-1.21.12-5.3-1.67-4.69-.46,5.81,12,7.59,10.92,16.87,20.44,3.3,3.37-.62-2.73.88-7.2,4.35-13.05,4-13.35.46-15-2.47-1.17-1.45-3.35-3.92-4.5-.72-.36-4.82,1.75-4.82-.43s3.11,1.11,3.83,1.11c2.78,0,9.55-.17,15.95-.17s11.84-2.42,14.62-2.42C420.67,36.11,418.48,35.42,418.48,37.59ZM356.25,51c-1.77-4.85-.86-5.69-3.21-10.29-.6-1.21-5.2,4-6.41,3.78-2.35-.38-1.75-3.47-4.13-3.47s-1.92,3.16-4.34,3.5c-1.21.12,2.1-4.9,2.71-3.69,5.81,12.2,1.21,13.69,10.76,23.24,3.54,3.54,1.78-.61,3.5-5.31C355.85,57,355.65,53.07,356.25,51Zm123.91-4.49c0,11.48-5.37,14.92-11.05,14.92-2.17,0-5.06,3.06-7.72,1.25-2.9-2.05-4.24-4.28-5.81-4.28-.6,0,.56-.27.32,0-.12,15.58.33,15.57.33,31.15,0,1.21-1.74-.75-.53-.63,3.87.42,3.43,4.33,7.3,4.77.72.12,1.88-1.24,1.88.94s-1,4.3-1.69,4.3c-2.78,0-10.63-.83-23.07-.83-8.82,0-16.8.31-19.58.31a4.1,4.1,0,0,1-2.94-3.78c0-2.3,1.79-4.69,2.51-4.81,2.06-.41,2.31.84,4.36.42,1.21-.24,1.27.52,1.27-.69,0-15.94-1-15.94-1-31.89,0-1.21,1.42-2.75.21-3-2.05-.37-2.2.41-4.25.05-.73-.12-.63.28-.63-1.65s-.1-1.77.63-2c9.9-3.87,18.75-10.73,28.42-17.62.36-.24,1.06,2.38,1.43,2.38.84,0,1.22-1.12,1.22-.27,0,1.93,2.8,13,2.8,20.85,3.63-11.72,9-22.15,16.4-22.15S480.16,39.89,480.16,46.53Zm4.6,48.09c0-2.18-1,.68-.27.56,2.06-.41.86-6.36,2.91-6.78,1.21-.24,1.4,2.23,1.4,1,0-15.88-2.17-15.88-2.17-31.77,0-1.21,1.95,1.88.74,1.64l-4.08-.73c-.73-.12,2.14-3.57,2.14-5.5s-2.68-3-2-3.28c9.91-3.87,19.57-11.19,29.23-17.84a10,10,0,0,1,2.44-.84c.85,0,5,3.59,5,4.44,0,2.05.1,10.27.1,25.13,0,14.38.32,14.38.32,28.75,0,1.21-2.71.15-1.51.39,2.06.42,1.89,1.22,4,1.63.72.12,2.93,1,2.93,3.18s-2.31.42-3,.42c-2.78,0-10.64.31-19.46.31s-16.91,1.14-19.57,1.14C483.13,96.49,484.76,96.79,484.76,94.62Zm8.29-80.23C493.05,6.54,496.9,3.9,505,3.9s16.77,2.64,16.77,10.49S513.09,28.92,505,28.92,493.05,22.25,493.05,14.39Zm65.13,28c-2,11.79-1.2,12.23-1.2,24.19,0,11.23,5.76,11.7,11,11.7,1.57,0,2.42,1.08,3,1.08,1.33,0,5.54,3.3,5.06,4.51C573,91.49,562.38,101,551.15,101c-12.69,0-22.06-10.82-22.06-23.87,0-16.55,4.85-16.55,4.85-33.1,0-1.21-2.38-.46-3.71-.7-2.17-.33-2.34,1-4.52.67-.84-.12-2.85-2.51-2.85-4.57a5.14,5.14,0,0,1,2.81-4.15c12.68-3,18.17-7.43,26-15.65a7.18,7.18,0,0,1,4.53-2c1.93,0,3.4,2.66,3.52,3.51.48,3.5-.1,8.56,0,13.87,6.39,2.41,6.65-1.37,13.48-1.43,1.21,0-.06,2.33-.06,5.59s1.28,2.82.08,2.82C569,42,562.29,42.52,558.18,42.4Zm20.09,52.22c0-2.18-1,.68-.26.56,2-.41.85-6.36,2.91-6.78,1.2-.24,1.39,2.23,1.39,1,0-15.88-2.17-15.88-2.17-31.77,0-1.21,2,1.88.75,1.64l-4.09-.73c-.72-.12,2.14-3.57,2.14-5.5s-2.68-3-2-3.28c9.91-3.87,19.57-11.19,29.24-17.84a9.68,9.68,0,0,1,2.44-.84c.84,0,5,3.59,5,4.44,0,2.05.11,10.27.11,25.13,0,14.38.32,14.38.32,28.75,0,1.21-2.72.15-1.51.39,2.05.42,1.89,1.22,3.94,1.63.73.12,2.93,1,2.93,3.18s-2.31.42-3,.42c-2.78,0-10.63.31-19.45.31S580,96.49,577.36,96.49C576.64,96.49,578.27,96.79,578.27,94.62Zm8.29-80.23c0-7.85,3.85-10.49,12-10.49s16.76,2.64,16.76,10.49-8.67,14.53-16.76,14.53S586.56,22.25,586.56,14.39Zm115,80.23c0,2.17,1.41-.36.69-.36-2.78,0-10.63,4.49-19.45,4.49s-16-1.06-18.73-1.06c-.73,0-3.42-.9-3.42-3.07s1.94-5.2,2.66-5.44c1.63-.44,1.64-.4,3.27-.84,1.21-.36,4.44,2.29,4.44,1.08,0-11.9-3.17-11.9-3.17-23.8,0-11.23-1.73-12.93-9.82-12.93-.85,0,.26-2.1-.35-1.86-.29,9.66-.69,9.6-.69,19.26s.94,9.67.94,19.33c0,1.21-1.58-1.42-.37-1,1.63.44,1.21,2,2.83,2.46.73.24,1.12,1.61,1.12,3.79s-.7,4.36-1.43,4.36c-2.78,0-9.78-4.53-18.6-4.53s-16.8,1.86-19.58,1.86c-.72,0-.38.48-.38-1.69s-.26-2.14.46-2.27c2.06-.41,1.77-1.83,3.82-2.25,1.21-.25,4.37.53,4.37-.68,0-15.88-.22-15.88-.22-31.77,0-1.21-2.3-3.72-3.5-4-2.06-.38-2.54,2.29-4.59,1.93-.73-.12-3.54-.63-3.54-2.56s3.79.35,4.51.1c9.91-3.86,17.37-13.64,27-20.53.37-.24,1.64.9,2,.9.84,0,3.21,1.16,3.21,2,0,1.93-.61,7.51-.61,14.76,3.26-7.13,11-17.8,21.68-17.8,12.69,0,18.06,9.56,18.06,22.61,0,17.16.69,17.16.69,34.31,0,1.21,1.89,2.16,3.09,2.4,2.06.42,2.48-1.69,4.54-1.28C703.3,90.67,701.6,92.44,701.6,94.62Zm69.08,6.16c0,7.14-4.44,11.53-15,16-6.4,2.72-13.59,10-24.18,10-22,0-30.78-6.53-30.78-13.42,0-5,3.83-6.93,12.16-9.47-6.64-3-11.45-7.8-11.45-15.78,0-7,6.67-9.63,16.7-14.34-7.49-3.39-8.35-8.61-8.35-17.79,0-7.31,1.16-14,8-17.74,5.35-2.92,12.86-6.15,20.89-6.15a37.53,37.53,0,0,1,13.7,2.78c8.34-.36,15.78.13,19,.13,1.69,0,4.72,2,4.72,3.58,0,4.23-3.15,9.38-4.72,9.38-2.42,0-5-2.89-8.89-3.25,2.54,3,3.47,6.31,3.47,10.9,0,7.34-3.58,15-10.32,18.85-5.36,3-13.4,1-21.48,1-2.78,0-5.63.75-8.53-.1a5.79,5.79,0,0,0-4.07,4.91c0,2.66,2.82,4.3,11.52,4.3,5.43,0,5.43-1.57,10.87-1.57,7.25,0,12.19,4.92,16.85,6.88C767.57,92.69,770.68,94.7,770.68,100.78Zm-14.76,12.56c0-3.5-4.7-9.19-20.41-9.19-3.32,0-3.32,5.81-6.64,5.81-2.9,0-5.61-2.32-8.15-2.92-1.33,1.09.67,2.08.67,3.53,0,5.07,4.46,5.92,16.42,5.92C748.56,116.49,755.92,116.61,755.92,113.34ZM727.19,43.87c0,14,9.29,32.76,13.4,32.76,2.17,0,.6-4,.6-8.47,0-14-5-29-8.94-29C730.08,39.14,727.19,39.4,727.19,43.87ZM775.9,82.66c0-8.58,6.25-14,15.19-14s16.77,5.41,16.77,14S800,98,791.09,98,775.9,91.24,775.9,82.66ZM25.41,195.25c2.3,0,.55-.21.92.75,2.41,6,8.1,8.83,10.16,12.33s3.06,5.14,6.68,5.14c5.32,0,6.54-2.23,6.54-6.71s-1-5.08-9.59-7.62c-14.74-4.35-20-13.28-20-23.67,0-6.88,6.7-11.49,13.49-15.45,5-2.92,10.86-6.9,19.21-6.9,4.35,0,9.06-.57,13.66,0a4.9,4.9,0,0,1,4.22,4.8c0,7.19-.54,7.19-.54,14.38a4.06,4.06,0,0,1-3.81,3.22c-2.29,0-4.73-1.44-5.09-2.41-1.87-4.77-.63-5.25-2.53-10-1.21-2.9-2.41-4.57-6.39-4.57s-5.83,1.33-5.83,5.8c0,4,0,7.41,8.12,10.31,13.65,4.84,17.82,10.59,17.82,19.77,0,7.81-3,13.87-9.26,18.07-5.11,3.41-11.86,5.42-20.52,5.42-7.13,0-12.44.24-18.72-1.69-2.42-.72-.3-1.74-.3-4.16,0-4.47.41-11.14,1-16.7C24.81,194.41,23.24,195.25,25.41,195.25Zm82.67-32.85c-2,11.79-1.2,12.23-1.2,24.19,0,11.23,5.76,11.7,11,11.7,1.57,0,2.41,1.08,3,1.08,1.33,0,5.54,3.3,5.06,4.51C122.9,211.49,112.28,221,101,221,88.36,221,79,210.15,79,197.1c0-16.55,4.85-16.55,4.85-33.1,0-1.21-2.38-.46-3.71-.7-2.17-.33-2.34,1-4.52.67-.84-.12-2.85-2.51-2.85-4.57a5.16,5.16,0,0,1,2.8-4.15c12.69-3,18.17-7.43,26-15.65a7.18,7.18,0,0,1,4.53-2c1.93,0,3.4,2.66,3.52,3.51.48,3.5-.1,8.56,0,13.87,6.39,2.41,6.65-1.37,13.48-1.43,1.21,0-.06,2.33-.06,5.59s1.28,2.82.07,2.82C118.93,162,112.18,162.52,108.08,162.4Zm57.24-6.47a34.67,34.67,0,0,1,23.37,8.36c6.64,5.42,14.33,11.46,14.33,21.57,0,10.7-6.11,19.42-13.32,24.95-6.63,5.09-16.08,9.62-26.8,9.62-10.16,0-20.42-3-26.63-8-6.64-5.42-11.45-15.46-11.45-25.57,0-10.7,8-17.45,15.22-23C146.67,158.76,154.61,155.93,165.32,155.93ZM165.24,213c1.45,1.45,3.58,3.35,4.79,3.35,2.42,0,2.29-4.16,2.29-10.56,0-5.87.14-14.71-2.06-23.17-2.57-9.83-7.08-17.56-9.87-20.35-1.45-1.45-1-.79-2.2-.79-2.41,0-1.9-1-1.9,5.4,0,5.87-2.93,15.34-.72,23.8C158.13,200.52,162.45,210.21,165.24,213Zm100.89-46.48c0,11.48-5.36,14.92-11,14.92-2.18,0-5.07,3.06-7.73,1.25-2.89-2-4.23-4.28-5.81-4.28-.6,0,.57-.27.33,0-.12,15.58.32,15.57.32,31.15,0,1.21-1.74-.75-.53-.63,3.87.42,3.44,4.33,7.3,4.77.73.12,1.88-1.24,1.88.94s-1,4.3-1.68,4.3c-2.78,0-10.64-.83-23.08-.83-8.82,0-16.79.31-19.57.31a4.09,4.09,0,0,1-3-3.78c0-2.3,1.79-4.69,2.52-4.81,2-.41,2.3.84,4.35.42,1.21-.24,1.28.52,1.28-.69,0-15.94-1.05-15.94-1.05-31.89,0-1.21,1.42-2.75.21-3-2-.37-2.2.41-4.25.05-.72-.12-.63.28-.63-1.65s-.1-1.77.63-2c9.91-3.87,18.75-10.73,28.42-17.62.36-.24,1.07,2.38,1.43,2.38.85,0,1.23-1.12,1.23-.27,0,1.93,2.8,13,2.8,20.85,3.62-11.72,9-22.15,16.39-22.15S266.13,159.89,266.13,166.53Zm82.61-8.94c0,2.18.26-.56-.47-.2-2.83,1.29-.46,6.54-3.3,7.81-2.42,1.09-4,.15-10.6,12.72-4.49,8.46-2.67,9.43-7.17,17.89s-4.15,8.61-8.58,17.11c-3.64,7-3.55,7-7.12,14-6.28,12.33-14.37,14.77-24.4,14.77-7.49,0-14.06-2.4-14.06-9.9s7-15.41,14.54-15.41c4.47,0,7.56,1.89,11.07,4.79,3.53-1.58,4.39,0,3.64-3.78-2-10-5.34-8.14-9.93-17.2s-4.87-8.93-9.46-18-3-9.88-7.57-18.94c-.6-1.21.44-1.53-.77-1.77-1.87-.37-2.14,1.07-4,.72-.72-.12,1.42-2.42,1.42-4.6s-1.77-1.62-1-1.62c2.78,0,10.63.56,19.45.56,6.41,0,21.27-1,24.05-1,.72,0,2.09-.07,2.09,2.1s-1.68-.38-2.41-.26c-3.56.39-3.52.61-7.08,1-1.21.12-3.42,4.44-2.94,5.53,6.69,13.6,4.41,16,16,25.79,4.92,4.18-.76-6.8,1.36-12.9,4.47-12.81,7.56-15.61,4.05-16.82s-5.08,3.27-8.64,2.06c-.73-.24-.56-2.19-.56-4.37s.45-2.61,1.18-2.61c2.78,0,10.51,2.64,16.91,2.64s12.45-4.68,15.22-4.68C350.29,152.94,348.74,155.42,348.74,157.59Zm31.17,4.81c-2,11.79-1.2,12.23-1.2,24.19,0,11.23,5.77,11.7,11,11.7,1.57,0,2.42,1.08,3,1.08,1.33,0,5.55,3.3,5.06,4.51-3,7.61-13.63,17.09-24.87,17.09-12.69,0-22.05-10.82-22.05-23.87,0-16.55,4.84-16.55,4.84-33.1,0-1.21-2.37-.46-3.7-.7-2.17-.33-2.35,1-4.52.67-.85-.12-2.86-2.51-2.86-4.57a5.14,5.14,0,0,1,2.81-4.15c12.69-3,18.17-7.43,26-15.65a7.2,7.2,0,0,1,4.53-2c1.94,0,3.4,2.66,3.52,3.51.49,3.5-.1,8.56,0,13.87,6.39,2.41,6.66-1.37,13.49-1.43,1.2,0-.06,2.33-.06,5.59S396.2,162,395,162C390.76,162,384,162.52,379.91,162.4ZM426.11,178c1.82,6,4.14,14.54,7.52,17.92,4.59,4.59,9.45,2.31,13.8,2.31,4.95,0,8.18-.47,11.44-3.37,1.08-1,6.15,2.36,5.67,3.56a36.32,36.32,0,0,1-13.36,16.07,40.27,40.27,0,0,1-20.07,6c-9.09,0-15.92-6.63-21.66-12.2s-11-12-11-21.45c0-10.09,3.52-19.79,10.3-25.47,6.3-5.28,16.2-8.71,26.55-8.71a38.16,38.16,0,0,1,19.21,5.1c6.06,3.65,10.57,10.39,10.57,17a18,18,0,0,1-.1,3.72c-.12.48-2.69,1.18-3.42,1.18C452.06,180.13,437.59,178.35,426.11,178Zm13.18-12.79c0-4.59-3.22-9.26-6.6-9.26-3.75,0-5.6,5.64-5.6,12.89,0,2.41-1.35,4.69-.87,7.23,1.76.83,1.53-1.77,3.47-2C435.25,173.46,439.29,171.37,439.29,165.2Zm30.32,49.42c0-2.18-1,.7-.27.58,2.05-.41.84-6.4,2.9-6.82,1.21-.24,1.39,2.25,1.39,1,0-10.37-2.18-10.37-2.18-20.74s-.49-10.37-.49-20.74,0-10.37,0-20.74c0-1.21,3.49-3.84,2.28-4.09-2.05-.37-2.69,3.2-4.75,2.84-.72-.12-3.4-1.41-3.4-3.34s1.91-4.52,2.64-4.76A150.89,150.89,0,0,0,498,122.12c.36-.24,1.65-1.77,2-1.77.85,0,6.39,3.9,6.39,4.74,0,2.06-2.87,10.27-2.87,25.13s-.81,14.8-.81,29.6,1.54,14.8,1.54,29.6c0,1.21-2.26,3.54-1.05,3.78,2.05.42,2.29-.7,4.34-.29.73.12.49-.47.49,1.71s.43,2.08-.3,2.08c-2.78,0-10.63.8-19.45.8s-16.79-3.43-19.57-3.43C468,214.07,469.61,216.79,469.61,214.62Zm44.34,0c0-2.18-1,.7-.27.58,2.05-.41.84-6.4,2.9-6.82,1.2-.24,1.39,2.25,1.39,1,0-10.37-2.18-10.37-2.18-20.74s-.49-10.37-.49-20.74,0-10.37,0-20.74c0-1.21,3.49-3.84,2.28-4.09-2.05-.37-2.69,3.2-4.75,2.84-.72-.12-3.4-1.41-3.4-3.34s1.91-4.52,2.64-4.76a150.89,150.89,0,0,0,30.23-15.73c.36-.24,1.65-1.77,2-1.77.84,0,6.39,3.9,6.39,4.74,0,2.06-2.87,10.27-2.87,25.13S547,165,547,179.82s1.54,14.8,1.54,29.6c0,1.21-2.26,3.54-1.05,3.78,2.05.42,2.28-.7,4.34-.29.73.12.49-.47.49,1.71s.43,2.08-.3,2.08c-2.78,0-10.63.8-19.45.8s-16.79-3.43-19.57-3.43C512.3,214.07,514,216.79,514,214.62Zm44.57,0c0-2.18-1,.68-.27.56,2.06-.41.86-6.36,2.91-6.78,1.21-.24,1.4,2.23,1.4,1,0-15.88-2.18-15.88-2.18-31.77,0-1.21,2,1.88.75,1.64l-4.08-.73c-.73-.12,2.13-3.57,2.13-5.5s-2.68-3-1.95-3.28c9.9-3.87,19.57-11.19,29.23-17.84a9.82,9.82,0,0,1,2.44-.84c.85,0,5,3.59,5,4.44,0,2.05.1,10.27.1,25.13,0,14.38.32,14.38.32,28.75,0,1.21-2.72.15-1.51.39,2.06.42,1.89,1.22,4,1.63.72.12,2.92,1,2.92,3.18s-2.3.42-3,.42c-2.78,0-10.63.31-19.45.31s-16.91,1.14-19.57,1.14C556.88,216.49,558.52,216.79,558.52,214.62Zm8.28-80.23c0-7.85,3.86-10.49,12-10.49s16.77,2.64,16.77,10.49-8.67,14.53-16.77,14.53S566.8,142.25,566.8,134.39Zm115,80.23c0,2.17,1.42-.36.69-.36-2.78,0-10.63,4.49-19.45,4.49s-16-1.06-18.73-1.06c-.72,0-3.42-.9-3.42-3.07s1.94-5.2,2.67-5.44c1.62-.44,1.64-.4,3.27-.84,1.2-.36,4.44,2.29,4.44,1.08,0-11.9-3.18-11.9-3.18-23.8,0-11.23-1.72-12.93-9.82-12.93-.84,0,.26-2.1-.34-1.86-.3,9.66-.69,9.6-.69,19.26s.94,9.67.94,19.33c0,1.21-1.58-1.42-.37-1,1.62.44,1.2,2,2.83,2.46.72.24,1.12,1.61,1.12,3.79s-.71,4.36-1.43,4.36c-2.78,0-9.79-4.53-18.61-4.53s-16.79,1.86-19.57,1.86c-.73,0-.38.48-.38-1.69s-.27-2.14.46-2.27c2.05-.41,1.76-1.83,3.82-2.25,1.21-.25,4.36.53,4.36-.68,0-15.88-.22-15.88-.22-31.77,0-1.21-2.29-3.72-3.5-4-2.05-.38-2.54,2.29-4.59,1.93-.72-.12-3.53-.63-3.53-2.56s3.78.35,4.51.1c9.9-3.86,17.36-13.64,27-20.53.36-.24,1.64.9,2,.9.85,0,3.21,1.16,3.21,2,0,1.93-.61,7.51-.61,14.76,3.26-7.13,11-17.8,21.69-17.8,12.68,0,18,9.56,18,22.61,0,17.16.69,17.16.69,34.31,0,1.21,1.89,2.16,3.1,2.4,2.05.42,2.48-1.69,4.54-1.28C683.54,210.67,681.84,212.44,681.84,214.62Zm69.08,6.16c0,7.14-4.44,11.53-15,16-6.39,2.72-13.59,10-24.17,10-22,0-30.79-6.53-30.79-13.42,0-5,3.83-6.93,12.17-9.47-6.65-3-11.46-7.8-11.46-15.78,0-7,6.68-9.63,16.71-14.34-7.5-3.39-8.35-8.61-8.35-17.79,0-7.31,1.16-14,8-17.74,5.35-2.92,12.86-6.15,20.9-6.15a37.44,37.44,0,0,1,13.69,2.78c8.34-.36,15.79.13,19,.13,1.69,0,4.72,2,4.72,3.58,0,4.23-3.15,9.38-4.72,9.38-2.42,0-5-2.89-8.88-3.25,2.53,3,3.47,6.31,3.47,10.9,0,7.34-3.58,15-10.32,18.85-5.36,3-13.4,1-21.48,1-2.78,0-5.64.75-8.54-.1a5.79,5.79,0,0,0-4.06,4.91c0,2.66,2.81,4.3,11.51,4.3,5.44,0,5.44-1.57,10.87-1.57,7.25,0,12.19,4.92,16.85,6.88C747.82,212.69,750.92,214.7,750.92,220.78Zm-14.76,12.56c0-3.5-4.7-9.19-20.4-9.19-3.33,0-3.33,5.81-6.65,5.81-2.9,0-5.6-2.32-8.14-2.92-1.33,1.09.66,2.08.66,3.53,0,5.07,4.46,5.92,16.42,5.92C728.8,236.49,736.16,236.61,736.16,233.34Zm-28.73-69.47c0,14,9.29,32.76,13.4,32.76,2.17,0,.6-4,.6-8.47,0-14-4.95-29-8.94-29C710.32,159.14,707.43,159.4,707.43,163.87Zm48.71,38.79c0-8.58,6.25-14,15.19-14s16.77,5.41,16.77,14S780.27,218,771.33,218,756.14,211.24,756.14,202.66Zm-565.34,132c0,2.17,2.25-1.82,1.52-1.82-2.78,0-10.63,7.18-19.45,7.18s-16-2-18.73-2c-.72,0-4.65-1.17-4.65-3.34s2.79-6.59,3.51-6.83c1.63-.45,1.65-.4,3.28-.84,1.21-.37,5.94,3.68,5.94,2.47,0-11.9-4.77-11.9-4.77-23.8,0-11.23-1.25-11.77-9.35-11.77-.85,0,1-2.31.3-2.07.24,1.33-.52,1.76-.52,3.33,0,17.16,1.41,17.16,1.41,34.31,0,1.21-2.49-2.8-1.28-2.43,1.62.43,1,2.82,2.61,3.27.72.24,1.2,2.18,1.2,4.36s-.94,5.27-1.67,5.27c-2.77,0-9.78-6.38-18.6-6.38s-16,2.37-18.73,2.37c-.72,0-.09.91-.09-1.26s-.47-1.84.25-2.08c1.63-.44,1.07-2.49,2.7-2.93,1.2-.37,5.92,1,5.92-.19,0-11.9-.33-11.9-.33-23.8,0-11.23-6.39-18.87-14.49-18.87-.85,0-1.64,3.78-2.24,4-.3,9.66,3.51,9.66,3.51,19.32s-7.8,9.67-7.8,19.33c0,1.21,4.82-1.26,6-.9,1.63.44,1,2.72,2.64,3.16.73.24,1,.76,1,2.94s-.35.15-1.08.15c-2.77,0-9.78,4.47-18.6,4.47s-16.8-5.82-19.57-5.82c-.73,0,1.73,3.37,1.73,1.2s-2.25-1.47-1.52-1.6c2.06-.41,1.4-3.61,3.46-4,1.21-.24-1.46,1.64-1.46.43,0-15.88,1.15-15.88,1.15-31.77,0-1.21,1.55.86.35.61-2.06-.37-1.35-4.34-3.4-4.69-.73-.12-4.93,1.42-4.93-.51s2.65-5.28,3.37-5.52c9.91-3.87,21-6,30.67-12.85.36-.24.18-4.29.54-4.29.84,0,3.21,4.29,3.21,5.14,0,1.93-.7,9.8-.7,17,3.27-7.13,11.14-20.43,21.77-20.43,10.15,0,16.28,10.67,18.7,19.37,3.38-7,12.35-13.34,22.62-13.34,12.69,0,24.81,3.87,24.81,16.92,0,17.16-2.06,17.16-2.06,34.31,0,1.21-2.62,4.63-1.41,4.87,2.06.42,3.61-7.25,5.66-6.84C194,327.57,190.8,332.44,190.8,334.62Zm40.36-13.14c-3.87,9.67-11.41,14.26-20.23,14.26-9.31,0-17.82-5-17.82-14.41,0-7.37,4.19-12,10.47-15.39a96.63,96.63,0,0,1,25.4-9.66c1.69-.94-1.45-.08-1.45-2,0-8.69-.17-11.53-4.76-11.53-1.21,0-3.61-2.4-3.85-.83-.43,2.9,2.27,3.29,1.86,6.19-1.2,8.7-7.08,14.68-13.84,14.68-3.75,0-9.13-4.28-9.13-8.75s6.64-11.87,14.8-16c5.58-2.84,13.15-5.76,20.67-5.76,16.43,0,26.62,8.73,26.62,20.45,0,11.12-1.44,11.12-1.44,22.23,0,9.67.69,9.58,4,7.4.37-.24.71-1.6.95-1.6,1.09,0,1.29,4.23,1.29,5s.61.57-.12,1.29c-.24.24-.08.4-.32.65-7.25,7.25-12.08,10.28-18,10.28C239.08,337.9,234.18,332,231.16,321.48Zm.28-.34c.18-4.28,1.08-4.34,1.08-8.63,0-2.66-5.09-3.1-6.54-4.55s-2-3.32-3.21-3.32c-2.42,0-1.39,1-1.39,4.61,0,6.76,2.47,10.2,6.46,10.2C229.05,319.45,231.08,321.51,231.44,321.14Zm95.89-34.61c0,11.48-5.37,14.92-11.05,14.92-2.18,0-5.06,3.06-7.72,1.25-2.9-2.05-4.24-4.28-5.81-4.28-.61,0,.56-.27.32,0-.12,15.58.33,15.57.33,31.15,0,1.21-1.74-.75-.53-.63,3.86.42,3.43,4.33,7.29,4.77.73.12,1.88-1.24,1.88.94s-1,4.3-1.68,4.3c-2.78,0-10.63-.83-23.08-.83-8.82,0-16.79.31-19.57.31a4.1,4.1,0,0,1-2.94-3.78c0-2.3,1.78-4.69,2.51-4.81,2.06-.41,2.3.84,4.36.42,1.2-.24,1.27.52,1.27-.69,0-15.94-1.05-15.94-1.05-31.89,0-1.21,1.42-2.75.22-3-2.06-.37-2.2.41-4.26,0-.72-.12-.62.28-.62-1.65s-.1-1.77.62-2c9.91-3.87,18.76-10.73,28.42-17.62.36-.24,1.07,2.38,1.43,2.38.85,0,1.23-1.12,1.23-.27,0,1.93,2.8,13,2.8,20.85,3.62-11.72,9-22.15,16.39-22.15S327.33,279.89,327.33,286.53Zm91.93,48.09c0,2.17,1.65-.77.92-.77-2.78,0-12.56,5.25-23.8,5.25-10,0-19.93-1.33-22.71-1.33-.73,0-3.77-1-3.77-3.15s2.54-5.79,3.27-5.91c2-.3,2-.27,4-.59,1.21-.24,3.7,1,2.86-.05-6.85-9.76-3.83-16.93-15.76-17-9.72-.08,2.63,8.67,2.63,18.39,0,1.21-1.78-1.12-.57-.88,1.75.41,1.56,1.22,3.32,1.62.72.12,3.48,2.28,3.48,4.46s-3.17,5.78-3.89,5.78c-2.78,0-10-2.75-18.85-2.75s-16.8,0-19.57,0c-.73,0-3-.9-3-3.07s2.74-.45,3.46-.58c2.06-.41,1.83-1.56,3.89-2a2.58,2.58,0,0,0,1.92-2.64c0-10.37-.21-10.37-.21-20.74s-1.64-10.37-1.64-20.74,4.27-10.37,4.27-20.74c0-1.21-2.82-4.12-4-4.36-2.05-.37-2.08-.31-4.14-.67-.72-.12-1.76,2.37-1.76.44s-.51-4.84.21-5.08c9.91-3.87,23.4-4.82,33.07-11.46.36-.25-1.06-4.83-.7-4.83.84,0,3.36,3,3.36,3.85,0,2.06-1.11,10.27-1.11,25.13,0,17.22-7.14,18.63-1.8,35,1.76,5.4,4.82-5.82,9.29-9.33,16.79-13.17,19.18-15.35,16.76-16.07-4.16-1.17-4.39-.38-8.55-1.54-.73-.24-.7,1.49-.7-.69s-.58-4.18.15-4.18c2.77,0,12.68-.05,19.09-.05s16.06,0,18.84,0c.73,0,2.66,2,2.66,4.2s-2.32,1.1-3.05,1.34c-4.71,1.4-3.53,5.36-8.24,6.76-2.42.72-4.76,1.6-20.82,13.8-.21.15-2.55-1.56-2.39-1.36,6.72,8.11,9.25,5.92,16.17,13.87s5.07,9.55,12,17.51c1,1.21,1,4.38,2.17,4.62,1.87.37,2.76-4.24,4.64-3.88C421.23,330.37,419.26,332.44,419.26,334.62ZM445,298c1.82,6,4.14,14.54,7.52,17.92,4.59,4.59,9.45,2.31,13.79,2.31,5,0,8.18-.47,11.45-3.37,1.08-1,6.15,2.36,5.67,3.56a36.32,36.32,0,0,1-13.36,16.07,40.27,40.27,0,0,1-20.07,6c-9.09,0-15.92-6.63-21.66-12.2s-11-12-11-21.45c0-10.09,3.51-19.79,10.3-25.47,6.3-5.28,16.2-8.71,26.55-8.71a38.19,38.19,0,0,1,19.21,5.1c6.06,3.65,10.57,10.39,10.57,17a18.77,18.77,0,0,1-.1,3.72c-.12.48-2.69,1.18-3.42,1.18C471,300.13,456.5,298.35,445,298ZM458.2,285.2c0-4.59-3.22-9.26-6.61-9.26-3.74,0-5.59,5.64-5.59,12.89,0,2.41-1.36,4.69-.87,7.23,1.76.83,1.53-1.77,3.47-2C454.15,293.46,458.2,291.37,458.2,285.2Zm59.14-2.8c-2,11.79-1.2,12.23-1.2,24.19,0,11.23,5.77,11.7,11,11.7,1.58,0,2.42,1.08,3,1.08,1.32,0,5.54,3.3,5,4.51-3,7.61-13.63,17.09-24.87,17.09-12.68,0-22.05-10.82-22.05-23.87,0-16.55,4.84-16.55,4.84-33.1,0-1.21-2.37-.46-3.7-.7-2.17-.33-2.34,1-4.52.67-.85-.12-2.86-2.51-2.86-4.57a5.16,5.16,0,0,1,2.81-4.15c12.69-3,18.17-7.43,26-15.65a7.21,7.21,0,0,1,4.54-2c1.93,0,3.39,2.66,3.51,3.51.49,3.5-.1,8.56,0,13.87,6.39,2.41,6.66-1.37,13.49-1.43,1.2,0-.06,2.33-.06,5.59s1.28,2.82.07,2.82C528.19,282,521.45,282.52,517.34,282.4Zm20.1,52.22c0-2.18-1,.68-.27.56,2.06-.41.86-6.36,2.91-6.78,1.21-.24,1.4,2.23,1.4,1,0-15.88-2.17-15.88-2.17-31.77,0-1.21,2,1.88.74,1.64l-4.08-.73c-.73-.12,2.13-3.57,2.13-5.5s-2.68-3-2-3.28c9.9-3.87,19.57-11.19,29.23-17.84a9.82,9.82,0,0,1,2.44-.84c.85,0,5,3.59,5,4.44,0,2,.1,10.27.1,25.13,0,14.38.32,14.38.32,28.75,0,1.21-2.72.15-1.51.39,2.06.42,1.89,1.22,3.95,1.63.72.12,2.93,1,2.93,3.18s-2.31.42-3,.42c-2.78,0-10.63.31-19.45.31s-16.91,1.14-19.57,1.14C535.8,336.49,537.44,336.79,537.44,334.62Zm8.28-80.23c0-7.85,3.86-10.49,11.95-10.49s16.77,2.64,16.77,10.49-8.67,14.53-16.77,14.53S545.72,262.25,545.72,254.39Zm115,80.23c0,2.17,1.42-.36.69-.36-2.78,0-10.63,4.49-19.45,4.49s-16-1.06-18.73-1.06c-.72,0-3.42-.9-3.42-3.07s1.94-5.2,2.67-5.44c1.62-.44,1.64-.4,3.27-.84,1.21-.36,4.44,2.29,4.44,1.08,0-11.9-3.18-11.9-3.18-23.8,0-11.23-1.72-12.93-9.82-12.93-.84,0,.26-2.1-.34-1.86-.3,9.66-.69,9.6-.69,19.26s.94,9.67.94,19.33c0,1.21-1.58-1.42-.37-1.05,1.62.44,1.2,2,2.83,2.46.72.24,1.12,1.61,1.12,3.79S620,339,619.29,339c-2.78,0-9.79-4.53-18.61-4.53s-16.79,1.86-19.57,1.86c-.73,0-.38.48-.38-1.69s-.27-2.14.46-2.27c2-.41,1.76-1.83,3.82-2.25,1.21-.25,4.36.53,4.36-.68,0-15.88-.22-15.88-.22-31.77,0-1.21-2.29-3.72-3.5-4-2-.38-2.53,2.29-4.59,1.93-.72-.12-3.53-.63-3.53-2.56s3.78.35,4.51.1c9.9-3.86,17.36-13.64,27-20.53.36-.24,1.64.9,2,.9.85,0,3.21,1.16,3.21,2,0,1.93-.61,7.51-.61,14.76,3.26-7.13,11.05-17.8,21.69-17.8,12.68,0,18,9.56,18,22.61,0,17.16.69,17.16.69,34.31,0,1.21,1.89,2.16,3.1,2.4,2.06.42,2.48-1.69,4.54-1.28C662.46,330.67,660.76,332.44,660.76,334.62Zm69.09,6.16c0,7.14-4.45,11.53-15,16-6.39,2.72-13.59,10-24.17,10-22,0-30.79-6.53-30.79-13.42,0-4.95,3.83-6.93,12.17-9.47-6.65-3-11.46-7.8-11.46-15.78,0-7,6.68-9.63,16.71-14.34-7.49-3.39-8.35-8.61-8.35-17.79,0-7.31,1.16-14,7.95-17.74,5.35-2.92,12.86-6.15,20.9-6.15a37.53,37.53,0,0,1,13.7,2.78c8.33-.36,15.78.13,19,.13,1.69,0,4.72,2,4.72,3.58,0,4.23-3.15,9.38-4.72,9.38-2.42,0-5-2.89-8.88-3.25,2.53,3,3.47,6.31,3.47,10.9,0,7.34-3.58,15-10.32,18.85-5.36,3-13.4,1-21.48,1-2.78,0-5.64.75-8.54-.1a5.79,5.79,0,0,0-4.06,4.91c0,2.66,2.81,4.3,11.51,4.3,5.44,0,5.44-1.57,10.87-1.57,7.25,0,12.19,4.92,16.85,6.88C726.74,332.69,729.85,334.7,729.85,340.78Zm-14.76,12.56c0-3.5-4.71-9.19-20.41-9.19-3.33,0-3.33,5.81-6.65,5.81-2.9,0-5.6-2.32-8.14-2.92-1.33,1.09.66,2.08.66,3.53,0,5.07,4.46,5.92,16.42,5.92C707.73,356.49,715.09,356.61,715.09,353.34Zm-28.74-69.47c0,14,9.29,32.76,13.4,32.76,2.18,0,.6-4,.6-8.47,0-14-5-29-8.93-29C689.24,279.14,686.35,279.4,686.35,283.87Zm48.71,38.79c0-8.58,6.25-14,15.19-14s16.77,5.41,16.77,14S759.19,338,750.25,338,735.06,331.24,735.06,322.66Z"/><path class="cls-3" d="M33.45,98.24c-18,0-31.05-12.56-31.05-31.41,0-19.33,15.82-32.38,37.21-32.38,15.34,0,23.92,8.09,23.92,16.07,0,4.71-3.62,8.34-9.06,8.34s-9.43-3.39-12.93-10c-4.47-8.46-6.16-9.91-8.82-9.91s-4.35,1.81-4.35,6.4c0,10.51,5.44,24.65,12.69,31.9,3.62,3.62,6,4.71,9.91,4.71,3.5,0,6-1.33,9.06-3.86,1.08-.85,4.1,1.32,3.62,2.53C59.91,89.66,48.43,98.24,33.45,98.24Zm73.81-63.79c21,0,35.53,11.84,35.53,31.41,0,20.54-15.59,32.38-37.94,32.38-21,0-35.52-11.84-35.52-31.41C69.33,46.29,84.91,34.45,107.26,34.45Zm1,57.51A4.93,4.93,0,0,0,112,93.77c2.41,0,4.47-1.57,4.47-8,0-12.69-7.37-39.87-12.57-45.07a4.93,4.93,0,0,0-3.74-1.81c-2.42,0-4.47,1.57-4.47,8C95.67,59.58,103,86.76,108.23,92Zm117.56-27.3c0,21-12.33,33.1-32.26,33.1a44,44,0,0,1-11.84-1.45v19.45c0,1.21.24,1.45,1.45,1.69l4.11.85c.72.12,1,.36,1,2.66s-.24,2.53-1,2.53c-2.78,0-10.64-.84-19.46-.84s-16.79.84-19.57.84c-.72,0-1-.36-1-2.53s.25-2.54,1-2.66l4.11-.85c1.21-.24,1.45-.48,1.45-1.69V57.65c0-1.21-.24-1.33-1.45-1.57l-4.11-.73c-.72-.12-1-.36-1-2.29s.25-2.06,1-2.3c9.91-3.87,19.33-9.79,29-16.67a1.6,1.6,0,0,1,1-.36c.85,0,3.15,1,3.15,1.81,0,2.05-.49,5-.49,12.56,4.11-9.54,11.48-13.65,19.82-13.65C213.22,34.45,225.79,44.6,225.79,64.66Zm-26.7,22.59c0-11.84-6.53-30.09-13.05-36.61a3.85,3.85,0,0,0-2.9-1.45,2.31,2.31,0,0,0-1.45.48V65.26c0,11.48,4.83,22.59,8.94,26.7a5.49,5.49,0,0,0,4.23,1.93C197.39,93.89,199.09,91.6,199.09,87.25ZM306.37,37.59c0,2.18-.24,2.3-1,2.66l-5.68,2.54c-2.42,1.08-3.39,2.29-10,14.86l-18,33.83-7.13,14c-6.28,12.33-11.6,18.61-21.63,18.61-7.49,0-13.05-4.83-13.05-12.33s6-12.92,13.54-12.92a18.81,18.81,0,0,1,12.08,4.59L259.86,97,232.31,42.67c-.6-1.21-.6-1.45-1.81-1.7l-3.75-.72c-.72-.12-1-.48-1-2.66s.24-2.54,1-2.54c2.78,0,10.63.85,19.45.85,6.41,0,21.27-.85,24.05-.85.72,0,1,.37,1,2.54s-.24,2.54-1,2.66l-7.13.72c-1.21.13-1.33.61-.85,1.7l13.41,27.18,4.23-12.2c4.47-12.81,4-13.9.49-15.11l-7.13-2.41c-.73-.24-1-.36-1-2.54s.24-2.54,1-2.54c2.78,0,10.51.85,16.91.85s12.45-.85,15.23-.85C306.13,35.05,306.37,35.42,306.37,37.59Zm114.54,0c0,2.18-.24,2.3-1,2.66L415,42.79c-2.3,1.21-3.51,1.93-10.51,14.86l-8.94,16.43C393,78.67,386.23,90.87,383.69,96c-.72,1.45-1.44,1.81-3.86,1.81S376.57,97.4,376,96c-2.29-5.08-7.85-16.8-10.51-22l-5.92-11.48-7.13,11.6c-2.78,4.59-9.42,16.79-12,21.87-.72,1.45-1.45,1.81-3.86,1.81s-3.15-.36-3.75-1.81c-2.3-5.08-8-16.8-10.51-22L306.85,42.67c-.6-1.21-.6-1.45-1.81-1.7l-3.74-.72c-.73-.12-1-.48-1-2.66s.24-2.54,1-2.54c2.78,0,10.63.85,19.45.85,6.4,0,19-.85,21.75-.85s11.84.85,20.66.85c6.4,0,20.41-.85,23.19-.85.73,0,1,.37,1,2.54s-.24,2.54-1,2.66l-6,.72c-1.21.13-1.45.49-.84,1.7l11.59,23.92,3-8.94c4.34-13,3.74-13.53.24-15.23l-5-2.29c-.72-.36-1-.36-1-2.54s.24-2.54,1-2.54c2.78,0,9.55.85,15.95.85s11.84-.85,14.62-.85C420.67,35.05,420.91,35.42,420.91,37.59ZM354,51.85l-4.71-9.18c-.6-1.21-.84-1.45-2.05-1.7l-4.71-.72-4.84.72c-1.21.13-1.21.49-.6,1.7l11.6,24.4L352,57.65C352.77,55.83,353.37,53.9,354,51.85Zm127.47-5.32c0,11.48-6.65,17.16-12.33,17.16-2.17,0-4-.73-6.64-2.54-2.9-2-5.32-3.14-6.89-3.14a2.76,2.76,0,0,0-1.57.36V89.54c0,1.21.24,1.45,1.45,1.57l7.73.85c.73.12,1,.48,1,2.66s-.24,2.54-1,2.54c-2.78,0-10.63-.85-23.07-.85-8.82,0-16.8.85-19.58.85-.72,0-1-.25-1-2.54s.24-2.54,1-2.66l4.11-.85c1.21-.24,1.45-.36,1.45-1.57V57.65c0-1.21-.24-1.33-1.45-1.57l-4.11-.73c-.72-.12-1-.36-1-2.29s.24-2.06,1-2.3c9.91-3.87,19.34-9.79,29-16.67a1.6,1.6,0,0,1,1-.36c.84,0,3.14,1,3.14,1.81,0,1.93-.48,11.72-.48,19.57,3.62-11.72,10.39-20.66,17.76-20.66S481.44,39.89,481.44,46.53Zm1.44,48.09c0-2.18.25-2.54,1-2.66l4.11-.85c1.21-.24,1.45-.48,1.45-1.69V57.65c0-1.21-.24-1.33-1.45-1.57l-4.11-.73c-.72-.12-1-.36-1-2.29s.25-2.06,1-2.3c9.91-3.87,20.66-10,30.33-16.67a1.6,1.6,0,0,1,1-.36c.85,0,3.14,1,3.14,1.81,0,2.05-1,10.27-1,25.13V89.42c0,1.21.24,1.45,1.45,1.69l4.11.85c.72.12,1,.48,1,2.66s-.24,2.54-1,2.54c-2.78,0-10.64-.85-19.46-.85s-16.91.85-19.57.85C483.13,97.16,482.88,96.79,482.88,94.62Zm8.22-80.23a13.9,13.9,0,0,1,27.79,0,13.9,13.9,0,1,1-27.79,0Zm68.62,28.28V66.59c0,11.23,3,14,8.22,14,1.57,0,2.42-.72,3-.72,1.33,0,3.38,1.93,2.9,3.14a24.82,24.82,0,0,1-22.71,15.22c-12.69,0-19.34-8.09-19.34-21.14V44c0-1.21-.12-1.33-1.45-1.58l-4.34-.6c-.85-.12-1-.36-1-2.42s.24-2.53,1-2.65c12.68-3,19.57-7.25,27.42-15.47.73-.72.85-1,2.78-1s2.3.13,2.42,1a137.62,137.62,0,0,1,1,14.14l13.66-.12c1.2,0,1.69.6,1.69,3.86s-.49,3.63-1.69,3.63C569,42.79,563.83,42.79,559.72,42.67Zm16.68,52c0-2.18.24-2.54,1-2.66l4.11-.85c1.21-.24,1.45-.48,1.45-1.69V57.65c0-1.21-.24-1.33-1.45-1.57l-4.11-.73c-.72-.12-1-.36-1-2.29s.24-2.06,1-2.3c9.91-3.87,20.66-10,30.33-16.67a1.6,1.6,0,0,1,1-.36c.84,0,3.14,1,3.14,1.81,0,2.05-1,10.27-1,25.13V89.42c0,1.21.24,1.45,1.45,1.69l4.11.85c.72.12,1,.48,1,2.66s-.24,2.54-1,2.54c-2.78,0-10.63-.85-19.45-.85s-16.92.85-19.58.85C576.64,97.16,576.4,96.79,576.4,94.62Zm8.21-80.23a13.9,13.9,0,0,1,27.79,0,13.9,13.9,0,1,1-27.79,0ZM703.25,94.62c0,2.17-.24,2.54-1,2.54-2.78,0-10.63-.85-19.45-.85s-16,.85-18.73.85c-.73,0-1-.37-1-2.54s.24-2.42,1-2.66l3.26-.85c1.21-.36,1.45-.48,1.45-1.69V65.62c0-11.23-2.66-15.22-10.75-15.22a8.87,8.87,0,0,0-2.66.36V89.42c0,1.21.24,1.33,1.45,1.69l3.26.85c.73.24,1,.48,1,2.66s-.24,2.54-1,2.54c-2.78,0-9.78-.85-18.6-.85s-16.8.85-19.58.85c-.72,0-1-.37-1-2.54s.24-2.54,1-2.66l4.11-.85c1.21-.24,1.45-.48,1.45-1.69V57.65c0-1.21-.24-1.33-1.45-1.57l-4.11-.73c-.72-.12-1-.36-1-2.29s.24-2.06,1-2.3c9.91-3.87,19.33-9.79,29-16.67a1.6,1.6,0,0,1,1-.36c.84,0,3.14,1,3.14,1.81,0,1.93-.49,5.92-.49,13.17,3.27-7.13,11-14.26,21.63-14.26,12.69,0,20.54,7.61,20.54,20.66V89.42c0,1.21.24,1.45,1.45,1.69l4.11.85C703,92.08,703.25,92.44,703.25,94.62Zm69.23,6.16c0,11.48-12.93,23.32-41,23.32-22,0-30.2-3.87-30.2-10.76,0-5,5.8-6.16,14.14-8.69-6.65-3-10.88-8.58-10.88-16.56,0-7,6.53-8.7,16.55-13.41-7.49-3.38-13.77-9.54-13.77-18.72,0-13.05,13-21.39,31.29-21.39a36.07,36.07,0,0,1,13.41,2.78c8.34-.36,16.07-.6,19.34-.6,1.69,0,1.93.24,1.93,1.81,0,4.23-.36,6.28-1.93,6.28-2.42,0-6.17-.36-10-.72a17.51,17.51,0,0,1,4.1,11.47c0,13.17-13,21.87-31.29,21.87a30.48,30.48,0,0,1-8.58-1.21,4.07,4.07,0,0,0-3.38,4c0,2.66,2.18,3.87,10.88,3.87H744C761.73,84.11,772.48,90.51,772.48,100.78Zm-18.36,12.56c0-3.5-2.9-6-18.61-6h-6.64a36,36,0,0,1-8.22-.84,5.31,5.31,0,0,0-1.93,4.11c0,5.07,7.13,9.06,19.09,9.06C748.56,119.63,754.12,116.61,754.12,113.34ZM729,43.87c0,14,7.49,29.6,11.6,29.6,2.17,0,3.26-.84,3.26-5.31,0-14-7.61-29.6-11.6-29.6C730.08,38.56,729,39.4,729,43.87Zm46.27,38.79c0-8.58,6.89-15.11,15.83-15.11s15.83,6.53,15.83,15.11-6.89,15.1-15.83,15.1S775.26,91.24,775.26,82.66ZM25.41,194c2.3,0,2.66.24,3,1.21a109.79,109.79,0,0,0,6.41,14.13c2,3.51,4.71,4.59,8.33,4.59,5.32,0,8.46-2.65,8.46-7.13s-2.29-7.24-10.87-9.78C26,192.63,22.39,185.86,22.39,175.47c0-12,10.76-21.62,30.45-21.62a104.32,104.32,0,0,1,13.41,1.08c2.42.37,2.66.61,2.66,3v14.38c0,1-.24,1.21-2.54,1.21s-2.66-.24-3-1.21l-3.74-9.54c-1.21-2.9-3.27-4.59-7.25-4.59s-7.25,1.69-7.25,6.16c0,4,1.93,6,10,8.94,13.66,4.83,18,12,18,21.14,0,14.14-11.12,23.8-30.45,23.8a57.29,57.29,0,0,1-18.48-2.78c-2.42-.72-2.66-1-2.66-3.38,0-4.47.6-11.36,1.21-16.91C22.88,194.2,23.24,194,25.41,194Zm84.21-31.29v23.92c0,11.23,3,14,8.22,14,1.57,0,2.41-.72,3-.72,1.33,0,3.38,1.93,2.9,3.14A24.82,24.82,0,0,1,101,218.24c-12.68,0-19.33-8.09-19.33-21.14V164c0-1.21-.12-1.33-1.45-1.58l-4.35-.6c-.84-.12-1-.36-1-2.42s.24-2.53,1-2.65c12.69-3,19.58-7.25,27.43-15.47.72-.72.85-1,2.78-1s2.29.13,2.42,1a137.62,137.62,0,0,1,1,14.14l13.65-.12c1.21,0,1.7.6,1.7,3.86s-.49,3.63-1.7,3.63C118.93,162.79,113.73,162.79,109.62,162.67Zm55.7-8.22c21,0,35.52,11.84,35.52,31.41,0,20.54-15.59,32.38-37.94,32.38-21,0-35.52-11.84-35.52-31.41C127.38,166.29,143,154.45,165.32,154.45Zm1,57.51a4.92,4.92,0,0,0,3.74,1.81c2.42,0,4.47-1.57,4.47-8,0-12.69-7.37-39.87-12.56-45.07a4.93,4.93,0,0,0-3.75-1.81c-2.41,0-4.47,1.57-4.47,8C153.72,179.58,161.09,206.76,166.29,212Zm101.12-45.43c0,11.48-6.64,17.16-12.32,17.16-2.18,0-4-.73-6.65-2.54-2.9-2.05-5.31-3.14-6.89-3.14a2.78,2.78,0,0,0-1.57.36v31.17c0,1.21.25,1.45,1.45,1.57l7.74.85c.72.12,1,.48,1,2.66s-.24,2.54-1,2.54c-2.78,0-10.64-.85-23.08-.85-8.82,0-16.79.85-19.57.85-.73,0-1-.25-1-2.54s.24-2.54,1-2.66l4.11-.85c1.2-.24,1.45-.36,1.45-1.57V177.65c0-1.21-.25-1.33-1.45-1.57l-4.11-.73c-.73-.12-1-.36-1-2.29s.24-2.06,1-2.3c9.9-3.87,19.33-9.79,29-16.67a1.65,1.65,0,0,1,1-.36c.85,0,3.14,1,3.14,1.81,0,1.93-.48,11.72-.48,19.57,3.62-11.72,10.39-20.66,17.76-20.66S267.41,159.89,267.41,166.53Zm83.12-8.94c0,2.18-.24,2.3-1,2.66l-5.67,2.54c-2.42,1.08-3.39,2.29-10,14.86l-18,33.83-7.13,14c-6.29,12.33-11.6,18.61-21.63,18.61-7.49,0-13.05-4.83-13.05-12.33s6-12.92,13.53-12.92a18.84,18.84,0,0,1,12.09,4.59L304,217l-27.55-54.36c-.61-1.21-.61-1.45-1.81-1.7l-3.75-.72c-.72-.12-1-.48-1-2.66s.25-2.54,1-2.54c2.78,0,10.63.85,19.45.85,6.41,0,21.27-.85,24.05-.85.72,0,1,.37,1,2.54s-.24,2.54-1,2.66l-7.13.72c-1.21.13-1.33.61-.85,1.7l13.41,27.18,4.23-12.2c4.47-12.81,4-13.9.48-15.11l-7.12-2.41c-.73-.24-1-.36-1-2.54s.24-2.54,1-2.54c2.78,0,10.51.85,16.91.85s12.45-.85,15.22-.85C350.29,155.05,350.53,155.42,350.53,157.59Zm30.93,5.08v23.92c0,11.23,3,14,8.21,14,1.57,0,2.42-.72,3-.72,1.33,0,3.39,1.93,2.9,3.14a24.81,24.81,0,0,1-22.71,15.22c-12.69,0-19.33-8.09-19.33-21.14V164c0-1.21-.12-1.33-1.45-1.58l-4.35-.6c-.85-.12-1-.36-1-2.42s.24-2.53,1-2.65c12.69-3,19.57-7.25,27.43-15.47.72-.72.84-1,2.77-1s2.3.13,2.42,1a137.28,137.28,0,0,1,1,14.14L395,155.3c1.21,0,1.69.6,1.69,3.86s-.48,3.63-1.69,3.63C390.76,162.79,385.57,162.79,381.46,162.67Zm45.31,16.43c1.81,6,5.07,11.84,8.45,15.22,4.59,4.59,7.86,5.8,12.21,5.8,4.95,0,8.45-2.05,11.72-5,1.08-1,4.1,1.33,3.62,2.53-4.95,12.33-18.61,20.54-31.66,20.54-18,0-31.89-12.32-31.89-31.41,0-19.45,14.62-32.38,36.12-32.38,18,0,27.79,8.7,27.79,20.3a12.89,12.89,0,0,1-.24,3.14,1.25,1.25,0,0,1-1.33.84C452,179.22,438.24,179.46,426.77,179.1ZM438,165.2c0-4.59-1.93-7-5.31-7-3.75,0-7.5,3.38-7.5,10.63a42.32,42.32,0,0,0,.85,7.61l3.87-.48C435.46,175.35,438,171.37,438,165.2Zm29.72,49.42c0-2.18.24-2.54,1-2.66l4.11-.85c1.2-.24,1.45-.48,1.45-1.69V147.2c0-1.21-.25-1.33-1.45-1.57l-4.11-.72c-.73-.13-1-.37-1-2.3s.24-2.05,1-2.3c9.9-3.86,20.66-10,30.32-16.67a1.65,1.65,0,0,1,1-.36c.85,0,3.14,1,3.14,1.81,0,2.06-1,10.27-1,25.13v59.2c0,1.21.25,1.45,1.45,1.69l4.11.85c.73.12,1,.48,1,2.66s-.24,2.54-1,2.54c-2.78,0-10.63-.85-19.45-.85s-16.79.85-19.57.85C468,217.16,467.72,216.79,467.72,214.62Zm44.34,0c0-2.18.24-2.54,1-2.66l4.1-.85c1.21-.24,1.45-.48,1.45-1.69V147.2c0-1.21-.24-1.33-1.45-1.57l-4.1-.72c-.73-.13-1-.37-1-2.3s.24-2.05,1-2.3c9.9-3.86,20.66-10,30.32-16.67a1.62,1.62,0,0,1,1-.36c.84,0,3.14,1,3.14,1.81,0,2.06-1,10.27-1,25.13v59.2c0,1.21.25,1.45,1.45,1.69l4.11.85c.73.12,1,.48,1,2.66s-.24,2.54-1,2.54c-2.78,0-10.63-.85-19.45-.85s-16.79.85-19.57.85C512.3,217.16,512.06,216.79,512.06,214.62Zm44.58,0c0-2.18.24-2.54,1-2.66l4.11-.85c1.2-.24,1.45-.48,1.45-1.69V177.65c0-1.21-.25-1.33-1.45-1.57l-4.11-.73c-.73-.12-1-.36-1-2.29s.24-2.06,1-2.3c9.9-3.87,20.66-10,30.32-16.67a1.65,1.65,0,0,1,1-.36c.85,0,3.14,1,3.14,1.81,0,2.05-1,10.27-1,25.13v28.75c0,1.21.25,1.45,1.45,1.69l4.11.85c.73.12,1,.48,1,2.66s-.24,2.54-1,2.54c-2.78,0-10.63-.85-19.45-.85s-16.91.85-19.57.85C556.88,217.16,556.64,216.79,556.64,214.62Zm8.22-80.23a13.9,13.9,0,1,1,13.89,13.9A13.52,13.52,0,0,1,564.86,134.39ZM683.5,214.62c0,2.17-.24,2.54-1,2.54-2.78,0-10.63-.85-19.45-.85s-16,.85-18.73.85c-.72,0-1-.37-1-2.54s.24-2.42,1-2.66l3.27-.85c1.2-.36,1.45-.48,1.45-1.69v-23.8c0-11.23-2.66-15.22-10.76-15.22a9,9,0,0,0-2.66.36v38.66c0,1.21.25,1.33,1.45,1.69l3.27.85c.72.24,1,.48,1,2.66s-.24,2.54-1,2.54c-2.78,0-9.79-.85-18.61-.85s-16.79.85-19.57.85c-.73,0-1-.37-1-2.54s.24-2.54,1-2.66l4.11-.85c1.2-.24,1.45-.48,1.45-1.69V177.65c0-1.21-.25-1.33-1.45-1.57l-4.11-.73c-.73-.12-1-.36-1-2.29s.24-2.06,1-2.3c9.9-3.87,19.33-9.79,29-16.67a1.65,1.65,0,0,1,1-.36c.85,0,3.14,1,3.14,1.81,0,1.93-.48,5.92-.48,13.17,3.26-7.13,11-14.26,21.63-14.26,12.68,0,20.53,7.61,20.53,20.66v34.31c0,1.21.25,1.45,1.45,1.69l4.11.85C683.26,212.08,683.5,212.44,683.5,214.62Zm69.23,6.16c0,11.48-12.93,23.32-41,23.32-22,0-30.21-3.87-30.21-10.76,0-5,5.8-6.16,14.14-8.69-6.65-3-10.87-8.58-10.87-16.56,0-7,6.52-8.7,16.55-13.41-7.49-3.38-13.77-9.54-13.77-18.72,0-13.05,13-21.39,31.29-21.39a36.07,36.07,0,0,1,13.41,2.78c8.33-.36,16.07-.6,19.33-.6,1.69,0,1.93.24,1.93,1.81,0,4.23-.36,6.28-1.93,6.28-2.42,0-6.16-.36-10-.72a17.47,17.47,0,0,1,4.11,11.47c0,13.17-13.05,21.87-31.29,21.87a30.48,30.48,0,0,1-8.58-1.21,4.06,4.06,0,0,0-3.38,4c0,2.66,2.17,3.87,10.87,3.87h10.87C742,204.11,752.73,210.51,752.73,220.78Zm-18.37,12.56c0-3.5-2.9-6-18.6-6h-6.65a35.87,35.87,0,0,1-8.21-.84,5.32,5.32,0,0,0-1.94,4.11c0,5.07,7.13,9.06,19.09,9.06C728.8,239.63,734.36,236.61,734.36,233.34Zm-25.13-69.47c0,14,7.49,29.6,11.6,29.6,2.17,0,3.26-.84,3.26-5.31,0-14-7.61-29.6-11.6-29.6C710.32,158.56,709.23,159.4,709.23,163.87Zm46.27,38.79c0-8.58,6.89-15.11,15.83-15.11s15.83,6.53,15.83,15.11-6.89,15.1-15.83,15.1S755.5,211.24,755.5,202.66Zm-562.21,132c0,2.17-.24,2.54-1,2.54-2.78,0-10.63-.85-19.45-.85s-16,.85-18.73.85c-.72,0-1-.37-1-2.54s.25-2.42,1-2.66l3.26-.85c1.21-.36,1.45-.48,1.45-1.69v-23.8c0-11.23-2.65-15.22-10.75-15.22a12.25,12.25,0,0,0-3,.36,24.54,24.54,0,0,1,.36,4.35v34.31c0,1.21.24,1.33,1.45,1.69l3.26.85c.73.24,1,.48,1,2.66s-.24,2.54-1,2.54c-2.77,0-9.78-.85-18.6-.85s-16,.85-18.73.85c-.72,0-1-.37-1-2.54s.25-2.42,1-2.66l3.26-.85c1.21-.36,1.45-.48,1.45-1.69v-23.8c0-11.23-2.65-15.22-10.75-15.22a8.92,8.92,0,0,0-2.66.36v38.66c0,1.21.24,1.33,1.45,1.69l3.26.85c.73.24,1,.48,1,2.66s-.24,2.54-1,2.54c-2.77,0-9.78-.85-18.6-.85s-16.8.85-19.57.85c-.73,0-1-.37-1-2.54s.24-2.54,1-2.66l4.1-.85c1.21-.24,1.45-.48,1.45-1.69V297.65c0-1.21-.24-1.33-1.45-1.57l-4.1-.73c-.73-.12-1-.36-1-2.29s.24-2.06,1-2.3c9.9-3.87,19.33-9.79,29-16.67a1.62,1.62,0,0,1,1-.36c.84,0,3.14,1,3.14,1.81,0,1.93-.48,5.92-.48,13.17,3.26-7.13,11-14.26,21.62-14.26,10.15,0,17.28,4.95,19.7,13.65a24.43,24.43,0,0,1,21.62-13.65c12.69,0,20.54,7.61,20.54,20.66v34.31c0,1.21.24,1.45,1.45,1.69l4.11.85C193.05,332.08,193.29,332.44,193.29,334.62ZM231,322.9c-3.86,9.66-11.23,15.34-20,15.34-9.31,0-15.71-7.49-15.71-16.91,0-7.37,2.29-11.6,8.58-15,5.68-3,14.74-5.68,26.21-8.22v-3.87c0-8.69-2.65-14-7.24-14-1.21,0-1.7.36-1.94,1.93L220,288c-1.21,8.7-6.29,12.81-13.05,12.81-3.75,0-7.13-2.3-7.13-6.77,0-7.73,15-19.57,33.47-19.57,16.43,0,24.16,6.52,24.16,18.24v22.23c0,9.67,1.93,9.91,5.2,7.74.36-.24.48-.37.72-.37,1.09,0,2.9,2.66,2.9,3.39s-.48,1.08-1.21,1.81l-.48.48c-7.25,7.25-12.44,10.27-18.37,10.27C239.08,338.24,234,333.41,231,322.9Zm-1-1.81v-8.58a8.23,8.23,0,0,0-2.53-6,7.42,7.42,0,0,0-4.71-2.3c-2.42,0-3.51,1.45-3.51,5.08,0,6.76,4.59,12.68,8.58,12.68A2.81,2.81,0,0,0,230,321.09Zm98.59-34.56c0,11.48-6.64,17.16-12.32,17.16-2.18,0-4-.73-6.65-2.54-2.9-2-5.31-3.14-6.88-3.14a2.74,2.74,0,0,0-1.57.36v31.17c0,1.21.24,1.45,1.45,1.57l7.73.85c.72.12,1,.48,1,2.66s-.25,2.54-1,2.54c-2.78,0-10.63-.85-23.08-.85-8.82,0-16.79.85-19.57.85-.72,0-1-.25-1-2.54s.25-2.54,1-2.66l4.11-.85c1.21-.24,1.45-.36,1.45-1.57V297.65c0-1.21-.24-1.33-1.45-1.57l-4.11-.73c-.72-.12-1-.36-1-2.29s.25-2.06,1-2.3c9.91-3.87,19.33-9.79,29-16.67a1.6,1.6,0,0,1,1-.36c.85,0,3.14,1,3.14,1.81,0,1.93-.48,11.72-.48,19.57,3.63-11.72,10.39-20.66,17.76-20.66S328.6,279.89,328.6,286.53Zm92.55,48.09c0,2.17-.24,2.54-1,2.54-2.78,0-12.56-.85-23.8-.85-10,0-19.93.85-22.71.85-.73,0-1-.37-1-2.54s.24-2.54,1-2.66l4-.6c1.21-.25,1.09-.73.25-1.82L364.24,310v19.45c0,1.21.24,1.45,1.45,1.69l3.51.85c.72.12,1,.48,1,2.66s-.24,2.54-1,2.54c-2.78,0-10-.85-18.85-.85s-16.8.85-19.57.85c-.73,0-1-.37-1-2.54s.24-2.54,1-2.66l4.1-.85c1.21-.24,1.45-.48,1.45-1.69V267.2c0-1.21-.24-1.33-1.45-1.57l-4.1-.72c-.73-.13-1-.37-1-2.3s.24-2.05,1-2.3c9.9-3.86,20.66-10,30.32-16.67a1.62,1.62,0,0,1,1-.36c.84,0,3.14,1,3.14,1.81,0,2.06-1,10.27-1,25.13v34.44l8.94-7c16.8-13.17,17-14.38,14.62-15.11l-8.33-2.29c-.73-.24-1-.48-1-2.66s.24-2.54,1-2.54c2.77,0,12.68.85,19.09.85s16.06-.85,18.84-.85c.73,0,1,.37,1,2.54s-.24,2.42-1,2.66L408,283c-2.42.72-5.56,2.17-21.63,14.38l-.36.36,27.67,31.77a3.89,3.89,0,0,0,2.78,1.7l3.74.72C420.91,332.08,421.15,332.44,421.15,334.62Zm24.52-35.52c1.82,6,5.08,11.84,8.46,15.22,4.59,4.59,7.86,5.8,12.2,5.8,5,0,8.46-2.05,11.72-4.95,1.09-1,4.11,1.33,3.63,2.53C476.73,330,463.07,338.24,450,338.24c-18,0-31.89-12.32-31.89-31.41,0-19.45,14.62-32.38,36.12-32.38,18,0,27.79,8.7,27.79,20.3a12.89,12.89,0,0,1-.24,3.14,1.25,1.25,0,0,1-1.33.84C470.93,299.22,457.15,299.46,445.67,299.1Zm11.24-13.9c0-4.59-1.93-7-5.32-7-3.74,0-7.49,3.38-7.49,10.63a42.32,42.32,0,0,0,.85,7.61l3.87-.48C454.37,295.35,456.91,291.37,456.91,285.2Zm62-2.53v23.92c0,11.23,3,14,8.21,14,1.58,0,2.42-.72,3-.72,1.32,0,3.38,1.93,2.89,3.14a24.81,24.81,0,0,1-22.71,15.22c-12.68,0-19.33-8.09-19.33-21.14V284c0-1.21-.12-1.33-1.45-1.58l-4.35-.6c-.85-.12-1-.36-1-2.42s.25-2.53,1-2.65c12.69-3,19.57-7.25,27.43-15.47.72-.72.84-1,2.78-1s2.29.13,2.41,1a134.51,134.51,0,0,1,1,14.14l13.65-.12c1.21,0,1.69.6,1.69,3.86s-.48,3.63-1.69,3.63C528.19,282.79,523,282.79,518.89,282.67Zm16.67,51.95c0-2.18.24-2.54,1-2.66l4.11-.85c1.2-.24,1.45-.48,1.45-1.69V297.65c0-1.21-.25-1.33-1.45-1.57l-4.11-.73c-.73-.12-1-.36-1-2.29s.24-2.06,1-2.3c9.91-3.87,20.66-10,30.32-16.67a1.65,1.65,0,0,1,1-.36c.85,0,3.14,1,3.14,1.81,0,2-1,10.27-1,25.13v28.75c0,1.21.24,1.45,1.45,1.69l4.1.85c.73.12,1,.48,1,2.66s-.24,2.54-1,2.54c-2.78,0-10.63-.85-19.45-.85s-16.91.85-19.57.85C535.8,337.16,535.56,336.79,535.56,334.62Zm8.22-80.23a13.9,13.9,0,1,1,13.89,13.9A13.52,13.52,0,0,1,543.78,254.39Zm118.64,80.23c0,2.17-.24,2.54-1,2.54-2.78,0-10.63-.85-19.45-.85s-16,.85-18.73.85c-.72,0-1-.37-1-2.54s.24-2.42,1-2.66l3.27-.85c1.21-.36,1.45-.48,1.45-1.69v-23.8c0-11.23-2.66-15.22-10.76-15.22a8.85,8.85,0,0,0-2.65.36v38.66c0,1.21.24,1.33,1.45,1.69l3.26.85c.72.24,1,.48,1,2.66s-.24,2.54-1,2.54c-2.78,0-9.79-.85-18.61-.85s-16.79.85-19.57.85c-.73,0-1-.37-1-2.54s.24-2.54,1-2.66l4.11-.85c1.2-.24,1.45-.48,1.45-1.69V297.65c0-1.21-.25-1.33-1.45-1.57l-4.11-.73c-.73-.12-1-.36-1-2.29s.24-2.06,1-2.3c9.91-3.87,19.33-9.79,29-16.67a1.6,1.6,0,0,1,1-.36c.85,0,3.14,1,3.14,1.81,0,1.93-.48,5.92-.48,13.17,3.26-7.13,11-14.26,21.63-14.26,12.68,0,20.54,7.61,20.54,20.66v34.31c0,1.21.24,1.45,1.45,1.69l4.1.85C662.18,332.08,662.42,332.44,662.42,334.62Zm69.23,6.16c0,11.48-12.93,23.32-41,23.32-22,0-30.2-3.87-30.2-10.76,0-4.95,5.79-6.16,14.13-8.69-6.64-3-10.87-8.58-10.87-16.56,0-7,6.52-8.7,16.55-13.41-7.49-3.38-13.77-9.54-13.77-18.72,0-13,13-21.39,31.29-21.39a36.07,36.07,0,0,1,13.41,2.78c8.34-.36,16.07-.6,19.33-.6,1.69,0,1.93.24,1.93,1.81,0,4.23-.36,6.28-1.93,6.28-2.42,0-6.16-.36-10-.72a17.47,17.47,0,0,1,4.11,11.47c0,13.17-13,21.87-31.29,21.87a30.48,30.48,0,0,1-8.58-1.21,4.06,4.06,0,0,0-3.38,4c0,2.66,2.17,3.87,10.87,3.87h10.87C720.89,324.11,731.65,330.51,731.65,340.78Zm-18.37,12.56c0-3.5-2.9-6-18.6-6H688a35.87,35.87,0,0,1-8.21-.84,5.32,5.32,0,0,0-1.94,4.11c0,5.07,7.13,9.06,19.09,9.06C707.73,359.63,713.28,356.61,713.28,353.34Zm-25.13-69.47c0,14,7.49,29.6,11.6,29.6,2.18,0,3.26-.84,3.26-5.31,0-14-7.61-29.6-11.59-29.6C689.24,278.56,688.15,279.4,688.15,283.87Zm46.27,38.79c0-8.58,6.89-15.11,15.83-15.11s15.83,6.53,15.83,15.11-6.89,15.1-15.83,15.1S734.42,331.24,734.42,322.66Z"/></g></g></svg>